<?xml version="1.0" encoding="UTF-8"?>
<svg xmlns="http://www.w3.org/2000/svg" width="251.985" height="40.805" viewBox="0 0 251.985 40.805">
  <g id="Group_3017" data-name="Group 3017" transform="translate(2762.031 -627.519)">
    <path id="Path_7160" data-name="Path 7160" d="M-2543.352,668.373c-6.071.284-11.263-2-16.009-5.527-.573-.426-1.808-.814-.629-1.822.807-.69,1.167-2.461,2.937-1.009a21.817,21.817,0,0,0,12.047,4.9,15.807,15.807,0,0,0,8.854-1.559c3.142-1.6,4.843-4.17,4.593-6.967-.225-2.512-2.244-4.562-5.764-5.362-4.512-1.026-9.081-1.8-13.618-2.722a22.009,22.009,0,0,1-3.033-.913c-3.549-1.278-6.1-3.479-6.319-7.508-.231-4.2,1.3-7.644,5.017-9.8,7.377-4.274,17.6-2.065,23.457,1.624.594.375,1,.815.262,1.366-.819.611-.932,2.52-2.736,1.394a20.929,20.929,0,0,0-8.542-2.921,17.3,17.3,0,0,0-8.548.716c-3.2,1.229-4.952,3.678-4.849,6.707.091,2.726,1.69,4.751,5.131,5.583,4.568,1.11,9.227,1.83,13.841,2.763a17.053,17.053,0,0,1,5.112,1.82c6.508,3.708,6.219,12.317-.556,16.6C-2535.8,667.7-2538.519,668.373-2543.352,668.373Z" transform="translate(-109.48 -0.127)" fill="#fff"></path>
    <path id="Path_7161" data-name="Path 7161" d="M-2738.445,627.859a148.225,148.225,0,0,0-13.037,13.136c.418.562.892.365,1.289.295,8.715-1.553,16.6,3.856,17.3,11.865.711,8.239-5.8,14.846-14.714,14.919-10.653.088-17.245-9.619-13.231-19.474,2-4.9,5.527-8.672,9.084-12.425,1.883-1.985,3.96-3.8,5.729-5.873C-2744.019,627.938-2741.7,626.936-2738.445,627.859Zm-8.92,16.632c-5.908-.042-10.552,4.3-10.547,9.877a10.066,10.066,0,0,0,10.137,9.838c5.792.077,10.449-4.193,10.54-9.665a9.986,9.986,0,0,0-2.953-7.154,9.985,9.985,0,0,0-7.178-2.9Z" transform="translate(0)" fill="#fff"></path>
    <path id="Path_7162" data-name="Path 7162" d="M-2397.39,685.212c-2.556.736-4.16.127-5.253-2.241-1.076-2.329-2.691-4.409-3.817-6.719a3.735,3.735,0,0,0-4.1-2.329c-4.055.183-4.06.055-4.06,4.043,0,1.975-.087,3.955.03,5.924.083,1.416-.555,1.645-1.749,1.6-1.062-.038-1.856.038-1.842-1.495.071-7.748.058-15.5.006-23.246-.009-1.278.516-1.511,1.622-1.5,3.571.048,7.146-.062,10.714.048a7.115,7.115,0,0,1,6.967,5.768,6.7,6.7,0,0,1-3.981,8.024c-1.293.6-1.108,1.017-.538,1.957C-2401.364,678.4-2399.4,681.791-2397.39,685.212Zm-12.491-14.395a36,36,0,0,0,3.86-.025,4.123,4.123,0,0,0,3.919-3.979,4.007,4.007,0,0,0-3.586-4.253,32.4,32.4,0,0,0-4.978-.215c-3.946-.027-3.946-.009-3.946,3.864,0,4.671,0,4.671,4.735,4.606Z" transform="translate(-186.78 -17.237)" fill="#fff"></path>
    <path id="Path_7163" data-name="Path 7163" d="M-2602.805,672.284c0,3.877-.049,7.755.028,11.63.026,1.272-.312,1.682-1.628,1.672s-1.888-.231-1.828-1.736c.126-3.111-.009-6.233.062-9.35.03-1.289-.4-1.71-1.7-1.682-3.648.077-7.3.095-10.948-.008-1.4-.04-1.6.529-1.577,1.717.064,3.116-.03,6.235.046,9.35.031,1.246-.274,1.736-1.62,1.7-1.262-.029-1.9-.135-1.883-1.7q.129-11.4.006-22.8c-.015-1.524.61-1.7,1.888-1.731,1.4-.039,1.645.534,1.6,1.749-.076,2.43.018,4.865-.043,7.3-.025.993.291,1.31,1.29,1.3,3.8-.05,7.6-.061,11.406,0,1.211.02,1.567-.4,1.527-1.578-.081-2.43.059-4.869-.057-7.3-.077-1.6.875-1.382,1.887-1.452,1.18-.082,1.585.283,1.561,1.512C-2602.851,664.681-2602.805,668.483-2602.805,672.284Z" transform="translate(-75.059 -17.289)" fill="#fff"></path>
    <path id="Path_7164" data-name="Path 7164" d="M-2308.513,672.388c0-3.8.046-7.6-.025-11.4-.025-1.3.209-1.9,1.717-1.873,4.789.094,9.58.085,14.369,0,1.387-.024,1.59.52,1.629,1.729.043,1.345-.581,1.441-1.645,1.427-3.573-.046-7.148.039-10.72-.046-1.392-.034-2,.183-1.994,1.816.005,5.442-.073,5.442,5.37,5.442,1.217,0,2.438.063,3.648-.016,1.333-.087,2.032.11,2.034,1.782,0,1.883-1.162,1.373-2.1,1.386-2.432.034-4.87.087-7.3-.018-1.34-.058-1.682.424-1.626,1.682.092,2.125.094,4.258,0,6.383-.058,1.3.349,1.708,1.666,1.678,3.648-.085,7.3.017,10.948-.054,1.264-.025,1.729.313,1.724,1.649-.006,1.3-.548,1.464-1.645,1.454-4.79-.046-9.582-.085-14.37.018-1.526.033-1.729-.575-1.7-1.863C-2308.471,679.837-2308.513,676.112-2308.513,672.388Z" transform="translate(-246.336 -17.162)" fill="#fff"></path>
    <path id="Path_7165" data-name="Path 7165" d="M-2359.183,672.124c0-3.8.038-7.6-.023-11.4-.018-1.148.256-1.6,1.5-1.588q7.412.1,14.826,0c1.294-.016,1.423.563,1.485,1.645.074,1.283-.437,1.52-1.564,1.5-3.65-.052-7.3.046-10.948-.052-1.5-.039-1.928.451-1.938,1.939-.036,5.324-.091,5.324,5.247,5.323,1.293,0,2.592.077,3.876-.022,1.324-.1,1.883.219,1.89,1.712s-.734,1.507-1.823,1.486c-2.508-.046-5.02.05-7.526-.042-1.315-.049-1.71.4-1.655,1.682.092,2.124.1,4.258,0,6.383-.062,1.333.442,1.69,1.706,1.665,3.648-.067,7.3,0,10.948-.04,1.158-.014,1.781.147,1.8,1.581.016,1.512-.734,1.515-1.83,1.507-4.79-.032-9.582-.062-14.37.018-1.331.022-1.658-.4-1.632-1.675C-2359.134,679.878-2359.183,676-2359.183,672.124Z" transform="translate(-218.81 -17.173)" fill="#fff"></path>
    <path id="Path_7166" data-name="Path 7166" d="M-2470.618,673.76c0-3.194-.06-6.39.028-9.581.039-1.423-.274-2.056-1.866-1.951-2.2.143-4.412-.021-6.615.06-1.164.042-1.4-.435-1.365-1.474.033-1.016.049-1.713,1.426-1.7q10.157.091,20.31,0c1.377-.013,1.37.663,1.43,1.675.077,1.25-.4,1.547-1.57,1.5-2.05-.087-4.115.087-6.158-.059-1.645-.118-2.2.282-2.163,2.064.125,6.233.046,12.471.049,18.706,0,1.25.365,2.489-1.8,2.471-2.278-.016-1.682-1.424-1.694-2.583C-2470.645,679.843-2470.618,676.8-2470.618,673.76Z" transform="translate(-152.96 -17.162)" fill="#fff"></path>
    <path id="Path_7167" data-name="Path 7167" d="M-2674.764,659.411c3.342,0,6.685.059,10.022-.031,1.211-.032,1.558.319,1.561,1.507,0,1.211-.236,1.782-1.614,1.7-2.12-.118-4.259.075-6.375-.067-1.567-.106-1.865.5-1.851,1.921.067,6.377.007,12.755.049,19.131.008,1.278-.022,2.041-1.736,2.054-1.79.013-1.71-.874-1.7-2.1.027-6.225-.072-12.453.062-18.675.042-1.969-.594-2.483-2.437-2.333-1.883.154-3.8-.009-5.692.05-1.151.036-1.82-.112-1.8-1.563.02-1.334.468-1.658,1.721-1.628C-2681.3,659.46-2678.03,659.41-2674.764,659.411Z" transform="translate(-41.148 -17.306)" fill="#fff"></path>
    <path id="Path_7168" data-name="Path 7168" d="M-2249.722,659.158c3.271,0,6.544.058,9.813-.027,1.351-.036,1.854.3,1.873,1.753.02,1.657-.979,1.378-1.938,1.379-2.055,0-4.117.114-6.16-.035-1.591-.116-1.9.5-1.884,1.943.067,6.39.017,12.78.041,19.166,0,1.211.112,2.1-1.69,2.137-1.889.035-1.655-.971-1.653-2.125.011-6.39-.034-12.78.038-19.166.016-1.462-.327-2.051-1.9-1.951-2.2.135-4.415-.042-6.616.067-1.287.063-1.466-.468-1.476-1.579-.011-1.158.265-1.614,1.515-1.584C-2256.417,659.209-2253.068,659.158-2249.722,659.158Z" transform="translate(-272.01 -17.17)" fill="#fff"></path>
  </g>
</svg>
