<?xml version="1.0" encoding="UTF-8"?>
<svg xmlns="http://www.w3.org/2000/svg" xmlns:xlink="http://www.w3.org/1999/xlink" width="81.815" height="54.437" viewBox="0 0 81.815 54.437">
  <defs>
    <clipPath id="clip-path">
      <rect id="Rectangle_1797" data-name="Rectangle 1797" width="81.815" height="54.437" fill="none"></rect>
    </clipPath>
  </defs>
  <g id="Group_2138" data-name="Group 2138" clip-path="url(#clip-path)">
    <path id="Path_5734" data-name="Path 5734" d="M312.752,176.981h-3.567a2.392,2.392,0,0,0-.518-1.243,2.685,2.685,0,0,0-1.933-.579,2.885,2.885,0,0,0-1.845.443,1.144,1.144,0,0,0-.4.911c0,.538.752.973,2.24,1.3a35.4,35.4,0,0,1,3.669.948c.2.074.369.135.493.2a3.449,3.449,0,0,1,2.265,3.251,4.119,4.119,0,0,1-2.2,3.877c-.185.1-.357.185-.555.269a8.331,8.331,0,0,1-3.3.615,9.051,9.051,0,0,1-4.509-.985,4.258,4.258,0,0,1-1.615-1.579,4.442,4.442,0,0,1-.538-2.224h3.741a1.771,1.771,0,0,0,.69,1.489,3.844,3.844,0,0,0,2.326.542,2.807,2.807,0,0,0,1.847-.518,1.154,1.154,0,0,0,.468-.911c0-.579-.74-1.033-2.2-1.354a23.974,23.974,0,0,1-4.136-1.121,3.433,3.433,0,0,1-2.24-3.287,4.3,4.3,0,0,1,1.169-3.064,5.792,5.792,0,0,1,4.42-1.564,9.236,9.236,0,0,1,3.877.689,1.346,1.346,0,0,1,.235.124,3.9,3.9,0,0,1,1.584,1.515,4.509,4.509,0,0,1,.532,2.252" transform="translate(-231.343 -132.749)" fill="#fff"></path>
    <path id="Path_5735" data-name="Path 5735" d="M341.052,152.2a.293.293,0,0,0-.049-.185.265.265,0,0,0-.159-.122,1.8,1.8,0,0,0-.235-.038h-.565v.689h.565a.525.525,0,0,0,.332-.1.31.31,0,0,0,.111-.246m.3-.37a.539.539,0,0,1,.11.332.6.6,0,0,1-.185.443.711.711,0,0,1-.479.21.621.621,0,0,1,.2.122l.344.456.269.454h-.444l-.21-.369a2.087,2.087,0,0,0-.344-.493.16.16,0,0,0-.049-.037l-.294-.085h-.222v.984h-.37v-2.313h.8c.05,0,.1.011.135.011a1.33,1.33,0,0,1,.444.061.538.538,0,0,1,.3.221" transform="translate(-261.552 -116.681)" fill="#fff"></path>
    <path id="Path_5736" data-name="Path 5736" d="M338.4,149.245a1.786,1.786,0,0,0-.234-.9,1.736,1.736,0,0,0-.665-.665,1.9,1.9,0,0,0-.875-.234h-.011a1.894,1.894,0,0,0-.875.234,1.724,1.724,0,0,0-.666.665,1.75,1.75,0,0,0,0,1.786,1.67,1.67,0,0,0,.653.652,1.764,1.764,0,0,0,.886.235h.011a1.775,1.775,0,0,0,.888-.235,1.659,1.659,0,0,0,.652-.652,1.776,1.776,0,0,0,.234-.886m.357,0a2.106,2.106,0,0,1-.284,1.059,1.862,1.862,0,0,1-.787.787,2.06,2.06,0,0,1-1.06.285h-.011a2.053,2.053,0,0,1-1.058-.285,1.864,1.864,0,0,1-.789-.787,2.1,2.1,0,0,1-.283-1.059,2.134,2.134,0,0,1,.283-1.084,1.984,1.984,0,0,1,.8-.787,2.329,2.329,0,0,1,1.047-.283h.011a2.189,2.189,0,0,1,1.047.283,1.9,1.9,0,0,1,.8.787,2.136,2.136,0,0,1,.284,1.084" transform="translate(-257.556 -113.261)" fill="#fff"></path>
    <path id="Path_5737" data-name="Path 5737" d="M184.692,18.589,194.8,35.43H178.56l-9.651-16.09L161.6,7.164l7.312-4.395,4.6-2.77Z" transform="translate(-124.433)" fill="#fff"></path>
    <path id="Path_5738" data-name="Path 5738" d="M244.966,180.414v6.907h-3.361v-.764a7.191,7.191,0,0,1-3.939,1.17h-.038a7.312,7.312,0,1,1,0-14.625h.038a7.2,7.2,0,0,1,3.939,1.169v-.8h3.361Zm-3.361.763v-1.526a4.027,4.027,0,0,0-3.939-3.251h-.038a4.02,4.02,0,1,0,0,8.04h.038a4.038,4.038,0,0,0,3.939-3.262" transform="translate(-177.37 -133.29)" fill="#fff"></path>
    <path id="Path_5739" data-name="Path 5739" d="M176.35,165.743v6.907h-3.36v-.764a7.223,7.223,0,0,1-3.94,1.17h-.036a7.312,7.312,0,1,1,0-14.625h.036a7.236,7.236,0,0,1,3.94,1.169v-5.551h3.36Zm-3.36.764V164.98a4.029,4.029,0,0,0-3.94-3.251h-.036a4.02,4.02,0,1,0,0,8.04h.036a4.038,4.038,0,0,0,3.94-3.262" transform="translate(-124.536 -118.619)" fill="#fff"></path>
    <path id="Path_5740" data-name="Path 5740" d="M120.852,71.006l3.963,6.625H108.59L99.58,62.637l-.394-.653.394-.234,11.535-6.944Z" transform="translate(-76.374 -42.201)" fill="#fff"></path>
    <rect id="Rectangle_1795" data-name="Rectangle 1795" width="3.656" height="14.219" transform="translate(32.229 39.811)" fill="#fff"></rect>
    <rect id="Rectangle_1796" data-name="Rectangle 1796" width="3.656" height="3.213" transform="translate(32.229 35.503)" fill="#fff"></rect>
    <path id="Path_5741" data-name="Path 5741" d="M83.869,165.744v6.907H80.51v-.764a7.258,7.258,0,0,1-3.952,1.17h-.036a7.312,7.312,0,1,1,0-14.625h.036A7.272,7.272,0,0,1,80.51,159.6v-5.551h3.36Zm-3.359.764v-1.526a4.031,4.031,0,0,0-3.952-3.251h-.036a4.02,4.02,0,1,0,0,8.04h.036a4.038,4.038,0,0,0,3.952-3.262" transform="translate(-53.315 -118.62)" fill="#fff"></path>
    <path id="Path_5742" data-name="Path 5742" d="M51.561,114.34l3.323,5.541H38.647l-1.822-3.041,11.928-7.164Z" transform="translate(-28.356 -84.451)" fill="#fff"></path>
    <path id="Path_5743" data-name="Path 5743" d="M14.588,180.414v6.907h-3.36v-.764a7.269,7.269,0,0,1-3.952,1.17H7.237a7.312,7.312,0,1,1,0-14.625h.038a7.28,7.28,0,0,1,3.952,1.169v-.8h3.36Zm-3.36.763v-1.526A4.031,4.031,0,0,0,7.276,176.4H7.237a4.02,4.02,0,1,0,0,8.04h.038a4.038,4.038,0,0,0,3.952-3.262" transform="translate(0.025 -133.29)" fill="#fff"></path>
  </g>
</svg>
