<?xml version="1.0" encoding="UTF-8"?>
<svg xmlns="http://www.w3.org/2000/svg" width="113.714" height="23.654" viewBox="0 0 113.714 23.654">
  <g id="Group_2151" data-name="Group 2151" transform="translate(-793.679 -836.189)">
    <path id="Path_17971" data-name="Path 17971" d="M548.7,187.466a2.07,2.07,0,1,1-2.07,2.07A2.07,2.07,0,0,1,548.7,187.466Zm27.9,7.6c.105-3.472,5.682-3.789,8.916-1.831l-1.195,2.348a4.761,4.761,0,0,0-3.3-1.035c-1.164.095-1.289,1.361.6,1.314,2.945-.074,4.534,1.474,4.378,3.463-.252,3.212-5.313,4.528-9.752,1.711l1.632-2.388a6.31,6.31,0,0,0,3.7,1.194c1.285-.154,1.934-1.19-.359-1.433-3.12-.331-4.678-1.33-4.617-3.343Zm-24.334,7.514v-9.892h3.6v1.39c1.4-2.318,6.831-2.352,6.831,1.269v7.237H559.11l-.04-4.974c-.016-1.989-.739-2.176-1.715-2.066-.809.091-1.534.385-1.534,2.066v4.974Zm-5.44-10.07h3.741v10.07h-3.741v-10.07Zm-18.244,10.07v-9.892h3.6v1.39c1.079-1.8,5.238-2.678,6.433.113,1.7-2.539,6.663-2.421,6.661,1.028l0,7.365h-3.817v-5.412c0-1.454-.248-1.593-1.47-1.539-1,.044-1.228.873-1.231,1.813l-.024,5.138h-3.591l-.04-4.974c-.016-1.989-.452-2.159-1.43-2.066s-1.39.226-1.39,2.066v4.974Zm-6.493-10.627a5.313,5.313,0,1,1-5.313,5.313,5.313,5.313,0,0,1,5.313-5.313Zm0,3.423a1.891,1.891,0,1,1-1.887,1.89,1.891,1.891,0,0,1,1.887-1.89Zm-19.915,7.2V188.575h4.165a22.725,22.725,0,0,1,3.385.216,7.563,7.563,0,0,1,2.283.665,7.125,7.125,0,0,1,2.854,2.535,7,7,0,0,1,0,7.175,7.141,7.141,0,0,1-2.857,2.535,7.647,7.647,0,0,1-2.306.673,26.366,26.366,0,0,1-3.745.209Zm4.158-3.7v-6.607h1.7a8.063,8.063,0,0,1,1.384.1,2.79,2.79,0,0,1,.933.314,3.1,3.1,0,0,1,1.165,1.2,3.748,3.748,0,0,1,0,3.385,3.107,3.107,0,0,1-1.167,1.2,2.817,2.817,0,0,1-.942.317,9.344,9.344,0,0,1-1.529.1ZM569,191.956a5.313,5.313,0,1,1-5.313,5.313A5.313,5.313,0,0,1,569,191.956Zm0,3.423a1.891,1.891,0,1,1-1.891,1.891A1.891,1.891,0,0,1,569,195.379Zm6.421-7.889a2.01,2.01,0,0,1,1.837,1.193,2.881,2.881,0,0,1,.114,1.805c-.225.886-.972,1.753-2.546,2.574l-.435-.588a4.528,4.528,0,0,0,.753-.716c.229-.346-.07-.261-.322-.34a2.011,2.011,0,0,1,.6-3.929Z" transform="translate(321.387 656.883)" fill="#fff" fill-rule="evenodd"></path>
    <path id="Path_17973" data-name="Path 17973" d="M213.8,56.221l7.32-7.294a.786.786,0,0,1,1.111,0l6.906,6.93a.786.786,0,0,1,0,1.111l-7.322,7.3Zm6.559-1.3a1.965,1.965,0,1,1-.579,1.389A1.965,1.965,0,0,1,220.359,54.925Z" transform="translate(587.961 787.493)" fill="#fff" fill-rule="evenodd"></path>
    <path id="Path_17974" data-name="Path 17974" d="M94.5,183.188a1.965,1.965,0,1,1-.579,1.389A1.965,1.965,0,0,1,94.5,183.188Zm-5.751.018a1.965,1.965,0,1,1-.579,1.389,1.965,1.965,0,0,1,.579-1.389Zm-3.127.731,7.32-7.294,8.016,8.043-7.32,7.294a.786.786,0,0,1-1.111,0l-6.906-6.932a.786.786,0,0,1,0-1.111Z" transform="translate(708.292 667.599)" fill="#fff" fill-rule="evenodd"></path>
    <path id="Path_17975" data-name="Path 17975" d="M251.328,407.445v-.982h-.374v-.171h.942v.171h-.376v.982Zm.7,0V406.29h.283l.291.921.282-.921h.277v1.155h-.176v-.967l-.3.967h-.174l-.31-.982v.982Z" transform="translate(553.144 452.399)" fill="#fff"></path>
  </g>
</svg>
