<?xml version="1.0" encoding="UTF-8"?>
<svg xmlns="http://www.w3.org/2000/svg" id="Edfundo-logo_1_" data-name="Edfundo-logo (1)" width="191.138" height="51.115" viewBox="0 0 191.138 51.115">
  <path id="Path_75028" data-name="Path 75028" d="M104.422,1.234A11.793,11.793,0,0,0,104.246,0C104.334.441,104.378.837,104.422,1.234Z" transform="translate(-33.084)" fill="#fff"></path>
  <path id="Path_75029" data-name="Path 75029" d="M38.162,12.378c-.441.044-35.38,8.944-35.38,8.944-.132.044-.22.044-.352.088H2.385A3.94,3.94,0,0,0,.71,22.556a3.43,3.43,0,0,0,.617,4.8l5.155,3.965a1.928,1.928,0,0,0,1.1.353,1.771,1.771,0,0,0,1.454-.749L12.871,25.9l.044-.044L14.589,23.7l2.2,1.674a2.788,2.788,0,0,1,.485,3.877L12.3,35.774,7.98,41.326A2.788,2.788,0,0,0,8.465,45.2l2.2,1.674,2.511-3.26,6.785-8.724a2.757,2.757,0,0,1,4.274,3.481l-3.216,4.142L18.6,45.688a2.788,2.788,0,0,0,.485,3.877l.044.044,2.115,1.63,2.511-3.26,7.711-9.958a2.8,2.8,0,0,1,3.789-.4l2.2,1.674-1.674,2.159-4.935,6.389A1.792,1.792,0,0,0,30.5,48.9a1.859,1.859,0,0,0,.7,1.454l4.935,3.965a3.419,3.419,0,0,0,5.508-2.511V51.46s.088-35.909,0-36.35a2.778,2.778,0,0,0-1.278-2.027A2.6,2.6,0,0,0,38.162,12.378Z" transform="translate(0 -3.919)" fill="#fff"></path>
  <path id="Path_75030" data-name="Path 75030" d="M38.162,12.378c-.441.044-35.38,8.944-35.38,8.944-.132.044-.22.044-.352.088H2.385A3.94,3.94,0,0,0,.71,22.556a3.43,3.43,0,0,0,.617,4.8l5.155,3.965a1.928,1.928,0,0,0,1.1.353,1.771,1.771,0,0,0,1.454-.749L12.871,25.9l.044-.044L14.589,23.7l2.2,1.674a2.788,2.788,0,0,1,.485,3.877L12.3,35.774,7.98,41.326A2.788,2.788,0,0,0,8.465,45.2l2.2,1.674,2.511-3.26,6.785-8.724a2.757,2.757,0,0,1,4.274,3.481l-3.216,4.142L18.6,45.688a2.788,2.788,0,0,0,.485,3.877l.044.044,2.115,1.63,2.511-3.26,7.711-9.958a2.8,2.8,0,0,1,3.789-.4l2.2,1.674-1.674,2.159-4.935,6.389A1.792,1.792,0,0,0,30.5,48.9a1.859,1.859,0,0,0,.7,1.454l4.935,3.965a3.419,3.419,0,0,0,5.508-2.511V51.46s.088-35.909,0-36.35a2.778,2.778,0,0,0-1.278-2.027A2.6,2.6,0,0,0,38.162,12.378Z" transform="translate(0 -3.919)" fill="#fff"></path>
  <path id="Path_75031" data-name="Path 75031" d="M201.121,29.432a6.276,6.276,0,0,0-5.155,2.379V29.872h-2.732a2.67,2.67,0,0,0-2.688,2.688V48.73h2.732a2.67,2.67,0,0,0,2.688-2.688V38.067a3.465,3.465,0,0,1,3.481-3.613,3.43,3.43,0,0,1,3.436,3.613V48.73h2.732a2.67,2.67,0,0,0,2.688-2.688V36.613a7.009,7.009,0,0,0-2.07-5.155A7.194,7.194,0,0,0,201.121,29.432Z" transform="translate(-60.472 -9.34)" fill="#fff"></path>
  <path id="Path_75032" data-name="Path 75032" d="M267.709,32.3a9.7,9.7,0,0,0-7.182-2.864A9.8,9.8,0,0,0,253.3,32.3a9.4,9.4,0,0,0-2.864,7.05,9.567,9.567,0,0,0,2.864,7.094,9.936,9.936,0,0,0,7.226,2.82,9.765,9.765,0,0,0,7.182-2.82,9.605,9.605,0,0,0,2.908-7.094A9.438,9.438,0,0,0,267.709,32.3Zm-4.054,10.31a4.415,4.415,0,0,1-6.3,0,4.568,4.568,0,0,1-1.278-3.216,4.42,4.42,0,0,1,1.278-3.216,4.188,4.188,0,0,1,3.172-1.322,4.048,4.048,0,0,1,3.129,1.366,4.354,4.354,0,0,1,1.322,3.216A4.471,4.471,0,0,1,263.656,42.606Z" transform="translate(-79.479 -9.34)" fill="#fff"></path>
  <path id="Path_75033" data-name="Path 75033" d="M127.922,20.953v6.917a8.641,8.641,0,0,0-5.243-1.762,8.236,8.236,0,0,0-6.389,2.82,10.1,10.1,0,0,0-2.556,7.094,10.325,10.325,0,0,0,2.556,7.094,8.662,8.662,0,0,0,11.632,1.057V45.5h2.688a2.67,2.67,0,0,0,2.688-2.688V18.266h-2.688A2.67,2.67,0,0,0,127.922,20.953ZM123.648,40.56a4.346,4.346,0,0,1-4.23-4.582,4.322,4.322,0,0,1,4.23-4.494,4.015,4.015,0,0,1,3,1.322,4.456,4.456,0,0,1,1.234,3.216A4.335,4.335,0,0,1,123.648,40.56Z" transform="translate(-36.095 -5.796)" fill="#fff"></path>
  <path id="Path_75034" data-name="Path 75034" d="M99.123,41.37a2.67,2.67,0,0,0,2.688-2.688v-.264a9.454,9.454,0,0,0-2.82-5.992,10.326,10.326,0,0,0-14.275,0,9.4,9.4,0,0,0-2.864,7.05A9.411,9.411,0,0,0,84.8,46.569a10.246,10.246,0,0,0,7.358,2.82,9.986,9.986,0,0,0,9.032-5.111L97.317,43.4a2.975,2.975,0,0,0-.617-.088,2.876,2.876,0,0,0-1.63.529,4.847,4.847,0,0,1-2.908.881,4.724,4.724,0,0,1-4.626-3.3H98.991Zm-11.5-4.054a4.5,4.5,0,0,1,4.23-3.216,4.724,4.724,0,0,1,4.45,3.216Z" transform="translate(-25.977 -9.382)" fill="#fff"></path>
  <path id="Path_75035" data-name="Path 75035" d="M174.157,32.83v7.975a3.465,3.465,0,0,1-3.481,3.613,3.43,3.43,0,0,1-3.437-3.613V30.143h-2.732a2.67,2.67,0,0,0-2.688,2.688v9.429a7.007,7.007,0,0,0,2.071,5.155,7.151,7.151,0,0,0,5.155,2.071,6.276,6.276,0,0,0,5.155-2.379v1.939h2.732a2.67,2.67,0,0,0,2.688-2.688V30.187h-2.732A2.671,2.671,0,0,0,174.157,32.83Z" transform="translate(-51.355 -9.566)" fill="#fff"></path>
  <path id="Path_75036" data-name="Path 75036" d="M233.257,20.631v6.917a8.639,8.639,0,0,0-5.243-1.762,8.236,8.236,0,0,0-6.389,2.82A10.1,10.1,0,0,0,219.07,35.7a10.325,10.325,0,0,0,2.556,7.094,8.661,8.661,0,0,0,11.631,1.057v1.322h2.688a2.67,2.67,0,0,0,2.688-2.688V17.943h-2.688A2.7,2.7,0,0,0,233.257,20.631Zm-4.273,19.607a4.347,4.347,0,0,1-4.23-4.582,4.322,4.322,0,0,1,4.23-4.494,4.015,4.015,0,0,1,3,1.322,4.456,4.456,0,0,1,1.234,3.216A4.335,4.335,0,0,1,228.984,40.238Z" transform="translate(-69.524 -5.695)" fill="#fff"></path>
  <path id="Path_75037" data-name="Path 75037" d="M153.588,18.2h-1.41a7.364,7.364,0,0,0-5.023,1.762,5.763,5.763,0,0,0-1.982,4.45V42.7a2.67,2.67,0,0,0,2.688,2.688h2.732V31.111h4.1V29.216A2.67,2.67,0,0,0,152,26.529h-1.41V25.163a1.923,1.923,0,0,1,2.027-1.939h3.657V20.933A2.708,2.708,0,0,0,153.588,18.2Z" transform="translate(-46.072 -5.776)" fill="#fff"></path>
</svg>
