<?xml version="1.0" encoding="UTF-8"?>
<svg xmlns="http://www.w3.org/2000/svg" xmlns:xlink="http://www.w3.org/1999/xlink" width="22.691" height="40.736" viewBox="0 0 22.691 40.736">
  <defs>
    <clipPath id="clip-path">
      <rect id="Rectangle_44311" data-name="Rectangle 44311" width="22.691" height="40.736" transform="translate(0 0)" fill="#fff"></rect>
    </clipPath>
  </defs>
  <g id="Group_104538" data-name="Group 104538" transform="translate(0 0)" opacity="0.9">
    <g id="Group_104537" data-name="Group 104537" clip-path="url(#clip-path)">
      <path id="Path_74600" data-name="Path 74600" d="M2.626,38.5H2.492l-.255-.446H9.492V38.5H9.051v2.225l-.508-.5v-.881H8.018a.481.481,0,0,0-.254.055.328.328,0,0,0-.124.29.844.844,0,0,0,.22.546,2.083,2.083,0,0,0,.226.21l-.152.146a3.943,3.943,0,0,1-.395-.361,1.24,1.24,0,0,1-.395-.8.526.526,0,0,1,.163-.408.591.591,0,0,1,.413-.146h.823V38.5H6.68a1.106,1.106,0,0,1,.04.13,1.4,1.4,0,0,1,.045.322.792.792,0,0,1-.322.654,1.505,1.505,0,0,1-.328.181,1.19,1.19,0,0,0,.074.1,2.547,2.547,0,0,0,.266.28,4.027,4.027,0,0,0,.316.272c.033.026.076.055.124.09l-.146.158c-.1-.079-.183-.143-.243-.193-.192-.155-.345-.283-.457-.388a4.961,4.961,0,0,1-.407-.407.787.787,0,0,1-.248-.444.26.26,0,0,1,.079-.2.329.329,0,0,1,.236-.075.5.5,0,0,1,.25.09c.029.02.07.048.122.091a.774.774,0,0,0,.1-.1.416.416,0,0,0,.1-.269,1.436,1.436,0,0,0-.009-.2.478.478,0,0,0-.02-.1H4.693v2.225l-.508-.5V38.5H3.441v2.225l-.509-.5v-.541H2.294l-.016.185c-.007.044-.017.091-.024.136a.142.142,0,0,1-.159.113c-.088,0-.234-.1-.436-.3s-.3-.349-.3-.448a.118.118,0,0,1,.046-.106.191.191,0,0,1,.123-.035H1.86l.046-.271a2.2,2.2,0,0,1-.423-.092.557.557,0,0,1-.425-.535.318.318,0,0,1,.119-.265.481.481,0,0,1,.311-.1.818.818,0,0,1,.57.259.811.811,0,0,1,.266.592v.408h.608V38.5Zm19.007,0h-.689a.943.943,0,0,1,.04.13,1.294,1.294,0,0,1,.044.322.8.8,0,0,1-.32.654,1.505,1.505,0,0,1-.328.181.875.875,0,0,0,.074.1,2.215,2.215,0,0,0,.266.28,3.687,3.687,0,0,0,.315.272l.124.09-.146.158c-.1-.079-.183-.143-.243-.193-.193-.155-.344-.283-.458-.388a4.884,4.884,0,0,1-.405-.407.793.793,0,0,1-.25-.444.26.26,0,0,1,.079-.2.335.335,0,0,1,.238-.075.5.5,0,0,1,.249.09c.03.02.071.048.124.091a.8.8,0,0,0,.1-.1.416.416,0,0,0,.1-.269,1.892,1.892,0,0,0-.008-.2.451.451,0,0,0-.023-.1H18.958v2.225l-.508-.5V38.5H17.281v.429a.416.416,0,0,1,.073-.039.4.4,0,0,1,.163-.039.605.605,0,0,1,.492.264,1.008,1.008,0,0,1,.073,1.1.887.887,0,0,1-.129.157l-.4-.438a2.357,2.357,0,0,0,.181-.159.562.562,0,0,0,.18-.366.156.156,0,0,0-.028-.1.174.174,0,0,0-.141-.05.486.486,0,0,0-.322.157,1.255,1.255,0,0,0-.141.158v1.162l-.5-.518v-.339a.9.9,0,0,1-.129.061.732.732,0,0,1-.278.069.562.562,0,0,1-.443-.249.808.808,0,0,1-.195-.5.454.454,0,0,1,.17-.386.538.538,0,0,1,.339-.107.7.7,0,0,1,.367.125,1.246,1.246,0,0,1,.169.128V38.5H15.231c.019.051.032.1.041.13a1.4,1.4,0,0,1,.044.322.792.792,0,0,1-.322.654,1.5,1.5,0,0,1-.325.181.628.628,0,0,0,.072.1,2.626,2.626,0,0,0,.265.28,4.027,4.027,0,0,0,.316.272c.033.026.076.055.124.09l-.146.158c-.1-.079-.183-.143-.244-.193-.192-.155-.344-.283-.457-.388a4.7,4.7,0,0,1-.4-.407.79.79,0,0,1-.251-.444.26.26,0,0,1,.079-.2.336.336,0,0,1,.238-.075.5.5,0,0,1,.25.09c.029.02.069.048.122.091a.737.737,0,0,0,.1-.1.407.407,0,0,0,.1-.269,1.56,1.56,0,0,0-.01-.2.433.433,0,0,0-.018-.1H13.246v2.225l-.508-.5v-.737l-.03.019a.446.446,0,0,1-.241.063.563.563,0,0,1-.3-.113,1.071,1.071,0,0,1-.147-.119c-.02.034-.037.06-.05.08a.92.92,0,0,1-.13.156,1.414,1.414,0,0,1-.207.149c-.016.007-.037.019-.063.033a.968.968,0,0,0,.052.086c.045.067.1.14.165.222a3.306,3.306,0,0,0,.256.273l.159.142-.169.153c-.2-.222-.348-.4-.446-.526a1.783,1.783,0,0,1-.451-.88.287.287,0,0,1,.062-.193.2.2,0,0,1,.157-.073.335.335,0,0,1,.163.045.241.241,0,0,1,.069.046c.014-.032.027-.056.035-.08a.743.743,0,0,0,.032-.214.931.931,0,0,0-.027-.2.176.176,0,0,0-.012-.051H11v-.446H21.633Zm-4.854.813a.635.635,0,0,0-.11-.051.969.969,0,0,0-.332-.056.355.355,0,0,0-.223.073.257.257,0,0,0-.1.219.137.137,0,0,0,.048.111.151.151,0,0,0,.1.042.726.726,0,0,0,.423-.169,2.206,2.206,0,0,0,.19-.169m-4.041-.28V38.5h-.695a.682.682,0,0,1,.027.106,1.067,1.067,0,0,1,.035.245,1.45,1.45,0,0,1-.008.154.505.505,0,0,1-.023.11c.041.018.07.033.093.041a.742.742,0,0,0,.219.045.48.48,0,0,0,.271-.1c.022-.018.049-.038.081-.066M1.927,38.761a.449.449,0,0,0,.006-.073.683.683,0,0,0-.04-.254.209.209,0,0,0-.2-.153c-.135,0-.2.061-.2.187a.266.266,0,0,0,.219.26,1.235,1.235,0,0,0,.22.033" fill="#fff" fill-rule="evenodd"></path>
      <path id="Path_74601" data-name="Path 74601" d="M10.843,1.414c-.178.063-.856-.62-.463-.907.629-.4.285.68.463.907m.282-.907c-.059,0-.116.108-.116.341a.772.772,0,0,1,.227.629l.174-.063a.893.893,0,0,1,.111-.339,1.922,1.922,0,0,1-.052-.628Zm.566,0c.17-.173.282-.235.456-.173L12.1.848v.285a.358.358,0,0,1-.174.344.529.529,0,0,1-.233-.456ZM12.66.272c.178-.049.29,0,.29.12,0,.286-.237.51-.29.629-.112.054,0,.286-.058.393-.112.12-.282-.054-.336-.45a.352.352,0,0,1,.113-.4A.718.718,0,0,1,12.66.272m2.165,26.606c.343-.455-.509-1.03-.509-1.03-.232-.34.509-.737-.116-1.937a4.465,4.465,0,0,1,.116-2.972c.624-2.679-.232-3.142-.232-3.142-.853,1.03-1.081.745-1.081.745s.622,3.311-.115,4.682-.175,1.94-.175,1.94l.175.059c.115-.112.115-.571.115-.857-.053-.34.116-1.54.286-1.429s.116.742.116.742.107.8.22.8c.177.054.12.742.12.742s0,.91.4.8c0,0,.633.513.513.856s.17.4.17.4a.269.269,0,0,0,.058.169c.057,0,.111-.054.111-.169,0-.054-.111-.175.116-.224.228,0,.058-.116.058-.116s-.174-.115-.285-.058c-.108.117-.058,0-.058,0m.624-9.309c0,.117-.053.518.233.518s.227.285.227.285a3.883,3.883,0,0,1,.854,1.536c0,.687.227,3.489,0,3.432s.227.339.227-.059a14.817,14.817,0,0,0,.054-3.937s.12-.289.174,0c0,0,.231-.062.281,1.14a4.429,4.429,0,0,1-.113,2s-.342,1.259-.053,1.71c.227.517.456.343.227,1.031l.175.344v.111l-.286-.281s-.116-.12-.116,0,.281.339.227.339c0,0-.111.17-.174.059,0,0-.342-.518-.281-.746,0,0,0-.227-.174-.054s.113,1.027.233,1.084c.111.117.853.225.736.567s.513.692.513.745c-.057,0,.344.34-.173.287a.469.469,0,0,1-.451-.626s-.054-.29-.29,0l.061.567s.054.286-.342-.053c-.4-.29-.572-.688-.853-1.544-.348-.858-.513-1.027-.4-1.541.05-.57-.8-1.084-.686-1.311a6.135,6.135,0,0,1,0-2.17,6.09,6.09,0,0,0,.057-.628c.111-.513-.057-1.656.058-1.946s-.34-.223-.286-.629.339-.343.339-.228m-.566.746a9.315,9.315,0,0,1-.108,3.253c-.062.228,0,.4-.062.575a1.1,1.1,0,0,1-.115.737c-.233.29-.282.116-.282,0,0-.054.112-1.423.169-1.539a8.706,8.706,0,0,0,.228-2.111c-.115,0,.062-.97,0-.858,0,.054.112-.285.17-.057m-3.245.4a2.8,2.8,0,0,1-.058.741s.058,0,.281.169c.112.117.112.282.174.4.063.344-.062.8,0,.8.063.054-.062,1.37,0,1.481a9.048,9.048,0,0,0,.4,1.433c.053.285-.058.683.053.625a4.892,4.892,0,0,1-.281,1.54c-.174.227,0,.972.057,1.03,0,0,.394.455-.293.509,0,0-1.241.174-1.022-.45,0,0,.115-.691-.219-.916a1.111,1.111,0,0,1,.049-.856c.17-.344-.049-.4-.049-.4a1.547,1.547,0,0,1,.111-1.313c.054-.112.054-.285.108-.455.058-.344-.054-.746.058-1.713.057-.916-.228-.857-.166-.916,0-.111-.111-1.026.166-1.311.057-.059.057-.174.116-.228a3.855,3.855,0,0,0,.169-.4.272.272,0,0,1,0-.228c.116-.116.286-.173.344.166Zm1.075.339c.067.059,0,.92.29,1.259a1.744,1.744,0,0,1,0,.968.915.915,0,0,1-.053.344c0,.058-.112.058-.112.111-.058.232.05.46,0,.517s-.236.054-.236-.057c-.054-.054-.054-.17-.054-.344a.794.794,0,0,1-.111-.343c0-.116-.058-.4-.058-.746v-.789a2.075,2.075,0,0,1-.059-.693c.117-.28.34-.28.393-.227M9.3,24.937c.058-.115.228-.058.228-.058v.4c.173.12.173-.228.173-.455a.622.622,0,0,1,.054-.17c-.054,0,.12-.286.233.343.168.513.281-.514.115-.629-.178-.058,0-1.142-.058-1.085-.057,0,.058,0-.057-.174-.063-.227-.17-.964-.287-.964-.062-.062,0-2.057,0-2.057.117-.343.287.054.287.054a6.334,6.334,0,0,0,.115,1.084l-.058-.054c.058,0,.058.054.111.054v.117a5.215,5.215,0,0,0,.054.856,1.991,1.991,0,0,1,0,.629c-.054-.057.12.344.171,0,.062-.174.062-.174.119-.231.054-.341.054-.858.112-1.313.054-.567-.058-.968,0-1.254.121-.746.054-1.088-.058-1.088a.328.328,0,0,0-.509-.17c-.17-.054-.057.629-.057.745,0,.174-.233,0-.233,0L9.7,19.171c.054-.344-.566-.571-.683-.856A.23.23,0,0,0,8.79,18.2c-.116.057.054,0-.174.112s-.344-.055-.344,0c.059,0-.169-.055-.053.111.053.174-.055,2.169.053,2.116.174-.058.233.285.174.571,0,.624.4.968.17,1.369,0,.059.058.113,0,.17,0,.058.116,1.829.058,2.285v.112c-.058,0,.17.348-.282.518,0,0-.12.339.167.111,0,0,.4-.227.347-.455,0,0,.111-.174.17,0,0,0,0,.228-.116.285.057,0-.054.46-.4.571-.4.17-.167.514-.054.514.169,0,.111.508-.059.508-.174.063-.174.175-.054.29,0,0,.113.34.224.054,0,0-.17-.281.058-.223a3.251,3.251,0,0,1,.46-1.6c.053,0,.053-.053.111-.112a1.113,1.113,0,0,0,.054-.571M6.8,17.172c-.173.116.116.344,0,.459-.34.282-.625.857-1.026,1.085,0,0-.17-.058-.117.224,0,0,.518,3.257-.053,4.23a.207.207,0,0,0-.055.17c0,.057-.517,2.455-.114,1.655,0,0,.169-.116.114.054,0,0-.231,1.084,0,.746a1.224,1.224,0,0,0,.175-.344c.05-.174.161-.054.112.057,0,0-.179.741.111.287l.116-.287s.223-.285.166.059c0,0-.054,1.079-.68,1.026,0,0-.914-.344-.517.4,0,0,.232.106-.223.281-.46.231,0,.343.054.115.116-.169.285.054.169.116,0,0-.223.629.286.224,0,0,.058-.455.911-.34.8.116-.166-.4-.054-.169,0,0-.451-.058-.058-.286A4.8,4.8,0,0,0,6.8,24.652s.228-1.027.456-.058c0,0,.173.058.173-.113a2.121,2.121,0,0,1,.166-1.374c.111-.111.062,0,.062-.053.049,0,.339-1.772,0-1.884s-.4-2.91-.286-2.682c.058.228-.058,0-.058,0s.227-.919-.169-.745c-.116.054-.116-.057-.116-.112-.059-.232.116-.856-.228-.459m.857,1.316s.165-.691.285,0c.054.626.054,1.767.054,1.767s-.054.34-.223.059a6.923,6.923,0,0,1-.116-1.826M7.7,25.164c.116.113.179-1.03.236-1.539.054-.455.227-.058.227-.058s.055.857.167,1.482a.587.587,0,0,1-.514.687c-.509.343-.227-.687-.116-.572m.4-2.8.061.687s-.111.17-.111.053c0-.17.05-.74.05-.74m2.45-2.459s-.111.634-.111.749c0,.17.169,0,.169,0Zm-.915,5.828s-.111-.285,0,.059-.281.227-.281.227c0-.571-.281.111-.281.111a1.85,1.85,0,0,0-.116,1.374c0,.112.174,0,.174,0-.117.059-.117-.285-.117-.285.228-.46.4,0,.4,0,0,.456.4,0,0-.17-.339-.174.058-.629.058-.629.344-.455.281.285.281.285.17-.062.063.568.063.568-.063.231.227.115.227.115.111-.227.621-.227.621-.227.116,0,0-.063,0-.063l-.285-.223c-.853.117,0-.232,0-.232.231-.053-.112-.111-.112-.111-.166.058-.166-.112-.113-.171a.082.082,0,0,0,0-.115c-.338.115-.231-.571-.231-.571-.224-.567-.286.058-.286.058m-1.87.4s.049-.285.112-.165c0,0,.339-.12.284.054,0,.057-.227.74-.347.686-.116-.115-.049-.575-.049-.575m-.4.8.286-.174H7.7l.067.339-.067.344-.166-.223-.227-.286Zm.571.571s-.169-.914.282-.686c.286,0-.451.517-.282.686M12.6,26.249s-.054-.629.178-.629c0,0,.058,0,.058.116,0,0,0,.513-.236.513h0m.517.915-.054.343a.389.389,0,0,1-.177-.455s.177-.057.115-.174c0,0-.165-.629.228-.455,0,0,.112-.174-.058-.517-.054-.058,0-.228,0-.455a4.783,4.783,0,0,1,0-.916c.058,0-.054-.686.116-.686.174-.054.054.459.054.459l.12.741s.162.973-.058.857c-.174-.111,0,.517,0,.517s.34.572.34,0c.057-.575.173-.227.227-.227,0,0,.344.108.058.281,0,0-.285.344.112.285.343-.054.4.745.174.683,0,0,.112-.852-.344-.393l.058.455s-.112.112-.169-.062c-.059-.107-.059-.8-.4-.624,0,0-.12.174.112.343,0,0,.05.281-.17.174,0,0-.116-.692-.286-.174m2.108-.8s0-.4.169-.115c0,0,.053.513.17.513,0,0,.4.29.343.339,0,.063.228.237,0,.121-.227-.058-.343-.121-.286.054,0,0,.059.4-.111.062,0,0,.111-.576-.116-.517-.228,0-.169-.517-.169-.457m.964.457s-.112.343,0,.28c.062-.049.062.29.062.344.049.062.165,0,.165,0v-.393Zm-.625-1.143-.054.117h.054l.286.173h.057l-.057-.173-.121-.117Zm.286.4-.054.17.219.115V26.2Zm-1.139-2.512s.17-.8.281-.058a3.015,3.015,0,0,0,.116.683c.058,0,.171.116.117.174s0,.058,0,.058a5.881,5.881,0,0,0,.054.973l.057.111s-.17.571-.455.17c0,0-.285-.111-.108-.629,0,0,.165-.4-.062-.281,0,0-.228,0-.058-.8,0,0,.12.062.12-.115a1.113,1.113,0,0,0-.062-.282m.91.8-.111.513s.17.285.111.4c0,.12.175.057.175.057v-.285l-.067-.281ZM6.8,27.052c-.054-.174,0-.688.285-.629,0,0,.344.054.286-.4,0,0,.224-.054.116.057-.058.117.053.344.053.344A5.448,5.448,0,0,0,7.023,27c-.059.106-.228.281-.228.057m-2.451-.629c.116.112.228-.344.4,0,.112.339-.228-.059-.174.629,0,0,0,.339-.228.112-.165-.169-.057-.86,0-.741m-.451,1.2s-.115-.343.112-.281h.282s.116-.062.057.053a1.456,1.456,0,0,0,0,.514s-.165.29-.223,0c0,0,.112-.46-.116-.286s-.112,0-.112,0m-.115-1.084s-.171-.171,0,.058c.17.285-.228.508-.4.745-.224.281.063.281.063.281.393-.281.053.4.053.4-.227.174.058.223.058.223.228,0,.17-.678.17-.678.058-.059.058-.29.058-.29-.058,0-.058-.34,0-.224.115.17.227-.344.227-.344s.116.054,0-.344c-.112-.458-.227.171-.227.171m2.793,1.6s.224-.29.34-.062c.053.228-.232.121-.116.29.116.113-.224.286-.224.17,0,0-.231-.057-.168-.17a.815.815,0,0,1,.168-.228m-.8.286s.173-.348.227-.348c0,0,.174-.111.174,0,0,0,.17,0,.054.121,0,0-.112.227-.054.227,0,0-.174.336-.29.228a.051.051,0,0,1-.049-.058.525.525,0,0,0-.062-.17m-.51.112s-.17-.232,0-.29c.112,0,.171-.17.171-.17s.222-.111.222-.053a.16.16,0,0,1,.067.115s-.237.228-.175.286c0,0-.114.282-.231.112-.17-.112-.054,0-.054,0m-.571.058v-.228c.058,0,.232-.228.232-.228s.107-.062.107.059l-.053.227s.053.394-.228.17c-.228-.17-.058,0-.058,0m-.4-.17s.173-.286.285-.286a.057.057,0,0,1,.058.059V28.3s-.17.062-.112.175-.174.115-.174,0a.055.055,0,0,0-.057-.055m-.455.17-.054-.17s.115-.178.227-.12c.062.062.116-.058.116.062l-.054.17-.062.058V28.7H3.893V28.65Zm0-.058v0Zm-.456-.112H3.55l.057.055v.057l-.057.058v.058H3.439v-.058H3.376Zm.4,1.085a2.031,2.031,0,0,0-.058.625.123.123,0,0,1-.054.169c-.116-.058,0,.232,0,.232.054.344.282-.116.282-.116.173-.174.173.059.173.059s.058.567,0,.567c-.116,0-.116.173-.116.173s.062.285.062.344c-.062.054.112.054.112.054.108.115,0,.347,0,.347s-.231.339-.174.4c0,0-.285.223.062.446.336.174-.347.46-.347.46-.344,0-.17.8-.17.8-.058.23.455.458.455.458.4.17.174-.228.174-.228-.174,0-.4-.289-.4-.343-.171-.8.509-.629.509-.629.116.228.173-.228.343-.228.116-.057.116-.513.116-.513.112-.286.343.058.343.058.113.286.17-.058.393.228.17.286.4,0,.4,0,.062-.286.344,0,.344,0l.455.286c-.057.169.344,0,.344,0,.285-.059.968.508.968.508s.34.518.34.456c.061,0,.228.177,0,.294-.167.054.061.17.061.17.742.054.167-.688,0-.742s-.173-.344-.173-.344c.053-.115-.339-.4-.684-.517s-.284-.852-.284-.852c-.228-.517.284-.4.629-.517s.392-.853.392-.853.059-.518-.053-.629c-.055-.173.053-.173.053-.173.233,0,.12-.228.12-.228-.339-.116.224-.456.224-.456.174-.058-.057-.174-.057-.174-.167-.285-.113.116-.167.116-.061-.054.113.058-.12.227-.053,0-.053.117-.169.117-.621.343-.286,1.6-.223,1.6,0,0-.112,0-.063.057.12,0-.116.228-.116.228a1.6,1.6,0,0,1-.96-.112c-.4-.173-.46.054-.46.054-.285.343-.4-.054-.4-.054.062-.227-.111-.173-.111-.173-.225.173-.17-.116-.17-.116l-.117-.46s.117-.223-.052-.223c-.171-.059-.059-.745-.228-.683s-.059-.233-.059-.233c.17-.281-.116-.169-.116-.169-.053,0-.281-.228-.281-.228.058-.115-.286-.231-.286-.231-.853-.339-.682.691-.682.691m.115.224.112-.054.062.115v.281H3.893Zm.51.173h.169l.058.055v.062l.058.052.116.059-.058.169-.058.059H4.572v-.17l-.054-.058-.058-.059Zm.227.572s.174-.059.174,0c.054.057.054.107.116.107l.169.062a.123.123,0,0,1,.054.173s-.169.171-.054.287c.17.054.17.165.17.165s.46.4-.057.344c0,0-.175-.17-.113-.228,0,0,.054-.116-.062-.054,0,0-.107.054-.107-.062L4.858,31.1s-.17,0-.054-.228c0,0,.054-.294-.174-.178-.17.062,0-.223,0-.223m.741-1.429.059.054c.222.062-.171.8.169.972-.055.17.12.117.12.228,0,.059.161-.4.05.059a.624.624,0,0,0,.343.683c.112.116.169-.054.169-.054.059-.171.4-.058.4-.058a.413.413,0,0,1,.46.228c.451.285.4-.116.4-.116v-.282c0-.062-.111-.062-.111-.062-.173.062.111-.626.111-.626l.055-.281s-.055.054.513-.459c.513-.517,0-.629,0-.575s-2.559.058-2.559.058c.108.062-.062.062-.062.062-.169,0-.111.169-.111.169m.509.054.062-.054H6l.062.116H6Zm.915.29h.169v.116H6.849l-.108-.116Zm0-.344H6.741l.108-.169h.115l-.053.169Zm-.915.4v-.053c-.049,0,0,.053,0,0l.178.053v.117Zm.344.063v-.116H6.34l.063.053v.063ZM5.6,29.444h.17l.062.171-.062.062-.117-.062L5.6,29.561Zm.682.8H6.34l.063.117H6.281Zm-.111-.4h.17L6.4,29.9l-.063.055H6.224Zm-.74-.054.45.054s.344,0,.062.227c-.223.228-.111.117-.111.117Zm6.431,1.251a.257.257,0,0,1,.237.227.272.272,0,0,1-.237.29.262.262,0,0,1-.223-.29.244.244,0,0,1,.223-.227m0-.4a.685.685,0,0,0,0,1.37.687.687,0,0,0,0-1.37m0,.173a.445.445,0,0,0-.451.452.466.466,0,0,0,.451.518.5.5,0,0,0,.459-.518.483.483,0,0,0-.459-.452m0-.173a.685.685,0,0,0,0,1.37.687.687,0,0,0,0-1.37m0,.173a.445.445,0,0,0-.451.452.466.466,0,0,0,.451.518.5.5,0,0,0,.459-.518.483.483,0,0,0-.459-.452m-.05-3.025a3.541,3.541,0,0,0,0,7.078,3.541,3.541,0,0,0,0-7.078m0,.343a3.171,3.171,0,0,1,0,6.334,3.171,3.171,0,0,1,0-6.334m-.745.4.455,1.826v.116H11.41l-.058-.116-.8-1.6a.527.527,0,0,1,.513-.224m.17,0s.233-.17.344-.057c0,0,.111.115.111.173a9.447,9.447,0,0,0-.053,1.2h-.117l-.169-.745c.058,0,.058-.054,0-.054Zm.688-.112s.285-.12.342.055c0,0,.171,0,0,.339a1.379,1.379,0,0,0-.168.628,3.114,3.114,0,0,1-.125.916h-.112a10.5,10.5,0,0,1,.063-1.883c.111.057,0-.055,0-.055m.566.228s.112-.228.223-.116c.067.17.175.116.175.116s.285-.058.062.282a11.548,11.548,0,0,0-.684,1.2s0,.228-.119.058c0,0,.062-.575.119-.513,0,0,.171-.688.113-.63-.113,0,.111-.4.111-.4m-2.5.567v-.17l.222-.169v-.062h.171l.119.231.737,1.429v.107l-.111-.107Zm3.186-.339.058-.062.174.062v.054l.22.115c.236.17-.22.286-.22.286l-.8.968-.165.116v-.174Zm.688.4.169.4v.115l-.687.34-.683.513-.17-.062v-.05Zm-1.2,1.543,1.482-.914.112.055v.231h.111l.063.111v.059l-.112.057L13,30.877Zm.12.225,1.585-.46h.174v.576H12.78l-.067-.054Zm0,.289H14.6V31.9h-.233l-.111-.111-.393-.059h-.349l-.049-.057h-.344l-.054-.112h-.177s-.175-.228-.108-.228m.108.4h.177l.108.059.4.057V31.9h.4l.17.062.223.054h.063l.057.228-.057.285-.112.058-1.478-.857Zm-3.014-2.4,1.135,1.312v.116l-.166-.062-.741-.626-.4-.227H9.589v.175l1.42.91v.058H10.9l-.517-.171A1.444,1.444,0,0,0,10.1,30.7c-.058,0-.745-.166-.8-.166-.112,0-.112-.232-.112-.232l.112-.058V29.9l.116-.058h.058v-.115l.281-.4Zm-.8,1.312h.111l.286.173.629.113.741.174.054.054v.111H9.415l-.228.062-.111-.062-.059-.111v-.116l.17-.054-.053-.112H9.076Zm0,.915.058-.059,1.817-.115.058.058-.112.116-1.54.509-.281-.054Zm1.99.112v.116l-1.593.972A.38.38,0,0,1,9.3,32.3ZM9.473,32.983,11.125,31.9h.111l-.054.116L10.209,33.1l-.222.344H9.874Zm1.879-.914s-.227.231,0,.116c.228-.17.169.343.169.343l-.111.232-.058.223-.116.344v.4c.116.341.174-.062.174-.062l.111-.4.059-.625c.111-.4.169,0,.169,0l.062,1.254c.113.344.162-.111.162-.111l.125-1.374c-.063-.568.281-.113.281-.113l.852,1.428v.17h-.166l-.115.112c-.17.112-.237-.223-.237-.223l-.053-.232-.17-.339-.053-.344-.058-.174-.059-.054h-.111V32.7l.057.46.336.8v.228H12.49l-.17-.062-.459.062-.05.058h-.342l-.175-.058V34.01h-.058l-.054.112h-.45l-.179-.112.058-.112.054-.232.232-.4.228-.46.227-.509v-.057l-.058.057-.112.113-.339.517a3.62,3.62,0,0,0-.344.8c0,.17-.17.059-.17.059l-.285-.121v-.111L10.1,33.5l1.134-1.315Zm1.085-.108,1.245,1.366s-.107.46-.219.339a12.164,12.164,0,0,1-.973-1.423Zm.276-.116,1.429.853a.133.133,0,0,1,.058.174c-.058.111-.116.227-.116.227s0,.17-.166.059-1.258-1.2-1.258-1.2V31.9ZM7.7,32.3s-.277-.455.116-.4c0,0,.455-.17.455.17,0,0-.053.973.287.973,0,0,.231.343.173.458l.455.51.286.289s0,.228-.174.228c0,0-.112.228-.165,0a1.53,1.53,0,0,0-.4-.74s-.227-.232-.227-.4a.28.28,0,0,0-.286-.286s0-.29-.116-.169c0,0-.286.112-.286-.232,0,0-.227-.17-.116-.335s0-.063,0-.063M7.08,28.136s-.057,0,.344-.231c.344-.174.166.231.166.231-.108,0-.108.166-.166.228a.122.122,0,0,1-.116.113c-.228.281-.228-.282-.228-.341m.688.228s-.067-.228.049-.228l.236-.29s.339-.115.278.059c0,0-.228.231-.167.339,0,0-.173.514-.284.178-.112-.4-.112-.058-.112-.058m.678-.062s-.115-.228,0-.281a1.122,1.122,0,0,0,.46-.228l.111.053s-.4.4-.227.456v.12H8.505Zm.688.12c-.4.055-.174-.178,0-.286.223-.115.111-.173.111-.173a.592.592,0,0,0,.17-.058l.058.116s-.174.4.054.223l.173-.223s.224-.175.224.115c-.05.228-.17.166-.17.166v.12l-.165.17s0-.29-.455-.17m-.058.456s-.17.169-.286-.12c0,0-.058-.166.054-.166h.062s.17-.058.228,0c.111.112.165.112.165.112l.058.054h.058l-.058.058v.062H9.3l-.054-.062H9.076Zm5.522.111c-.113-.173.342-.4.629-.285.054.054.169,0,.169.054a.771.771,0,0,1,.116.517s-.116.058,0,.058,0,.228,0,.228l-.116.231v.054l.053.058v.456h-.168l-.054-.17a2.934,2.934,0,0,0-.629-1.2m3.642,1.032.062.052s-.062.059-.112.117l.112.227a.229.229,0,0,1-.174.282c-.111.232.174.29.174.29h.393l.062.054.057.116h.113v-.17l-.059-.058h-.111l-.062-.054v-.116c0-.062.062-.116.119-.062.054.119.113,0,.113,0v-.223s-.059-.745-.059-.861c0-.054,0-.224-.111-.108-.111.054-.232-.232-.232-.232.054-.112-.335-.286-.335-.286Zm-.171-1.032c.121,0-.169.058-.114,0,0-.057-.108-.057-.055-.111.117-.174-.451-.12-.736-.174-.233-.054-.174.285-.174.285-.059.112.343.344.343.344.116.174-.228.282-.228.282-.115.231-.228-.171-.174-.282s-.111-.116-.168-.116v-.285l-.117-.054-.054-.12v.405c-.057.112-.29.17-.29.17-.45.111-.335-.455-.335-.455V28.7H15.8l-.067.4.067.116s.111-.054.111.058c0,0,0,.169-.057.169-.121,0-.286.287-.17.515,0,0-.059.574.116.458.111-.057.111.228.111.166s-.057.116-.057.116l-.054.062h-.175v.116h.286l-.057-.059v-.057h.057l.058-.062.05-.054h.236v.173h-.062l-.112.113-.062.058-.108.054s-.057-.054-.057,0v.116h.227v.111l-.112.062-.058.054.058.058h.112l.058.116v.054l-.058.058h-.062v.173l.062.054.112.062.111-.116.063-.116h.227l.054-.169H16.7l.059-.059h.057v.059l.057.054v.115l-.057.116-.057.116v.054l-.059.054h-.169v-.224l-.059.054-.058.062-.053.054-.063.054-.049.062v.054h-.062l-.112.058v.231l.058.054h.116v-.115H16.3l.174-.05v.165l-.111.058H16.3V32.7h-.049s0,.111.049.111a.181.181,0,0,1,.116.063h.058c0,.058.287.111.287.111V33.1c-.059.059,0,.17,0,.17l.057.116.111.058v.112c.059,0,.059.173.059.173l-.059.059v.057a.053.053,0,0,1-.054.054c-.057,0-.114-.111-.114-.111l-.059-.121s-.169-.111-.112.062.054.116.054.116l.058.054.059.058v.571h.057l.111.059.174-.059V34.47l.059-.054v-.062l.054-.112-.054-.12v-.456s.111.062.111,0v-.683l-.057-.111V32.7s.281-.853.4-.567h0a.218.218,0,0,0,.059-.116V31.5h.116s.166,0,.111.059v-.174h-.053l-.058-.054-.175-.062s-.115-.393,0-.393c.175.054.121-.116.121-.116l.165-.228s.117-.8-.451-.29c-.572.456-.344.174-.344.174l-.115.166-.113.116-.114.062-.117.057h-.054s-.29,0-.116-.235a.563.563,0,0,1,.344-.34l.224-.222v-.175h.289l.116-.169.111-.062.054.116.059.173h.062l.054.055h.166l.285.062Zm.059,0h0Zm-2.505,1.487.059-.059v.166l-.059.116h-.057Zm0,.455.059.058.049.054-.049.062-.059-.116Zm-.227.339c.053,0,.053-.339.17-.054,0,0-.054.4.057.456h.059v.173c-.059.286-.059.568,0,.568a.12.12,0,0,1,.049.173c-.049.112.178.513.178.286l.058.111s-.115.116,0,.116c0,0,.112.059.17,0,0,0,.339,0,.281.059,0,.111.058.111.058.111s.059.116,0,.174c0,0-.058.17,0,.17l-.058.115a.2.2,0,0,0,.058.116.165.165,0,0,1-.174.166c-.165-.054-.049.112-.049.112a.115.115,0,0,0-.116.12s-.058.344-.17.344h-.058s-.343.227-.286-.17c.108-.406.568-.572.514-.973,0,0,0-.227-.12-.116,0,0-.108.517-.219.46-.067-.059-.175.057-.175.057l.059.054s.049.171,0,.171c0,0-.344.458-.4.458h-.054s-.117.228-.287.059c0,0-.227-.116-.285,0,0,0-.571.169-.455-.116,0,0-.116-.46.165-.348,0,0,.063,0,0-.112,0,0,.063-.223.174-.166,0,0,.174-.344.236-.289.05,0,.108-.228.165-.17h0s.228-.169.116-.227c0,0-.062-.46.112-.4a.458.458,0,0,0,.228-.517,2.351,2.351,0,0,1,0-.973m2.559.575s0-.4.114-.344c.059.059.059-.057.059-.057s.112-.228.174-.112c0,0,.054.054.054,0,0,0,0-.173.169-.062,0,0,.343.174.4.116,0,0,.112,0,.054.058,0,0,.058.4.231.455,0,0,.108.062.058.116-.058.116,0,.054,0,.054s-.058.294,0,.294a.49.49,0,0,1-.115.4c-.228.223.057.456-.341.567,0,0-.235.228-.168.4l.111.059.057.169s0,.286-.119.166l-.049-.224s-.067-.111-.121,0l-.053.224-.059.177-.057.117-.054.054s-.513.17-.233-.228c.287-.344.171-.286.171-.286l.062-.343a.186.186,0,0,1,.111-.058c.112,0,.112-.112.166-.228,0-.169.067-.111.067-.111s.168-.233,0-.174l-.233.116s-.173,0,0-.116l.344-.344s.057-.17-.062-.112l-.393.174-.174.112-.111.058s-.17.112-.228,0c0-.121-.229,0-.116-.344s.4-.4.282-.517a.16.16,0,0,1,0-.224M17.5,33.216s.061-.174.29-.058H17.9l.117.058.052.111.059.058v.058l-.059.057-.052.228v.17l-.062.058v.054l-.055.112-.053.062-.058.058V34.3l-.116.055v.116s-.113.116-.113,0a.548.548,0,0,0-.061-.228l.061-.12L17.5,34.01s-.166.059-.113-.112a.263.263,0,0,0,0-.232s.113,0,.113-.053Zm.174.169.116-.116h.166V33.5l-.055.055h-.053l-.058-.055-.054-.057Zm.062.228h.112v.231h-.112l-.062-.057ZM19.5,30.36c0,.173-.177-.059-.177-.059V30.19l-.108-.169-.057-.344c-.116-.4-.116.115-.116.115l.057.34.059.451v.406l.115.455s.05-.455,0,.057c-.058.46.112.4.112.4.4.17,0,.8,0,.8-.17.174,0,.8,0,.8,0,.228.115-.115.115-.115V33.1c.054-.29.17-.057.17-.057l-.057.174.057.571c.117.169.174-.059.174-.059a1.451,1.451,0,0,1,0-.512c.108-.117.166.053.166.053V33.5s.054,0,.054.113.066,0,.066,0v-2s-.066-1.254-.066-1.313a.186.186,0,0,0-.054-.111l-.058-.513v-.17l-.108-.116c0-.29-.119,0-.119,0l.062.17.057.17v.4c0,.228-.174,0-.174,0l-.057-.111v-.746s0,.169-.113-.058c-.115-.285-.115.058-.115.058l.054.456s.061,0,0,.061,0,.34.061.568m.564-.969s-.054-.633.116-.459l.17.285s0,.742.173.629a1.029,1.029,0,0,1,.058.514s-.116.339.054.4a5.424,5.424,0,0,1,0,1.713l-.17.568v.513s-.115.173-.166,0a17.652,17.652,0,0,1,0-2.512s.051-.8-.057-.683c-.062.057-.062-.683-.062-.683Zm.8.682s.049-.169.049-.052c.063.169.179.169.179.169V31.1a2,2,0,0,1,.057.4v.568a2.758,2.758,0,0,1-.173.517c-.063,0-.112-2.513-.112-2.513m.455.916h.116s.053-.058.053.054v.227h-.053Zm-2.28,2.739s.057.394,0,.341a.081.081,0,0,1,0,.115c-.112,0-.112.286-.112.286a1.452,1.452,0,0,1,.112.285c0,.116.173-.058.173-.058l.108-.057c.116-.054,0-.113,0-.113-.281-.111,0-.74,0-.74.062-.174-.05-.232-.05-.232-.174-.228-.231.173-.231.173M2.412,29.615s-.062-.282.057-.054c0,0,.166.116.166.231l.067.167.049.062s.116.111.057.512a3.722,3.722,0,0,0,.059.683v.629s.228.286.228.054a4.841,4.841,0,0,1-.117-.567v-.455s0-.4.063-.294c0,0,.165.294.224.116,0,0,.057-.116.111,0a.849.849,0,0,1,.4.687v.174s.054.625-.286.509c0,0-.116.116-.116.174,0,0-.17.343.116.285,0,0,.228-.165.174.058,0,0,.054.223-.227.112a.188.188,0,0,0-.287-.112.076.076,0,0,0,0,.112.153.153,0,0,0,0,.174s-.111.4.17.227c0,0,.344-.227.228,0,0,0-.228.117-.228.286,0,0,.054.459-.057.571,0,0-.17.054-.17.166v.348s-.117.17-.179,0a1.009,1.009,0,0,1,.062-.683.437.437,0,0,0-.062-.571s-.165.053-.165-.058v-.745s.057-.344-.049-.344-.067-.224-.067-.224.116.054.067-.057v-.629c.049,0,0-.576-.067-.46,0,0-.054.062-.054-.054V30.7s.054-.678,0-.626c.054-.052-.169-.458-.169-.458m.455.116.049.342v.059l.062.058.063-.058v-.34Zm0-.514s.049.116.111,0,.514.29.514.4c.058.116-.116.062-.116.062Zm-.794,2.4.053.058h.053v.173H2.126v-.057c-.053,0-.053-.174-.053-.174m.45.686s.393-.115-.054,0c-.4.113.054.509.054.509Zm3.021,1.085a.124.124,0,0,0,.225,0s.289-.343.343-.116c0,0,0,.344.291.231,0,0,.446-.057.446.055l.174.173s.343,0,.343.116a.209.209,0,0,1,0,.278l.058.177-.058.287s.116.227.058.285c-.116.057-.058,0-.058,0s0,.514-.115.285c0,0-.228-.115-.171-.174,0,0-.057-.169-.169-.054,0,0,.053.4-.116.228,0,0-.173-.057-.054-.343,0,0,.054-.227-.232,0,0,0,0,.51-.228.343,0,0-.169-.174,0-.228,0,0,.122-.342-.223-.115,0,0-.116.572-.339.4,0,0-.289-.228,0-.282,0,0,.223-.173,0-.173,0,0-.406-.058-.406.227,0,0-.17.174-.17-.054l.059-.173s.111-.169-.113-.115c0,0-.285.057-.343-.054,0,0-.058-.287-.286-.17a.488.488,0,0,1-.173-.406s.057-.223-.166-.112c0,0-.054.224,0,.224s-.116-.112-.116-.112-.112-.223,0-.223c0,0,.228-.287.228-.121v.062a.756.756,0,0,1,.111-.228l.4-.231.228-.053s.456-.058.456.111.114.058.114.058m1.764.058s1.366.679.629,1.143c0,0-.236.169-.169,0a.573.573,0,0,0-.286-.92c-.741-.339-.174-.223-.174-.223m.393,1.37s-.335.228,0,.4h.116v-.4Zm.29.115h.34v.341H8.219l-.166-.17Zm.568.113.347-.228h.228v.115l-.174.054v.287l-.17.054s-.285-.113-.231-.282m.856-.059s.4-.342.285-.227c.117-.115.174.116.174.116-.236-.058-.285.452-.285.452-.116.062-.4-.113-.4-.113-.111-.228.228-.228.228-.228m.459.117.113-.171s.222-.115.168.113l-.053.282a.157.157,0,0,1-.228,0c-.057-.113-.057,0-.057-.113s.057-.111.057-.111m.625-.058c0-.059.166-.17.166.058,0,0,.067.111,0,.17,0,0-.054.227-.166.054,0,0-.17,0-.119-.224.062-.286.119-.058.119-.058m.452.058h.174v.286h-.116l-.112-.062Zm.4.111.228-.169h.169v.228l-.111.054v.115h-.117l-.111-.115h-.058Zm.621,0,.062-.111h.344l.058.17-.058.116-.059.053H12.1l-.063-.169Zm.575-.169h.232s.058-.059.058.115a.254.254,0,0,0,.05.167H12.66s-.17-.167-.17-.224Zm.4-.113v.228h.115v.167h.278v-.282h-.112l-.058-.113Zm.513.054.049.228h.063v.113l.17-.054v-.228l-.063-.059s-.219.059-.219,0m.509-.054v-.057l.228.111.116.059-.062.228h-.17s.058-.059,0-.059v-.054l-.054-.115Zm.513.054v-.054l.29-.057.05.17v.169l-.05.113-.177-.054-.059-.17Zm.509-.054.116-.115.117.058.111.111.058.174h-.169L15.11,35.1l-.054-.058Zm.572-.115v.228l.116.115H15.8v-.115l-.067-.113v-.057Zm.451,0v.228h.12v.115h.281v-.174l-.053-.054-.063-.057Zm.575-.058h.171v.116l.057.057V35.1l-.228-.058v-.286Zm.513,0h.17v.058h.058V35.1l-.058.057-.111-.057-.059-.058Zm.455-.058h.054l.121.174v.17H17.56L17.5,34.7Zm.287-.057.053.173.055.058.062.057h.052l-.052-.173V34.7Zm.393.057h.173l.059.116.053.115-.053.113-.059-.059-.111-.054s0-.231-.062-.231M8.79,35.9s5.865.111,6.035-.058c.169-.112.4.285.169.508,0,0-.4,0-.339-.339l-.116.062s-.174.509-.455.17l-.112-.058s-.111.343-.4,0c-.286-.285-.063,0-.063,0s-.223.4-.509,0l-.115-.058s-.286.4-.451.058l-.058-.058-.113.058-.057.058c-.062,0-.174.339-.285-.058-.175-.285-.113-.058-.113-.058l-.12.116s-.222.456-.339.054l-.116-.17-.111.058-.116.165-.058.116s-.219-.049-.219-.169l-.067-.112-.112.058s0,.456-.4.054l-.168-.112-.113.058s-.057.572-.459-.116L9.3,36.071l-.054.17s-.058.456-.4.054c.29.456-.17-.34-.054-.4m-.626.111h.167l.228.232v.223l-.167.062-.228-.178Zm-.574,0H7.7l.067.062.049.112.063.165v.116H7.768c-.067,0-.233.062-.233,0,0-.116.055-.455.055-.455m-.626.062H7.08l.116.112v.281H7.139a.322.322,0,0,1-.175-.339c.059-.227,0-.054,0-.054m-.624,0h.169v.393s-.228-.116-.169-.223c.063-.17,0-.17,0-.17m-.688.17h.179l.049.223H5.719l-.067-.169Zm9.744-.4h.286v.285l-.233.17-.053-.054-.058-.116Zm.513,0h.344v.115l.049.17v.116h-.285l-.108-.17Zm.911,0a.279.279,0,0,1,.17.058c.054,0,.054.057.054.057v.17l-.113.058h-.168Zm.794,0h.175v.231l-.116.054h-.059l-.054-.116Zm.514-9.305s.062-.171.062.111c-.062.232.282.349.282.349a.414.414,0,0,1,.285.571c-.062.339.339.28.339.28l.059-.053s.057-.227-.059-.286a.113.113,0,0,1-.115-.116c-.113.116-.167-.745-.167-.745a.422.422,0,0,0-.119-.282l-.17-.06c-.285-.336-.4.231-.4.231m.518-.456c-.629.344.393.4.335.629,0,0,.339.683.455.568,0,0,.061.115.286.062,0,0,.119-.237-.055-.237s-.057-.049-.057-.049-.34-.174-.34-.29c0-.054.05-1.026-.624-.683m-4.785,1.826H14.2l.116.231-.062.228h-.112Zm.5,0,.348.459h.227l-.057-.228-.17-.29Zm.629-.059.287.518h.231v-.228l-.231-.231Zm.572,0,.4.518.224.058v-.286l-.282-.29Zm.8.059.339.517h.173V28.3l-.342-.339Zm.625,0-.059.058.344.459h.058v-.348l-.115-.169Zm.57,0-.061.058.29.514h.166v-.282l-.282-.29Zm.509.058H18.3l.17.173.053.341-.169-.055Zm.577.058h.168l.225.174.057.227v.112l-.169-.112Zm.736.174.115.107v.175l-.115-.055Zm.34,0h.119l.051.107v.232h-.108Zm-.34-.517.115-.059.054.227-.115-.115Zm.34-.171h.119l.051.171v.053Zm-3.531,1.2h.062s.223.174.112.285c0,0-.174,0-.174-.057ZM8.79.507C8.331.334,7.817.272,7.535.678A.782.782,0,0,0,7.482,1.7a1.168,1.168,0,0,1,0,.968c-.518.059.053.974-1.027.858a1.926,1.926,0,0,0-.973-.286c-.393-.8-1.195-1.031-1.762-.228-.8-.054-1.251.344-1.308,1.37A2.708,2.708,0,0,0,.987,5.3a1.728,1.728,0,0,0-.173.973,1.842,1.842,0,0,0-.683.968.852.852,0,0,0,.285,1.2c.17.509.4.679.741.679A2.216,2.216,0,0,0,2.014,10.5l.228.343c.281.394.8.112,1.08-.571l.117.625A2.514,2.514,0,0,0,2.808,12.2c.059.518-.285,1.031-.173,1.6.116.8-.339.568.406,2.115.054.678.335.965.679,1.081,0,.566.173.856.513.856A1.017,1.017,0,0,0,4.8,18.94a8.38,8.38,0,0,0,.567,3.829c-.112,0-.169.227-.169.455L4.92,25.906c-.915-.228-1.37.227-1.428.915a.953.953,0,0,0-.34,1.423.815.815,0,0,0-.45.688c-.352-.174-.629.231-.688.914l-.057,1.486a.763.763,0,0,0,0,1.142,6.07,6.07,0,0,0,.116,1.081A6.474,6.474,0,0,0,2.808,35.1a1.63,1.63,0,0,1,.912.17,1.275,1.275,0,0,0,.91.116c-.17.74.058,1.2.4,1.249H17.955a1.522,1.522,0,0,0,.913-1.593c.514-.113,1.594-.344,1.594-.972a3.1,3.1,0,0,0,.857-2.17c.286-.111.339-.17.4-.513,0-.4-.111-.568-.4-.568-.17-.745-.116-1.257-.625-1.829a1.8,1.8,0,0,0-.633-1.084c.286-.741-.169-1.084-.51-1.37-.169-1.371-1.534,0-1.651-1.486a4.371,4.371,0,0,0-.4-1.254l.061-.8.287-1.826a5.791,5.791,0,0,1,.17-2.056,1.369,1.369,0,0,1,.339-.911,1.5,1.5,0,0,0,.512-1.375c.514-.111.683-.513.629-1.138a1.016,1.016,0,0,0,.225-1.142c.405-.286.405-.8.17-1.428v-.571a2.643,2.643,0,0,0-.4-1.487l-.516-1.079c-.054-.227.4.111.516.339.452.973.907.571,1.2-.054a4.468,4.468,0,0,0,.625-1.089c.339-.736,1.255-.794,1.366-1.655a1.484,1.484,0,0,0-.856-1.37c.173-1.366-.455-1.879-1.7-1.825a2.176,2.176,0,0,0-1.2-1.657,1.673,1.673,0,0,0-2.107.974,1.653,1.653,0,0,0-1.2.285,1.687,1.687,0,0,0-.629-1.259,2.087,2.087,0,0,0-.339-1.428C14.655.16,14.2-.125,13.289.16a2.108,2.108,0,0,0-1.54,0,.619.619,0,0,0-.8.063c-.219-.286-.509-.286-.849-.063C9.874.106,9.638.049,9.527.334,9.187.16,8.79.223,8.79.507m2.161,16.835-.4-.339.4-.341c-.108-.4.231-.517.74-.686.12.4.911.339.746.8-.058.228,0,.339.165.4.629.344.178.861-.282.8a.5.5,0,0,1,.282.683l-.455.058c.513-.4-.174-.4-.286-.572a.75.75,0,0,0-.34-.8c-.169.571-.512.455-.624,1.258a.485.485,0,0,1-.4-.456.682.682,0,0,1,.626-.575.6.6,0,0,1,.455-.509,1.239,1.239,0,0,1,.8.8c.169-.343.058-.687-.455-.856a.5.5,0,0,0-.286-.688,1.228,1.228,0,0,0-.687,1.027M9.987,16.03c-.233.058-.46.231-.688.911,0,.293.116.575.4.628-.455.464-.173.8.455.8-.455-.228-.566-.4.113-.856.112-.228.174-.456-.059-.513-.335-.062-.62.4-.682.169-.054-.4.8-.572.628-.857ZM13,16.2l.116-.174c.17.058.344.115.393.343v.344l.17.17a.521.521,0,0,1-.451.856c-.112,0-.343-.344-.166-.4l.108-.054.232.228c.17-.174.17-.4-.174-.688.112-.343,0-.567-.228-.624m3.362.111a1.162,1.162,0,0,0-.228.919.783.783,0,0,0,.455.563c0,.463.228.629.626.575.057.514.231.683.517.63-.517-.63,0-.687.112-1.2-.233.116-.348.178-.514.062-.169.285-.57.228-.456-.062s.228-.455.113-.563c-.227.165-.455.282-.625,0a.914.914,0,0,1,.17-.634Zm-.4-1.767a.581.581,0,0,0,.451-.286c0,.286-.165.455-.339.8a.828.828,0,0,0,.567,1.022.777.777,0,0,0,.518.74.934.934,0,0,0,.964.858c-.059-.683.228-.745.344-1.086a.319.319,0,0,0-.282-.455c.112.63-.4.63-.4,1.089-.175.108-.514-.062-.29-.517.236-.513.57-.687.174-.911-.174-.116-.34.339-.455.742a.412.412,0,0,1,0-.8.54.54,0,0,0-.054-.74c-.174-.117-.344.338-.518.74-.111.116-.344-.169-.228-.4l.228-.455a.9.9,0,0,0-.17-1.2c-.174.227-.285.116-.285-.223-.174,0-.224.393-.224,1.08M16.82,12.2c.285,0,.111.058-.116.629a.429.429,0,0,0,.286.567c.174-.339.054-.678.343-.678.34.111.116.968-.115,1.138-.174.116-.054.4.168.629.4-.286.228-.683.4-1.139.111-.289.513.05.28.742,0,.111-.222.169-.4.517,0,.277.062.51.227.562a2.419,2.419,0,0,0,.456-1.026c.057-.115.29-.115.29.229a1.99,1.99,0,0,1-.344.967.323.323,0,0,0,.111.4.468.468,0,0,0,.233-.111c.281-.4.049-.8.335-.854.174-.116.289.108.231.393a.771.771,0,0,1-.455.634c.282.339.4.455.224.567-.456-.285-.853-.285-.912-.8-.28-.054-.509-.282-.683-.858a1.117,1.117,0,0,1-.566-1.079,1,1,0,0,1-.518-.63c0-.575.29-.857.518-.8M16.7,9.238c-.112-.224,0-.571.286-.4l.174-.116c.169-.057.4,0,.335.228-.281.517-.05.343-.622.571-.285.174-.173.629.167.4l.342-.116c.228-.052.349.344.174.46-.227,0-.516.054-.516.228-.113.737.231.054.691,0,0-.4.112-.513.393-.513a.566.566,0,0,1,.344-.571c.223-.059.342.057.342.227s-.057.169-.342.513c-.116.232-.059.4.174.629.111-.343.393-.4.45-.174.059.518-.057.861.174.915l-.058.228c-.344-.054-.566-.282-.566-.8-.174.057-.344-.17-.518-.455a1.456,1.456,0,0,1-.742.91.446.446,0,0,0,0,.575,2.569,2.569,0,0,1,.683-.8c.233-.117.51.116.287.46l-.509.566c-.058.228.17.518.281.406-.059-.286.062-.517.4-.745a.28.28,0,0,1,.456.228c0,.281-.286.281-.568.74-.057.344.059.46.282.4-.049-.343.4-.513.46-.911.165-.12.281-.062.281.165.061.344-.224.518-.509.8a1.677,1.677,0,0,1,.054.513c.339-.339.57-.745.741-.513.17.107,0,.344-.452.737a.482.482,0,0,0,.34.4.251.251,0,0,1-.34.231.581.581,0,0,1-.289-.632,1.814,1.814,0,0,1-.853-1.081c-.339,0-.629-.285-.679-.8-.344-.116-.518-.4-.459-.972a1.055,1.055,0,0,1-.4-.911c-.455-.4-.4-.745.112-1.03m1.821-3.995a.907.907,0,0,0-.911,1.031l-.228.054c-.222.058-.281-.174-.281-.46A1.5,1.5,0,0,1,17.56,4.9l-.342.054c-.174.057-.054-.8-.287-.745.113.629.113,1.03-.227,1.141a.819.819,0,0,0-.906.576.611.611,0,0,1-.286-.687c.219.111.286-.112.455-.174.17-.227.4-.165.625-.227.171-.117.171-.228,0-.339-.227.169-.575,0-.683.455-.4.223-.628,0-.513-.286.286-.741.969-.857,1.768-.683a1.144,1.144,0,0,1,1.308-1.142c.4.057.509.339.624.683a.784.784,0,0,1,.626.459.542.542,0,0,1-.51.625c-.285-.111-.455,0-.566.344,0,.223.222.459.674,0,.231-.17.29-.629.572-.514,1.2.514,2,.17,1.766,1.768.171.518.683.571.857,1.142a.352.352,0,0,1-.285.4c-.17,0-.4-.232-.625-.571l-.117.169c.287.232.572.455.572.8-.169.232-.4-.223-.625-.4a1.058,1.058,0,0,1,.281.687c-.111,0-.228-.058-.342-.29a2,2,0,0,0,.061.571c-.286.116-.571-.281-.459-.74a.7.7,0,0,0-.737-.63c-.347.116-.517.455-.517.972a.544.544,0,0,0-.452.4c-.058.571.4.455.907.571.285.117-.116.513.285.973-.335.228-.8-.174-.678-.571-.514.059-.117-.116-.629-.285-.341-.117-.287-.688-.116-1.027l-.058-.514a.85.85,0,0,0,.86-.517c-.231.116-.686.232-.745-.053a2.7,2.7,0,0,1,0-.973c.224-.46.745-.344,1.251-.116a1.911,1.911,0,0,1-.506-.514c-.521.344-.745.116-.973-.344a.752.752,0,0,1-.173.576l-.393.224c-.347.289-.174.629,0,.687.054-.344.223-.567.455-.455.4,1.423-1.143,1.37-1.022,1.655.112.112.455.058.96-.17.062.34.173.853-.223,1.081-.232.17-.4.062-.625.4.17.4.17.63-.112.514-.236-.344-.286-.572-.121-.853a1.523,1.523,0,0,1,.514-.4c.344-.117.112-.4-.281-.287l-.112.059c-.4.282-.517-.576-.46-.973.285-.745.68.282,1.081-.4-.683-.058-.683-.4-.567-.8.166-.514.857-.571.736-.969m2.107.969c-.17-.282.232-.858.517-.911.456,0,.456.567.17,1.366a.376.376,0,0,1-.286-.393l.286-.12c.116-.4-.058-.456-.343-.4ZM20.52,6.5a.862.862,0,0,1,.854.688c0,.227-.341.339-.341.116-.12-.745-.571-.518-.513-.8m-.343,1.487a.627.627,0,0,1-.393.629c.057.227.277.169.393-.059.227.228.455.286.687.059.112.054.169.169.112.4-.282.165-.282.224-.17.339a.453.453,0,0,1,.286-.285.149.149,0,0,1,.169.17c-.169.115-.348.174-.4.4-.113.169-.344-.058-.625-.571-.688.227-.919-.455-.4-.625a.434.434,0,0,1,.166-.513.386.386,0,0,1,.232-.406c.108.116.165.232-.062.46m-13.9,8.161a1.141,1.141,0,0,1,.228.915.542.542,0,0,1-.451.509c0,.518-.227.634-.576.575-.111.514-.28.683-.562.626.51-.626,0-.683-.116-1.139.223.055.339.166.509.055.169.289.567.227.456-.055s-.225-.459-.117-.571c.228.174.46.282.629,0a1.019,1.019,0,0,0-.169-.625Zm.4-1.655a.67.67,0,0,1-.455-.344c0,.344.179.464.347.8A.745.745,0,0,1,6,15.922a.783.783,0,0,1-.514.74.982.982,0,0,1-.964.854c.054-.688-.231-.741-.339-1.031-.112-.34.108-.455.281-.455-.057.57.4.57.4,1.03.169.112.513-.057.285-.512s-.571-.626-.169-.858c.169-.115.339.34.456.683a.374.374,0,0,0,0-.74.5.5,0,0,1,.114-.746c.108-.108.287.344.452.746.116.111.344-.174.228-.4L6,14.833a.97.97,0,0,1,.174-1.2c.17.223.285.111.285-.237.167,0,.286.406.224,1.089m-.848-2.339c.227,0,.509.224.509.8a.725.725,0,0,1-.509.625,1.262,1.262,0,0,1-.572,1.088c-.17.509-.4.742-.687.8-.054.463-.451.463-.906.745-.116-.059-.059-.174.227-.514a.887.887,0,0,1-.454-.624c-.063-.287.053-.456.227-.4.282.116.054.457.339.858a.468.468,0,0,0,.282.112.431.431,0,0,0,.057-.4,2.033,2.033,0,0,1-.339-.91c0-.344.282-.344.339-.228a1.914,1.914,0,0,0,.4.973c.228-.062.228-.287.228-.576-.17-.286-.4-.344-.4-.459-.228-.68.174-.969.286-.737.169.455,0,.852.4,1.138.223-.228.34-.514.171-.625-.228-.169-.456-1.027-.059-1.084.228-.058.111.339.281.628a.432.432,0,0,0,.29-.571c-.223-.517-.4-.575-.111-.629M5.942,9.3c.513.286.567.629.116,1.027a.9.9,0,0,1-.406.857c.067.571-.108.856-.45.972a.86.86,0,0,1-.684.8,1.931,1.931,0,0,1-.852,1.027.506.506,0,0,1-.29.571.22.22,0,0,1-.335-.173.493.493,0,0,0,.335-.4c-.46-.4-.625-.626-.46-.741.179-.174.406.165.75.455a1.46,1.46,0,0,1,.054-.455c-.281-.286-.568-.456-.514-.746,0-.285.116-.339.286-.227.058.4.513.571.456.915.231.058.339-.058.285-.4-.285-.4-.567-.4-.567-.686a.279.279,0,0,1,.455-.228.664.664,0,0,1,.4.745c.112.054.34-.178.286-.406l-.517-.566c-.22-.287.116-.577.285-.46a2.5,2.5,0,0,1,.687.8.441.441,0,0,0,0-.575,1.521,1.521,0,0,1-.741-.856c-.174.289-.285.458-.513.4,0,.517-.227.745-.566.8l-.063-.17c.231-.112.116-.4.174-.911.057-.285.343-.173.455.112a.43.43,0,0,0,.174-.575c-.286-.339-.347-.339-.347-.509s.116-.228.347-.228a.574.574,0,0,1,.339.567c.286,0,.456.116.4.514.451.057.8.683.679,0,0-.228-.286-.228-.51-.228-.169-.116,0-.514.224-.455l.286.116c.343.169.459-.227.17-.344-.51-.286-.339-.116-.567-.625-.113-.174.111-.232.28-.232l.17.17c.29-.17.406.116.29.343M4.121,5.47c-.116.4.567.4.737.916.169.4.116.682-.571.8.4.686.8-.344,1.084.339.059.406-.058,1.2-.451.972L4.8,8.443c-.4-.117-.625.111-.286.281a1.07,1.07,0,0,1,.509.4c.175.231.116.459-.107.8-.29.112-.29-.116-.116-.512-.232-.29-.4-.174-.625-.344-.4-.286-.286-.742-.231-1.084.512.227.856.285.972.169.107-.282-1.428-.223-1.027-1.6.228-.113.394.111.451.459a.4.4,0,0,0,0-.687l-.4-.229a.481.481,0,0,1-.116-.513c-.282.456-.51.626-1.024.282a1.39,1.39,0,0,1-.512.518C2.808,6.154,3.322,6.1,3.55,6.5a2.423,2.423,0,0,1,0,.915c-.058.282-.509.228-.742.058a.8.8,0,0,0,.912.514L3.607,8.5c.171.344.225.857-.115.973-.514.228-.116.4-.625.287.111.4-.344.794-.688.566.4-.455,0-.853.29-.91.509-.174.97-.059.907-.572a.544.544,0,0,0-.4-.4,1.165,1.165,0,0,0-.566-.973c-.4.054-.742.339-.742.629.113.455-.169.853-.455.741a2.245,2.245,0,0,0,.054-.571C1.215,8.5,1.046,8.5.93,8.5a1.046,1.046,0,0,1,.285-.625C.987,8.1.76,8.5.586,8.269a1.041,1.041,0,0,1,.571-.745L1.046,7.3c-.232.393-.46.57-.63.57S.131,7.756.131,7.524C.305,6.957.814,6.9.987,6.386c-.227-1.544.572-1.2,1.764-1.714.29-.112.344.343.571.509.456.46.683.236.683,0-.112-.339-.285-.456-.566-.339a.48.48,0,0,1-.461-.629c.063-.17.228-.344.629-.4.059-.4.171-.629.572-.683a1.145,1.145,0,0,1,1.3,1.143c.8-.174,1.482-.062,1.769.629.115.277-.112.45-.51.277-.119-.456-.46-.277-.683-.456-.178.117-.178.233,0,.344.223.062.451-.054.621.232.17.053.232.285.46.169a.537.537,0,0,1-.29.629.769.769,0,0,0-.907-.513C5.6,5.47,5.6,5.069,5.719,4.5c-.237-.117-.067.678-.289.678l-.341-.05a1.409,1.409,0,0,1,.455.911c0,.344-.062.514-.285.455l-.232-.054c0-.686-.339-.973-.906-.973m-2.107.916L1.67,5.93c-.281,0-.455,0-.281.4l.224.115c.057.224-.112.34-.285.4-.224-.8-.282-1.312.173-1.312.282,0,.678.625.513.857m.112.281c.053.29-.4.063-.513.8,0,.224-.344.116-.344-.116a.815.815,0,0,1,.857-.687M2.469,8.1c-.227-.228-.173-.343-.057-.405.169,0,.223.177.223.405a.29.29,0,0,1,.173.4c.514.228.287.857-.4.626-.286.575-.518.745-.629.634a.554.554,0,0,0-.394-.4c0-.115.05-.231.17-.231a.616.616,0,0,1,.286.347c.112-.116.112-.174-.175-.347a.431.431,0,0,1,.175-.455c.169.285.4.173.624,0,.112.231.339.231.4.057a.686.686,0,0,1-.4-.625m13.5-2.342A.758.758,0,0,0,16.99,5.3l.054.228a2.464,2.464,0,0,1-.281.914c-.572-.057-.684.113-.684.455-.227.117-.348-.115-.348-.57a1,1,0,0,0,.236-.571M6.679,5.93c.116.282.062.456.232.567,0,.518-.116.688-.289.571-.051-.338-.167-.455-.742-.455A2.264,2.264,0,0,1,5.6,5.757l.053-.287a.726.726,0,0,0,1.027.46m9.173,1.255c.4-.228.45-.8.968-.572.224.117.566.117.513.4a1.119,1.119,0,0,1-1.2.571c-.058.108-.058.223.116.344.223,0,.393-.174.624-.121.167.175.113.29.113.517-.17.572-.688.117-.625.742a.56.56,0,0,1-.063-.915c-.393-.054-.79-.8-.45-.968m-9,.227c.29.174-.108.857-.509.914a.621.621,0,0,1-.059.969c.059-.682-.45-.173-.562-.8-.067-.227-.12-.343.05-.455.227-.057.4.112.634.058.168-.058.219-.169.106-.343a1.215,1.215,0,0,1-1.2-.514c-.054-.285.286-.344.518-.4.509-.285.572.344,1.018.571M8.674,2.619a1.654,1.654,0,0,1-.282,1.2c-.12.745.907,1.027.625,1.428-.571.687.117.741-.173,1.655a.752.752,0,0,0,.629.4,1.445,1.445,0,0,0,.451.629c.231-.688-.107-.915-.679-1.032a6.826,6.826,0,0,0-.111-1.03c.62,1.258,1.6.518,2.335-.282.629.8,1.481,1.027,2.106.4a1.025,1.025,0,0,1-.456,1.084v.741c.17-.794.626-.624.742-.968.223-.513-.059-.8.223-1.255a.345.345,0,0,0-.282-.455c-.057-.406.116-.571.514-.856a.9.9,0,0,0-.286-.915c.054-.8-.285-1.2-.8-1.312a2.068,2.068,0,0,0-1.307-.514,3.337,3.337,0,0,0-1.656.113,4.357,4.357,0,0,0-1.594.972m.4.513c.4-.683.8-.856,1.253-.8a.951.951,0,0,1,.452,1.656.628.628,0,1,0,1.254-.058.758.758,0,0,1-.174-.8A.932.932,0,0,1,13.625,2.9a1.664,1.664,0,0,0-.912-.232c-.165.059-.566.232-.566.572a.635.635,0,0,0,.343.571c1.022.571,1.135-1.428,0-.455,0-.513.8-.572.973-.344a.649.649,0,0,1-.513.973,1.176,1.176,0,0,1,.675,1.365c-.113.974-1.652.63-1.876.175,1.089.4,1.763.339,1.763-.514-.223.4-.674.626-1.588.4.678.053,1.249-.236,1.2-.8a1.209,1.209,0,0,1-.972.455c.29-.111.513-.281.513-.509,0-.347-.112-.517-.223-.571.276,1.365-2.282,1.54-2.057,0-.626.286-.171,1.08.463,1.142-.344.17-.688.05-1.089-.459-.054.629.514.969,1.143.745-.4.34-.973.224-1.424-.4-.174.626.907,1.139,1.593.514-.334.57-1.079.455-1.539.169.111.286.227.514.517.456.111.12.058.174,0,.289a1.214,1.214,0,0,1-.687-.629c0-.173-.223-.46-.17-.745a1.351,1.351,0,0,1,.34-.509c.173-.231.4-.285.46-.517A.915.915,0,0,1,8.96,3.53c.74.459,1.308.513,1.42.057-.112-.343-.456-.74-.853-.4l-.393.29c.62-.915,1.075-.688,1.477-.059a.863.863,0,0,0-.169-.57c-.34-.4-.8-.286-1.366.285M8.1,1.82l-.112.344.112.508-.05.63c0-.34-.062-.514-.285-.514-.286.116-.4.456-.572,1.027.286.228.286.571.621.571.174.228.455.456.629.174.17-.231-.115-.4-.343-.459.571-.571.169-.8.289-1.254a1.065,1.065,0,0,1,.568-.634c.174-.281.057-.509-.228-.8.228-.281.344.179.455.29.17.116.228.054.17-.111l-.281-.286c.058-.343.8.857,1.079.107V.678a.3.3,0,0,0-.517,0l.062.566A.793.793,0,0,0,9.017.678c-.227-.063-.343.17-.343.286a1.156,1.156,0,0,0-.794.169c-.456.281-.063.915.223.687M13.861.507a.794.794,0,0,0-.973.514.44.44,0,0,0-.05.456h.335c.058.343.4.625.969.856a1.159,1.159,0,0,0,0,.629,1.729,1.729,0,0,0,.4.969,1.918,1.918,0,0,0-.054.973.393.393,0,0,0-.231.4c.344.911-.054.4-.112.567-.058.46,0,.8.174.862v.4a.469.469,0,0,0,.4.344c.227-.285-.058-.455,0-.8.4.116.514-.224.4-.737a1.473,1.473,0,0,0-.285-1.544c.343-.343.343-.625-.05-1.084l-.29-.455c.113-.228.113-1.66-.455-1.487v.518c-.285,0-.4-.174-.455-.518a.662.662,0,0,0,.509-.173c.17-.285.17-.572-.223-.68M11.41,6.386c.339.057.563.17.563.344.062.227-.224.455-.452.4.228.175.514,0,.626-.285l.173.116c-.459.852-1.588.683-1.539-.059,0-.4.344-.512.629-.512m-1.081.281c.282.919.907,1.263,1.595.973a1.829,1.829,0,0,0,.856-.973,1.5,1.5,0,0,1,.058,1.2c-.865,1.367-3.651.572-2.57-1.2ZM7.652,4.672c.049.053,0,.17.049.232.067.227.29.339.4.054a.406.406,0,0,1,.4.512.807.807,0,0,1-.8.629l-.335-.115c0-.286.224-.286.224-.343C7.7,5.417,7.023,4.9,7.424,4.5c.111-.117.277,0,.228.169M7.7,6.443a1.007,1.007,0,0,0,.571-.4c.12,0,.12.286.12.625a2.6,2.6,0,0,0,.224-.393,1.052,1.052,0,0,1,.058.852,1.106,1.106,0,0,1-.51.63c-.111-.286-.173-.514-.463-.63a.476.476,0,0,1,0-.683m3.709,7.418c.4.4,1.027.343.969.918.4-.062.571.108.624.514.062.34-.165.567-.566.629.343.108.513.282.513.563l-.17.343c0-.343-.12-.513-.343-.567-.8-.285-.626-.571-1.027-1.195.111.856-.968.678-.678,1.482-.4-.233-.577-.46-.352-.858.352-.057.571-.169.517-.459-.116-.282.285-.568.455-.4l.459.4.455.228c.171.4.622.062.224-.287-.224-.285-1.254-.339-1.254-1.141a1.537,1.537,0,0,0-.571,1.311c-.621.117-.563-1.249.067-1.365-.352-.339.848-1.312.678-.116m.17-.968c.281.227.629.169.74.508a.655.655,0,0,0,.518.348c.112.058.227.228.165.344-.115.4-.223.57-.513.517l.058-.517c0-.232-.45-.116-.624-.344-.344-.455-.455-.969-.344-.856m-.059-1.885a1.831,1.831,0,0,0,.858,1.143c.281.224.281.742.571.683.281.344-.112.8-.4.46,0-.46-.339-.514-.737-.571-.231-.058-.342-.29-.459-.518a1.345,1.345,0,0,1-.91,1.089.969.969,0,0,0,.057.567c-.17,0-.4,0-.455-.223-.12-.8.285-1.027.621-1.089-.054,0-.112-.116-.054-.224a.878.878,0,0,1,.969-.4Zm.17-.4a2.128,2.128,0,0,0,.629,0A2.011,2.011,0,0,0,13,11.639a.454.454,0,0,1-.053.794c-.237,0-.237-.108-.29-.513,0-.224-.281-.224-.513-.34a.92.92,0,0,1-.4-.518Zm-.848.062c.393-.119.626.112.451.51-.112.343-.4.517-.683.741l-.112.115c-.119.116-.057.29-.119.576a.641.641,0,0,1-.393-.745,5.892,5.892,0,0,0,.342-.571,1.376,1.376,0,0,1,.514-.626M7.88,7.694c.223.405.512.459.794-.054.232,1.2.343,0,.46.459l.053.17c.286-.058.4.057.451.285l-.562.4v.4c-.17.116-.4.059-.571-.339l-.113-.347c-.061-.282-.691-.282-.512-.973M9.357,8.952c.343-.112.567-.054.687.17.336.173,1.081.459,1.308.116.228.231-.571.57.228.629.393.057.344-.344.058-.572l.286-.227c.174.455.285.111.566.227.348.117.17.629-.17.911a.663.663,0,0,1-.8,0c-.624.29-.968,0-1.192-.567l-.174.567c-.517-.567-1.195-.625-.8-1.254m3.423.286c.058-.224.339-.286.451-.571.514.173.058.455.281.914-.107.571-.393.687-.852.571.178-.285.053-.513.12-.914m.9-.853-.057-.232c.057-.4.236-.4.459-.344a.392.392,0,0,0,.058.576c.058,0,.112.058.112-.059a1.044,1.044,0,0,0-.17-.686c.232,0,.116-.17.116-.339.116,0,.165.053.285.169.29.286.29,1.084-.057,1.254-.286,0-.4.228-.4.514h-.4a.624.624,0,0,0-.282-.853c.12-.116.232-.174.339,0M15.449,6.1c.282-.169.117.457.063.742.111.285.054.4-.116.46.227.111.286.339.116.74l-.344.683c-.058.857.281-.111.4-.4.165-.173.286-.057.343.117a1.3,1.3,0,0,1-.4,1.026c0,.567.111.567.34.054.165-.111.45.116.165.513l-.219.46c-.349.512.169.512.339.054.054-.166.281-.112.228.057,0,.344-.174.518-.4.861-.115.171.112.34.286.054l.223-.4c.228.17.344.455,0,.91l-.285.514v.745c-.224,0-.393-.116-.282-.514l.058-.686c-.115-.344-.455-.4-.4-1.086-.626-.512,0-1.2-.51-1.6-.231-.117-.231-.4-.231-.745a8.082,8.082,0,0,1,.343-1.482Zm-8.2-.057.284,1.143a5.182,5.182,0,0,1,.282,1.428.9.9,0,0,1-.165.8c-.513.344.116,1.026-.513,1.539.057.688-.29.8-.4,1.084l.054.688c.054.4-.054.513-.34.513l.054-.746-.339-.509c-.29-.459-.228-.686,0-.856l.285.343c.167.282.394.112.286-.062a2.092,2.092,0,0,1-.46-.856.149.149,0,0,1,.29-.054c.17.512.625.455.34-.058l-.289-.455c-.219-.4.057-.63.173-.514.285.567.4.514.344,0A1.658,1.658,0,0,1,6.8,8.385c.054-.174.169-.232.344-.059.112.287.4,1.2.343.341L7.2,7.984c-.232-.4-.116-.63.112-.742-.169-.057-.228-.174-.112-.4V6.783c-.057-.286-.232-.853.055-.741m8.766,9.591c.348.512-.05.512-.108,1.37-.111.231-.286.339-.46.231.233-.459.233-2.114.568-1.6M12.888,10.5c.231.227.343.566.687.629.455.227.679.514.343.8a1.658,1.658,0,0,0-.853-.568c-.115-.173,0-.4-.352-.513-.053-.232,0-.343.175-.343m.624,1.424.349.343c.624.46.5.857,0,1.031.5.344.393.737-.059,1.081l.282.458c.232.339,0,.688-.339.857.455.455.455.683.116.8-.059-.224-.059-.563-.456-.625-.455-.17-.062-.455-.286-1.027.17,0,.286.233.506.626.293-.228.177-.455-.22-.742.107-.624-.4-.686-.286-.968l.112-.174c.174.343.344.629.514.571.116-.169-.063-.4-.4-.629a1.094,1.094,0,0,1-.112-.852c.394.455.63.571.687.228-.455-.228-.745-.568-.406-.973m.233-1.768c.339-.058.455.116.455.571-.058.17-.17.228-.282.17-.406-.17.054-.509-.173-.741m.571,1.714a1.265,1.265,0,0,0-.232-.8c-.112-.169.232-.339.281-.223l.233.286c.285.455.177.741-.282.741m-.174.339c-.112-.17.174-.4.4-.224a1.014,1.014,0,0,1,.4.853c0,.174-.285.228-.285.059-.116-.63-.29-.4-.513-.688m.286.973c.285,0,.455.116.566.46a.524.524,0,0,1-.054.508c0,.058-.115.058-.115-.169a.45.45,0,0,0-.46-.339c-.281,0-.223-.46.063-.46M14.2,14.663c-.339-.115.054-.686.339-.517.344.517.629,1.313.344,1.2-.285-.049-.285-.563-.683-.679m.116.97c.169-.112.282-.058.339.111a.808.808,0,0,1,.12.629l-.177-.228c-.17-.285-.456-.285-.282-.512m0,.682a.969.969,0,0,1,.169.8c-.057.517-.231.517-.513,0,.228.174.456.12.282-.286-.112-.28-.17-.393.062-.513m.794-.682c.228.057.456.173.4.455a1.278,1.278,0,0,0-.174.512c-.282-.227-.282-.57-.228-.967m-.116.967c-.219.287-.4.688-.054.8.228.117.341-.111.228-.4-.112,0-.112-.175-.174-.4m-.455-6.9c.174.059.286.17.286.455.058.232,0,.286-.112.232-.228-.116-.174-.178-.174-.517Zm0,1.026a.291.291,0,0,1,.4-.116.921.921,0,0,1,.228.861.736.736,0,0,1,.344.737l-.116.406.227.625-.111.4a.543.543,0,0,1,.219.683c0,.111-.108.169-.219.111.111-.514-.4-.455-.063-.964-.111,0-.339-.518-.168-.857-.4-.286,0-.8-.4-.915l.227-.174c-.227-.17-.625-.343-.571-.8m.973,4.449-.063.233c0,.17-.222,0-.281-.174a.481.481,0,0,0-.112-.568c.282-.173.51.286.456.509M10.1,10.607c.166,0,.227.116.166.344-.344.111-.224.344-.344.517a1.629,1.629,0,0,0-.964.567c-.286-.339-.054-.567.4-.8.343-.054.517-.394.745-.626m-.629,1.428c.344.4.054.745-.456.915.059.4.34.286.737-.227a.872.872,0,0,1-.165.852c-.344.286-.513.518-.4.629.17.117.34-.173.567-.513l.063.17c.17.285-.344.343-.228.972-.455.287-.572.509-.232.742.17-.4.281-.626.46-.626-.179.51.227.857-.228,1.027-.455.054-.455.339-.513.624-.344-.115-.4-.339.111-.794-.343-.231-.628-.575-.4-.857l.344-.459c-.518-.4-.575-.741-.058-1.089-.571-.165-.684-.567,0-1.026Zm-.286-1.767c-.227.228.286.571-.17.74a.194.194,0,0,1-.285-.169c-.058-.455.112-.687.455-.571m-.571,1.713c-.513,0-.625-.285-.344-.748l.233-.282c.111-.112.455.057.339.228a.824.824,0,0,0-.228.8m.116.344c-.227.286-.34.05-.513.683,0,.17-.282.112-.282-.115a.87.87,0,0,1,.394-.8c.228-.174.513.057.4.231m-.286.969c.286,0,.4.455.113.455a.468.468,0,0,0-.506.344c0,.228-.116.228-.173.111a1.007,1.007,0,0,1-.063-.455c.12-.348.347-.513.629-.455m.286,1.485c-.46.054-.46.563-.741.68-.339.116,0-.68.34-1.2.343-.169.745.4.4.517m-.173.965c.173.232-.113.232-.287.517l-.169.174a.972.972,0,0,1,.061-.575c.108-.17.228-.227.4-.116m0,.629c.231.175.173.289.057.568-.111.4.116.4.344.293-.344.509-.514.452-.568,0a1.136,1.136,0,0,1,.167-.861M7.7,15.744a.851.851,0,0,1-.219.973,1.311,1.311,0,0,0-.174-.513c-.057-.282.227-.4.393-.46m.179.973c.223.286.392.682.057.8-.236.115-.347-.174-.285-.4.165,0,.165-.173.228-.4m.451-6.909v.175c0,.339.115.4-.167.513-.111.054-.173-.058-.173-.228a.4.4,0,0,1,.34-.46m0,.973c.061.514-.394.687-.63.858l.29.169c-.4.112,0,.567-.456.857.233.343,0,.91-.169.91.4.518-.17.4-.058.973a.2.2,0,0,1-.285-.116.614.614,0,0,1,.285-.683l-.112-.4.228-.628-.173-.4a.826.826,0,0,1,.4-.745.81.81,0,0,1,.285-.857.27.27,0,0,1,.394.058M7.308,15.293c-.057-.227.174-.683.46-.514a.462.462,0,0,0-.116.563c0,.179-.286.348-.286.179Zm8.544,1.995c-.17,0-.229.111-.121.343.236.055.348.228.348.513.112.171.223.171.339,0a.277.277,0,0,0-.053-.347.894.894,0,0,1-.513-.509m.624,1.138s-.111.688.568.688c.174,0,.231-.059.12-.228a.144.144,0,0,0-.233,0c.059-.228,0-.4-.168-.46ZM5.2,18.94a1.706,1.706,0,0,1,.28,1.485,1.546,1.546,0,0,1-.052,1.312,4.617,4.617,0,0,1-.228-2.8" fill="#fff" fill-rule="evenodd"></path>
    </g>
  </g>
</svg>
