<svg xmlns="http://www.w3.org/2000/svg" xmlns:xlink="http://www.w3.org/1999/xlink" width="185.975" height="53.026" viewBox="0 0 185.975 53.026">
  <defs>
    <clipPath id="clip-path">
      <rect id="Rectangle_44983" data-name="Rectangle 44983" width="45.816" height="53.026" transform="translate(3)" fill="none"/>
    </clipPath>
  </defs>
  <g id="Group_105313" data-name="Group 105313" transform="translate(-552.551 -235.932)">
    <g id="Group_105312" data-name="Group 105312" transform="translate(612.662 235.932)">
      <g id="Group_105311" data-name="Group 105311" clip-path="url(#clip-path)">
        <path id="Path_78334" data-name="Path 78334" d="M0,39.352c.209.013.2-.131.2-.274,0-.548,0-1.1,0-1.688H2.6V36.167H9.516v1.409c.151.011.261.025.37.025q2.229,0,4.459,0c.162,0,.341.048.405-.2.017-.065.17-.1.265-.138,2.265-.951,4.529-1.906,6.8-2.843a.5.5,0,0,0,.367-.549q-.014-10.443-.007-20.886v-.469l.668-.048v-5.1l.109.047a2.081,2.081,0,0,0,.343-.458c.84-2.2,1.667-4.4,2.5-6.6.036-.094.075-.187.144-.357.067.153.113.246.149.342.835,2.213,1.666,4.427,2.51,6.636a2.017,2.017,0,0,0,.318.433l.114-.051v5.112l.675.042v.457q0,10.426-.008,20.852a.56.56,0,0,0,.418.619c2.293.942,4.577,1.909,6.865,2.864a1.164,1.164,0,0,0,.425.109c1.646.007,3.293,0,4.939,0a1.417,1.417,0,0,0,.156-.024V35.971h6.9v1.213h2.425V51.8H37.2v1.23H14.846v-1.22h-.48q-6.945,0-13.891,0c-.158,0-.317-.024-.475-.037V39.352M24.179,19.633V33.421a7.361,7.361,0,0,0,.908-.385,1.524,1.524,0,0,1,1.692-.005,6.67,6.67,0,0,0,.907.38V19.646a2.287,2.287,0,0,1-3.508-.013m-7.041,17.65.02.059H34.827c-.119-.064-.165-.094-.214-.115q-4.235-1.776-8.473-3.542a.694.694,0,0,0-.477.032q-3.909,1.622-7.81,3.263c-.238.1-.476.2-.714.3m10.989-21.46V33.071c0,.595.081.683.715.775V15.226H23.028V33.852c.689-.128.718-.161.718-.793q0-8.4,0-16.8v-.436ZM51.02,50.952c0-.551-.015-1.085.006-1.618.011-.284-.077-.366-.363-.366q-6.565.013-13.131.008a2.4,2.4,0,0,0-.321.04v1.936ZM14.689,49H.891v1.947h13.8Zm12.262,3.215v-.438c0-3.245-.019-6.489.014-9.734a6.006,6.006,0,0,0-.432-2.092.369.369,0,0,0-.262-.188,4.118,4.118,0,0,0-.718,0c-.076,0-.2.059-.213.115a6.332,6.332,0,0,0-.416,1.61c-.037,3.45-.019,6.9-.018,10.35,0,.121.01.242.017.379Zm21.621-15.4H43.328v1.453H37.221v1.057H50.963V38.014H48.572Zm-37.96,11.32c.007-.113.016-.191.016-.268,0-2.309,0-4.618-.005-6.928a1.371,1.371,0,0,0-.139-.556.4.4,0,0,0-.289-.2c-.651-.018-1.3-.015-1.955,0a.335.335,0,0,0-.262.143,2.771,2.771,0,0,0-.216.851c-.017,2.206-.01,4.413-.01,6.619v.342Zm36.914-.008V47.7c0-1.977-.013-3.954.009-5.931a3.237,3.237,0,0,0-.3-1.387.4.4,0,0,0-.291-.2c-.548-.02-1.1-.014-1.645,0-.088,0-.234.048-.253.107a4.827,4.827,0,0,0-.376,1.335c-.04,2.045-.017,4.091-.017,6.136v.37ZM1.044,39.315H14.815v-.886H8.7c0-.393-.018-.736.005-1.076.02-.29-.055-.4-.372-.392-1.508.017-3.017.007-4.526.009-.11,0-.22.013-.365.022v1.223H1.044ZM31.022,52.208v-.423c0-3.371-.009-6.742.009-10.112A4.872,4.872,0,0,0,30.739,40a.311.311,0,0,0-.37-.253c-.136.013-.276-.011-.41.008-.077.011-.2.061-.211.117a6.97,6.97,0,0,0-.429,1.711c-.04,3.4-.02,6.81-.02,10.215v.409Zm-10.134.021c.454,0,.864-.02,1.27.007.319.021.4-.087.4-.4-.011-3.28-.025-6.561.007-9.841a6.232,6.232,0,0,0-.431-2.06.315.315,0,0,0-.238-.172c-.19,0-.513.012-.546.1a5.241,5.241,0,0,0-.443,1.637c-.039,3.44-.02,6.881-.02,10.321v.405m-8.486-4.1H14.69V40.169H13.068c-.491,0-.582.075-.656.562a2.054,2.054,0,0,0-.01.308q0,3.342,0,6.684Zm22.42,4.087V51.77c0-3.234-.018-6.468.013-9.7a6.776,6.776,0,0,0-.488-2.153.325.325,0,0,0-.251-.155c-.119,0-.326.034-.348.1a4.7,4.7,0,0,0-.348,1.346c-.028,3.542-.016,7.084-.015,10.627,0,.121.012.242.019.377ZM5.944,48.129a.4.4,0,0,0,.033-.093c0-2.351.015-4.7,0-7.053,0-.629-.242-.813-.869-.813-.24,0-.481-.014-.718.007-.093.008-.235.076-.259.148a3.026,3.026,0,0,0-.213.885c-.017,2.18-.009,4.36-.009,6.54v.379Zm36.92,0c.009-.094.018-.15.018-.206,0-2.148.02-4.3-.016-6.444a3.84,3.84,0,0,0-.369-1.2c-.066-.174-1.24-.176-1.3,0a4.438,4.438,0,0,0-.371,1.3c-.039,2.067-.017,4.136-.016,6.2,0,.11.012.22.019.344ZM18.529,52.212v-.448c0-3.325-.013-6.651.011-9.976A6.239,6.239,0,0,0,18.1,39.9a.293.293,0,0,0-.225-.142c-.08,0-.221.056-.239.117a6.223,6.223,0,0,0-.419,1.61c-.038,3.451-.019,6.9-.018,10.353,0,.12.014.24.023.371ZM15.683,38.9H36.336v-.632c-.38-.026-.741-.072-1.1-.072q-9.156-.007-18.312,0a3.314,3.314,0,0,0-.343,0,.728.728,0,0,0-.212.07,3.154,3.154,0,0,1-.35.163,1.608,1.608,0,0,1-.334.03Zm23.359,9.227v-.412c0-1.987-.014-3.974.01-5.96a4.287,4.287,0,0,0-.376-1.442.235.235,0,0,0-.167-.134c-.429-.011-.859-.006-1.3-.006v7.955Zm11.948,0V40.17c-.405,0-.781-.006-1.157.005-.075,0-.2.058-.214.116a4.2,4.2,0,0,0-.307,1.143c-.03,2.113-.014,4.226-.013,6.34,0,.111.011.222.018.351ZM.886,40.17v7.948H2.145v-.4c0-2.169.008-4.338-.009-6.507a3.219,3.219,0,0,0-.209-.886.3.3,0,0,0-.222-.148c-.259-.019-.521-.007-.818-.007m14.806-.4V52.21h.672v-.451c0-3.186.009-6.372-.007-9.558a5.229,5.229,0,0,1,.326-2.144,1.9,1.9,0,0,0,.071-.285ZM25.981,2.429H25.9l-1.821,4.84H27.8l-1.822-4.84M24.074,52.21v-.452c0-3.129.009-6.258-.006-9.387a5.594,5.594,0,0,1,.355-2.412.981.981,0,0,0,.041-.182H22.975c.047.149.075.271.121.385a4.651,4.651,0,0,1,.293,1.806c-.016,3.278-.007,6.555-.007,9.833v.41ZM18.947,39.772c.061.191.1.356.165.512a4,4,0,0,1,.252,1.539c-.012,3.324-.006,6.647-.006,9.971V52.2h.695v-.438c0-3.415,0-6.83.006-10.245a4.046,4.046,0,0,1,.145-.9c.066-.279.172-.549.266-.842Zm9.525,12.437v-.445c0-3.3.005-6.6-.005-9.9a3.847,3.847,0,0,1,.248-1.539c.072-.171.113-.355.173-.551H27.372c.054.177.088.332.147.478a4.169,4.169,0,0,1,.27,1.6c-.015,3.313-.007,6.625-.007,9.938v.42Zm7.844-.015V39.771H35.191c.065.2.111.377.177.545a4.592,4.592,0,0,1,.291,1.741c-.017,3.2-.008,6.4-.008,9.6,0,.638,0,.638.665.535M31.507,39.773a5.189,5.189,0,0,1,.342,2.634q.01,4.68,0,9.36c0,.486,0,.487.494.461.055,0,.109-.018.2-.034v-.41c0-2.731-.023-5.463.01-8.194.016-1.267-.235-2.561.327-3.816ZM24.419,18.288a1.522,1.522,0,1,0,1.512-1.526,1.51,1.51,0,0,0-1.512,1.526m-1.384-3.941h5.808v-.989H23.034ZM43.149,40.188c.05.148.079.269.13.38a2.9,2.9,0,0,1,.229,1.263c-.013,1.963-.005,3.925-.005,5.888v.4h.528v-.436c0-1.769.008-3.538,0-5.306a4.221,4.221,0,0,1,.315-2.036.613.613,0,0,0,.029-.15Zm-2.96,7.936v-.389c0-1.874.01-3.747-.006-5.621a3.638,3.638,0,0,1,.287-1.7.924.924,0,0,0,.047-.223h-1.2a3.1,3.1,0,0,0,.114.346,3,3,0,0,1,.235,1.333c-.012,1.954-.005,3.907-.005,5.861v.394Zm-33.058,0v-.476c0-1.244-.027-2.489.008-3.732A15.63,15.63,0,0,1,7.3,40.186H6.512c.032.577.087,1.138.09,1.7.011,1.94,0,3.881,0,5.821v.42ZM2.673,40.18c.031.581.083,1.131.086,1.682.01,1.951,0,3.9,0,5.855v.4h.528c0-.175,0-.322,0-.469.055-2.485-.119-4.975.1-7.467Zm8.51.009c.022.416.06.8.061,1.181.006,2.113,0,4.226,0,6.339v.413h.537V47.7c0-2.067,0-4.135,0-6.2,0-.429.035-.858.055-1.305Zm37.49,7.935v-.433c0-1.176-.036-2.354.009-3.528.051-1.322-.245-2.668.276-3.972H47.806a3.386,3.386,0,0,1,.342,1.928c-.005,1.861,0,3.722,0,5.583v.421ZM28.16,8.164h-.713v4.3h.713ZM26.1,12.457h.674v-4.3H26.1Zm-2.395-.007h.544v-4.3h-.544Zm1.719-4.281h-.5V12.46h.5Zm-1.252,8.737.848-.66h-.848Zm3.511-.017v-.639H26.86l.827.639" fill="#9999a1" stroke="#000" stroke-width="0.04"/>
      </g>
    </g>
    <g id="Group_105298" data-name="Group 105298" transform="translate(552.701 257.301)">
      <path id="Path_78296" data-name="Path 78296" d="M0,29.216V18.249c.17.071.3.115.421.176,1.015.515,2.024,1.04,3.045,1.543a1.506,1.506,0,0,0,.64.153c4.184.009,8.368.028,12.551-.014a12.856,12.856,0,0,0,2.252-.429c1.662-.324,3.325-.64,4.985-.975a.751.751,0,0,0,.413-.259Q27,14.928,29.663,11.394a.654.654,0,0,0,.147-.352c.009-1.059,0-2.119,0-3.178a.437.437,0,0,0-.044-.122l-.859-.066q0-.068,0-.136l.883-.059V6.291l-.876-.047q0-.079,0-.159c.2-.006.407-.026.61-.015.226.012.308-.079.3-.3-.011-.3,0-.6,0-.936h.632c0,.3-.012.6.006.9a1.132,1.132,0,0,0,.127.325c.058-.11.166-.22.166-.331.011-1.735.008-3.47.008-5.2V0h4.206c.009.141.024.268.025.4,0,.768-.016,1.537.009,2.3.012.356-.081.483-.457.474-1.045-.025-2.092.008-3.137-.018-.379-.01-.469.12-.457.473.024.714,0,1.43.014,2.145,0,.1.087.19.134.285.056-.1.152-.191.159-.291.021-.3.008-.6.008-.933h.631c0,.291.018.579,0,.863-.025.305.1.4.388.374a3.742,3.742,0,0,1,.522.018q0,.073,0,.147l-.878.056V7.506h.873q0,.085.009.169l-.911.07a18.847,18.847,0,0,1-.014,2.03,3.341,3.341,0,0,0,.875,2.587c1.564,1.952,3.045,3.971,4.551,5.968a1.007,1.007,0,0,0,.675.411c2.129.415,4.252.86,6.378,1.288a4.234,4.234,0,0,0,.823.094q6.176.009,12.353,0a1.883,1.883,0,0,0,.787-.2c.988-.48,1.961-.988,2.941-1.484.126-.064.256-.118.446-.206.012.2.028.336.028.474,0,3.35-.005,6.7.01,10.051,0,.374-.109.462-.467.462q-22.242-.012-44.484-.007H0m44.592-8.925a65.5,65.5,0,0,0-11.127-1.842v1.876H32.338c0,.767-.012,1.48.006,2.193.007.292-.078.4-.379.389q-1.112-.028-2.224,0c-.307.008-.382-.106-.375-.394.018-.712.006-1.425.006-2.191H28.229V18.448A65.768,65.768,0,0,0,17.12,20.292v8.7h.75V21.518H20.63c.009.173.023.328.023.484,0,.715,0,1.43,0,2.145,0,1.5,0,2.993,0,4.49,0,.154-.075.377.208.38.445,0,.889,0,1.382,0V28.5c0-2.185.006-4.37-.007-6.555,0-.336.072-.471.437-.453.647.03,1.3.026,1.946,0,.333-.013.423.1.421.424-.014,2.2-.007,4.4-.007,6.6v.514c.653,0,1.259-.014,1.865.006.3.01.388-.086.384-.384-.015-1.2-.007-2.41-.005-3.615,0-.14.012-.281.018-.427h2.768v4.382h1.6V24.608h2.77v.467c0,1.192-.005,2.384.008,3.576,0,.124.111.35.177.353.671.026,1.343.016,2.058.016V28.5q0-3.317,0-6.635c0-.183-.042-.379.259-.375.755.011,1.509.009,2.264,0,.22,0,.271.1.267.293-.006.252,0,.5,0,.755,0,2.026,0,4.052.006,6.079,0,.132.09.373.15.378.467.032.937.017,1.449.017v-7.5h2.786V29h.735Zm-32.837,4.46V29.02h1.026c.565,0,.565,0,.565-.547,0-1.112.007-2.225-.005-3.337,0-.284.066-.4.376-.392.688.022,1.377.019,2.065,0,.282-.007.361.091.358.364-.012,1.152-.006,2.3,0,3.456,0,.14.013.279.02.423h.7V20.359h-13v8.626h.743V24.75c.806,0,1.571.018,2.334-.008.348-.012.453.087.447.441-.022,1.152-.009,2.3-.005,3.456,0,.159-.063.374.215.376.446,0,.892,0,1.376,0V28.53c0-1.139,0-2.278,0-3.417,0-.162-.051-.365.229-.364.833,0,1.665,0,2.567,0m33.834,0c.82,0,1.6.014,2.375-.007.316-.009.409.093.405.4-.015,1.125-.007,2.251-.005,3.377,0,.154.014.307.021.464h1.57c0-1.089,0-2.146,0-3.2,0-1.034,0-1.034,1.029-1.034h1.771V29.02c.412,0,.781-.02,1.146.006.34.024.46-.074.453-.437-.023-1.165,0-2.331-.012-3.5,0-.251.066-.353.335-.347.7.016,1.4.017,2.1,0,.287-.007.357.1.354.368-.012,1.152-.006,2.3,0,3.456,0,.139.014.278.022.419h.71V20.361H44.846v8.623h.743ZM30.953,9.154h-.2c0-.375.011-.75-.007-1.124-.005-.1-.1-.2-.152-.3-.049.1-.14.2-.141.306-.011.914-.018,1.827,0,2.741a1.627,1.627,0,0,1-.258.93q-1.927,3.126-3.833,6.265c-.073.12-.141.243-.233.4.678-.039,1.3-.065,1.914-.112.318-.025.418.1.4.408-.023.471-.006.944-.006,1.471H29.6v2.526h2.548V20.119h1.123c0-.512.018-.985-.006-1.457-.016-.317.092-.429.405-.405.616.047,1.234.074,1.912.112-.094-.161-.163-.284-.236-.4-1.261-2.067-2.516-4.139-3.791-6.2a1.869,1.869,0,0,1-.3-1.078c.02-.887.011-1.774,0-2.661,0-.1-.094-.2-.144-.3-.052.1-.144.2-.149.307-.018.373-.007.747-.007,1.121M3.583,29a1.071,1.071,0,0,0,.032-.16c0-2.765.007-5.53-.007-8.3a.53.53,0,0,0-.253-.377c-.946-.5-1.9-.981-2.858-1.464a2.573,2.573,0,0,0-.283-.1V29ZM61.5,29V18.575c-.156.071-.276.12-.39.178-.9.455-1.785.923-2.688,1.361a.514.514,0,0,0-.334.545c.01,2.646.005,5.292.007,7.938,0,.127.014.254.023.4Zm-24.59.022c.657,0,1.3-.017,1.945.007.337.013.423-.105.421-.429-.012-2.169-.006-4.339-.007-6.508,0-.115-.017-.23-.027-.358H36.907ZM22.443,21.731v2.621c0,1.429,0,2.857.008,4.286,0,.126.107.357.17.359.722.026,1.446.016,2.181.016V21.731Zm18.838,7.26h2.331V21.74H41.281ZM20.419,21.732H18.087v7.257h2.332ZM31.882,28.98h2.345c0-1.147,0-2.254,0-3.362,0-.851,0-.851-.854-.85H31.882ZM29.823,24.8H27.507v4.2h2.316Zm24.726.186c0,1.3,0,2.579.007,3.858a.241.241,0,0,0,.167.166c.723.012,1.446.008,2.176.008V24.982ZM45.807,29.02c.665,0,1.323-.013,1.979.006.3.009.388-.088.384-.384-.015-1.071-.006-2.143-.006-3.215v-.444H45.807ZM13.548,24.985c0,1.293,0,2.559.008,3.825a.272.272,0,0,0,.179.2c.721.014,1.443.009,2.164.009v-4.03ZM4.8,29.019c.7,0,1.357-.012,2.015.005.287.008.361-.1.356-.371-.014-.741,0-1.482,0-2.222V24.993H4.8Zm47.718-4.037H50.188v4.005h2.331Zm-41,0H9.2v4.005h2.323ZM34.749,2.967V.214H32.742V1.682H30.953c0,.344.012.645,0,.945-.014.256.077.352.34.344.5-.016,1,0,1.506,0h1.954M30.21,7.738h-.151c-.012.134-.033.267-.033.4,0,.927.011,1.853-.014,2.779a1.188,1.188,0,0,1-.218.644c-1.692,2.254-3.4,4.5-5.1,6.742-.058.076-.1.161-.187.3a8.2,8.2,0,0,0,1-.138A.864.864,0,0,0,26,18.146q2.056-3.324,4.075-6.671a1.154,1.154,0,0,0,.162-.552c.016-.939.008-1.879.005-2.819,0-.122-.019-.244-.03-.365m1.441,0h-.124a.863.863,0,0,0-.054.208c0,1.032-.007,2.065,0,3.1a.762.762,0,0,0,.118.367q2.061,3.391,4.134,6.775c.059.1.147.224.239.242.392.075.791.113,1.271.176-.112-.154-.163-.228-.217-.3q-2.555-3.368-5.1-6.741a1.189,1.189,0,0,1-.218-.644c-.024-.926-.01-1.853-.014-2.779,0-.134-.021-.267-.033-.4M32.521.219H30.989V1.472h1.532ZM31.255,6.878h0a3.471,3.471,0,0,0-.006-.433c-.008-.059-.08-.11-.123-.164-.058.055-.162.107-.165.164-.015.3-.011.6,0,.907a.2.2,0,0,0,.142.136c.047,0,.132-.082.138-.136a3.955,3.955,0,0,0,.007-.473m-.865-.07.062.021a2.812,2.812,0,0,0,.006.433.773.773,0,0,0,.133.235c.054-.072.141-.138.156-.217a1.171,1.171,0,0,0,.005-.432c-.037-.192.152-.465-.168-.545a3.843,3.843,0,0,0-.195.5M31.5,7.48a1.117,1.117,0,0,0,0-1.215ZM30.194,6.3h-.108V7.483h.108Zm1.325-.254.1,0v-1l-.1,0Zm-1.324-1-.108,0v1H30.2Z" transform="translate(0 0)" fill="#9999a1" stroke="#9999a1" stroke-width="0.3"/>
      <path id="Path_78297" data-name="Path 78297" d="M114.14,273.592c-.369,0-.739-.007-1.108,0-.206,0-.324-.047-.317-.284.011-.4-.015-.793.017-1.186a.388.388,0,0,1,.274-.258c.738-.022,1.477-.006,2.215-.015.228,0,.3.09.3.306-.01.382-.01.765,0,1.147.007.229-.1.3-.309.291-.356-.01-.712,0-1.068,0m-1.176-1.509v1.31c.731,0,1.441.005,2.151-.009a.269.269,0,0,0,.182-.189c.018-.363.009-.728.009-1.112Z" transform="translate(-103.761 -250.255)" fill="#9999a2" stroke="#9999a1" stroke-width="0.3"/>
      <path id="Path_78298" data-name="Path 78298" d="M168.033,271.915c.888,0,1.731-.005,2.573.01a.3.3,0,0,1,.2.214,12.449,12.449,0,0,1,0,1.269.33.33,0,0,1-.223.231c-.78.017-1.56.015-2.34,0a.3.3,0,0,1-.2-.212c-.019-.486-.009-.972-.009-1.511m2.554.207h-1.374c-1.041,0-1.041,0-.984,1.031,0,.04-.011.089.008.117.047.066.107.173.164.174.722.012,1.444.008,2.187.008Z" transform="translate(-154.683 -250.314)" fill="#9999a2" stroke="#9999a1" stroke-width="0.3"/>
      <path id="Path_78299" data-name="Path 78299" d="M58.987,273.593c-.37,0-.741-.008-1.111,0-.219.006-.309-.07-.3-.3.014-.383.013-.768,0-1.151-.008-.233.094-.3.307-.293q1.091.011,2.182,0c.222,0,.308.079.3.3q-.015.575,0,1.151c.007.229-.1.3-.309.292-.357-.01-.714,0-1.071,0Zm1.178-1.5H57.808v1.3c.742,0,1.464.005,2.185-.009.059,0,.16-.133.164-.209.018-.352.008-.706.008-1.079" transform="translate(-53 -250.256)" fill="#9999a2" stroke="#9999a1" stroke-width="0.3"/>
      <path id="Path_78300" data-name="Path 78300" d="M630.191,273.591c-.356,0-.712-.007-1.068,0-.218.007-.311-.071-.305-.3.011-.4-.012-.793.016-1.186a.358.358,0,0,1,.245-.247c.751-.02,1.5-.022,2.255,0a.387.387,0,0,1,.271.262c.031.393.008.791.016,1.186,0,.2-.078.284-.281.279-.382-.009-.765,0-1.147,0m1.217-1.491h-2.353v1.293c.737,0,1.446.006,2.155-.01.068,0,.184-.141.189-.222.021-.341.009-.684.009-1.06" transform="translate(-578.865 -250.254)" fill="#9999a2" stroke="#9999a1" stroke-width="0.3"/>
      <path id="Path_78301" data-name="Path 78301" d="M575.028,273.6c-.357,0-.714-.007-1.071,0-.216.006-.313-.067-.305-.3.013-.383.013-.767,0-1.15-.008-.231.093-.3.307-.3q1.091.01,2.182,0c.219,0,.312.073.305.3-.011.383-.012.767,0,1.15.007.228-.091.3-.306.294-.37-.01-.74,0-1.111,0m-1.143-.2c.742,0,1.439.005,2.136-.007.074,0,.205-.1.208-.163.019-.377.01-.755.01-1.134h-2.354Z" transform="translate(-528.081 -250.264)" fill="#9999a2" stroke="#9999a1" stroke-width="0.3"/>
      <path id="Path_78302" data-name="Path 78302" d="M685.5,273.593c-.37,0-.741-.007-1.111,0-.218.006-.312-.07-.305-.3q.017-.575,0-1.151c-.006-.226.087-.3.306-.3q1.091.013,2.182,0c.217,0,.312.068.3.3-.014.383-.015.768,0,1.151.009.233-.09.3-.3.295-.357-.01-.714,0-1.071,0m1.138-1.506h-2.35c0,.385-.01.751.009,1.115a.27.27,0,0,0,.188.184c.709.014,1.419.008,2.153.008Z" transform="translate(-629.738 -250.256)" fill="#9999a2" stroke="#9999a1" stroke-width="0.3"/>
    </g>
    <g id="Group_105307" data-name="Group 105307" transform="translate(661.719 262.594)">
      <path id="Path_75375" data-name="Path 75375" d="M147.8,163.58a.3.3,0,0,1-.26-.146,20.918,20.918,0,0,0-5.479-5.877,30.817,30.817,0,0,0-6.365-3.583.3.3,0,0,1,.237-.56,31.425,31.425,0,0,1,6.491,3.655,21.522,21.522,0,0,1,5.637,6.05.3.3,0,0,1-.26.462Z" transform="translate(-110.876 -151.158)" fill="#9999a1"/>
      <path id="Path_75376" data-name="Path 75376" d="M119.371,148.737a.3.3,0,0,1-.094-.015,31.691,31.691,0,0,0-4.068-1.052.3.3,0,0,1,.1-.6,31.639,31.639,0,0,1,4.156,1.074.3.3,0,0,1-.093.594Z" transform="translate(-97.573 -147.066)" fill="#9999a1"/>
      <path id="Path_75379" data-name="Path 75379" d="M116.949,173.162a.3.3,0,0,1-.291-.215c-2.631-8.594-8.667-19-8.728-19.1a.3.3,0,0,1,.291-.456,30.208,30.208,0,0,1,9.731,2.553,30.6,30.6,0,0,1,6.846,4.281,26.785,26.785,0,0,1,5.386,5.822.3.3,0,0,1-.12.432l-12.977,6.652A.3.3,0,0,1,116.949,173.162Zm-8.2-19.108c1.233,2.182,6.025,10.88,8.382,18.368l12.351-6.331a27.953,27.953,0,0,0-5.091-5.414,29.985,29.985,0,0,0-6.7-4.187A29.54,29.54,0,0,0,108.751,154.055Z" transform="translate(-93.002 -151.158)" fill="#9999a1"/>
      <path id="Path_75380" data-name="Path 75380" d="M93.048,162.419a.3.3,0,0,1,.073.009l3.846.952a12.829,12.829,0,0,1,5.049,2.524.3.3,0,0,1,.081.1,85.519,85.519,0,0,1,5.343,12.607.3.3,0,0,1-.29.393l-4.279.016a.3.3,0,0,1-.263-.15l-.932-1.578-5-.876-.559.9a.3.3,0,0,1-.375.12l-1.6-.668a.3.3,0,0,1-.185-.316l.6-5.1a8.344,8.344,0,0,0-.275-3.31l-1.515-5.226a.3.3,0,0,1,.292-.389Zm8.532,3.916a12.221,12.221,0,0,0-4.759-2.364l-3.333-.825,1.368,4.719a8.949,8.949,0,0,1,.295,3.551l-.571,4.876,1.153.48.531-.85a.3.3,0,0,1,.31-.138l5.344.935a.3.3,0,0,1,.21.145l.914,1.549,3.693-.013A86.906,86.906,0,0,0,101.58,166.335Z" transform="translate(-83.201 -157.001)" fill="#9999a1"/>
      <path id="Path_75381" data-name="Path 75381" d="M73.361,170.748h.007a31.229,31.229,0,0,1,8.316,1.476.3.3,0,0,1,.192.2l.24.828a8.95,8.95,0,0,1,.295,3.551l-.6,5.1a.3.3,0,0,1-.4.254l-6.547-2.137a.3.3,0,0,1-.2-.234l-1.6-8.684a.3.3,0,0,1,.3-.36Zm7.974,2a30.468,30.468,0,0,0-7.606-1.375l1.5,8.131,6.021,1.966.554-4.735a8.345,8.345,0,0,0-.275-3.311Z" transform="translate(-70.461 -162.391)" fill="#9999a1"/>
      <path id="Path_75382" data-name="Path 75382" d="M70.342,188.05h-2.63a.3.3,0,0,1-.271-.167l-1.705-3.364a.3.3,0,0,1,.16-.421,27.705,27.705,0,0,1,3.439-1.034.3.3,0,0,1,.369.241l.769,4.166a.3.3,0,0,1-.13.579Zm-2.443-.609h1.95l-.685-3.71c-1.248.308-2.248.645-2.731.818Z" transform="translate(-65.702 -170.356)" fill="#9999a1"/>
      <path id="Path_75383" data-name="Path 75383" d="M177.932,184.412h-1.961a.3.3,0,0,1-.223-.1l-6.19-6.668a.3.3,0,0,1-.032-.373,13.068,13.068,0,0,1,3.378-3.229,19.634,19.634,0,0,1,11.08-3.3.308.308,0,0,1,.259.139.3.3,0,0,1,.021.293l-2.228,4.8a.3.3,0,1,1-.552-.256l2.022-4.36a19.2,19.2,0,0,0-10.256,3.178,13.465,13.465,0,0,0-3.077,2.868L176.1,183.8h1.634l1.925-4.15a.3.3,0,0,1,.552.256l-2.007,4.327A.3.3,0,0,1,177.932,184.412Z" transform="translate(-132.856 -162.391)" fill="#9999a1"/>
      <path id="Path_75384" data-name="Path 75384" d="M158.549,201.883a.3.3,0,0,1-.152-.041l-6.125-3.528a.3.3,0,1,1,.3-.527l6.006,3.46,4.59-1.54a.3.3,0,0,1,.194.577l-4.72,1.584A.3.3,0,0,1,158.549,201.883Z" transform="translate(-121.624 -179.862)" fill="#9999a1"/>
      <path id="Line_713" data-name="Line 713" d="M.054,7.026a.3.3,0,0,1-.3-.3V.054a.3.3,0,1,1,.609,0V6.722A.3.3,0,0,1,.054,7.026Z" transform="translate(36.87 14.995)" fill="#9999a1"/>
      <path id="Path_75385" data-name="Path 75385" d="M123.217,202.327h-51.3a.3.3,0,0,1-.245-.124l-3.477-4.733a.3.3,0,0,1-.02-.33l.846-1.5a.3.3,0,1,1,.53.3l-.75,1.33,3.269,4.451h50.458l-1.183-1.3h-34.4a.3.3,0,1,1,0-.609H121.48a.3.3,0,0,1,.225.1l1.737,1.908a.3.3,0,0,1-.225.509Z" transform="translate(-67.276 -178.398)" fill="#9999a1"/>
      <path id="Path_75386" data-name="Path 75386" d="M208.139,182.3a37.261,37.261,0,0,1,9.589,1.349.3.3,0,0,1-.01.585c-3.626.971-12.74,9.4-12.832,9.482a.3.3,0,0,1-.207.081h-.935a.3.3,0,0,1-.3-.241l-.628-2.931-3.58-.885v1.829a.3.3,0,0,1-.3.3H197.6a.3.3,0,0,1-.259-.144l-4.718-7.629a.3.3,0,0,1,.132-.437,7.99,7.99,0,0,1,3.305-.592h0a19.338,19.338,0,0,1,4.324.549A20.861,20.861,0,0,1,208.139,182.3Zm8.5,1.687a36.9,36.9,0,0,0-8.5-1.079,20.158,20.158,0,0,0-7.619,1.313.3.3,0,0,1-.194.012,19.035,19.035,0,0,0-4.267-.554h0a8,8,0,0,0-2.731.4l4.441,7.18h.862v-1.913a.3.3,0,0,1,.377-.3l4.142,1.024a.3.3,0,0,1,.225.232l.616,2.877h.57C205.492,192.326,212.686,185.759,216.637,183.983Z" transform="translate(-147.804 -169.864)" fill="#9999a1"/>
      <path id="Path_75387" data-name="Path 75387" d="M216.874,193.126a.3.3,0,0,1-.3-.241,24.764,24.764,0,0,0-2.635-6.342.3.3,0,1,1,.521-.315,24.922,24.922,0,0,1,2.709,6.529.3.3,0,0,1-.3.368Z" transform="translate(-161.602 -172.314)" fill="#9999a1"/>
      <path id="Path_75388" data-name="Path 75388" d="M239.277,202.327h-12.96a.3.3,0,0,1,0-.609h12.043l-4.817-3.593a.3.3,0,0,1-.122-.244v-2.093a.3.3,0,1,1,.609,0v1.941l5.43,4.05a.3.3,0,0,1-.182.548Z" transform="translate(-169.442 -178.398)" fill="#9999a1"/>
      <path id="Path_75389" data-name="Path 75389" d="M259.526,202.8h-6.664a.3.3,0,0,1-.182-.06l-5.552-4.142a.3.3,0,0,1-.121-.27l.159-1.836a.3.3,0,0,1,.5-.209,3.212,3.212,0,0,1,.36.344,3.066,3.066,0,0,1,2.444.811,2.467,2.467,0,0,1,2.433,1.1,2.2,2.2,0,0,1,1.9.359,2.2,2.2,0,0,1,3.449,1.389,2.157,2.157,0,0,1,.234.082,2.21,2.21,0,0,1,1.348,2.142A.3.3,0,0,1,259.526,202.8Zm-6.563-.609h6.247a1.587,1.587,0,0,0-1.291-1.359.3.3,0,0,1-.248-.274,1.593,1.593,0,0,0-2.67-1.043.3.3,0,0,1-.416,0,1.588,1.588,0,0,0-1.709-.324.3.3,0,0,1-.387-.144,1.859,1.859,0,0,0-2.059-.982.3.3,0,0,1-.284-.086,2.462,2.462,0,0,0-2.2-.725.3.3,0,0,1-.232-.056l-.088,1.017Z" transform="translate(-183.026 -178.869)" fill="#9999a1"/>
    </g>
    <path id="Path_78336" data-name="Path 78336" d="M616.052,272.517v15.21" transform="translate(45)" fill="#9999a1" stroke="#9999a1" stroke-width="0.8"/>
    <path id="Path_78337" data-name="Path 78337" d="M616.052,272.517v15.21" fill="#9999a1" stroke="#9999a1" stroke-width="0.8"/>
  </g>
</svg>
