<svg xmlns="http://www.w3.org/2000/svg" xmlns:xlink="http://www.w3.org/1999/xlink" width="95.881" height="89.125" viewBox="0 0 95.881 89.125">
  <defs>
    <clipPath id="clip-path">
      <rect id="Rectangle_44920" data-name="Rectangle 44920" width="14.665" height="31.061" fill="none" stroke="#fff" stroke-width="0.6"/>
    </clipPath>
  </defs>
  <g id="Group_105291" data-name="Group 105291" transform="translate(-2657.247 -10680.863)" opacity="0.6">
    <g id="Group_105282" data-name="Group 105282" transform="translate(2671.912 10680.863)">
      <path id="Path_78008" data-name="Path 78008" d="M100.485,25.547l-.013.52h.836l-.013-.52Z" transform="translate(-95.135 -19.256)" fill="#fff"/>
      <path id="Path_78034" data-name="Path 78034" d="M119.2,149.059a.246.246,0,0,0,.246-.246v-1.6a.246.246,0,1,0-.493,0v1.6a.246.246,0,0,0,.246.246" transform="translate(-109.066 -110.779)" fill="#fff"/>
      <path id="Path_78035" data-name="Path 78035" d="M108.529,146.971a.246.246,0,0,0-.246.246v1.6a.246.246,0,0,0,.493,0v-1.6a.246.246,0,0,0-.246-.246" transform="translate(-101.023 -110.779)" fill="#fff"/>
      <path id="Path_78036" data-name="Path 78036" d="M90.063,35.618H88.18V34.174a.246.246,0,0,0-.246-.246H86.816V31.543a.246.246,0,0,0-.246-.246h-.486L85.82,20.842h.949a.246.246,0,0,0,.246-.246V19.253a.246.246,0,0,0-.246-.246h-1l-.015-.6h0L85.453,6.291h.572a.246.246,0,0,0,.246-.246V5.177a.246.246,0,0,0-.246-.246h-.607l-.083-3.314h0L85.3.24A.246.246,0,0,0,85.055,0h-1a.246.246,0,0,0-.246.24l-.117,4.69h-.607a.246.246,0,0,0-.246.246v.868a.246.246,0,0,0,.246.246h.573l-.32,12.715h-1a.246.246,0,0,0-.246.246V20.6a.246.246,0,0,0,.246.246h.95L83.028,31.3H82.54a.246.246,0,0,0-.246.246v2.385H81.177a.246.246,0,0,0-.246.246v1.444H79.047a.246.246,0,0,0-.246.246v2.745a.246.246,0,0,0,.246.246h.882v2.468a.246.246,0,0,0,.246.246h2.277l-2.138,47.3a.246.246,0,0,0,.246.257h7.99a.246.246,0,0,0,.246-.257l-2.138-47.3h2.277a.246.246,0,0,0,.246-.246V38.855h.882a.246.246,0,0,0,.246-.246V35.864a.246.246,0,0,0-.246-.246M84.3.493h.52l.022.877h-.563Zm-.034,1.37h.588l.077,3.068h-.741Zm-.93,3.56h2.447V5.8H83.332ZM84.986,7.3l.273,10.86H83.852L84.125,7.3Zm-.849-.493.013-.52h.81l.013.52Zm1.134,11.845.009.351H83.83l.009-.351Zm-2.684.843h3.935v.851H82.587Zm2.765,2.329.239,9.468H83.52l.238-9.468Zm-1.581-.493.013-.493h1.544l.013.493Zm-.985,10.453h3.537v2.139H82.787ZM81.423,34.42h6.264v1.2H81.423Zm2.886,54.212H80.818l.048-1.075h3.442Zm0-1.567h-3.42l.05-1.1h3.37Zm0-1.6H80.961l.05-1.1h3.3Zm0-1.6H81.033l.05-1.1h3.226Zm0-1.6h-3.2l.05-1.1h3.154Zm0-1.6H81.177l.05-1.1h3.082Zm0-1.6H81.25l.05-1.1h3.009Zm0-1.6H81.322l.05-1.1h2.937Zm0-1.6H81.394l.05-1.1h2.865Zm0-1.6H81.466l.05-1.1h2.793Zm0-1.6H81.538l.05-1.1h2.721Zm0-1.6h-2.7l.05-1.1h2.649Zm0-1.6H81.683l.05-1.1h2.577Zm0-1.6H81.755l.049-1.1h2.5Zm0-1.6H81.827l.049-1.1h2.432Zm0-1.6H81.9l.05-1.1h2.36Zm0-1.6H81.971l.05-1.1h2.288Zm0-1.6H82.043l.05-1.1h2.216Zm0-1.6H82.116l.05-1.1h2.144Zm0-1.6H82.188l.05-1.1h2.071Zm0-1.6H82.26l.05-1.1h2Zm0-1.6H82.332l.05-1.1h1.927Zm0-1.6H82.4l.05-1.1h1.855Zm0-1.6H82.476l.05-1.1h1.783Zm0-1.6h-1.76l.05-1.1h1.711Zm0-1.6H82.621l.05-1.1h1.638Zm0-1.6H82.693l.05-1.1h1.566Zm0-1.6H82.765l.05-1.1h1.494Zm0-1.6H82.837l.05-1.1h1.422Zm0-1.6h-1.4l.036-.8h1.363Zm.917,46.262H84.8V41.569h.424Zm3.067,0H85.718V41.569h.447Zm.4-47.556H80.422v-.532h8.267Zm0-1.024H80.422v-1.2h8.267Zm1.128-1.69H79.294V36.11H89.817Z" transform="translate(-78.801)" fill="#fff"/>
      <path id="Path_78037" data-name="Path 78037" d="M115.4,147.217v1.6a.246.246,0,0,0,.493,0v-1.6a.246.246,0,1,0-.493,0" transform="translate(-106.385 -110.779)" fill="#fff"/>
      <path id="Path_78038" data-name="Path 78038" d="M112.086,146.971a.246.246,0,0,0-.246.246v1.6a.246.246,0,0,0,.493,0v-1.6a.246.246,0,0,0-.246-.246" transform="translate(-103.704 -110.779)" fill="#fff"/>
      <path id="Path_78039" data-name="Path 78039" d="M87.185,146.971a.246.246,0,0,0-.246.246v1.6a.246.246,0,0,0,.493,0v-1.6a.246.246,0,0,0-.246-.246" transform="translate(-84.935 -110.779)" fill="#fff"/>
      <path id="Path_78040" data-name="Path 78040" d="M83.628,146.971a.246.246,0,0,0-.246.246v1.6a.246.246,0,0,0,.493,0v-1.6a.246.246,0,0,0-.246-.246" transform="translate(-82.254 -110.779)" fill="#fff"/>
      <path id="Path_78041" data-name="Path 78041" d="M104.972,146.971a.246.246,0,0,0-.246.246v1.6a.246.246,0,0,0,.493,0v-1.6a.246.246,0,0,0-.246-.246" transform="translate(-98.342 -110.779)" fill="#fff"/>
      <path id="Path_78042" data-name="Path 78042" d="M90.743,146.971a.246.246,0,0,0-.246.246v1.6a.246.246,0,0,0,.493,0v-1.6a.246.246,0,0,0-.246-.246" transform="translate(-87.617 -110.779)" fill="#fff"/>
      <path id="Path_78043" data-name="Path 78043" d="M94.3,146.971a.246.246,0,0,0-.246.246v1.6a.246.246,0,0,0,.493,0v-1.6a.246.246,0,0,0-.246-.246" transform="translate(-90.298 -110.779)" fill="#fff"/>
      <path id="Path_78044" data-name="Path 78044" d="M101.414,146.971a.246.246,0,0,0-.246.246v1.6a.246.246,0,0,0,.493,0v-1.6a.246.246,0,0,0-.246-.246" transform="translate(-95.66 -110.779)" fill="#fff"/>
      <path id="Path_78045" data-name="Path 78045" d="M97.857,146.971a.246.246,0,0,0-.246.246v1.6a.246.246,0,0,0,.493,0v-1.6a.246.246,0,0,0-.246-.246" transform="translate(-92.979 -110.779)" fill="#fff"/>
    </g>
    <g id="Group_105290" data-name="Group 105290" transform="translate(2682.18 10742.405)">
      <path id="Path_78237" data-name="Path 78237" d="M229.944,299.808h1.51a.246.246,0,0,0,.246-.246v-1.946a1,1,0,0,0-2,0v1.946a.246.246,0,0,0,.246.246m.246-2.193a.509.509,0,0,1,1.017,0v1.7H230.19Z" transform="translate(-221.755 -285.606)" fill="#fff"/>
      <path id="Path_78238" data-name="Path 78238" d="M241.411,299.808h1.51a.246.246,0,0,0,.246-.246v-1.946a1,1,0,0,0-2,0v1.946a.246.246,0,0,0,.246.246m.246-2.193a.509.509,0,0,1,1.017,0v1.7h-1.017Z" transform="translate(-230.398 -285.606)" fill="#fff"/>
      <path id="Path_78239" data-name="Path 78239" d="M298.743,299.808h1.51a.246.246,0,0,0,.246-.246v-1.946a1,1,0,0,0-2,0v1.946a.246.246,0,0,0,.246.246m.246-2.193a.509.509,0,1,1,1.017,0v1.7H298.99Z" transform="translate(-273.612 -285.606)" fill="#fff"/>
      <path id="Path_78240" data-name="Path 78240" d="M333.143,299.808h1.51a.246.246,0,0,0,.246-.246v-1.946a1,1,0,0,0-2,0v1.946a.246.246,0,0,0,.246.246m.246-2.193a.509.509,0,0,1,1.017,0v1.7H333.39Z" transform="translate(-299.54 -285.606)" fill="#fff"/>
      <path id="Path_78241" data-name="Path 78241" d="M310.21,299.808h1.51a.246.246,0,0,0,.246-.246v-1.946a1,1,0,0,0-2,0v1.946a.246.246,0,0,0,.246.246m.246-2.193a.509.509,0,0,1,1.017,0v1.7h-1.017Z" transform="translate(-282.255 -285.606)" fill="#fff"/>
      <path id="Path_78242" data-name="Path 78242" d="M252.877,299.808h1.51a.246.246,0,0,0,.246-.246v-1.946a1,1,0,1,0-2,0v1.946a.246.246,0,0,0,.246.246m.246-2.193a.509.509,0,1,1,1.017,0v1.7h-1.017Z" transform="translate(-239.04 -285.606)" fill="#fff"/>
      <path id="Path_78243" data-name="Path 78243" d="M287.277,299.808h1.51a.246.246,0,0,0,.246-.246v-1.946a1,1,0,0,0-2,0v1.946a.246.246,0,0,0,.246.246m.246-2.193a.509.509,0,0,1,1.017,0v1.7h-1.017Z" transform="translate(-264.969 -285.606)" fill="#fff"/>
      <path id="Path_78244" data-name="Path 78244" d="M321.677,299.808h1.51a.246.246,0,0,0,.246-.246v-1.946a1,1,0,1,0-2,0v1.946a.246.246,0,0,0,.246.246m.246-2.193a.509.509,0,0,1,1.017,0v1.7h-1.017Z" transform="translate(-290.898 -285.606)" fill="#fff"/>
      <path id="Path_78245" data-name="Path 78245" d="M207.765,321.162a1,1,0,0,0-1,1v1.946a.246.246,0,0,0,.246.246h1.51a.246.246,0,0,0,.246-.246v-1.946a1,1,0,0,0-1-1m.509,2.7h-1.017v-1.7a.509.509,0,1,1,1.017,0Z" transform="translate(-204.468 -304.109)" fill="#fff"/>
      <path id="Path_78246" data-name="Path 78246" d="M230.7,321.162a1,1,0,0,0-1,1v1.946a.246.246,0,0,0,.246.246h1.51a.246.246,0,0,0,.246-.246v-1.946a1,1,0,0,0-1-1m.508,2.7H230.19v-1.7a.509.509,0,1,1,1.018,0Z" transform="translate(-221.754 -304.109)" fill="#fff"/>
      <path id="Path_78247" data-name="Path 78247" d="M219.232,321.162a1,1,0,0,0-1,1v1.946a.246.246,0,0,0,.246.246h1.51a.246.246,0,0,0,.246-.246v-1.946a1,1,0,0,0-1-1m.509,2.7h-1.017v-1.7a.509.509,0,1,1,1.017,0Z" transform="translate(-213.111 -304.109)" fill="#fff"/>
      <path id="Path_78248" data-name="Path 78248" d="M287.277,324.356h1.51a.246.246,0,0,0,.246-.246v-1.946a1,1,0,0,0-2,0v1.946a.246.246,0,0,0,.246.246m.246-2.193a.509.509,0,0,1,1.017,0v1.7h-1.017Z" transform="translate(-264.969 -304.109)" fill="#fff"/>
      <path id="Path_78249" data-name="Path 78249" d="M253.633,321.162a1,1,0,0,0-1,1v1.946a.246.246,0,0,0,.246.246h1.51a.246.246,0,0,0,.246-.246v-1.946a1,1,0,0,0-1-1m.509,2.7h-1.017v-1.7a.509.509,0,1,1,1.017,0Z" transform="translate(-239.041 -304.109)" fill="#fff"/>
      <path id="Path_78250" data-name="Path 78250" d="M234.536,268.028a.646.646,0,0,0,0-1.291h-.179v-4.489a.246.246,0,0,0-.246-.246H214.422l-2.843-9.909c0-.005-.005-.01-.007-.015a.211.211,0,0,0-.014-.03.245.245,0,0,0-.031-.046.242.242,0,0,0-.022-.023.25.25,0,0,0-.049-.033.245.245,0,0,0-.025-.013.241.241,0,0,0-.088-.018H198.089a.646.646,0,1,0,0,1.293h.178v7.169h-.178a.645.645,0,1,0,0,1.291h.178v5.071h-.179a.646.646,0,0,0,0,1.291h.179v5.07h-.179a.646.646,0,1,0,0,1.291h.179v4.368a.246.246,0,0,0,.246.246h35.6a.246.246,0,0,0,.246-.246V274.39h.179a.646.646,0,1,0,0-1.291h-.179v-5.07Zm-.672-5.535v4.243H217.183l-1.243-4.243Zm-18.437,0,1.243,4.243h-.888l-1.217-4.243Zm-.158,4.243h-16.51v-5.071h15.055Zm-3.882-13.53,2.057,7.169H198.759v-7.169Zm-13.3-.492a.154.154,0,1,1,0-.308h13.068l.088.308Zm0,8.459a.153.153,0,1,1,0-.306h15.5l.088.306Zm3.158,17.338h-1.017v-2.66a.509.509,0,1,1,1.017,0Zm2.824,0h-1.017v-2.66a.509.509,0,1,1,1.017,0Zm2.824,0h-1.017v-2.66a.509.509,0,1,1,1.017,0Zm2.824,0H208.7v-2.66a.509.509,0,1,1,1.017,0Zm2.824,0h-1.017v-2.66a.509.509,0,1,1,1.017,0Zm2.824,0h-1.017v-2.66a.509.509,0,1,1,1.017,0Zm.492,0v-2.66a1,1,0,1,0-2,0v2.66h-.821v-2.66a1,1,0,1,0-2,0v2.66h-.822v-2.66a1,1,0,1,0-2,0v2.66h-.822v-2.66a1,1,0,1,0-2,0v2.66h-.821v-2.66a1,1,0,1,0-2,0v2.66h-.822v-2.66a1,1,0,1,0-2,0v2.66h-.978V274.39h18.705l1.183,4.122Zm3.3,0-1.183-4.122h.937l1.207,4.122Zm4.677,0h-1.017v-2.66a.509.509,0,1,1,1.017,0Zm2.824,0h-1.017v-2.66a.509.509,0,1,1,1.017,0Zm2.824,0h-1.017v-2.66a.509.509,0,1,1,1.017,0Zm2.824,0H231.29v-2.66a.509.509,0,1,1,1.017,0Zm1.557,0H232.8v-2.66a1,1,0,1,0-2,0v2.66h-.822v-2.66a1,1,0,1,0-2,0v2.66h-.821v-2.66a1,1,0,1,0-2,0v2.66h-.822v-2.66a1,1,0,1,0-2,0v2.66h-1.693l-1.207-4.122h14.438Zm.672-4.92a.153.153,0,1,1,0,.306H198.088a.153.153,0,1,1,0-.306h36.448Zm-16-.492h-.929l-1.455-5.07h.9Zm-.973-5.07h16.3v5.07H219.048Zm-.469,5.07H198.759v-5.07h16.879Zm17.019-5.563H198.088a.153.153,0,0,1,0-.306h36.448a.153.153,0,1,1,0,.306Z" transform="translate(-197.441 -251.914)" fill="#fff"/>
      <path id="Path_78251" data-name="Path 78251" d="M265.1,321.162a1,1,0,0,0-1,1v1.946a.246.246,0,0,0,.246.246h1.51a.246.246,0,0,0,.246-.246v-1.946a1,1,0,0,0-1-1m.508,2.7H264.59v-1.7a.509.509,0,1,1,1.017,0Z" transform="translate(-247.683 -304.109)" fill="#fff"/>
      <path id="Path_78252" data-name="Path 78252" d="M242.165,321.162a1,1,0,0,0-1,1v1.946a.246.246,0,0,0,.246.246h1.51a.246.246,0,0,0,.246-.246v-1.946a1,1,0,0,0-1-1m.509,2.7h-1.017v-1.7a.509.509,0,1,1,1.017,0Z" transform="translate(-230.397 -304.109)" fill="#fff"/>
      <path id="Path_78253" data-name="Path 78253" d="M298.743,324.356h1.51a.246.246,0,0,0,.246-.246v-1.946a1,1,0,0,0-2,0v1.946a.246.246,0,0,0,.246.246m.246-2.193a.509.509,0,1,1,1.017,0v1.7H298.99Z" transform="translate(-273.612 -304.109)" fill="#fff"/>
      <path id="Path_78254" data-name="Path 78254" d="M207.011,269.553h1.51a.246.246,0,0,0,.246-.246v-1.946a1,1,0,0,0-2,0v1.946a.246.246,0,0,0,.246.246m.246-2.192a.509.509,0,0,1,1.017,0v1.7h-1.017Z" transform="translate(-204.469 -262.803)" fill="#fff"/>
      <path id="Path_78255" data-name="Path 78255" d="M218.477,269.553h1.51a.246.246,0,0,0,.246-.246v-1.946a1,1,0,0,0-2,0v1.946a.246.246,0,0,0,.246.246m.246-2.192a.509.509,0,0,1,1.017,0v1.7h-1.017Z" transform="translate(-213.111 -262.803)" fill="#fff"/>
      <path id="Path_78256" data-name="Path 78256" d="M229.944,269.553h1.51a.246.246,0,0,0,.246-.246v-1.946a1,1,0,0,0-2,0v1.946a.246.246,0,0,0,.246.246m.246-2.192a.509.509,0,0,1,1.017,0v1.7H230.19Z" transform="translate(-221.755 -262.803)" fill="#fff"/>
      <path id="Path_78257" data-name="Path 78257" d="M241.411,269.553h1.51a.246.246,0,0,0,.246-.246v-1.946a1,1,0,0,0-2,0v1.946a.246.246,0,0,0,.246.246m.246-2.192a.509.509,0,0,1,1.017,0v1.7h-1.017Z" transform="translate(-230.398 -262.803)" fill="#fff"/>
      <path id="Path_78258" data-name="Path 78258" d="M207.011,299.808h1.51a.246.246,0,0,0,.246-.246v-1.946a1,1,0,0,0-2,0v1.946a.246.246,0,0,0,.246.246m.246-2.193a.509.509,0,0,1,1.017,0v1.7h-1.017Z" transform="translate(-204.469 -285.606)" fill="#fff"/>
      <path id="Path_78259" data-name="Path 78259" d="M321.677,324.356h1.51a.246.246,0,0,0,.246-.246v-1.946a1,1,0,0,0-2,0v1.946a.246.246,0,0,0,.246.246m.246-2.193a.509.509,0,1,1,1.017,0v1.7h-1.017Z" transform="translate(-290.898 -304.109)" fill="#fff"/>
      <path id="Path_78260" data-name="Path 78260" d="M310.21,324.356h1.51a.246.246,0,0,0,.246-.246v-1.946a1,1,0,0,0-2,0v1.946a.246.246,0,0,0,.246.246m.246-2.193a.509.509,0,0,1,1.017,0v1.7h-1.017Z" transform="translate(-282.255 -304.109)" fill="#fff"/>
      <path id="Path_78261" data-name="Path 78261" d="M333.143,324.356h1.51a.246.246,0,0,0,.246-.246v-1.946a1,1,0,0,0-2,0v1.946a.246.246,0,0,0,.246.246m.246-2.193a.509.509,0,0,1,1.017,0v1.7H333.39Z" transform="translate(-299.54 -304.109)" fill="#fff"/>
      <path id="Path_78262" data-name="Path 78262" d="M218.477,299.808h1.51a.246.246,0,0,0,.246-.246v-1.946a1,1,0,0,0-2,0v1.946a.246.246,0,0,0,.246.246m.246-2.193a.509.509,0,0,1,1.017,0v1.7h-1.017Z" transform="translate(-213.111 -285.606)" fill="#fff"/>
    </g>
    <path id="Path_78294" data-name="Path 78294" d="M.482,7.522A24.778,24.778,0,0,1,17.3.663,22.917,22.917,0,0,1,33.332,7.522" transform="translate(2719.572 10754.909)" fill="none" stroke="#fff" stroke-miterlimit="10" stroke-width="0.6"/>
    <path id="Path_78295" data-name="Path 78295" d="M11.032,9.958A22,22,0,0,1,25.175,4.5a20.319,20.319,0,0,1,13.487,5.46" transform="translate(2711.942 10752.136)" fill="none" stroke="#fff" stroke-miterlimit="10" stroke-width="0.6"/>
    <rect id="Rectangle_44913" data-name="Rectangle 44913" width="2.06" height="1.061" transform="translate(2720.686 10762.432)" fill="none" stroke="#fff" stroke-miterlimit="10" stroke-width="0.6"/>
    <rect id="Rectangle_44914" data-name="Rectangle 44914" width="1.331" height="5.818" transform="translate(2721.032 10763.493)" fill="none" stroke="#fff" stroke-miterlimit="10" stroke-width="0.6"/>
    <rect id="Rectangle_44915" data-name="Rectangle 44915" width="2.06" height="1.061" transform="translate(2750.13 10762.432)" fill="none" stroke="#fff" stroke-miterlimit="10" stroke-width="0.6"/>
    <rect id="Rectangle_44916" data-name="Rectangle 44916" width="1.331" height="5.818" transform="translate(2750.477 10763.493)" fill="none" stroke="#fff" stroke-miterlimit="10" stroke-width="0.6"/>
    <rect id="Rectangle_44917" data-name="Rectangle 44917" width="25.57" height="6.879" transform="translate(2723.847 10762.432)" fill="none" stroke="#fff" stroke-miterlimit="10" stroke-width="0.6"/>
    <line id="Line_751" data-name="Line 751" x2="25.57" transform="translate(2723.847 10763.493)" fill="none" stroke="#fff" stroke-miterlimit="10" stroke-width="0.6"/>
    <line id="Line_752" data-name="Line 752" x2="25.57" transform="translate(2723.847 10765.269)" fill="none" stroke="#fff" stroke-miterlimit="10" stroke-width="0.6"/>
    <line id="Line_753" data-name="Line 753" x2="25.57" transform="translate(2723.847 10767.759)" fill="none" stroke="#fff" stroke-miterlimit="10" stroke-width="0.6"/>
    <line id="Line_754" data-name="Line 754" y2="1.061" transform="translate(2726.018 10762.432)" fill="none" stroke="#fff" stroke-miterlimit="10" stroke-width="0.6"/>
    <line id="Line_755" data-name="Line 755" y2="1.061" transform="translate(2727.67 10762.432)" fill="none" stroke="#fff" stroke-miterlimit="10" stroke-width="0.6"/>
    <line id="Line_756" data-name="Line 756" y2="1.061" transform="translate(2729.322 10762.432)" fill="none" stroke="#fff" stroke-miterlimit="10" stroke-width="0.6"/>
    <line id="Line_757" data-name="Line 757" y2="1.061" transform="translate(2730.973 10762.432)" fill="none" stroke="#fff" stroke-miterlimit="10" stroke-width="0.6"/>
    <line id="Line_758" data-name="Line 758" y2="1.061" transform="translate(2732.625 10762.432)" fill="none" stroke="#fff" stroke-miterlimit="10" stroke-width="0.6"/>
    <line id="Line_759" data-name="Line 759" y2="1.061" transform="translate(2734.277 10762.432)" fill="none" stroke="#fff" stroke-miterlimit="10" stroke-width="0.6"/>
    <line id="Line_760" data-name="Line 760" y2="1.061" transform="translate(2735.928 10762.432)" fill="none" stroke="#fff" stroke-miterlimit="10" stroke-width="0.6"/>
    <line id="Line_761" data-name="Line 761" y2="1.061" transform="translate(2737.58 10762.432)" fill="none" stroke="#fff" stroke-miterlimit="10" stroke-width="0.6"/>
    <line id="Line_762" data-name="Line 762" y2="1.061" transform="translate(2739.231 10762.432)" fill="none" stroke="#fff" stroke-miterlimit="10" stroke-width="0.6"/>
    <line id="Line_763" data-name="Line 763" y2="1.061" transform="translate(2740.883 10762.432)" fill="none" stroke="#fff" stroke-miterlimit="10" stroke-width="0.6"/>
    <line id="Line_764" data-name="Line 764" y2="1.061" transform="translate(2742.535 10762.432)" fill="none" stroke="#fff" stroke-miterlimit="10" stroke-width="0.6"/>
    <line id="Line_765" data-name="Line 765" y2="1.061" transform="translate(2744.186 10762.432)" fill="none" stroke="#fff" stroke-miterlimit="10" stroke-width="0.6"/>
    <line id="Line_766" data-name="Line 766" y2="1.061" transform="translate(2745.838 10762.432)" fill="none" stroke="#fff" stroke-miterlimit="10" stroke-width="0.6"/>
    <line id="Line_767" data-name="Line 767" y2="1.061" transform="translate(2747.49 10762.432)" fill="none" stroke="#fff" stroke-miterlimit="10" stroke-width="0.6"/>
    <g id="Group_105286" data-name="Group 105286" transform="translate(2657.247 10738.928)">
      <g id="Group_105285" data-name="Group 105285" clip-path="url(#clip-path)">
        <rect id="Rectangle_44919" data-name="Rectangle 44919" width="14.257" height="30.652" transform="translate(0.204 0.204)" fill="none" stroke="#fff" stroke-miterlimit="10" stroke-width="0.6"/>
      </g>
    </g>
    <rect id="Rectangle_44921" data-name="Rectangle 44921" width="1.134" height="1.514" transform="translate(2658.948 10741.252)" fill="none" stroke="#fff" stroke-miterlimit="10" stroke-width="0.6"/>
    <rect id="Rectangle_44922" data-name="Rectangle 44922" width="1.133" height="1.514" transform="translate(2661.487 10741.252)" fill="none" stroke="#fff" stroke-miterlimit="10" stroke-width="0.6"/>
    <rect id="Rectangle_44923" data-name="Rectangle 44923" width="1.133" height="1.514" transform="translate(2664.026 10741.252)" fill="none" stroke="#fff" stroke-miterlimit="10" stroke-width="0.6"/>
    <rect id="Rectangle_44924" data-name="Rectangle 44924" width="1.134" height="1.514" transform="translate(2666.565 10741.252)" fill="none" stroke="#fff" stroke-miterlimit="10" stroke-width="0.6"/>
    <rect id="Rectangle_44925" data-name="Rectangle 44925" width="1.134" height="1.514" transform="translate(2669.105 10741.252)" fill="none" stroke="#fff" stroke-miterlimit="10" stroke-width="0.6"/>
    <rect id="Rectangle_44926" data-name="Rectangle 44926" width="1.134" height="1.514" transform="translate(2658.948 10744.568)" fill="none" stroke="#fff" stroke-miterlimit="10" stroke-width="0.6"/>
    <rect id="Rectangle_44927" data-name="Rectangle 44927" width="1.133" height="1.514" transform="translate(2661.487 10744.568)" fill="none" stroke="#fff" stroke-miterlimit="10" stroke-width="0.6"/>
    <rect id="Rectangle_44928" data-name="Rectangle 44928" width="1.133" height="1.514" transform="translate(2664.026 10744.568)" fill="none" stroke="#fff" stroke-miterlimit="10" stroke-width="0.6"/>
    <rect id="Rectangle_44929" data-name="Rectangle 44929" width="1.134" height="1.514" transform="translate(2666.565 10744.568)" fill="none" stroke="#fff" stroke-miterlimit="10" stroke-width="0.6"/>
    <rect id="Rectangle_44930" data-name="Rectangle 44930" width="1.134" height="1.514" transform="translate(2669.105 10744.568)" fill="none" stroke="#fff" stroke-miterlimit="10" stroke-width="0.6"/>
    <rect id="Rectangle_44931" data-name="Rectangle 44931" width="1.134" height="1.514" transform="translate(2658.948 10747.885)" fill="none" stroke="#fff" stroke-miterlimit="10" stroke-width="0.6"/>
    <rect id="Rectangle_44932" data-name="Rectangle 44932" width="1.133" height="1.514" transform="translate(2661.487 10747.885)" fill="none" stroke="#fff" stroke-miterlimit="10" stroke-width="0.6"/>
    <rect id="Rectangle_44933" data-name="Rectangle 44933" width="1.133" height="1.514" transform="translate(2664.026 10747.885)" fill="none" stroke="#fff" stroke-miterlimit="10" stroke-width="0.6"/>
    <rect id="Rectangle_44934" data-name="Rectangle 44934" width="1.134" height="1.514" transform="translate(2666.565 10747.885)" fill="none" stroke="#fff" stroke-miterlimit="10" stroke-width="0.6"/>
    <rect id="Rectangle_44935" data-name="Rectangle 44935" width="1.134" height="1.514" transform="translate(2669.105 10747.885)" fill="none" stroke="#fff" stroke-miterlimit="10" stroke-width="0.6"/>
    <rect id="Rectangle_44936" data-name="Rectangle 44936" width="1.134" height="1.514" transform="translate(2658.948 10751.201)" fill="none" stroke="#fff" stroke-miterlimit="10" stroke-width="0.6"/>
    <rect id="Rectangle_44937" data-name="Rectangle 44937" width="1.133" height="1.514" transform="translate(2661.487 10751.201)" fill="none" stroke="#fff" stroke-miterlimit="10" stroke-width="0.6"/>
    <rect id="Rectangle_44938" data-name="Rectangle 44938" width="1.133" height="1.514" transform="translate(2664.026 10751.201)" fill="none" stroke="#fff" stroke-miterlimit="10" stroke-width="0.6"/>
    <rect id="Rectangle_44939" data-name="Rectangle 44939" width="1.134" height="1.514" transform="translate(2666.565 10751.201)" fill="none" stroke="#fff" stroke-miterlimit="10" stroke-width="0.6"/>
    <rect id="Rectangle_44940" data-name="Rectangle 44940" width="1.134" height="1.514" transform="translate(2669.105 10751.201)" fill="none" stroke="#fff" stroke-miterlimit="10" stroke-width="0.6"/>
    <rect id="Rectangle_44941" data-name="Rectangle 44941" width="1.134" height="1.514" transform="translate(2658.948 10754.52)" fill="none" stroke="#fff" stroke-miterlimit="10" stroke-width="0.6"/>
    <rect id="Rectangle_44942" data-name="Rectangle 44942" width="1.133" height="1.514" transform="translate(2661.487 10754.52)" fill="none" stroke="#fff" stroke-miterlimit="10" stroke-width="0.6"/>
    <rect id="Rectangle_44943" data-name="Rectangle 44943" width="1.133" height="1.514" transform="translate(2664.026 10754.52)" fill="none" stroke="#fff" stroke-miterlimit="10" stroke-width="0.6"/>
    <rect id="Rectangle_44944" data-name="Rectangle 44944" width="1.134" height="1.514" transform="translate(2666.565 10754.52)" fill="none" stroke="#fff" stroke-miterlimit="10" stroke-width="0.6"/>
    <rect id="Rectangle_44945" data-name="Rectangle 44945" width="1.134" height="1.514" transform="translate(2669.105 10754.52)" fill="none" stroke="#fff" stroke-miterlimit="10" stroke-width="0.6"/>
    <rect id="Rectangle_44946" data-name="Rectangle 44946" width="1.134" height="1.514" transform="translate(2658.948 10757.835)" fill="none" stroke="#fff" stroke-miterlimit="10" stroke-width="0.6"/>
    <rect id="Rectangle_44947" data-name="Rectangle 44947" width="1.133" height="1.514" transform="translate(2661.487 10757.835)" fill="none" stroke="#fff" stroke-miterlimit="10" stroke-width="0.6"/>
    <rect id="Rectangle_44948" data-name="Rectangle 44948" width="1.133" height="1.514" transform="translate(2664.026 10757.835)" fill="none" stroke="#fff" stroke-miterlimit="10" stroke-width="0.6"/>
    <rect id="Rectangle_44949" data-name="Rectangle 44949" width="1.134" height="1.514" transform="translate(2666.565 10757.835)" fill="none" stroke="#fff" stroke-miterlimit="10" stroke-width="0.6"/>
    <rect id="Rectangle_44950" data-name="Rectangle 44950" width="1.134" height="1.514" transform="translate(2669.105 10757.835)" fill="none" stroke="#fff" stroke-miterlimit="10" stroke-width="0.6"/>
    <rect id="Rectangle_44951" data-name="Rectangle 44951" width="1.134" height="1.514" transform="translate(2658.948 10761.151)" fill="none" stroke="#fff" stroke-miterlimit="10" stroke-width="0.6"/>
    <rect id="Rectangle_44952" data-name="Rectangle 44952" width="1.133" height="1.514" transform="translate(2661.487 10761.151)" fill="none" stroke="#fff" stroke-miterlimit="10" stroke-width="0.6"/>
    <rect id="Rectangle_44953" data-name="Rectangle 44953" width="1.133" height="1.514" transform="translate(2664.026 10761.151)" fill="none" stroke="#fff" stroke-miterlimit="10" stroke-width="0.6"/>
    <rect id="Rectangle_44954" data-name="Rectangle 44954" width="1.134" height="1.514" transform="translate(2666.565 10761.151)" fill="none" stroke="#fff" stroke-miterlimit="10" stroke-width="0.6"/>
    <rect id="Rectangle_44955" data-name="Rectangle 44955" width="1.134" height="1.514" transform="translate(2669.105 10761.151)" fill="none" stroke="#fff" stroke-miterlimit="10" stroke-width="0.6"/>
    <g id="Group_105288" data-name="Group 105288" transform="translate(2657.247 10738.928)">
      <g id="Group_105287" data-name="Group 105287" clip-path="url(#clip-path)">
        <rect id="Rectangle_44956" data-name="Rectangle 44956" width="2.766" height="4.362" transform="translate(6.326 26.495)" fill="none" stroke="#fff" stroke-miterlimit="10" stroke-width="0.6"/>
      </g>
    </g>
  </g>
</svg>
