<svg xmlns="http://www.w3.org/2000/svg" width="127.643" height="75.373" viewBox="0 0 127.643 75.373">
  <g id="Group_105084" data-name="Group 105084" transform="translate(0.5 0.5)">
    <path id="Path_17562" data-name="Path 17562" d="M3269.62-509.216h-47.247" transform="translate(-3162.889 577.688)" fill="none" stroke="#fff" stroke-linecap="round" stroke-linejoin="round" stroke-width="1"/>
    <path id="Path_17563" data-name="Path 17563" d="M3051.044-566.809c.087-6.909.078-13.821.09-20.728.01-5.263.007-10.534-.083-15.8-.032-1.908.012-1.886,2.034-1.717.67.056,1.359-.144,2.038-.145q16.995-.015,33.99,0c.963,0,1.949-.293,3.059.351v11.705" transform="translate(-3049.854 641.057)" fill="none" stroke="#fff" stroke-linecap="round" stroke-linejoin="round" stroke-width="1"/>
    <path id="Path_17564" data-name="Path 17564" d="M3055.021-628.554a5.993,5.993,0,0,1,.413-2.719c10.577,0,21.228.023,31.878-.045.82-.005,2.035.893,2.471-.323a5.387,5.387,0,0,0-.037-2.53c-.219-1.207.327-2.482-.071-3.9-2.814,0-5.648,0-8.482,0a2.346,2.346,0,0,1-1.876-.5c-1.933-1.927-4.432-1.587-6.788-1.463a7.092,7.092,0,0,0-2.209.615c-.432.185-.978.332-.854,1.011" transform="translate(-3052.471 664.065)" fill="none" stroke="#fff" stroke-linecap="round" stroke-linejoin="round" stroke-width="1"/>
    <path id="Path_17565" data-name="Path 17565" d="M3149.091-556.253v11.638h-7.138v-23.277h7.138v11.3" transform="translate(-3109.832 616.398)" fill="none" stroke="#fff" stroke-linecap="round" stroke-linejoin="round" stroke-width="1"/>
    <path id="Path_17567" data-name="Path 17567" d="M3172.578-538.856c.083-3.986.612-7.935.948-11.9a37.134,37.134,0,0,0,.417-5.771,2.929,2.929,0,0,1,.478-2.175,19.888,19.888,0,0,1-2.02-4.2h15.319c.236.778-.312,1.323-.577,1.753a7.329,7.329,0,0,0-.687,5.82,40.693,40.693,0,0,1,.352,4.24c.37,3.326.517,6.677.712,10.02.044.756.6,1.417.354,2.208" transform="translate(-3129.92 613.104)" fill="none" stroke="#fff" stroke-linecap="round" stroke-linejoin="round" stroke-width="1"/>
    <path id="Path_17569" data-name="Path 17569" d="M3060.142-562.374a14.437,14.437,0,0,0-.162,1.529q-.019,7.561,0,15.122c0,.393-.188.835.222,1.274h7.16v-23.192h-7.393v4.927" transform="translate(-3055.724 616.234)" fill="none" stroke="#fff" stroke-linecap="round" stroke-linejoin="round" stroke-width="1"/>
    <path id="Path_17570" data-name="Path 17570" d="M3190.39-654.193c.113-.113.287-.207.331-.343.625-1.949.585-1.925-1.521-1.889a21.8,21.8,0,0,1-4.761-.132,1.522,1.522,0,0,0-1.527.495c.448.709.334,1.72,1.092,2.124h6.3c.317,3.647.628,7.218.939,10.789" transform="translate(-3136.855 674.922)" fill="none" stroke="#fff" stroke-linecap="round" stroke-linejoin="round" stroke-width="1"/>
    <path id="Path_17571" data-name="Path 17571" d="M3086.424-634.555a80.2,80.2,0,0,1-9.008.158c-3.739.05-7.479.012-11.387.012v6.457" transform="translate(-3059.741 660.381)" fill="none" stroke="#fff" stroke-linecap="round" stroke-linejoin="round" stroke-width="1"/>
    <path id="Path_17573" data-name="Path 17573" d="M3304.771-601.1a3.6,3.6,0,0,1-1.359.356c-4.362-.028-8.724-.012-13.086-.023a6.465,6.465,0,0,1-1.02-.163" transform="translate(-3207.048 638.307)" fill="none" stroke="#fff" stroke-linecap="round" stroke-linejoin="round" stroke-width="1"/>
    <path id="Path_17574" data-name="Path 17574" d="M3190.033-598.244a6.653,6.653,0,0,1-.356-1.7q-.29-5.44-.673-10.874c-.139-1.939-.185-1.936,1.139-5.013H3178.9a1.716,1.716,0,0,0,.3,1.751c1.023,1.5.736,3.078.429,4.614a40.356,40.356,0,0,0-.372,4.6,46.577,46.577,0,0,0-.446,6.618" transform="translate(-3134.118 648.026)" fill="none" stroke="#fff" stroke-linecap="round" stroke-linejoin="round" stroke-width="1"/>
    <path id="Path_17575" data-name="Path 17575" d="M3090.715-590.112h-43.168" transform="translate(-3047.547 631.059)" fill="none" stroke="#fff" stroke-linecap="round" stroke-linejoin="round" stroke-width="1"/>
    <path id="Path_17576" data-name="Path 17576" d="M3230.386-577.129a4.756,4.756,0,0,0-.875,3.058c.057,5.323.028,10.647.021,15.971a3.615,3.615,0,0,1-.166,1.7" transform="translate(-3167.503 622.494)" fill="none" stroke="#fff" stroke-linecap="round" stroke-linejoin="round" stroke-width="1"/>
    <path id="Path_17577" data-name="Path 17577" d="M3364.365-583.258a12.06,12.06,0,0,1-1.7-.012c-2.652-.382-4.242,1.138-5.6,3.073a2.252,2.252,0,0,0-.356,1.356c.018,5.833.009,11.667.018,17.5a4.568,4.568,0,0,0,.163.849" transform="translate(-3251.516 626.584)" fill="none" stroke="#fff" stroke-linecap="round" stroke-linejoin="round" stroke-width="1"/>
    <path id="Path_17578" data-name="Path 17578" d="M3278.384-582.123c-1.675,2.394-.71,5.1-.8,7.648-.173,4.921-.05,9.852-.05,14.78" transform="translate(-3199.185 625.789)" fill="none" stroke="#fff" stroke-linecap="round" stroke-linejoin="round" stroke-width="1"/>
    <path id="Path_17579" data-name="Path 17579" d="M3259.332-582.123c-.061,1.16,1.109,1.524,1.612,2.327a3.633,3.633,0,0,1,.6,2.091q0,8.155,0,16.311a3.616,3.616,0,0,0,.167,1.7" transform="translate(-3187.271 625.789)" fill="none" stroke="#fff" stroke-linecap="round" stroke-linejoin="round" stroke-width="1"/>
    <path id="Path_17580" data-name="Path 17580" d="M3288.382-592.777c-.312-.41-.762-.34-1.19-.34h-9.366c-.074.332-.175.52-.141.677.21.966-.657,2.437.691,2.812,1.236.344,1.375-1.363,2.44-1.878,1.6,1.616,3.545,3.243,3,6.208a13.279,13.279,0,0,0-.022,2.375" transform="translate(-3199.326 633.044)" fill="none" stroke="#fff" stroke-linecap="round" stroke-linejoin="round" stroke-width="1"/>
    <path id="Path_17581" data-name="Path 17581" d="M3247.518-575.132q0,9.175,0,18.35a3.616,3.616,0,0,1-.166,1.7" transform="translate(-3179.366 621.176)" fill="none" stroke="#fff" stroke-linecap="round" stroke-linejoin="round" stroke-width="1"/>
    <path id="Path_17582" data-name="Path 17582" d="M3344.815-577.628c-.429,2.994-.1,6-.154,9.005-.067,3.963-.017,7.928-.017,11.893" transform="translate(-3243.522 622.823)" fill="none" stroke="#fff" stroke-linecap="round" stroke-linejoin="round" stroke-width="1"/>
    <path id="Path_17583" data-name="Path 17583" d="M3302.463-555.157q0,5.777,0,11.553a3.621,3.621,0,0,1-.166,1.7" transform="translate(-3215.617 607.997)" fill="none" stroke="#fff" stroke-linecap="round" stroke-linejoin="round" stroke-width="1"/>
    <path id="Path_17584" data-name="Path 17584" d="M3338.427-555.157q0,5.777,0,11.553a3.615,3.615,0,0,1-.166,1.7" transform="translate(-3239.344 607.997)" fill="none" stroke="#fff" stroke-linecap="round" stroke-linejoin="round" stroke-width="1"/>
    <path id="Path_17585" data-name="Path 17585" d="M3319.744-555.157q0,5.777,0,11.553a3.615,3.615,0,0,0,.166,1.7" transform="translate(-3227.12 607.997)" fill="none" stroke="#fff" stroke-linecap="round" stroke-linejoin="round" stroke-width="1"/>
    <path id="Path_17586" data-name="Path 17586" d="M3296.3-555.157V-541.9" transform="translate(-3211.662 607.997)" fill="none" stroke="#fff" stroke-linecap="round" stroke-linejoin="round" stroke-width="1"/>
    <path id="Path_17587" data-name="Path 17587" d="M3326.269-555.157V-541.9" transform="translate(-3231.435 607.997)" fill="none" stroke="#fff" stroke-linecap="round" stroke-linejoin="round" stroke-width="1"/>
    <path id="Path_17588" data-name="Path 17588" d="M3283.781-555.157q0,5.777,0,11.553a3.615,3.615,0,0,0,.166,1.7" transform="translate(-3203.392 607.997)" fill="none" stroke="#fff" stroke-linecap="round" stroke-linejoin="round" stroke-width="1"/>
    <path id="Path_17590" data-name="Path 17590" d="M3178.916-551.162h11.217" transform="translate(-3134.219 605.361)" fill="none" stroke="#fff" stroke-linecap="round" stroke-linejoin="round" stroke-width="1"/>
    <path id="Path_17591" data-name="Path 17591" d="M3275.773-600.6c-1.909.4-3.866-.005-5.948.263v5.344" transform="translate(-3194.196 637.978)" fill="none" stroke="#fff" stroke-linecap="round" stroke-linejoin="round" stroke-width="1"/>
    <path id="Path_17592" data-name="Path 17592" d="M3341.537-594.992v-5.343c-2.026-.253-3.925.11-5.778-.264" transform="translate(-3237.697 637.978)" fill="none" stroke="#fff" stroke-linecap="round" stroke-linejoin="round" stroke-width="1"/>
    <path id="Path_17593" data-name="Path 17593" d="M3183.932-648.038c-.113.227-.325.453-.325.679,0,3.3-.467,6.57-.695,9.855" transform="translate(-3136.855 669.276)" fill="none" stroke="#fff" stroke-linecap="round" stroke-linejoin="round" stroke-width="1"/>
    <path id="Path_17594" data-name="Path 17594" d="M3278.816-562.148h22.094" transform="translate(-3200.128 612.61)" fill="none" stroke="#fff" stroke-linecap="round" stroke-linejoin="round" stroke-width="1"/>
    <path id="Path_17595" data-name="Path 17595" d="M3295.8-588.015c1.634-1.365,3.437-2.543,4.6-4.408a.718.718,0,0,1,1.321,0c.826,1.624,2.383,2.518,3.644,3.671a2.574,2.574,0,0,1,.982,2.264c-.052,1.244-.013,2.491-.013,3.737" transform="translate(-3211.332 632.87)" fill="none" stroke="#fff" stroke-linecap="round" stroke-linejoin="round" stroke-width="1"/>
    <path id="Path_17596" data-name="Path 17596" d="M3229.7-606.092a19.072,19.072,0,0,0-3.209,1.39,5.953,5.953,0,0,0-2.74,6.086" transform="translate(-3163.754 641.602)" fill="none" stroke="#fff" stroke-linecap="round" stroke-linejoin="round" stroke-width="1"/>
    <path id="Path_17597" data-name="Path 17597" d="M3090.967-589.114c0,2.435-.006,4.871,0,7.306,0,.582-.162,1.209.335,1.7" transform="translate(-3076.181 630.401)" fill="none" stroke="#fff" stroke-linecap="round" stroke-linejoin="round" stroke-width="1"/>
    <path id="Path_17598" data-name="Path 17598" d="M3390.752-571.011c-3.507-.374-7.026-.07-10.537-.17" transform="translate(-3267.027 618.584)" fill="none" stroke="#fff" stroke-linecap="round" stroke-linejoin="round" stroke-width="1"/>
    <path id="Path_17599" data-name="Path 17599" d="M3191.07-606.092h-8.158" transform="translate(-3136.855 641.602)" fill="none" stroke="#fff" stroke-linecap="round" stroke-linejoin="round" stroke-width="1"/>
    <path id="Path_17600" data-name="Path 17600" d="M3286.961-630.549c-.632-2.436.47-4.08,2.372-5.447,4.246-3.05,8.714-2.445,12.415.518a4.477,4.477,0,0,1,1.529,4.928" transform="translate(-3205.383 662.661)" fill="none" stroke="#fff" stroke-linecap="round" stroke-linejoin="round" stroke-width="1"/>
    <path id="Path_17601" data-name="Path 17601" d="M3323.819-588.627c.484-1.473-.008-2.945.257-4.626-3.77.215-7.292-.367-10.794.379" transform="translate(-3222.867 633.143)" fill="none" stroke="#fff" stroke-linecap="round" stroke-linejoin="round" stroke-width="1"/>
    <path id="Path_17602" data-name="Path 17602" d="M3066.149-553.132c-3.508-.331-7.025-.149-10.537-.131-1.181.006-2.4-.329-3.569.131" transform="translate(-3050.514 606.822)" fill="none" stroke="#fff" stroke-linecap="round" stroke-linejoin="round" stroke-width="1"/>
    <path id="Path_17603" data-name="Path 17603" d="M3064.8-534.188c-3.8,0-7.591-.008-11.386.007-.624,0-1.246.106-1.87.162" transform="translate(-3050.184 594.165)" fill="none" stroke="#fff" stroke-linecap="round" stroke-linejoin="round" stroke-width="1"/>
    <path id="Path_17604" data-name="Path 17604" d="M3145.038-534.187c-3.682,0-7.365-.006-11.047.007a14.581,14.581,0,0,0-1.53.162" transform="translate(-3103.57 594.164)" fill="none" stroke="#fff" stroke-linecap="round" stroke-linejoin="round" stroke-width="1"/>
    <path id="Path_17605" data-name="Path 17605" d="M3132.462-553.16h12.576" transform="translate(-3103.57 606.68)" fill="none" stroke="#fff" stroke-linecap="round" stroke-linejoin="round" stroke-width="1"/>
    <path id="Path_17606" data-name="Path 17606" d="M3386.959-588.614a11.218,11.218,0,0,1-1.022.674c-2.724,1.414-3.976,3.41-3.308,6.649.294,1.429-.248,3.041.082,4.57" transform="translate(-3268.502 630.071)" fill="none" stroke="#fff" stroke-linecap="round" stroke-linejoin="round" stroke-width="1"/>
    <path id="Path_17609" data-name="Path 17609" d="M3395.619-593.608a2.433,2.433,0,0,0,1.353,2.73,9.541,9.541,0,0,1,1.7,1.188,3.924,3.924,0,0,1,1.392,3.218,36.973,36.973,0,0,0,.146,6.626" transform="translate(-3277.162 633.365)" fill="none" stroke="#fff" stroke-linecap="round" stroke-linejoin="round" stroke-width="1"/>
    <path id="Path_17610" data-name="Path 17610" d="M3320.59-622.73c-2.095.1-4.2-.2-6.289.167-.453.08-.667-.361-1.019-.507" transform="translate(-3222.867 652.803)" fill="none" stroke="#fff" stroke-linecap="round" stroke-linejoin="round" stroke-width="1"/>
    <path id="Path_17611" data-name="Path 17611" d="M3295.115-623.07c-.352.146-.566.587-1.02.507-2.088-.37-4.194-.066-6.289-.167" transform="translate(-3206.06 652.803)" fill="none" stroke="#fff" stroke-linecap="round" stroke-linejoin="round" stroke-width="1"/>
    <path id="Path_17612" data-name="Path 17612" d="M3269.62-515.518c-3.4-.057-6.8-.2-10.2-.147-3.967.067-7.933.017-11.9.041q-6.542.039-13.087.1c-4.022.037-8.044.008-12.066.008" transform="translate(-3162.889 581.951)" fill="none" stroke="#fff" stroke-linecap="round" stroke-linejoin="round" stroke-width="1"/>
    <path id="Path_17613" data-name="Path 17613" d="M3410.034-523.429c-.947-.26-1.616-1.478-2.915-.546a3.243,3.243,0,0,0-1.515,3.265,17.646,17.646,0,0,1,.011,1.868" transform="translate(-3283.759 587.653)" fill="none" stroke="#fff" stroke-linecap="round" stroke-linejoin="round" stroke-width="1"/>
    <path id="Path_17614" data-name="Path 17614" d="M3386.7-518.76c0-.963-.009-1.926,0-2.888a2.371,2.371,0,0,1,2.377-2.549,2.984,2.984,0,0,1,2.366,2.38c.062,1.016.013,2.038.013,3.057" transform="translate(-3271.303 587.572)" fill="none" stroke="#fff" stroke-linecap="round" stroke-linejoin="round" stroke-width="1"/>
    <path id="Path_17615" data-name="Path 17615" d="M3367.727-523.048c1.778-1.456,2.564-1.564,3.738-.509a2.166,2.166,0,0,1,.694,1.869c-.054.96-.013,1.925-.013,2.888" transform="translate(-3258.787 587.612)" fill="none" stroke="#fff" stroke-linecap="round" stroke-linejoin="round" stroke-width="1"/>
    <path id="Path_17616" data-name="Path 17616" d="M3368.088-548c0-1.019-.047-2.042.014-3.057a1.787,1.787,0,0,0-1.374-2.006v20.695" transform="translate(-3258.128 606.614)" fill="none" stroke="#fff" stroke-linecap="round" stroke-linejoin="round" stroke-width="1"/>
    <path id="Path_17617" data-name="Path 17617" d="M3253.965-556.156h-6.118" transform="translate(-3179.696 608.657)" fill="none" stroke="#fff" stroke-linecap="round" stroke-linejoin="round" stroke-width="1"/>
    <path id="Path_17618" data-name="Path 17618" d="M3199.9-699.472c.553,1.364.343,2.849.676,4.248.179.752-.475,1.748.673,2.233.081.034.07.448,0,.652a8.679,8.679,0,0,0-.01,4.935c.184.765-.143,1.6.19,2.374" transform="translate(-3148.059 703.21)" fill="none" stroke="#fff" stroke-linecap="round" stroke-linejoin="round" stroke-width="1"/>
    <path id="Path_17619" data-name="Path 17619" d="M3191.115-681.495c-1.785.471-3.665-.082-5.559.237.531,1.2.927,1.969.557,3.19-.461,1.52-.21,3.255-.267,4.9" transform="translate(-3138.599 691.35)" fill="none" stroke="#fff" stroke-linecap="round" stroke-linejoin="round" stroke-width="1"/>
    <path id="Path_17620" data-name="Path 17620" d="M3271.968-610.087h-7.138v8.835" transform="translate(-3190.901 644.238)" fill="none" stroke="#fff" stroke-linecap="round" stroke-linejoin="round" stroke-width="1"/>
    <path id="Path_17621" data-name="Path 17621" d="M3337.258-610.087h6.781c.531,1.719-.278,3.41.527,4.927" transform="translate(-3238.686 644.238)" fill="none" stroke="#fff" stroke-linecap="round" stroke-linejoin="round" stroke-width="1"/>
    <path id="Path_17622" data-name="Path 17622" d="M3222.373-556.522c.83-.722,1.839-.367,2.716-.3a25.607,25.607,0,0,0,5.612-.044" transform="translate(-3162.889 609.192)" fill="none" stroke="#fff" stroke-linecap="round" stroke-linejoin="round" stroke-width="1"/>
    <path id="Path_17623" data-name="Path 17623" d="M3293.341-556.485c-8.838-.036-17.677.159-26.513-.17" transform="translate(-3192.219 608.986)" fill="none" stroke="#fff" stroke-linecap="round" stroke-linejoin="round" stroke-width="1"/>
    <path id="Path_17624" data-name="Path 17624" d="M3188.587-698.473c-.749,1.806.055,3.8-.68,5.607" transform="translate(-3140.15 702.551)" fill="none" stroke="#fff" stroke-linecap="round" stroke-linejoin="round" stroke-width="1"/>
    <path id="Path_17625" data-name="Path 17625" d="M3253.615-602.524c-1.342-1.8-3.309-2.68-5.268-3.568" transform="translate(-3180.025 641.602)" fill="none" stroke="#fff" stroke-linecap="round" stroke-linejoin="round" stroke-width="1"/>
    <path id="Path_17626" data-name="Path 17626" d="M3363.587-606.092c-.99.853-2.329.934-3.433,1.647-2.23,1.441-2.748,3.426-2.515,5.829" transform="translate(-3252.098 641.602)" fill="none" stroke="#fff" stroke-linecap="round" stroke-linejoin="round" stroke-width="1"/>
    <path id="Path_17627" data-name="Path 17627" d="M3246.848-508.217v5.437" transform="translate(-3179.037 577.029)" fill="none" stroke="#fff" stroke-linecap="round" stroke-linejoin="round" stroke-width="1"/>
    <path id="Path_17628" data-name="Path 17628" d="M3415.679-547.46c.151-1.609-.434-3.35.938-4.787.674,1.61.385,3.308.4,4.957q.022,2.631-.083,5.269c-.07,1.687-.02,3.4.011,5.093s0,3.4.094,5.1" transform="translate(-3290.424 606.078)" fill="none" stroke="#fff" stroke-linecap="round" stroke-linejoin="round" stroke-width="1"/>
    <path id="Path_17629" data-name="Path 17629" d="M3409.491-552.616a1.624,1.624,0,0,0-1.848-.637,2,2,0,0,0-1.065,2.168,24.768,24.768,0,0,1,.024,2.886" transform="translate(-3284.405 606.816)" fill="none" stroke="#fff" stroke-linecap="round" stroke-linejoin="round" stroke-width="1"/>
    <path id="Path_17630" data-name="Path 17630" d="M3291.6-609.331a48.9,48.9,0,0,1,.17-6.117c.139-1.048-.318-1.537-1.358-1.352-2.58.46-5.089-.362-7.649-.382-3.181-.025-6.377,1.884-6.829,5.128-.017.121-.056.6-.681.474-.611-.81-.21-1.875-.3-2.849-.175-1.829-1.66-2.711-3.582-2.425a2.95,2.95,0,0,0-2.542,1.746" transform="translate(-3193.537 648.919)" fill="none" stroke="#fff" stroke-linecap="round" stroke-linejoin="round" stroke-width="1"/>
    <path id="Path_17631" data-name="Path 17631" d="M3324.271-615.08c1.334,1.219,2.758,2.371,3.229,4.248" transform="translate(-3230.117 647.532)" fill="none" stroke="#fff" stroke-linecap="round" stroke-linejoin="round" stroke-width="1"/>
    <path id="Path_17632" data-name="Path 17632" d="M3367.727-507.219h17.335" transform="translate(-3258.787 576.37)" fill="none" stroke="#fff" stroke-linecap="round" stroke-linejoin="round" stroke-width="1"/>
    <path id="Path_17633" data-name="Path 17633" d="M3238.93-583.621c-2.135.455-4.313.152-6.462.245-2.241.1-4.53.037-6.794-.077a.945.945,0,0,0-1.006.686c-.4,1.246-1.366,1.225-2.393,1.193-1.132-.035-2.266-.008-3.4-.008" transform="translate(-3160.582 626.777)" fill="none" stroke="#fff" stroke-linecap="round" stroke-linejoin="round" stroke-width="1"/>
    <path id="Path_17634" data-name="Path 17634" d="M3193.325-675h-4.419" transform="translate(-3140.81 687.067)" fill="none" stroke="#fff" stroke-linecap="round" stroke-linejoin="round" stroke-width="1"/>
    <path id="Path_17636" data-name="Path 17636" d="M3327.268-585.727l2.887-3.4c.736.982,1.349,1.886,2.052,2.715a3.337,3.337,0,0,0,2.88,1.226,6.143,6.143,0,0,1,2.718.143" transform="translate(-3232.094 630.412)" fill="none" stroke="#fff" stroke-linecap="round" stroke-linejoin="round" stroke-width="1"/>
    <path id="Path_17637" data-name="Path 17637" d="M3268.58-577.531a11,11,0,0,0-4.249,0" transform="translate(-3190.572 622.896)" fill="none" stroke="#fff" stroke-linecap="round" stroke-linejoin="round" stroke-width="1"/>
    <path id="Path_17638" data-name="Path 17638" d="M3386.462-603.713c-1.149-1.27-2.875-1.51-4.249-2.379" transform="translate(-3268.344 641.602)" fill="none" stroke="#fff" stroke-linecap="round" stroke-linejoin="round" stroke-width="1"/>
    <path id="Path_17639" data-name="Path 17639" d="M3217.877-578.592v-4.617a53.561,53.561,0,0,1,6.289.2" transform="translate(-3159.923 626.505)" fill="none" stroke="#fff" stroke-linecap="round" stroke-linejoin="round" stroke-width="1"/>
    <path id="Path_17640" data-name="Path 17640" d="M3402.355-567.437c-1.8-.893-2.731-.328-2.709,1.7a8.731,8.731,0,0,0,.16,2.888" transform="translate(-3279.819 616.37)" fill="none" stroke="#fff" stroke-linecap="round" stroke-linejoin="round" stroke-width="1"/>
    <path id="Path_17641" data-name="Path 17641" d="M3370.724-552.327c.878-.512,1.664-1.533,2.755-.2a1.417,1.417,0,0,1,.295,1.049c.025,1.132.009,2.265.009,3.4" transform="translate(-3260.764 606.696)" fill="none" stroke="#fff" stroke-linecap="round" stroke-linejoin="round" stroke-width="1"/>
    <path id="Path_17642" data-name="Path 17642" d="M3391.669-552.508c-.654-.347-1.153-1.3-2.024-.821a2.162,2.162,0,0,0-1.058,2.352,22.379,22.379,0,0,1,.023,2.716" transform="translate(-3272.531 606.877)" fill="none" stroke="#fff" stroke-linecap="round" stroke-linejoin="round" stroke-width="1"/>
    <path id="Path_17643" data-name="Path 17643" d="M3400.5-552.616a1.625,1.625,0,0,0-1.848-.637,2,2,0,0,0-1.065,2.168,24.822,24.822,0,0,1,.024,2.886" transform="translate(-3278.474 606.816)" fill="none" stroke="#fff" stroke-linecap="round" stroke-linejoin="round" stroke-width="1"/>
    <path id="Path_17644" data-name="Path 17644" d="M3378.716-617.577v3.4" transform="translate(-3266.037 649.18)" fill="none" stroke="#fff" stroke-linecap="round" stroke-linejoin="round" stroke-width="1"/>
    <path id="Path_17645" data-name="Path 17645" d="M3243.362-617.577c.169,1.238.533,2.5-.51,3.568" transform="translate(-3176.4 649.18)" fill="none" stroke="#fff" stroke-linecap="round" stroke-linejoin="round" stroke-width="1"/>
    <path id="Path_17646" data-name="Path 17646" d="M3290.218-615.95a11.01,11.01,0,0,0-3.06-.165c-.567-.03-.852.276-.849.844" transform="translate(-3205.072 648.231)" fill="none" stroke="#fff" stroke-linecap="round" stroke-linejoin="round" stroke-width="1"/>
    <path id="Path_17647" data-name="Path 17647" d="M3344.725-621.572c-.042.983-.06,1.807,1.354,1.931a2.049,2.049,0,0,1,1.705,1.638" transform="translate(-3243.603 651.815)" fill="none" stroke="#fff" stroke-linecap="round" stroke-linejoin="round" stroke-width="1"/>
    <path id="Path_17648" data-name="Path 17648" d="M3194.9-710.458v3.058" transform="translate(-3144.764 710.458)" fill="none" stroke="#fff" stroke-linecap="round" stroke-linejoin="round" stroke-width="1"/>
    <path id="Path_17649" data-name="Path 17649" d="M3240.355-582.123c.227.284.435.585.682.847,1.835,1.935,2.83,1.726,4.076-.847" transform="translate(-3174.753 625.789)" fill="none" stroke="#fff" stroke-linecap="round" stroke-linejoin="round" stroke-width="1"/>
    <path id="Path_17650" data-name="Path 17650" d="M3339.478-617.078l-2.72,1.19" transform="translate(-3238.355 648.85)" fill="none" stroke="#fff" stroke-linecap="round" stroke-linejoin="round" stroke-width="1"/>
    <path id="Path_17651" data-name="Path 17651" d="M3309.642-641.181a1.749,1.749,0,0,0-.027-1.614h-2.665a1.751,1.751,0,0,0-.027,1.614" transform="translate(-3218.547 665.818)" fill="none" stroke="#fff" stroke-linecap="round" stroke-linejoin="round" stroke-width="1"/>
    <path id="Path_17652" data-name="Path 17652" d="M3157.937-614.082c.34.057.678.139,1.02.166,2.378.186,2.379.183,2.379,2.553" transform="translate(-3120.378 646.873)" fill="none" stroke="#fff" stroke-linecap="round" stroke-linejoin="round" stroke-width="1"/>
    <path id="Path_17653" data-name="Path 17653" d="M3352.037-583.071a34.55,34.55,0,0,0-6.288-.17" transform="translate(-3244.287 626.566)" fill="none" stroke="#fff" stroke-linecap="round" stroke-linejoin="round" stroke-width="1"/>
    <path id="Path_17654" data-name="Path 17654" d="M3345.749-556.655h5.609" transform="translate(-3244.287 608.986)" fill="none" stroke="#fff" stroke-linecap="round" stroke-linejoin="round" stroke-width="1"/>
    <path id="Path_17655" data-name="Path 17655" d="M3368.227-582.123c.248,1.062,1.535,1.432,1.7,2.549" transform="translate(-3259.117 625.789)" fill="none" stroke="#fff" stroke-linecap="round" stroke-linejoin="round" stroke-width="1"/>
    <path id="Path_17656" data-name="Path 17656" d="M3380.216-552.331c.963-1.369,1.926-.9,2.889,0" transform="translate(-3267.027 606.7)" fill="none" stroke="#fff" stroke-linecap="round" stroke-linejoin="round" stroke-width="1"/>
    <path id="Path_17658" data-name="Path 17658" d="M3394.022-567.072c-.679-.172-.971-1.092-2.074-.586-1.217.559-.73,1.386-.789,2.117a3.968,3.968,0,0,0,.314,2.546" transform="translate(-3274.206 616.344)" fill="none" stroke="#fff" stroke-linecap="round" stroke-linejoin="round" stroke-width="1"/>
    <path id="Path_17659" data-name="Path 17659" d="M3374.252-577.628l-1.53.17" transform="translate(-3262.083 622.823)" fill="none" stroke="#fff" stroke-linecap="round" stroke-linejoin="round" stroke-width="1"/>
    <path id="Path_17660" data-name="Path 17660" d="M3383.711-567.4a1.794,1.794,0,0,1,2.55.34" transform="translate(-3269.333 616.337)" fill="none" stroke="#fff" stroke-linecap="round" stroke-linejoin="round" stroke-width="1"/>
    <path id="Path_17661" data-name="Path 17661" d="M3311.284-652.532v3.058" transform="translate(-3221.549 672.241)" fill="none" stroke="#fff" stroke-linecap="round" stroke-linejoin="round" stroke-width="1"/>
  </g>
</svg>
