<svg width="125" height="47" viewBox="0 0 125 47" fill="none" xmlns="http://www.w3.org/2000/svg">
<path fill-rule="evenodd" clip-rule="evenodd" d="M52.9948 0H52.8281V1.24333H52.9948V0ZM49.3164 13.085H49.1497V13.5333H49.3164V13.085ZM52.933 17.0101C51.7763 17.0101 50.8346 17.9518 50.8346 19.1084C50.8346 20.2651 51.7763 21.2068 52.933 21.2068C54.0896 21.2068 55.033 20.2651 55.033 19.1084C55.033 17.9518 54.0913 17.0101 52.933 17.0101ZM52.933 21.0418C51.868 21.0418 51.0013 20.1751 51.0013 19.1101C51.0013 18.0451 51.868 17.1784 52.933 17.1784C53.998 17.1784 54.8663 18.0451 54.8663 19.1101C54.8663 20.1751 53.9996 21.0418 52.933 21.0418ZM66.6871 26.6283H66.0221C65.9305 26.6283 65.8555 26.5533 65.8555 26.4616V25.015C65.8555 24.7383 66.0805 24.515 66.3555 24.515C66.6305 24.515 66.8538 24.74 66.8538 25.015V26.4616C66.8538 26.5533 66.7788 26.6283 66.6871 26.6283ZM66.3555 24.8466C66.2638 24.8466 66.1888 24.9216 66.1888 25.0133V26.2933H66.5205V25.0133C66.5205 24.9216 66.4471 24.8466 66.3555 24.8466ZM85.1732 26.6283H84.5082H84.5065C84.4148 26.6283 84.3398 26.5533 84.3398 26.4616V25.015C84.3398 24.7383 84.5632 24.515 84.8398 24.515C85.1165 24.515 85.3398 24.74 85.3398 25.015V26.4616C85.3398 26.5533 85.2648 26.6283 85.1732 26.6283ZM84.8415 24.8466C84.7498 24.8466 84.6748 24.9216 84.6748 25.0133H84.6765V26.2933H85.0082V25.0133C85.0082 24.9216 84.9332 24.8466 84.8415 24.8466ZM86.2917 26.6283H85.6267H85.625C85.5333 26.6283 85.4583 26.5533 85.4583 26.4616V25.015C85.4583 24.7383 85.6817 24.515 85.9583 24.515C86.235 24.515 86.4583 24.74 86.4583 25.015V26.4616C86.4583 26.5533 86.3833 26.6283 86.2917 26.6283ZM85.96 24.8466C85.8683 24.8466 85.7933 24.9216 85.7933 25.0133H85.795V26.2933H86.1267V25.0133C86.1267 24.9216 86.0517 24.8466 85.96 24.8466ZM86.7451 26.6283H87.4102C87.5018 26.6283 87.5768 26.5533 87.5768 26.4616V25.015C87.5768 24.74 87.3535 24.515 87.0768 24.515C86.8002 24.515 86.5768 24.7383 86.5768 25.015V26.4616C86.5768 26.5533 86.6518 26.6283 86.7435 26.6283H86.7451ZM86.9118 25.0133C86.9118 24.9216 86.9868 24.8466 87.0785 24.8466C87.1701 24.8466 87.2451 24.9216 87.2451 25.0133V26.2933H86.9135V25.0133H86.9118ZM84.3411 29.7201C84.3411 29.4437 84.5657 29.2205 84.8403 29.2201C85.1166 29.2205 85.3395 29.4453 85.3395 29.7201V31.1667C85.3395 31.2584 85.2645 31.3334 85.1728 31.3334H84.5078C84.4161 31.3334 84.3411 31.2584 84.3411 31.1667V29.7201ZM84.6761 31.0001H85.0078H85.0095V29.7201C85.0095 29.6284 84.9345 29.5534 84.8428 29.5534C84.7512 29.5534 84.6761 29.6284 84.6761 29.7201V31.0001ZM85.9588 29.2201C85.6842 29.2205 85.4596 29.4437 85.4596 29.7201V31.1667C85.4596 31.2584 85.5346 31.3334 85.6263 31.3334H86.2913C86.383 31.3334 86.458 31.2584 86.458 31.1667V29.7201C86.458 29.4453 86.2351 29.2205 85.9588 29.2201ZM85.793 31.0001V29.7201C85.793 29.6284 85.868 29.5534 85.9596 29.5534C86.0513 29.5534 86.1263 29.6284 86.1263 29.7201V31.0001H86.1246H85.793ZM86.5768 29.7201C86.5768 29.4437 86.8014 29.2205 87.076 29.2201C87.3523 29.2205 87.5751 29.4453 87.5751 29.7201V31.1667C87.5751 31.2584 87.5002 31.3334 87.4085 31.3334H86.7435C86.6518 31.3334 86.5768 31.2584 86.5768 31.1667V29.7201ZM86.9118 31.0001H87.2435H87.2451V29.7201C87.2451 29.6284 87.1701 29.5534 87.0785 29.5534C86.9868 29.5534 86.9118 29.6284 86.9118 29.7201V31.0001ZM84.8403 33.9251C84.5657 33.9256 84.3411 34.1487 84.3411 34.4251V35.8718C84.3411 35.9635 84.4161 36.0385 84.5078 36.0385H85.1728C85.2645 36.0385 85.3395 35.9635 85.3395 35.8718V34.4251C85.3395 34.1504 85.1166 33.9256 84.8403 33.9251ZM85.0078 35.7051H84.6761V34.4251C84.6761 34.3335 84.7512 34.2585 84.8428 34.2585C84.9345 34.2585 85.0095 34.3335 85.0095 34.4251V35.7051H85.0078ZM85.4596 34.4251C85.4596 34.1487 85.6842 33.9256 85.9588 33.9251C86.2351 33.9256 86.458 34.1504 86.458 34.4251V35.8718C86.458 35.9635 86.383 36.0385 86.2913 36.0385H85.6263C85.5346 36.0385 85.4596 35.9635 85.4596 35.8718V34.4251ZM85.793 34.4251V35.7051H86.1246H86.1263V34.4251C86.1263 34.3335 86.0513 34.2585 85.9596 34.2585C85.868 34.2585 85.793 34.3335 85.793 34.4251ZM87.076 33.9251C86.8014 33.9256 86.5768 34.1487 86.5768 34.4251V35.8718C86.5768 35.9635 86.6518 36.0385 86.7435 36.0385H87.4085C87.5002 36.0385 87.5751 35.9635 87.5751 35.8718V34.4251C87.5751 34.1504 87.3523 33.9256 87.076 33.9251ZM87.2435 35.7051H86.9118V34.4251C86.9118 34.3335 86.9868 34.2585 87.0785 34.2585C87.1701 34.2585 87.2451 34.3335 87.2451 34.4251V35.7051H87.2435ZM67.1397 26.6283H67.8047C67.8964 26.6283 67.9714 26.5533 67.9714 26.4616V25.015C67.9714 24.74 67.748 24.515 67.4714 24.515C67.1947 24.515 66.9714 24.7383 66.9714 25.015V26.4616C66.9714 26.5533 67.0463 26.6283 67.138 26.6283H67.1397ZM67.3064 25.0133C67.3064 24.9216 67.3814 24.8466 67.473 24.8466C67.5647 24.8466 67.6397 24.9216 67.6397 25.0133V26.2933H67.308V25.0133H67.3064ZM68.9232 26.6283H68.2582H68.2565C68.1648 26.6283 68.0898 26.5533 68.0898 26.4616V25.015C68.0898 24.7383 68.3132 24.515 68.5898 24.515C68.8665 24.515 69.0898 24.74 69.0898 25.015V26.4616C69.0898 26.5533 69.0148 26.6283 68.9232 26.6283ZM68.5915 24.8466C68.4998 24.8466 68.4248 24.9216 68.4248 25.0133H68.4265V26.2933H68.7582V25.0133C68.7582 24.9216 68.6832 24.8466 68.5915 24.8466ZM66.3555 29.2201C66.0805 29.2201 65.8555 29.4434 65.8555 29.7201V31.1667C65.8555 31.2584 65.9305 31.3334 66.0221 31.3334H66.6871C66.7788 31.3334 66.8538 31.2584 66.8538 31.1667V29.7201C66.8538 29.4451 66.6305 29.2201 66.3555 29.2201ZM66.5205 31.0001H66.1888V29.7201C66.1888 29.6284 66.2638 29.5534 66.3555 29.5534C66.4471 29.5534 66.5205 29.6284 66.5205 29.7201V31.0001ZM66.9714 29.7201C66.9714 29.4437 67.1959 29.2205 67.4705 29.2201C67.7468 29.2205 67.9697 29.4453 67.9697 29.7201V31.1667C67.9697 31.2584 67.8947 31.3334 67.803 31.3334H67.138C67.0463 31.3334 66.9714 31.2584 66.9714 31.1667V29.7201ZM67.3064 31.0001H67.638H67.6397V29.7201C67.6397 29.6284 67.5647 29.5534 67.473 29.5534C67.3814 29.5534 67.3064 29.6284 67.3064 29.7201V31.0001ZM68.589 29.2201C68.3144 29.2205 68.0898 29.4437 68.0898 29.7201V31.1667C68.0898 31.2584 68.1648 31.3334 68.2565 31.3334H68.9215C69.0132 31.3334 69.0882 31.2584 69.0882 31.1667V29.7201C69.0882 29.4453 68.8653 29.2205 68.589 29.2201ZM68.7565 31.0001H68.4248V29.7201C68.4248 29.6284 68.4998 29.5534 68.5915 29.5534C68.6832 29.5534 68.7582 29.6284 68.7582 29.7201V31.0001H68.7565ZM65.8555 34.4251C65.8555 34.1485 66.0805 33.9251 66.3555 33.9251C66.6305 33.9251 66.8538 34.1501 66.8538 34.4251V35.8718C66.8538 35.9635 66.7788 36.0385 66.6871 36.0385H66.0221C65.9305 36.0385 65.8555 35.9635 65.8555 35.8718V34.4251ZM66.1888 35.7051H66.5205V34.4251C66.5205 34.3335 66.4471 34.2585 66.3555 34.2585C66.2638 34.2585 66.1888 34.3335 66.1888 34.4251V35.7051ZM67.4705 33.9251C67.1959 33.9256 66.9714 34.1487 66.9714 34.4251V35.8718C66.9714 35.9635 67.0463 36.0385 67.138 36.0385H67.803C67.8947 36.0385 67.9697 35.9635 67.9697 35.8718V34.4251C67.9697 34.1504 67.7468 33.9256 67.4705 33.9251ZM67.638 35.7051H67.3064V34.4251C67.3064 34.3335 67.3814 34.2585 67.473 34.2585C67.5647 34.2585 67.6397 34.3335 67.6397 34.4251V35.7051H67.638ZM68.0898 34.4251C68.0898 34.1487 68.3144 33.9256 68.589 33.9251C68.8653 33.9256 69.0882 34.1504 69.0882 34.4251V35.8718C69.0882 35.9635 69.0132 36.0385 68.9215 36.0385H68.2565C68.1648 36.0385 68.0898 35.9635 68.0898 35.8718V34.4251ZM68.4248 35.7051H68.7565H68.7582V34.4251C68.7582 34.3335 68.6832 34.2585 68.5915 34.2585C68.4998 34.2585 68.4248 34.3335 68.4248 34.4251V35.7051ZM96.1888 25.3701H96.0221V25.9301H96.1888V25.3701ZM100.953 25.3701H101.12V25.9301H100.953V25.3701ZM99.6385 34.1083C99.7302 34.1083 99.8052 34.0333 99.8052 33.9416V33.2633C99.8052 32.5833 99.2519 32.0299 98.5719 32.0299C97.8919 32.0299 97.3385 32.5833 97.3385 33.2633V33.9416C97.3385 34.0333 97.4135 34.1083 97.5052 34.1083H99.6385ZM99.4719 33.2633V33.7749H98.7385V32.3783C99.1552 32.4566 99.4719 32.8233 99.4719 33.2633ZM97.6702 33.2633C97.6702 32.8233 97.9869 32.4566 98.4035 32.3783V33.7749H97.6702V33.2633ZM107.646 37.9468H106.413C106.321 37.9468 106.246 37.8718 106.246 37.7801V35.8285C106.246 35.7368 106.321 35.6618 106.413 35.6618H107.646C107.738 35.6618 107.813 35.7368 107.813 35.8285V37.7801C107.813 37.8718 107.738 37.9468 107.646 37.9468ZM107.196 37.6134H107.479V35.9951H107.196V37.6134ZM106.863 35.9951H106.579V37.6134H106.863V35.9951ZM110.243 37.9468H111.477C111.568 37.9468 111.643 37.8718 111.643 37.7801V35.8285C111.643 35.7368 111.568 35.6618 111.477 35.6618H110.243C110.152 35.6618 110.077 35.7368 110.077 35.8285V37.7801C110.077 37.8718 110.152 37.9468 110.243 37.9468ZM111.31 37.6134H111.027V35.9951H111.31V37.6134ZM110.41 35.9951H110.693V37.6134H110.41V35.9951ZM111.477 41.8117H110.243C110.152 41.8117 110.077 41.7367 110.077 41.645V39.6934C110.077 39.6017 110.152 39.5267 110.243 39.5267H111.477C111.568 39.5267 111.643 39.6017 111.643 39.6934V41.645C111.643 41.7367 111.568 41.8117 111.477 41.8117ZM111.027 41.4784H111.31V39.86H111.027V41.4784ZM110.693 39.86H110.41V41.4784H110.693V39.86ZM97.9452 29.2334C97.9185 29.1718 97.8185 29.1718 97.7919 29.2334L97.3469 30.2634C97.3352 30.2884 97.3385 30.3184 97.3535 30.3418C97.3685 30.3651 97.3952 30.3801 97.4235 30.3801H98.3119C98.3402 30.3801 98.3669 30.3668 98.3819 30.3418C98.3969 30.3184 98.4002 30.2884 98.3885 30.2634L97.9435 29.2334H97.9452ZM97.5502 30.2134L97.8685 29.4768L98.1869 30.2134H97.5519H97.5502ZM99.3228 29.2333L99.7678 30.2633C99.7795 30.2883 99.7761 30.3183 99.7611 30.3416C99.7461 30.3666 99.7195 30.3799 99.6911 30.3799H98.8011C98.7728 30.3799 98.7461 30.3649 98.7311 30.3416C98.7161 30.3183 98.7128 30.2883 98.7245 30.2633L99.1695 29.2333C99.1828 29.2033 99.2128 29.1833 99.2461 29.1833C99.2795 29.1833 99.3095 29.2033 99.3228 29.2333ZM99.2478 29.4766L98.9295 30.2133H99.5661L99.2478 29.4766ZM113.107 25.3701H112.94V25.9301H113.107V25.3701ZM117.871 25.3701H118.038V25.9301H117.871V25.3701ZM116.557 34.1083C116.648 34.1083 116.723 34.0333 116.723 33.9416V33.2633C116.723 32.5833 116.17 32.0299 115.49 32.0299C114.81 32.0299 114.257 32.5833 114.257 33.2633V33.9416C114.257 34.0333 114.332 34.1083 114.423 34.1083H116.557ZM116.39 33.2633V33.7749H115.657V32.3783C116.073 32.4566 116.39 32.8233 116.39 33.2633ZM114.588 33.2633C114.588 32.8233 114.905 32.4566 115.322 32.3783V33.7749H114.588V33.2633ZM114.422 35.6618H116.557C116.649 35.6618 116.724 35.7368 116.724 35.8285V37.7801C116.724 37.8718 116.649 37.9468 116.557 37.9468H114.422C114.33 37.9468 114.255 37.8718 114.255 37.7801V35.8285C114.255 35.7368 114.33 35.6618 114.422 35.6618ZM115.322 35.9951H114.589V37.6134H115.322V35.9951ZM115.657 37.6134H116.39V35.9951H115.657V37.6134ZM116.557 39.5267H114.422C114.33 39.5267 114.255 39.6017 114.255 39.6934V41.645C114.255 41.7367 114.33 41.8117 114.422 41.8117H116.557C116.649 41.8117 116.724 41.7367 116.724 41.645V39.6934C116.724 39.6017 116.649 39.5267 116.557 39.5267ZM114.589 39.86H115.322V41.4784H114.589V39.86ZM116.39 41.4784H115.657V39.86H116.39V41.4784ZM114.786 29.1833C114.82 29.1833 114.85 29.2033 114.863 29.2333H114.861L115.306 30.2633C115.318 30.2883 115.315 30.3183 115.3 30.3416C115.285 30.3666 115.258 30.3799 115.23 30.3799H114.341C114.313 30.3799 114.286 30.3649 114.271 30.3416C114.256 30.3183 114.253 30.2883 114.265 30.2633L114.71 29.2333C114.723 29.2033 114.753 29.1833 114.786 29.1833ZM114.786 29.4766L114.468 30.2133H114.47H115.105L114.786 29.4766ZM116.687 30.2634L116.242 29.2334C116.215 29.1718 116.115 29.1718 116.089 29.2334L115.644 30.2634C115.632 30.2884 115.635 30.3184 115.65 30.3418C115.665 30.3651 115.692 30.3801 115.72 30.3801H116.61C116.639 30.3801 116.665 30.3668 116.68 30.3418C116.695 30.3168 116.699 30.2884 116.687 30.2634ZM115.847 30.2134L116.165 29.4768L116.484 30.2134H115.847ZM103.815 34.2967H102.582C102.552 34.2967 102.525 34.2817 102.51 34.2567C102.495 34.2317 102.495 34.2017 102.508 34.175L103.125 33.03C103.14 33.0033 103.168 32.9867 103.199 32.9867C103.229 32.9867 103.257 33.0033 103.272 33.03L103.889 34.175C103.902 34.2 103.902 34.2317 103.887 34.2567C103.872 34.2817 103.845 34.2967 103.815 34.2967ZM103.675 34.1317L103.199 33.245L102.722 34.1317H103.675ZM106.414 34.2966H107.647C107.677 34.2966 107.704 34.2816 107.719 34.2566C107.734 34.2316 107.734 34.1999 107.721 34.1749L107.104 33.0299C107.076 32.9766 106.986 32.9766 106.957 33.0299L106.341 34.1749C106.327 34.1999 106.327 34.2316 106.342 34.2566C106.357 34.2816 106.384 34.2966 106.414 34.2966ZM107.031 33.2449L107.507 34.1316H106.554L107.031 33.2449ZM111.477 34.2967H110.243C110.213 34.2967 110.187 34.2817 110.172 34.2567C110.157 34.2317 110.157 34.2017 110.17 34.175L110.787 33.03C110.802 33.0033 110.83 32.9867 110.86 32.9867C110.89 32.9867 110.918 33.0033 110.933 33.03L111.55 34.175C111.563 34.2 111.563 34.2317 111.548 34.2567C111.533 34.2817 111.507 34.2967 111.477 34.2967ZM111.337 34.1317L110.86 33.245L110.383 34.1317H111.337ZM52.7669 17.5065H53.1003V18.9415H53.9286V19.2748H52.9336C52.8419 19.2748 52.7669 19.1998 52.7669 19.1082V17.5065ZM56.5495 13.085H56.7161V13.5333H56.5495V13.085ZM50.7721 23.0101H50.4388V24.5751H50.7721V23.0101ZM51.099 23.0101H51.2656V24.5751H51.099V23.0101ZM51.9245 23.0101H51.5911V24.5751H51.9245V23.0101ZM52.2513 23.0101H52.418V24.5751H52.2513V23.0101ZM53.0781 23.0101H52.7448V24.5751H53.0781V23.0101ZM53.4062 23.0101H53.5729V24.5751H53.4062V23.0101ZM54.2331 23.0101H53.8997V24.5751H54.2331V23.0101ZM54.5599 23.0101H54.7266V24.5751H54.5599V23.0101ZM55.3867 23.0101H55.0534V24.5751H55.3867V23.0101ZM50.8932 25.5749H51.4699C51.5616 25.5749 51.6366 25.6499 51.6366 25.7415V28.4299C51.6366 28.5215 51.5616 28.5965 51.4699 28.5965H50.8932C50.8016 28.5965 50.7266 28.5215 50.7266 28.4299V25.7415C50.7266 25.6499 50.8016 25.5749 50.8932 25.5749ZM51.0599 28.2632H51.3032V25.9082H51.0599V28.2632ZM52.6248 25.5749H52.0482C51.9565 25.5749 51.8815 25.6499 51.8815 25.7415V28.4299C51.8815 28.5215 51.9565 28.5965 52.0482 28.5965H52.6248C52.7165 28.5965 52.7915 28.5215 52.7915 28.4299V25.7415C52.7915 25.6499 52.7165 25.5749 52.6248 25.5749ZM52.4582 28.2632H52.2148V25.9082H52.4582V28.2632ZM53.2018 25.5749H53.7785C53.8702 25.5749 53.9452 25.6499 53.9452 25.7415V28.4299C53.9452 28.5215 53.8702 28.5965 53.7785 28.5965H53.2018C53.1102 28.5965 53.0352 28.5215 53.0352 28.4299V25.7415C53.0352 25.6499 53.1102 25.5749 53.2018 25.5749ZM53.3685 28.2632H53.6118V25.9082H53.3685V28.2632ZM54.9321 25.5749H54.3555C54.2638 25.5749 54.1888 25.6499 54.1888 25.7415V28.4299C54.1888 28.5215 54.2638 28.5965 54.3555 28.5965H54.9321C55.0238 28.5965 55.0988 28.5215 55.0988 28.4299V25.7415C55.0988 25.6499 55.0238 25.5749 54.9321 25.5749ZM54.7655 28.2632H54.5221V25.9082H54.7655V28.2632ZM50.8932 29.8717H51.4699C51.5616 29.8717 51.6366 29.9467 51.6366 30.0384V32.7267C51.6366 32.8184 51.5616 32.8934 51.4699 32.8934H50.8932C50.8016 32.8934 50.7266 32.8184 50.7266 32.7267V30.0384C50.7266 29.9467 50.8016 29.8717 50.8932 29.8717ZM51.0599 32.5601H51.3032V30.2051H51.0599V32.5601ZM52.6248 29.8717H52.0482C51.9565 29.8717 51.8815 29.9467 51.8815 30.0384V32.7267C51.8815 32.8184 51.9565 32.8934 52.0482 32.8934H52.6248C52.7165 32.8934 52.7915 32.8184 52.7915 32.7267V30.0384C52.7915 29.9467 52.7165 29.8717 52.6248 29.8717ZM52.4582 32.5601H52.2148V30.2051H52.4582V32.5601ZM53.2018 29.8717H53.7785C53.8702 29.8717 53.9452 29.9467 53.9452 30.0384V32.7267C53.9452 32.8184 53.8702 32.8934 53.7785 32.8934H53.2018C53.1102 32.8934 53.0352 32.8184 53.0352 32.7267V30.0384C53.0352 29.9467 53.1102 29.8717 53.2018 29.8717ZM53.3685 32.5601H53.6118V30.2051H53.3685V32.5601ZM54.9321 29.8717H54.3555C54.2638 29.8717 54.1888 29.9467 54.1888 30.0384V32.7267C54.1888 32.8184 54.2638 32.8934 54.3555 32.8934H54.9321C55.0238 32.8934 55.0988 32.8184 55.0988 32.7267V30.0384C55.0988 29.9467 55.0238 29.8717 54.9321 29.8717ZM54.7655 32.5601H54.5221V30.2051H54.7655V32.5601ZM51.4699 37.19H50.8932C50.8016 37.19 50.7266 37.115 50.7266 37.0233V34.335C50.7266 34.2433 50.8016 34.1683 50.8932 34.1683H51.4699C51.5616 34.1683 51.6366 34.2433 51.6366 34.335V37.0233C51.6366 37.115 51.5616 37.19 51.4699 37.19ZM51.3032 34.5016H51.0599V36.8566H51.3032V34.5016ZM125 44.8085H82.435V44.8118H81.4167V45.7635H125V46.0968H81.25C81.1583 46.0968 81.0833 46.0218 81.0833 45.9301V44.6451C81.0833 44.5535 81.1583 44.4785 81.25 44.4785H82.2683V40.7018C82.2683 40.6701 82.28 40.6418 82.295 40.6168C81.7583 40.1635 80.1983 39.0085 77.01 37.7668L77.1317 37.4568L82.865 39.6901V36.9335H82.435V36.6001H82.865V32.3335H82.435V32.0001H82.865V27.7335H82.435V27.4001H82.865V25.4568H70.58V27.4001H70.92V27.7335H70.58V32.0001H70.92V32.3335H70.58V36.6001H70.92V36.9335H70.58V39.6818L76.2917 37.4585L76.4133 37.7685C73.1117 39.0535 71.5617 40.2401 71.0783 40.6585C71.0817 40.6735 71.0867 40.6885 71.0867 40.7035V44.4801H72.125C72.2167 44.4801 72.2917 44.5551 72.2917 44.6468V45.9318C72.2917 46.0235 72.2167 46.0985 72.125 46.0985H0V45.7651H71.9583V44.8135H46.9717C46.955 44.8185 46.9367 44.8218 46.9183 44.8218H37.1267C37.1083 44.8218 37.09 44.8185 37.0733 44.8135H6.25167H5.91833H0V44.4801H5.93333V43.4751C5.715 43.4401 5.51333 43.3401 5.355 43.1801C5.15667 42.9818 5.04833 42.7168 5.04833 42.4351C5.05 42.1701 5.155 41.1801 5.315 40.2901C5.61167 38.6351 5.87167 38.4051 6.10833 38.4051C6.34667 38.4051 6.605 38.6351 6.89667 40.2935C7.05167 41.1835 7.155 42.1751 7.155 42.4401C7.155 42.7218 7.045 42.9868 6.845 43.1851C6.68667 43.3435 6.485 43.4451 6.265 43.4785V44.4818H8.77167V43.4568C8.55333 43.4218 8.35167 43.3218 8.19333 43.1618C7.995 42.9635 7.88667 42.6985 7.88667 42.4168C7.88667 41.9018 8.29833 40.6851 8.94167 40.6851C9.585 40.6868 9.99167 41.9051 9.99167 42.4201C9.99167 42.9451 9.605 43.3785 9.10167 43.4585V44.4835H15.385L16.125 41.7285C13.735 41.0435 11.545 39.8185 9.72667 38.1168L9.71667 38.1068C9.36667 37.7168 9.42167 37.3335 9.63333 37.1268C9.865 36.9001 10.31 36.8451 10.6817 37.1918C12.325 38.7301 14.305 39.8418 16.4633 40.4701L16.6167 39.8968C16.4483 39.8135 16.3067 39.6818 16.21 39.5151C16.0817 39.2918 16.0467 39.0318 16.1133 38.7835C16.2333 38.3318 16.6583 38.0418 17.1067 38.0718L17.1883 37.7701C16.2167 37.4935 15.29 37.1068 14.4267 36.6201L14.27 36.8918C14.4217 37.0185 14.5317 37.1868 14.5833 37.3801C14.65 37.6285 14.615 37.8885 14.4867 38.1118C14.3583 38.3335 14.15 38.4935 13.9017 38.5601C13.8183 38.5818 13.7333 38.5935 13.65 38.5935C13.4833 38.5935 13.3183 38.5501 13.17 38.4635C12.9483 38.3351 12.7883 38.1268 12.7217 37.8785C12.655 37.6301 12.69 37.3701 12.8183 37.1468C13.055 36.7368 13.5517 36.5685 13.9833 36.7251L14.14 36.4551C13.2733 35.9368 12.4733 35.3201 11.7533 34.6185L11.5283 34.8435C11.7917 35.2201 11.7567 35.7418 11.4217 36.0768C11.24 36.2585 10.9967 36.3585 10.74 36.3585C10.4817 36.3585 10.24 36.2585 10.0583 36.0768C9.875 35.8951 9.775 35.6535 9.775 35.3951C9.775 35.1368 9.87667 34.8951 10.0583 34.7135C10.24 34.5301 10.4817 34.4301 10.74 34.4301C10.94 34.4301 11.13 34.4935 11.2917 34.6068L11.515 34.3835C10.8133 33.6651 10.1967 32.8635 9.67833 31.9968L9.40667 32.1535C9.47333 32.3385 9.485 32.5385 9.43333 32.7318C9.36667 32.9801 9.20833 33.1885 8.985 33.3168C8.83667 33.4035 8.67167 33.4468 8.505 33.4468C8.42 33.4468 8.33667 33.4351 8.25333 33.4135C8.005 33.3468 7.79667 33.1868 7.66833 32.9635C7.53833 32.7401 7.505 32.4801 7.57167 32.2318C7.63833 31.9835 7.79833 31.7751 8.02167 31.6468C8.43167 31.4101 8.94667 31.5118 9.24167 31.8635L9.51167 31.7068C9.02333 30.8368 8.63333 29.9051 8.35667 28.9251L8.05667 29.0051C8.075 29.2001 8.03333 29.3968 7.93333 29.5701C7.805 29.7918 7.59667 29.9518 7.34833 30.0185C7.265 30.0401 7.18 30.0518 7.09667 30.0518C6.93 30.0518 6.765 30.0068 6.61667 29.9218C6.395 29.7935 6.235 29.5851 6.16833 29.3368C6.03167 28.8235 6.33667 28.2951 6.85 28.1568C7.30833 28.0335 7.77833 28.2651 7.97167 28.6818L8.26833 28.6018C8.025 27.6435 7.89167 26.6435 7.87833 25.6135H7.56833C7.48833 26.0651 7.095 26.4101 6.62 26.4101C6.08833 26.4101 5.65667 25.9785 5.65667 25.4468C5.65667 24.9151 6.08833 24.4835 6.62 24.4835C7.095 24.4835 7.48833 24.8285 7.56833 25.2801H7.87833C7.89167 24.2501 8.025 23.2501 8.26833 22.2918L7.97 22.2118C7.88833 22.3901 7.75333 22.5401 7.58 22.6401C7.43167 22.7268 7.26667 22.7701 7.1 22.7701C7.015 22.7701 6.93167 22.7585 6.84833 22.7368C6.6 22.6701 6.39167 22.5118 6.26333 22.2885C6.13333 22.0651 6.1 21.8051 6.16667 21.5568C6.30333 21.0435 6.835 20.7385 7.34667 20.8751C7.805 20.9985 8.09667 21.4335 8.05667 21.8901L8.35667 21.9701C8.63333 20.9901 9.02167 20.0585 9.51167 19.1885L9.24 19.0318C9.11333 19.1835 8.945 19.2935 8.75167 19.3451C8.66833 19.3668 8.58333 19.3785 8.5 19.3785C8.33333 19.3785 8.16833 19.3335 8.02 19.2485C7.79833 19.1201 7.63833 18.9118 7.57167 18.6635C7.505 18.4151 7.54 18.1551 7.66833 17.9318C7.935 17.4718 8.525 17.3135 8.985 17.5785C9.39667 17.8151 9.565 18.3101 9.40833 18.7418L9.67833 18.8985C10.1967 18.0318 10.8133 17.2318 11.515 16.5118L11.29 16.2868C11.13 16.4001 10.94 16.4635 10.7383 16.4635C10.48 16.4635 10.2383 16.3635 10.0567 16.1818C9.875 16.0001 9.775 15.7585 9.775 15.5001C9.775 15.2418 9.87667 15.0001 10.0583 14.8185C10.435 14.4435 11.045 14.4435 11.4217 14.8185C11.6033 15.0001 11.7033 15.2435 11.7033 15.5001C11.7033 15.7001 11.6417 15.8918 11.5283 16.0518L11.7533 16.2768C12.4717 15.5751 13.2733 14.9585 14.14 14.4401L13.9833 14.1685C13.8767 14.2085 13.765 14.2285 13.655 14.2285C13.3217 14.2285 12.9967 14.0551 12.8183 13.7468C12.6883 13.5235 12.655 13.2635 12.7217 13.0151C12.7883 12.7668 12.9483 12.5585 13.1717 12.4301C13.6317 12.1651 14.2217 12.3235 14.4883 12.7835C14.725 13.1951 14.6233 13.7085 14.2717 14.0035L14.4283 14.2735C15.2983 13.7851 16.23 13.3951 17.21 13.1185L17.13 12.8185C17.1208 12.819 17.1114 12.8197 17.102 12.8205C17.0824 12.822 17.0625 12.8235 17.0433 12.8235C16.8767 12.8235 16.7117 12.7785 16.5633 12.6935C16.3417 12.5651 16.1817 12.3568 16.115 12.1085C15.9783 11.5951 16.2833 11.0668 16.7967 10.9285C17.3083 10.7918 17.8383 11.0968 17.9767 11.6101C18.0983 12.0685 17.8683 12.5385 17.4517 12.7318L17.5317 13.0285C18.49 12.7851 19.49 12.6518 20.52 12.6385V12.3285C20.0667 12.2501 19.7217 11.8551 19.7217 11.3801C19.7217 11.1218 19.8217 10.8801 20.0033 10.6985C20.185 10.5168 20.4283 10.4168 20.685 10.4168C21.2167 10.4168 21.6483 10.8485 21.6483 11.3801C21.6483 11.8551 21.3033 12.2485 20.8517 12.3285V12.6385C21.88 12.6518 22.88 12.7851 23.8383 13.0285L23.9183 12.7318C23.74 12.6485 23.59 12.5151 23.49 12.3418C23.36 12.1185 23.3267 11.8585 23.3933 11.6101C23.46 11.3618 23.6183 11.1535 23.8417 11.0251C24.065 10.8968 24.325 10.8618 24.5733 10.9285C25.0867 11.0651 25.3917 11.5951 25.255 12.1085C25.1867 12.3568 25.0283 12.5651 24.805 12.6935C24.6567 12.7801 24.4917 12.8235 24.325 12.8235C24.2967 12.8235 24.2667 12.8218 24.2383 12.8185L24.1583 13.1168C25.1383 13.3935 26.0717 13.7818 26.9417 14.2718L27.0983 14.0018C26.9467 13.8751 26.8367 13.7068 26.785 13.5135C26.7183 13.2651 26.7533 13.0051 26.8817 12.7818C27.01 12.5601 27.2183 12.4001 27.4667 12.3335C27.715 12.2668 27.975 12.3018 28.1983 12.4301C28.6583 12.6951 28.8167 13.2868 28.5517 13.7468C28.3733 14.0551 28.0483 14.2285 27.715 14.2285C27.605 14.2285 27.495 14.2068 27.3883 14.1685L27.2333 14.4385C28.1 14.9568 28.9 15.5735 29.62 16.2751L29.8433 16.0518C29.73 15.8918 29.6667 15.7018 29.6667 15.5001C29.6667 15.2418 29.7667 15.0001 29.9483 14.8185C30.325 14.4418 30.935 14.4418 31.3117 14.8185C31.6867 15.1951 31.6867 15.8068 31.3117 16.1818C31.1233 16.3701 30.8767 16.4635 30.63 16.4635C30.4367 16.4635 30.2433 16.4035 30.0783 16.2885L29.855 16.5118C30.5567 17.2301 31.1733 18.0318 31.6917 18.8985L31.96 18.7435C31.8917 18.5585 31.8817 18.3585 31.9333 18.1635C32 17.9151 32.1583 17.7068 32.3817 17.5785C32.8417 17.3135 33.4333 17.4718 33.6983 17.9318C33.9633 18.3918 33.805 18.9818 33.345 19.2485C33.1967 19.3351 33.0317 19.3785 32.865 19.3785C32.78 19.3785 32.6967 19.3668 32.6133 19.3451C32.4183 19.2918 32.2517 19.1835 32.125 19.0318L31.855 19.1868C32.3433 20.0585 32.7333 20.9901 33.01 21.9701L33.3083 21.8901C33.29 21.6935 33.3317 21.4968 33.4317 21.3235C33.56 21.1018 33.7683 20.9418 34.0167 20.8751C34.5283 20.7368 35.0583 21.0435 35.1967 21.5568C35.2633 21.8051 35.2283 22.0651 35.1 22.2885C34.9717 22.5101 34.7633 22.6701 34.515 22.7368C34.4317 22.7585 34.3467 22.7701 34.2633 22.7701C34.0967 22.7701 33.9317 22.7251 33.7833 22.6401C33.61 22.5401 33.4767 22.3901 33.3933 22.2118L33.0983 22.2901C33.3417 23.2485 33.475 24.2485 33.4883 25.2785H33.7967C33.8767 24.8268 34.27 24.4818 34.745 24.4818C35.2767 24.4818 35.7083 24.9135 35.7083 25.4451C35.7083 25.9768 35.2767 26.4085 34.745 26.4085C34.27 26.4085 33.8767 26.0635 33.7967 25.6118H33.4883C33.475 26.6418 33.3417 27.6418 33.0983 28.6001L33.3933 28.6785C33.4767 28.5001 33.61 28.3501 33.7833 28.2501C34.0067 28.1201 34.2667 28.0868 34.515 28.1535C34.7633 28.2218 34.9717 28.3801 35.1 28.6035C35.2283 28.8268 35.2617 29.0868 35.195 29.3351C35.1283 29.5835 34.97 29.7918 34.7467 29.9201C34.5983 30.0068 34.4333 30.0501 34.2667 30.0501C34.1833 30.0501 34.1 30.0385 34.0167 30.0168C33.7683 29.9501 33.56 29.7901 33.4317 29.5668C33.3317 29.3918 33.29 29.1951 33.3083 29.0001L33.01 28.9201C32.7333 29.9001 32.345 30.8318 31.855 31.7018L32.1233 31.8568C32.4183 31.5051 32.9317 31.4035 33.3433 31.6401C33.5667 31.7685 33.7267 31.9768 33.7933 32.2251C33.86 32.4735 33.825 32.7335 33.6967 32.9568C33.5683 33.1785 33.36 33.3385 33.1117 33.4051C33.0283 33.4268 32.9433 33.4385 32.86 33.4385C32.6933 33.4385 32.5283 33.3935 32.38 33.3085C32.1583 33.1801 31.9983 32.9718 31.9317 32.7235C31.88 32.5285 31.89 32.3285 31.9583 32.1435L31.69 31.9885C31.1717 32.8551 30.555 33.6551 29.8533 34.3751L30.0767 34.5985C30.2367 34.4851 30.4283 34.4218 30.6283 34.4218C30.8867 34.4218 31.1283 34.5218 31.31 34.7035C31.4917 34.8851 31.5917 35.1268 31.5917 35.3851C31.5917 35.6435 31.49 35.8851 31.3083 36.0668C31.1267 36.2485 30.8833 36.3485 30.6267 36.3485C30.3683 36.3485 30.1267 36.2485 29.945 36.0668C29.7633 35.8851 29.6633 35.6418 29.6633 35.3851C29.6633 35.1851 29.7267 34.9935 29.84 34.8335L29.6167 34.6101C28.8983 35.3118 28.0967 35.9285 27.23 36.4468L27.385 36.7151C27.815 36.5585 28.3117 36.7285 28.5483 37.1385C28.6783 37.3618 28.7117 37.6218 28.645 37.8701C28.5767 38.1185 28.4183 38.3251 28.195 38.4535C28.0467 38.5401 27.8817 38.5835 27.715 38.5835C27.6317 38.5835 27.5483 38.5718 27.465 38.5501C27.2167 38.4835 27.0083 38.3251 26.88 38.1018C26.75 37.8785 26.7167 37.6185 26.7833 37.3701C26.835 37.1751 26.945 37.0085 27.0967 36.8818L26.94 36.6118C26.0833 37.0935 25.1633 37.4785 24.1983 37.7551L24.2817 38.0618C24.7217 38.0435 25.135 38.3318 25.2533 38.7751C25.32 39.0235 25.285 39.2835 25.1567 39.5068C25.065 39.6685 24.93 39.7935 24.77 39.8768L24.9267 40.4568C27.0783 39.8285 29.05 38.7185 30.69 37.1851C30.8883 36.9835 31.1517 36.9068 31.4083 36.9785C31.6467 37.0468 31.835 37.2368 31.8867 37.4635C31.9383 37.6935 31.85 37.9301 31.6433 38.1135C29.8333 39.8085 27.65 41.0301 25.2683 41.7168L26.0133 44.4768H36.9133C36.475 42.9485 36.2133 41.0801 36.11 39.0518L36.0883 39.0218L36.1083 39.0085C35.7567 31.9918 37.2767 23.0785 39.83 19.6318C40.5283 18.6901 41.2683 18.2135 42.035 18.2135C42.8017 18.2135 43.5433 18.6901 44.24 19.6318C46.755 23.0285 48.2683 31.7335 47.975 38.7001C48.5633 38.4985 49.13 38.2835 49.6783 38.0568H49.5683V37.8901H49.835V33.6968H49.5683V33.5301H49.835V29.3368H49.5683V29.1701H49.835V22.7501H49.6933C49.6017 22.7501 49.5267 22.6751 49.5267 22.5835V21.8718H49.2467C49.155 21.8718 49.08 21.7968 49.08 21.7051V16.5201C49.08 16.4585 49.115 16.4068 49.1633 16.3785V13.8051H49.33V16.3535H49.5267V14.6101C49.5267 14.5918 49.53 14.5735 49.5367 14.5551L50.8733 10.7801C50.8733 10.7735 50.87 10.7618 50.87 10.7618V8.97181C50.87 8.95348 50.8717 8.93514 50.8783 8.91848L51.6667 6.58681L51.825 6.64014L51.6683 6.58514L51.745 6.36681C52.0933 5.39181 52.74 3.57848 52.74 1.73014H53.0733C53.0733 3.57157 53.7168 5.37825 54.0644 6.35419L54.0683 6.36514L54.1467 6.58514H54.1433L54.9533 8.91681C54.96 8.93514 54.9633 8.95348 54.9633 8.97181V10.7335L56.355 14.5551C56.3617 14.5735 56.365 14.5918 56.365 14.6118V16.3551H56.5633V13.8068H56.73V16.3801C56.7783 16.4101 56.8133 16.4601 56.8133 16.5218V21.7068C56.8133 21.7985 56.7383 21.8735 56.6467 21.8735H56.365V22.5851C56.365 22.6768 56.29 22.7518 56.1983 22.7518H56.0567V29.1718H56.1983V29.3385H56.0567V33.5318H56.1983V33.6985H56.0567V34.3685C57.895 32.9385 59.3233 31.4418 60.4 30.1051C63.1617 26.6735 64.2383 23.5685 64.38 23.1335H63.96V22.8001H64.3883V20.0235H64.2467C64.1883 20.0235 64.1333 19.9935 64.1033 19.9418C64.0733 19.8901 64.0717 19.8285 64.1 19.7768L64.8717 18.3435C64.93 18.2351 65.1067 18.2351 65.165 18.3435L65.9367 19.7768C65.965 19.8285 65.9633 19.8918 65.9333 19.9418C65.9033 19.9918 65.8483 20.0235 65.79 20.0235H65.6483V22.8001H65.8117L67.2833 16.1135C67.3 16.0368 67.3667 15.9818 67.445 15.9818C67.5217 15.9818 67.5883 16.0351 67.6067 16.1101L69.1533 22.7985H69.3283V20.0218H69.1867C69.1283 20.0218 69.0733 19.9918 69.0433 19.9401C69.0133 19.8885 69.0117 19.8268 69.04 19.7751L69.8117 18.3418C69.84 18.2868 69.8967 18.2535 69.9583 18.2535C70.02 18.2535 70.0767 18.2885 70.105 18.3418L70.8767 19.7751C70.905 19.8268 70.9033 19.8901 70.8733 19.9401C70.8433 19.9901 70.7883 20.0218 70.73 20.0218H70.5883V22.7985H70.9283V23.1318H70.5883V23.7468H82.8733V23.1318H82.4433V22.7985H82.8733V20.0218H82.7317C82.6733 20.0218 82.6183 19.9918 82.5883 19.9401C82.5583 19.8885 82.5567 19.8268 82.585 19.7751L83.3567 18.3418C83.385 18.2868 83.4417 18.2535 83.5033 18.2535C83.565 18.2535 83.6217 18.2885 83.65 18.3418L84.4217 19.7751C84.45 19.8268 84.4483 19.8901 84.4183 19.9401C84.3883 19.9901 84.3333 20.0218 84.275 20.0218H84.1333V22.7985H84.295L85.7667 16.1118C85.7833 16.0351 85.85 15.9801 85.9283 15.9801C86.005 15.9801 86.0717 16.0335 86.09 16.1085L87.6367 22.7968H87.8117V20.0201H87.67C87.6117 20.0201 87.5567 19.9885 87.5267 19.9385C87.4967 19.8885 87.495 19.8251 87.5233 19.7735L88.295 18.3401C88.3533 18.2318 88.53 18.2318 88.5883 18.3401L89.36 19.7735C89.3883 19.8251 89.3867 19.8885 89.3567 19.9385C89.3267 19.9885 89.2717 20.0201 89.2133 20.0201H89.0717V22.7968H89.4117V23.1301H89.08C89.2217 23.5651 90.2983 26.6701 93.06 30.1018C93.7283 30.9301 94.53 31.8218 95.4817 32.7185V27.8168C95.4817 27.7251 95.5567 27.6501 95.6483 27.6501H96.025V26.3701H96.1917V27.6501H96.5683C96.66 27.6501 96.735 27.7251 96.735 27.8168V29.9635L97.44 27.8085C97.4617 27.7401 97.5267 27.6935 97.5983 27.6935H99.5483C99.62 27.6935 99.685 27.7401 99.7067 27.8085L100.412 29.9635V27.8168C100.412 27.7251 100.487 27.6501 100.578 27.6501H100.955V26.3701H101.122V27.6501H101.498C101.59 27.6501 101.665 27.7251 101.665 27.8168V31.7801H112.398V27.8168C112.398 27.7251 112.473 27.6501 112.565 27.6501H112.942V26.3701H113.108V27.6501H113.485C113.577 27.6501 113.652 27.7251 113.652 27.8168V29.9635L114.357 27.8085C114.378 27.7401 114.443 27.6935 114.515 27.6935H116.465C116.537 27.6935 116.602 27.7401 116.623 27.8085L117.328 29.9635V27.8168C117.328 27.7251 117.403 27.6501 117.495 27.6501H117.872V26.3701H118.038V27.6501H118.415C118.507 27.6501 118.582 27.7251 118.582 27.8168V44.4751H125V44.8085ZM27.2583 37.1785C27.1833 37.2551 27.125 37.3501 27.0967 37.4568C27.085 37.5001 27.0783 37.5451 27.0767 37.5885H27.495L27.2583 37.1785ZM27.5433 38.2301C27.7067 38.2735 27.8767 38.2518 28.0217 38.1668V38.1685C28.1667 38.0851 28.2717 37.9485 28.315 37.7868C28.3183 37.7768 28.3183 37.7668 28.32 37.7568H27.0933C27.1067 37.8185 27.1267 37.8801 27.16 37.9368C27.245 38.0818 27.38 38.1868 27.5433 38.2301ZM28.2517 37.3051C28.135 37.1035 27.9233 36.9901 27.705 36.9901H27.7067C27.6533 36.9901 27.6 36.9968 27.5483 37.0101L27.8517 37.5368L27.7633 37.5885H28.3333C28.3283 37.4901 28.3017 37.3935 28.2517 37.3051ZM32.2283 32.3885H32.3767L32.2467 32.3135C32.245 32.3197 32.2432 32.326 32.2414 32.3323C32.2361 32.351 32.2308 32.3697 32.2283 32.3885ZM32.54 33.0185C32.685 33.1035 32.855 33.1251 33.0183 33.0818L33.02 33.0801C33.1817 33.0368 33.3183 32.9335 33.4017 32.7868C33.445 32.7151 33.4717 32.6351 33.4817 32.5551H32.8083L32.7733 32.6168L32.6667 32.5551H32.2333C32.2367 32.5818 32.24 32.6085 32.2467 32.6351C32.29 32.7985 32.3933 32.9335 32.54 33.0185ZM33.17 31.9251C33.0717 31.8685 32.9633 31.8418 32.8567 31.8418V31.8435C32.6917 31.8435 32.5317 31.9068 32.4117 32.0251L32.9383 32.3285L32.9033 32.3885H33.4767C33.4733 32.3618 33.47 32.3351 33.4633 32.3085C33.42 32.1451 33.3167 32.0101 33.17 31.9251ZM34.0967 29.6901C34.26 29.7335 34.43 29.7101 34.575 29.6268C34.72 29.5418 34.825 29.4068 34.8683 29.2435C34.875 29.2168 34.8783 29.1902 34.8817 29.1636L34.8817 29.1635H34.2383L34.2183 29.2418L33.9283 29.1635H33.635C33.645 29.2435 33.6717 29.3218 33.7133 29.3951C33.7983 29.5418 33.9333 29.6468 34.0967 29.6901ZM34.2583 28.4485C34.15 28.4485 34.0417 28.4768 33.945 28.5335L33.9433 28.5318C33.8467 28.5868 33.7717 28.6668 33.7167 28.7601L34.3017 28.9168L34.2817 28.9951H34.8833C34.8733 28.9151 34.8467 28.8368 34.805 28.7635C34.72 28.6185 34.585 28.5135 34.4217 28.4701C34.3683 28.4551 34.3133 28.4485 34.2583 28.4485ZM33.945 22.3451C34.09 22.4301 34.26 22.4518 34.4233 22.4085L34.4217 22.4068C34.585 22.3635 34.7217 22.2601 34.805 22.1135C34.8433 22.0468 34.8683 21.9751 34.88 21.9001H34.2867L34.3033 21.9601L33.7183 22.1168C33.7733 22.2101 33.8483 22.2901 33.945 22.3451ZM34.26 21.1685C34.2067 21.1685 34.1517 21.1751 34.0967 21.1901L34.0983 21.1918C33.935 21.2351 33.7983 21.3385 33.715 21.4851C33.67 21.5635 33.6433 21.6485 33.635 21.7351H33.8617L34.2183 21.6401L34.2433 21.7351H34.8867C34.8833 21.7018 34.8783 21.6685 34.87 21.6368C34.7933 21.3551 34.5383 21.1685 34.26 21.1685ZM32.6917 19.0168C32.8533 19.0601 33.0233 19.0368 33.17 18.9535C33.34 18.8551 33.4433 18.6885 33.4733 18.5085H32.9133L32.9383 18.5518L32.4133 18.8551C32.4917 18.9301 32.585 18.9885 32.6917 19.0168ZM32.8533 17.7751C32.7467 17.7751 32.6383 17.8035 32.54 17.8601V17.8585C32.395 17.9435 32.29 18.0785 32.2467 18.2418C32.2383 18.2751 32.2333 18.3068 32.23 18.3401H32.635L32.7717 18.2601L32.8167 18.3401H33.48C33.4717 18.2551 33.445 18.1701 33.4 18.0901C33.2833 17.8885 33.0717 17.7751 32.8533 17.7751ZM32.3467 18.5085H32.235C32.2383 18.5268 32.2433 18.5468 32.2483 18.5651L32.3467 18.5085ZM27.85 13.3435L27.5483 13.8668C27.815 13.9368 28.1067 13.8251 28.2517 13.5751C28.3 13.4918 28.325 13.4001 28.3317 13.3101H27.7917L27.85 13.3435ZM27.7067 12.6285C27.6533 12.6285 27.5983 12.6351 27.5433 12.6501L27.545 12.6518C27.3817 12.6951 27.245 12.7985 27.1617 12.9451C27.125 13.0068 27.1033 13.0751 27.09 13.1435H28.3233C28.29 12.9685 28.1867 12.8085 28.0217 12.7135C27.9233 12.6568 27.8167 12.6285 27.7067 12.6285ZM27.08 13.3085C27.0833 13.3468 27.0883 13.3851 27.0983 13.4218L27.1 13.4201C27.1283 13.5285 27.185 13.6218 27.2617 13.6985L27.4867 13.3085H27.08ZM24.3117 11.2218C24.2033 11.2218 24.095 11.2501 23.9983 11.3068C23.8533 11.3918 23.7483 11.5268 23.705 11.6901C23.7033 11.6968 23.7025 11.7039 23.7017 11.711C23.7008 11.7181 23.7 11.7251 23.6983 11.7318H24.93C24.8833 11.5035 24.7167 11.3068 24.4767 11.2435C24.4217 11.2285 24.3667 11.2218 24.3117 11.2218ZM23.6883 11.8985C23.695 11.9918 23.72 12.0851 23.7683 12.1685L23.77 12.1701C23.855 12.3151 23.99 12.4201 24.1533 12.4635C24.3167 12.5068 24.4867 12.4835 24.6317 12.4001C24.7767 12.3151 24.8817 12.1801 24.925 12.0168C24.935 11.9768 24.94 11.9385 24.9433 11.8985H23.6883ZM17.6417 11.6918C17.5517 11.3551 17.2067 11.1551 16.87 11.2451C16.63 11.3101 16.4617 11.5051 16.4167 11.7335H17.6483C17.6467 11.7268 17.6458 11.7197 17.645 11.7126C17.6442 11.7056 17.6433 11.6985 17.6417 11.6918ZM16.425 12.0168C16.4683 12.1801 16.5717 12.3151 16.7183 12.4001L16.72 12.3985C16.865 12.4835 17.035 12.5051 17.1983 12.4618C17.465 12.3918 17.6433 12.1585 17.6617 11.8985H16.4067C16.4083 11.9385 16.415 11.9768 16.425 12.0168ZM14.2683 13.3085H13.8633L14.0883 13.6985C14.1933 13.5918 14.2567 13.4535 14.2683 13.3085ZM13.64 12.6268C13.5333 12.6268 13.425 12.6551 13.3267 12.7118V12.7101C13.1817 12.7951 13.0767 12.9301 13.0333 13.0935C13.0304 13.1024 13.0292 13.1119 13.028 13.1213C13.0272 13.1277 13.0264 13.1341 13.025 13.1401H14.2583C14.245 13.0718 14.2233 13.0051 14.1867 12.9418C14.07 12.7401 13.8583 12.6268 13.64 12.6268ZM13.015 13.3085C13.0217 13.4001 13.0467 13.4918 13.095 13.5735H13.0933C13.2383 13.8235 13.53 13.9351 13.7983 13.8651L13.4967 13.3418L13.555 13.3085H13.015ZM9.11333 18.5085H9.00333L9.1 18.5651C9.105 18.5451 9.11 18.5268 9.11333 18.5085ZM9.11833 18.3435C9.09833 18.1485 8.99 17.9668 8.80833 17.8618L8.81 17.8635C8.50833 17.6885 8.12167 17.7935 7.94833 18.0935C7.90333 18.1718 7.87667 18.2568 7.86833 18.3435H8.53333L8.57833 18.2635L8.715 18.3435H9.11833ZM8.17833 18.9535C8.32333 19.0385 8.49333 19.0601 8.65667 19.0168V19.0151C8.765 18.9868 8.85833 18.9301 8.935 18.8535L8.41167 18.5518L8.43667 18.5085H7.875C7.87616 18.5154 7.87711 18.5226 7.87808 18.5298C7.87989 18.5433 7.88174 18.5571 7.885 18.5701C7.92833 18.7335 8.03167 18.8701 8.17833 18.9535ZM7.08833 21.1701C6.81 21.1701 6.55333 21.3551 6.47833 21.6368H6.48C6.47167 21.6701 6.46667 21.7018 6.46333 21.7351H7.10667L7.13167 21.6401L7.48833 21.7351H7.71333C7.68667 21.4835 7.51 21.2618 7.25167 21.1918C7.19667 21.1768 7.14167 21.1701 7.08833 21.1701ZM6.925 22.4085C7.08667 22.4518 7.25667 22.4285 7.40333 22.3451H7.40167C7.49833 22.2901 7.57333 22.2101 7.62833 22.1168L7.045 21.9601L7.06167 21.9001H6.46667C6.47833 21.9751 6.50333 22.0485 6.54167 22.1151C6.62667 22.2601 6.76167 22.3651 6.925 22.4085ZM7.08833 28.4485C7.03333 28.4485 6.98 28.4551 6.925 28.4701H6.92667C6.67333 28.5385 6.49833 28.7518 6.465 28.9968H7.06667L7.04667 28.9185L7.63167 28.7618C7.51833 28.5685 7.31167 28.4485 7.08833 28.4485ZM6.77333 29.6251C6.91833 29.7101 7.08833 29.7318 7.25167 29.6885V29.6868C7.415 29.6435 7.55167 29.5401 7.635 29.3935C7.67667 29.3201 7.70333 29.2418 7.71333 29.1618H7.42167L7.13167 29.2401L7.11167 29.1618H6.46667C6.47 29.1885 6.47333 29.2151 6.48 29.2418C6.52333 29.4051 6.62667 29.5401 6.77333 29.6251ZM8.49167 31.8418C8.385 31.8418 8.27667 31.8701 8.17833 31.9268V31.9235C8.03333 32.0085 7.92833 32.1435 7.885 32.3068C7.87833 32.3335 7.875 32.3601 7.87167 32.3868H8.445L8.41 32.3268L8.93667 32.0235C8.81667 31.9068 8.655 31.8418 8.49167 31.8418ZM8.33 33.0818C8.49167 33.1251 8.66167 33.1035 8.80833 33.0185V33.0201C8.98333 32.9185 9.09 32.7435 9.115 32.5568H8.68167L8.575 32.6185L8.54 32.5568H7.86667C7.87833 32.6368 7.905 32.7151 7.94667 32.7885C8.03167 32.9335 8.16667 33.0385 8.33 33.0818ZM8.97167 32.3885H9.11833C9.115 32.3635 9.10833 32.3385 9.10167 32.3135L8.97167 32.3885ZM13.8 37.0101C13.7483 36.9968 13.695 36.9901 13.6417 36.9901H13.64C13.4217 36.9901 13.21 37.1035 13.0933 37.3051C13.0417 37.3935 13.0167 37.4901 13.0117 37.5885H13.5833L13.495 37.5368L13.8 37.0101ZM13.3267 38.1668C13.4733 38.2518 13.6433 38.2735 13.805 38.2301V38.2285C13.9683 38.1851 14.105 38.0818 14.1883 37.9351C14.2217 37.8785 14.2417 37.8168 14.255 37.7551H13.0283C13.0289 37.7583 13.0292 37.7613 13.0296 37.7643C13.0303 37.7706 13.0311 37.7767 13.0333 37.7835C13.0767 37.9468 13.18 38.0835 13.3267 38.1668ZM13.8533 37.5885H14.27H14.2717C14.2633 37.4368 14.2 37.2918 14.09 37.1801L13.8533 37.5885ZM8.92833 41.0118C8.59667 41.0118 8.20667 41.9351 8.20667 42.4101H8.20833C8.20833 42.6035 8.28333 42.7835 8.41833 42.9201C8.55333 43.0568 8.735 43.1318 8.92667 43.1318C9.32333 43.1318 9.64667 42.8101 9.64667 42.4135C9.64667 41.9385 9.26 41.0118 8.92833 41.0118ZM6.095 38.7418C5.76167 39.0351 5.36833 41.8018 5.36833 42.4301L5.37 42.4285C5.37 42.6218 5.445 42.8018 5.58 42.9385C5.715 43.0751 5.89667 43.1501 6.08833 43.1501C6.28 43.1501 6.46 43.0751 6.59667 42.9401C6.73333 42.8051 6.80833 42.6235 6.80833 42.4318C6.81 41.8035 6.42667 39.0351 6.095 38.7418ZM83.5767 43.2085H82.6017V43.6668H89.24V43.2085H88.4367V43.0418H89.24V42.1251H86.675V41.9585H89.24V41.5618H88.55V41.3951H89.24V40.8651H82.6017V41.3951H83.9583V41.5618H82.6017V41.9585H84.7167V42.1251H82.6017V43.0418H83.5767V43.2085ZM95.4783 40.5318V40.0068H89.0667V40.5318H95.4783ZM100.41 31.1751H96.7317V31.1768V33.8301C97.0867 34.1251 97.46 34.4168 97.8483 34.7068H100.41V31.1751ZM104.91 35.0385H101.663V37.0801C101.908 37.2051 102.16 37.3285 102.415 37.4501V35.8285C102.415 35.7368 102.49 35.6618 102.582 35.6618H103.815C103.907 35.6618 103.982 35.7368 103.982 35.8285V37.7801C103.982 37.8718 103.907 37.9468 103.815 37.9468H103.517C103.967 38.1385 104.432 38.3201 104.91 38.4951V35.0385ZM117.328 35.0385H113.65V38.6535H117.328V35.0385ZM117.328 38.8201H113.65V42.5185H117.328V38.8201ZM113.65 34.7051H117.328V31.1735H113.65V34.7051ZM117.328 42.6851H113.65H113.648V44.4268H113.997V43.6885C113.997 43.5968 114.072 43.5218 114.163 43.5218H114.678C114.77 43.5218 114.845 43.5968 114.845 43.6885V44.4268H116.132V43.6885C116.132 43.5968 116.207 43.5218 116.298 43.5218H116.813C116.905 43.5218 116.98 43.5968 116.98 43.6885V44.4268H117.328V42.6851ZM114.33 44.4268H114.512V43.8551H114.33V44.4268ZM116.465 44.4268H116.647V43.8551H116.465V44.4268ZM105.278 38.6268V35.0385H105.077V38.5551C105.105 38.565 105.133 38.5752 105.162 38.5854C105.2 38.5994 105.239 38.6134 105.278 38.6268ZM105.278 39.6735V38.9818V38.9801C105.247 38.9694 105.216 38.9584 105.185 38.9473C105.149 38.9342 105.113 38.9211 105.077 38.9085V39.6735H105.278ZM106.938 44.4268H107.12V43.8551H106.938V44.4268ZM106.772 43.5201H107.285C107.377 43.5201 107.452 43.5951 107.452 43.6868V44.4251H108.515V42.6835H105.452V42.5168H108.515V40.8651H107.812V41.6435C107.812 41.7351 107.737 41.8101 107.645 41.8101H106.412C106.32 41.8101 106.245 41.7351 106.245 41.6435V40.8651H105.443V44.4251H106.605V43.6868C106.605 43.5951 106.68 43.5201 106.772 43.5201ZM103.108 44.4268H103.29V43.8551H103.108V44.4268ZM102.942 43.5201H103.457C103.548 43.5201 103.623 43.5951 103.623 43.6868V44.4251H104.91V42.6835H101.663V44.4251H102.775V43.6868C102.775 43.5951 102.85 43.5201 102.942 43.5201ZM99.5483 44.4268H99.73V43.8551H99.5483V44.4268ZM99.3817 43.5201H99.8967H99.8983C99.99 43.5201 100.065 43.5951 100.065 43.6868V44.4251H100.412V42.6835H96.7333V44.4251H97.08V43.6868C97.08 43.5951 97.155 43.5201 97.2467 43.5201H97.7617C97.8533 43.5201 97.9283 43.5951 97.9283 43.6868V44.4251H99.215V43.6868C99.215 43.5951 99.29 43.5201 99.3817 43.5201ZM97.4133 44.4268H97.595V43.8551H97.4133V44.4268ZM97.3367 40.8668H96.7317V42.5185H100.41V40.8668H99.805V41.6451C99.805 41.7368 99.73 41.8118 99.6383 41.8118H97.5033C97.4117 41.8118 97.3367 41.7368 97.3367 41.6451V40.8668ZM99.4717 37.6135V36.2185V36.2168C99.3533 36.1435 99.2367 36.0701 99.1217 35.9951H99.115V37.6135H99.4717ZM97.67 35.9951V37.6135H98.4033V35.9951H97.67ZM98.78 35.9951H98.7367V37.6135H98.78V35.9951ZM97.3367 35.8285C97.3367 35.7368 97.4117 35.6618 97.5033 35.6618H98.6183C98.315 35.4568 98.0217 35.2485 97.7367 35.0385H96.7317V38.6535H98.7817V37.9468H97.5033C97.4117 37.9468 97.3367 37.8718 97.3367 37.7801V35.8285ZM98.7817 38.8201H96.7317H96.73V39.6735H97.34C97.3517 39.5918 97.4183 39.5268 97.5033 39.5268H98.7817V38.8201ZM98.4033 40.8668H97.67V41.4785H98.4033V40.8668ZM98.4033 40.5318V40.0068H97.67V40.5318H98.4033ZM99.47 40.8668H98.7367V41.4785H99.47V40.8668ZM98.7367 40.0085V40.5335H99.47V40.0085H98.7367ZM100.41 40.0068H99.805V40.5318H100.41V40.0068ZM99.6383 39.5268C99.7233 39.5268 99.7917 39.5918 99.8017 39.6735H100.41V38.8201H99.115V39.5268H99.6383ZM97.3367 40.5318V40.0068H96.7317V40.5318H97.3367ZM99.115 38.6535H100.41V36.7801C100.205 36.6635 100.003 36.5451 99.805 36.4251V37.7801C99.805 37.8718 99.73 37.9468 99.6383 37.9468H99.115V38.6535ZM99.805 35.8285V36.0318C100.003 36.1535 100.205 36.2735 100.41 36.3935V35.0385H98.3067C98.6017 35.2485 98.9067 35.4568 99.2217 35.6618H99.6383C99.73 35.6618 99.805 35.7368 99.805 35.8285ZM100.953 40.8668H100.743V44.4268H100.953V40.8668ZM101.33 44.4268V40.8668H101.12V44.4268H101.33ZM104.91 40.5318V40.0068H103.982V40.5318H104.91ZM106.863 40.8668H106.58V41.4785H106.863V40.8668ZM107.48 40.8668H107.197V41.4785H107.48V40.8668ZM107.197 40.0085V40.5335H107.48V40.0085H107.197ZM108.517 40.0068H107.813V40.5318H108.517V40.0068ZM108.83 40.0068H108.683V40.5318H108.83V40.0068ZM106.863 40.5318V40.0068H106.58V40.5318H106.863ZM105.445 40.5335H106.247V40.0085H105.445V40.5335ZM105.077 40.5335H105.278V40.0085H105.077V40.5335ZM105.077 40.8668V44.4268H105.278V40.8668H105.077ZM103.365 40.5335H103.648V40.0085H103.365V40.5335ZM103.648 41.4785V40.8668H103.365V41.4785H103.648ZM103.032 40.5318V40.0068H102.748V40.5318H103.032ZM103.032 41.4785V40.8668H102.748V41.4785H103.032ZM103.815 41.8118H102.582C102.49 41.8118 102.415 41.7368 102.415 41.6451V40.8668H101.663V42.5185H104.91V40.8668H103.982V41.6451C103.982 41.7368 103.907 41.8118 103.815 41.8118ZM108.683 40.8668V44.4268H108.885V40.8668H108.683ZM108.885 39.6435V35.0385H108.683V39.5985C108.752 39.6135 108.817 39.6285 108.885 39.6435ZM106.25 39.6735C106.262 39.5918 106.328 39.5268 106.413 39.5268H107.033C106.488 39.3751 105.958 39.2118 105.443 39.0368V39.6735H106.25ZM103.978 39.6735H104.908V38.8485C104.132 38.5701 103.39 38.2685 102.685 37.9468H102.637V39.5268H103.815C103.9 39.5268 103.968 39.5918 103.978 39.6735ZM103.648 37.6135V35.9951H103.365V37.6135H103.648ZM102.762 37.6135H103.032H103.033V35.9951H102.75V37.6068C102.753 37.6101 102.762 37.6135 102.762 37.6135ZM102.415 40.5318V40.0068H101.663V40.5318H102.415ZM101.12 40.5335H101.33V40.0085H101.12V40.5335ZM100.743 40.5335H100.953V40.0085H100.743V40.5335ZM96.1883 40.5335H96.3983V40.0085H96.1883V40.5335ZM96.3983 44.4268V40.8668H96.1883V44.4268H96.3983ZM95.8117 44.4268H96.0217V40.8668H95.8117V44.4268ZM110.77 44.4268H110.952V43.8551H110.77V44.4268ZM111.285 43.6885V44.4268H112.397V42.6851H109.052V44.4268H110.437V43.6885C110.437 43.5968 110.512 43.5218 110.603 43.5218H111.118C111.21 43.5218 111.285 43.5968 111.285 43.6885ZM109.052 42.5185H112.397V35.0418H109.052V39.6868C109.117 39.7085 109.163 39.7685 109.163 39.8418V40.7001C109.163 40.7718 109.117 40.8318 109.052 40.8551V42.5185ZM108.683 34.7051H108.883V33.7135L108.785 33.4535L108.683 33.7335V34.7051ZM105.445 38.6851C106.412 39.0168 107.437 39.3101 108.517 39.5601V35.0385H105.445V38.6851ZM105.077 34.7051H105.277V33.7135L105.178 33.4535L105.077 33.7335V34.7051ZM102.305 39.6735V37.7668C102.087 37.6651 101.873 37.5601 101.663 37.4535V39.6735H102.305ZM101.12 39.6735H101.33V37.2818C101.295 37.2635 101.26 37.2447 101.225 37.226C101.19 37.2072 101.155 37.1885 101.12 37.1701V39.6735ZM100.743 39.6735H100.953V37.0835C100.883 37.0451 100.813 37.0051 100.743 36.9668V39.6735ZM96.7317 34.7051H97.295C97.1033 34.5568 96.915 34.4085 96.7317 34.2585V34.7051ZM96.3983 39.6735V34.8718V33.9835C96.3633 33.9535 96.3283 33.9239 96.2933 33.8943C96.2583 33.8647 96.2233 33.8351 96.1883 33.8051V39.6735H96.3983ZM95.8117 39.6735H96.0217V33.6618C95.9882 33.6322 95.9555 33.603 95.9229 33.574C95.8858 33.5409 95.849 33.508 95.8117 33.4751V39.6735ZM96.0217 40.5318V40.0068H95.8117V40.5318H96.0217ZM88.52 36.9301V40.5335H88.7333V36.9301H88.52ZM84.125 37.3551V40.5335H87.8067V37.3551H84.125ZM88.3533 32.3301H88.14V36.5968H88.3533V32.3301ZM88.7333 32.3301H88.52V36.5968H88.7333V32.3301ZM88.52 27.7301V31.9968H88.7333V27.7301H88.52ZM88.14 31.9968H88.3533V27.7301H88.14V31.9968ZM84.125 28.0285H87.8067V27.7301H84.125V28.0285ZM87.8067 28.1951H84.125V31.9968H87.8067V28.1951ZM87.8067 32.6435V32.3301H84.125V32.6435H87.8067ZM87.8067 32.8101H84.125V36.5968H87.8067V32.8101ZM87.8067 37.1885V36.9301H84.125V37.1885H87.8067ZM88.3533 36.9301H88.14V40.5335H88.3533V36.9301ZM91.3417 28.3201V39.6735H91.5783V28.6701C91.4967 28.5535 91.4183 28.4368 91.3417 28.3201ZM89.065 39.6735H91.175V39.6718V28.0635C90.0867 26.3818 89.42 24.9318 89.065 24.0568V27.3951H89.405V27.7285H89.065V31.9951H89.405V32.3285H89.065V36.5951H89.405V36.9285H89.065V39.6735ZM88.52 27.3968H88.7333V23.1301H88.52V27.3968ZM88.14 27.3968H88.3533V23.1301H88.14V27.3968ZM84.125 27.3968H87.8067V23.5735H84.125V27.3968ZM83.5783 27.3968H83.7917V23.1301H83.5783V27.3968ZM83.7917 31.9968V27.7301H83.5783V31.9968H83.7917ZM83.7917 36.5968V32.3301H83.5783V36.5968H83.7917ZM83.7917 40.5335V36.9301H83.5783V40.5335H83.7917ZM95.4783 40.8668H89.5733V44.4768H95.4783V40.8668ZM118.038 44.4268H118.248V27.9835H118.038V44.4268ZM117.872 27.9835H117.662V44.4268H117.872V27.9835ZM116.343 28.0268H114.635L113.713 30.8401H117.265L116.343 28.0268ZM113.317 44.4268V31.0085V27.9835H113.107V44.4268H113.317ZM112.94 27.9835H112.73V44.4268H112.94V27.9835ZM112.397 34.7068V32.1135H101.667V34.7068H104.913V33.7201C104.913 33.7101 104.915 33.7018 104.918 33.6918L105.102 33.1885C105.115 33.1551 105.145 33.1335 105.18 33.1335C105.215 33.1335 105.247 33.1551 105.258 33.1868L105.442 33.6701C105.445 33.6801 105.447 33.6901 105.447 33.7001V34.7068H108.518V33.7201C108.518 33.7153 108.519 33.7109 108.519 33.7065C108.52 33.7018 108.522 33.697 108.523 33.6918L108.707 33.1885C108.72 33.1551 108.75 33.1335 108.785 33.1335C108.82 33.1335 108.852 33.1551 108.863 33.1868L109.047 33.6701C109.05 33.6801 109.052 33.6901 109.052 33.7001V34.7068H112.397ZM101.33 36.9051V31.9468V27.9835H101.12V36.7935C101.19 36.8318 101.26 36.8685 101.33 36.9051ZM100.953 27.9835H100.743V36.5835C100.813 36.6235 100.883 36.6635 100.953 36.7018V27.9835ZM99.425 28.0268H97.7167L96.795 30.8401H100.347L99.425 28.0268ZM96.3983 33.5468V31.0085V27.9835H96.1883V33.3635L96.1888 33.3639C96.2587 33.4254 96.3285 33.4869 96.3983 33.5468ZM96.0217 27.9835H95.8117V33.0268L96.0217 33.2168V27.9835ZM95.2833 39.6735H95.4783V39.6718V33.1718C95.4566 33.1518 95.4347 33.1317 95.4128 33.1117C95.3692 33.0717 95.3255 33.0318 95.2833 32.9918V39.6735ZM94.95 39.6735V32.6735C94.8933 32.6185 94.8383 32.5635 94.7833 32.5085V39.6735H94.95ZM94.6167 39.6735V32.3435H94.615C93.9183 31.6418 93.3117 30.9518 92.7867 30.2985C92.4733 29.9085 92.1833 29.5235 91.9117 29.1451V39.6735H94.6167ZM88.52 22.7968H88.7333V20.0201H88.52V22.7968ZM88.93 19.6851L88.4367 18.7701L87.9433 19.6851H88.93ZM88.3533 20.0201H88.14V22.7968H88.3533V20.0201ZM85.7117 22.7968H86.21V21.9585H85.7117V22.7968ZM85.6283 21.7918H86.2917C86.3383 21.7918 86.375 21.8285 86.375 21.8751V22.7968H86.8183V21.5385L85.96 20.9835L85.1017 21.5385V22.7968H85.545V21.8751C85.545 21.8285 85.5817 21.7918 85.6283 21.7918ZM87.1517 22.7968H87.2883L87.1517 22.2068V22.7968ZM86.9217 21.2085L85.925 16.9035L84.975 21.2235L85.87 20.6468C85.925 20.6118 85.995 20.6118 86.05 20.6468L86.9217 21.2085ZM84.7667 22.7985V22.1668L84.6283 22.7985H84.7667ZM87.8067 23.4068V23.1301H84.125V23.4068H87.8067ZM83.5783 22.7968H83.7917V20.0201H83.5783V22.7968ZM83.9883 19.6851L83.495 18.7701L83.0017 19.6851H83.9883ZM83.4117 20.0201H83.1983V22.7968H83.4117V20.0201ZM82.865 24.7151V24.0785H70.58V24.7151H82.865ZM70.0317 22.7968H70.245V20.0201H70.0317V22.7968ZM70.4417 19.6868L69.9483 18.7701L69.455 19.6868H70.4417ZM69.865 20.0201H69.6517V22.7968H69.865V20.0201ZM70.7533 41.3968V40.8668H64.115V41.3968H65.4717V41.5635H64.115V41.9601H66.23V42.1268H64.115V43.0435H65.0883V43.2101H64.115V43.6685H70.7533V43.2101H69.95V43.0435H70.7533V42.1268H68.1883V41.9601H70.7533V41.5635H70.0633V41.3968H70.7533ZM54.765 40.8668H54.5217V41.1535H54.765V40.8668ZM54.5217 40.0085V40.5335H54.765V40.0085H54.5217ZM53.6117 40.8668H53.3683V41.1535H53.6117V40.8668ZM53.3683 40.0085V40.5335H53.6117V40.0085H53.3683ZM52.4567 40.8668H52.2133V41.1535H52.4567V40.8668ZM52.2133 40.0085V40.5335H52.4567V40.0085H52.2133ZM51.3033 40.8668H51.06V41.1535H51.3033V40.8668ZM51.06 40.0085V40.5335H51.3033V40.0085H51.06ZM41.8217 23.6135L41.0767 22.5701L40.3317 23.6135L41.0767 24.6568L41.8217 23.6135ZM42.84 25.0401L42.0267 23.9001H42.025L41.7483 24.2885L47.435 32.2901C47.405 31.9701 47.37 31.6501 47.3333 31.3285L42.8683 25.0701C42.8567 25.0618 42.8483 25.0518 42.84 25.0401ZM43.925 23.9018L43.1833 24.9401V24.9418L47.2467 30.6368C47.1267 29.7118 46.9867 28.8168 46.8267 27.9618L44.7633 25.0685C44.7533 25.0601 44.745 25.0518 44.7383 25.0418L43.925 23.9018ZM45.3783 24.5251L45.0817 24.9401L46.6717 27.1685C46.5867 26.7551 46.4967 26.3501 46.4017 25.9585L45.3783 24.5251ZM45.4806 24.381L45.83 23.8901C45.9917 24.4051 46.1467 24.9485 46.2917 25.5185L45.4806 24.381ZM44.1317 23.6101L44.8767 24.6535L45.6183 23.6135L44.8733 22.5701L44.1317 23.6101ZM40.8533 19.0118L43.9283 23.3235H43.93L44.2267 22.9085L41.2583 18.7485C41.1233 18.8168 40.9883 18.9051 40.8533 19.0118ZM42.9783 24.6518L43.72 23.6135L42.975 22.5701L42.2333 23.6085L42.9783 24.6518ZM39.3867 20.9651L40.5967 22.6685H40.5983L40.8767 22.2785L39.6283 20.5301C39.5467 20.6685 39.4667 20.8135 39.3867 20.9651ZM40.4944 22.8126L40.1283 23.3268L39.315 22.1868C39.2517 22.0985 39.1067 22.0985 39.0433 22.1868L38.5667 22.8551C38.8 22.2201 39.045 21.6435 39.3017 21.1335L40.4944 22.8126ZM39.1783 24.6568L39.9233 23.6135L39.1783 22.5701L38.4333 23.6135L39.1783 24.6568ZM39.1767 25.1101C39.1233 25.1101 39.0733 25.0835 39.0417 25.0401L39.04 25.0385L38.2133 23.8801C38.105 24.2251 38 24.5818 37.8983 24.9518L47.625 38.7218C47.7067 36.8251 47.6533 34.7535 47.4617 32.6201L41.6433 24.4318L41.21 25.0401C41.1467 25.1285 41.0017 25.1285 40.9383 25.0401L40.125 23.9001L39.3117 25.0401C39.2817 25.0835 39.23 25.1101 39.1767 25.1101ZM47.24 39.2818L47.5183 39.6735H47.575C47.5867 39.5068 47.5967 39.3368 47.6067 39.1668C47.485 39.2051 47.3633 39.2435 47.24 39.2818ZM45.8683 39.6735H47.11L46.9033 39.3851C46.565 39.4851 46.22 39.5818 45.8683 39.6735ZM47.1678 38.9556C47.2833 38.9198 47.3984 38.8842 47.5117 38.8468H47.51L37.8433 25.1618C37.7817 25.3918 37.7233 25.6268 37.665 25.8651L47.035 38.9968C47.0793 38.983 47.1236 38.9693 47.1678 38.9556ZM44.6967 39.6118C45.3867 39.4585 46.055 39.2868 46.6983 39.0985H46.6967L37.5617 26.2951C37.3733 27.1168 37.2017 27.9851 37.0517 28.8918L44.6967 39.6118ZM44.945 40.5318L44.6133 40.0668V40.5318H44.945ZM47.3483 40.0068H44.98L44.9817 40.0085L45.3567 40.5335H47.5067L47.5317 40.2635L47.3483 40.0068ZM47.1433 43.0435C47.2783 42.3685 47.3867 41.6385 47.47 40.8668H45.5917L47.1433 43.0435ZM49.8233 40.8668H47.8067C47.665 42.1935 47.4467 43.4168 47.1433 44.4768H49.8233V40.8668ZM47.8833 40.0085C47.87 40.1851 47.855 40.3601 47.8383 40.5335H49.8217V40.0085H47.8833ZM50.7267 40.0068H50.1567V40.5318H50.7267V40.0068ZM52.3825 36.7614C52.4079 36.7475 52.4332 36.7337 52.4583 36.7201V34.5018H52.215V36.8518C52.271 36.8221 52.327 36.7916 52.3825 36.7614ZM52.6233 37.1901H52.2883H52.2867C51.915 37.3885 51.5317 37.5818 51.1367 37.7685V37.8885H54.3267V37.1851C54.2483 37.1718 54.1867 37.1068 54.1867 37.0235V36.0835C54.1648 36.0971 54.1429 36.1109 54.1208 36.1247C54.0621 36.1615 54.0027 36.1988 53.9433 36.2351V37.0235C53.9433 37.1151 53.8683 37.1901 53.7767 37.1901H53.2C53.1083 37.1901 53.0333 37.1151 53.0333 37.0235V36.7801C52.9534 36.8268 52.8717 36.8718 52.79 36.9168L52.79 36.9168V37.0235C52.79 37.1151 52.715 37.1901 52.6233 37.1901ZM53.3683 36.1968C53.45 36.1485 53.5317 36.0985 53.6117 36.0485V34.5001H53.3683V36.1968ZM53.6117 36.8568V36.4418C53.5627 36.4714 53.5131 36.5004 53.4632 36.5295C53.4316 36.5479 53.4 36.5664 53.3683 36.5851V36.8568H53.6117ZM54.6434 35.3834C54.6838 35.3555 54.7242 35.3276 54.765 35.3001V34.5018H54.5217V35.4668C54.5625 35.4393 54.603 35.4114 54.6434 35.3834ZM53.3683 39.6735H53.6117V38.7985H53.3683V39.6735ZM53.2017 38.4651H53.7783H53.78C53.8717 38.4651 53.9467 38.5401 53.9467 38.6318V39.6735H54.19V38.6318C54.19 38.5485 54.25 38.4835 54.33 38.4701V38.0551H51.14V38.4651H51.4717C51.5633 38.4651 51.6383 38.5401 51.6383 38.6318V39.6735H51.8817V38.6318C51.8817 38.5401 51.9567 38.4651 52.0483 38.4651H52.625C52.7167 38.4651 52.7917 38.5401 52.7917 38.6318V39.6735H53.035V38.6318C53.035 38.5401 53.11 38.4651 53.2017 38.4651ZM52.215 39.6735H52.4583V38.7985H52.215V39.6735ZM51.3033 38.7985H51.1383V39.6735H51.3033V38.7985ZM54.765 38.7985H54.6617V39.6735H54.765V38.7985ZM54.6617 38.4651H54.9317C55.0233 38.4651 55.0983 38.5401 55.0983 38.6318V39.6735H55.71V38.0551H54.6617V38.4651ZM54.6617 37.1901V37.8885H55.71V35.0368C55.5117 35.1851 55.3067 35.3318 55.0983 35.4768V37.0235C55.0983 37.1151 55.0233 37.1901 54.9317 37.1901H54.6617ZM54.6617 36.8568H54.765V35.7051C54.73 35.7285 54.6967 35.7518 54.6617 35.7751V36.8568ZM50.805 38.0551H50.5133V38.0535C50.395 38.1068 50.2767 38.1601 50.1567 38.2118V39.6735H50.7267V38.6318C50.7267 38.5718 50.7583 38.5235 50.805 38.4935V38.0551ZM51.88 40.0068H51.6367V40.5318H51.88V40.0068ZM53.035 40.0068H52.7917V40.5318H53.035V40.0068ZM54.1883 40.0068H53.945V40.5318H54.1883V40.0068ZM55.71 40.0068H55.0983V40.5318H55.71V40.0068ZM64.3767 40.0068H56.0433V40.5318H64.3767V40.0068ZM65.6367 27.3968H69.3183V23.5735H65.6367V27.3968ZM65.6367 37.3551V40.5335H69.3183V37.3551H65.6367ZM64.71 36.9285V39.8401V40.5318H64.9233V36.9285H64.71ZM65.09 31.9968H65.3033V27.7301H65.09V31.9968ZM65.09 36.5968H65.3033V32.3301H65.09V36.5968ZM64.71 31.9968H64.9233V27.7301H64.71V31.9968ZM64.9233 36.5968V32.3301H64.71V36.5968H64.9233ZM65.3033 36.9301H65.09V40.5335H65.3033V36.9301ZM65.6367 37.1868H69.3183V36.9285H65.6367V37.1868ZM65.6367 32.8101V36.5968H69.3183V32.8101H65.6367ZM65.6367 32.6435H69.3183V32.3301H65.6367V32.6435ZM65.6367 28.1951V31.9968H69.3183V28.1951H65.6367ZM65.6367 28.0285H69.3183V27.7301H65.6367V28.0285ZM65.09 27.3968H65.3033V23.1301H65.09V27.3968ZM64.71 27.3968H64.9233V23.1301H64.71V27.3968ZM63.9483 27.3968H64.3767V24.0585C64.0233 24.9335 63.355 26.3818 62.2683 28.0651V39.6751H64.3767V36.9301H63.9483V36.5968H64.3767V32.3301H63.9483V31.9968H64.3767V27.7301H63.9483V27.3968ZM61.865 39.6735H62.1017V28.3185C62.025 28.4351 61.9467 28.5518 61.865 28.6701V39.6735ZM63.7817 44.4768V40.8668H56.0433V44.4768H63.7817ZM69.6517 36.9301V40.5335H69.865V36.9301H69.6517ZM69.6517 32.3301V36.5968H69.865V32.3301H69.6517ZM69.6517 27.7301V31.9968H69.865V27.7301H69.6517ZM69.6517 23.1301V27.3968H69.865V23.1301H69.6517ZM67.2233 22.7968H67.7217V21.9585H67.2233V22.7968ZM67.14 21.7918H67.805C67.8517 21.7918 67.8883 21.8285 67.8883 21.8751V22.7968H68.3317V21.5385L67.4733 20.9835L66.6133 21.5385V22.7968H67.0567V21.8751C67.0567 21.8285 67.0933 21.7918 67.14 21.7918ZM68.665 22.7968H68.8017L68.665 22.2068V22.7968ZM67.4392 16.9072L68.435 21.2085L67.5633 20.6468C67.5083 20.6118 67.4383 20.6118 67.3833 20.6468L66.4883 21.2235L67.4392 16.9072ZM66.28 22.7968V22.1651L66.1417 22.7968H66.28ZM69.3183 23.4068V23.1301H65.6367V23.4068H69.3183ZM65.09 22.7968H65.3033V20.0201H65.09V22.7968ZM65.5 19.6851L65.0067 18.7701L64.5133 19.6851H65.5ZM64.9233 20.0201H64.71V22.7968H64.9233V20.0201ZM61.5317 29.1451C61.26 29.5235 60.97 29.9085 60.6567 30.2985C60.14 30.9418 59.5433 31.6201 58.86 32.3118V39.6735H61.5317V29.1451ZM58.6933 39.6735V32.4768L58.6929 32.4773C58.628 32.5421 58.5632 32.607 58.495 32.6735V39.6735H58.6933ZM58.16 39.6735V32.9935C57.5217 33.5935 56.8167 34.1968 56.0433 34.7868V37.8885H56.185V38.0551H56.0433V39.6735H58.16ZM55.9267 21.5351H56.4667V16.6835H55.9267V21.5351ZM52.445 16.3501H51.8483V15.5151C51.8517 15.5035 51.8517 15.4901 51.8517 15.4785C51.8517 15.3151 51.9833 15.1835 52.1467 15.1835C52.31 15.1835 52.4417 15.3151 52.4417 15.4785C52.4417 15.4901 52.4417 15.5035 52.445 15.5151V16.3501ZM50.2817 18.3585C50.485 17.6368 50.9733 17.0351 51.62 16.6835H50.2817V18.3585ZM50.28 16.3501H50.8783L50.8767 16.3485V15.5118C50.8733 15.5001 50.8733 15.4885 50.8733 15.4768C50.8733 15.3135 50.7417 15.1818 50.5783 15.1818C50.415 15.1818 50.2833 15.3135 50.2833 15.4768C50.2833 15.4885 50.2817 15.5001 50.28 15.5117L50.28 15.5118V16.3501ZM51.6183 21.5351C50.9733 21.1835 50.485 20.5818 50.28 19.8601V21.5351H51.6183ZM52.9317 16.6818C51.595 16.6818 50.5067 17.7701 50.5067 19.1085C50.5067 20.4468 51.5933 21.5351 52.9317 21.5351C54.27 21.5351 55.3583 20.4468 55.3583 19.1085C55.3583 17.7701 54.2683 16.6818 52.9317 16.6818ZM55.5833 16.3501H54.9867V15.5151C54.99 15.5035 54.99 15.4902 54.99 15.4785V15.4785C54.99 15.3151 55.1217 15.1835 55.285 15.1835C55.4483 15.1835 55.58 15.3151 55.58 15.4785C55.58 15.4901 55.58 15.5035 55.5833 15.5151V16.3501ZM55.595 16.6835H54.82H54.2483C54.9033 17.0385 55.395 17.6535 55.595 18.3868V16.6835ZM54.0133 16.3501H53.4167V15.5135C53.4183 15.5018 53.42 15.4901 53.42 15.4785C53.42 15.3151 53.5517 15.1835 53.715 15.1835C53.8783 15.1835 54.01 15.3151 54.01 15.4785C54.01 15.4901 54.01 15.5018 54.0133 15.5135V16.3501ZM55.5933 21.5335V19.8301C55.3933 20.5635 54.9017 21.1768 54.2467 21.5335H55.5933ZM54.6167 10.5901V9.13348H51.1933V10.5901H51.3767V9.68014C51.3767 9.44514 51.5683 9.25514 51.8017 9.25514C52.035 9.25514 52.2267 9.44514 52.2267 9.68014V10.5901H52.47V9.68014C52.47 9.44514 52.66 9.25514 52.895 9.25514C53.13 9.25514 53.32 9.44514 53.32 9.68014V10.5901H53.5633V9.68014C53.5633 9.44514 53.7533 9.25514 53.9883 9.25514C54.2233 9.25514 54.4133 9.44514 54.4133 9.68014V10.5901H54.6167ZM52.9433 3.75181C52.9267 3.66514 52.91 3.57681 52.8933 3.48681H52.8917C52.8886 3.5025 52.8856 3.5183 52.8825 3.53416C52.8739 3.57895 52.8653 3.62417 52.8567 3.66848L52.3783 8.80014H53.3367L52.9433 3.75181ZM52.8017 10.5901H52.985V9.68014C52.985 9.63014 52.9433 9.58848 52.8933 9.58848C52.8433 9.58848 52.8017 9.63014 52.8017 9.68014V10.5901ZM53.895 9.68014V10.5901H54.0783V9.68014C54.0783 9.63014 54.0367 9.58848 53.9867 9.58848C53.9367 9.58848 53.895 9.63014 53.895 9.68014ZM51.7083 10.5901H51.8917V9.68014C51.8917 9.63014 51.85 9.58848 51.8 9.58848C51.75 9.58848 51.7083 9.63014 51.7083 9.68014V10.5901ZM51.8867 10.9235H51.1617L49.9167 14.4385H51.2717L51.8867 10.9235ZM52.85 10.9235H52.055L51.44 14.4385H52.85V10.9235ZM53.7917 10.9235H53.0167V14.4385H54.425L53.7917 10.9235ZM53.9617 10.9251L54.595 14.4401H55.9483L54.6667 10.9251H53.9617ZM53.8177 6.69014H53.815L54.5483 8.80181H53.505L53.1917 4.78348C53.38 5.46348 53.5883 6.04848 53.7417 6.47514L53.8177 6.69014ZM52.045 6.47514L51.9683 6.69181H51.97L51.2567 8.80181H52.2133L52.5833 4.82514C52.3967 5.48681 52.195 6.05681 52.045 6.47514ZM56.02 14.7735H49.855V16.3501H49.955V15.4785C49.955 15.4651 49.9567 15.4518 49.96 15.4385C49.98 15.1101 50.255 14.8501 50.5867 14.8501C50.9183 14.8501 51.1917 15.1101 51.2133 15.4368C51.2167 15.4501 51.2183 15.4635 51.2183 15.4785V16.3501H51.5217V15.4785C51.5217 15.4635 51.5233 15.4485 51.5267 15.4351C51.5483 15.1085 51.8217 14.8485 52.1533 14.8485C52.485 14.8485 52.7583 15.1085 52.78 15.4351C52.7833 15.4501 52.785 15.4635 52.785 15.4785V16.3501H53.0883V15.4785C53.0883 15.4635 53.09 15.4501 53.0933 15.4368C53.1133 15.1085 53.3883 14.8485 53.72 14.8485C54.0517 14.8485 54.325 15.1085 54.3467 15.4368C54.35 15.4501 54.3517 15.4651 54.3517 15.4785V16.3501H54.655V15.4785C54.655 15.4635 54.6567 15.4485 54.66 15.4351C54.6817 15.1085 54.955 14.8485 55.2867 14.8485C55.6183 14.8485 55.8917 15.1085 55.9133 15.4351C55.9167 15.4501 55.9183 15.4635 55.9183 15.4785V16.3501H56.02V14.7735ZM49.9467 16.6835H49.4V21.5351H49.9467V16.6835ZM56.0183 22.4135V21.8685H49.8467V22.4135H56.0183ZM55.7117 22.7468H50.1567V29.1668H55.7117V22.7468ZM55.7117 29.3335H50.1567V33.5268H55.7117V29.3335ZM55.71 33.6968V34.6185C55.51 34.7685 55.3067 34.9185 55.0983 35.0668V34.3351C55.0983 34.2435 55.0233 34.1685 54.9317 34.1685H54.355C54.2633 34.1685 54.1883 34.2435 54.1883 34.3351V35.6851C54.1474 35.7119 54.1069 35.7382 54.0664 35.7645C54.0261 35.7907 53.9858 35.8169 53.945 35.8435V34.3351C53.945 34.2435 53.87 34.1685 53.7783 34.1685H53.2017C53.11 34.1685 53.035 34.2435 53.035 34.3351V36.3951C52.955 36.4418 52.8733 36.4885 52.7917 36.5351V34.3368C52.7917 34.2451 52.7167 34.1701 52.625 34.1701H52.0483C51.9567 34.1701 51.8817 34.2451 51.8817 34.3368V37.0251V37.0301C51.33 37.3151 50.755 37.5901 50.1567 37.8501V33.6968H55.71ZM49.8233 39.6751V38.3518H49.8217C49.22 38.6018 48.595 38.8368 47.945 39.0551C47.935 39.2635 47.9217 39.4701 47.9083 39.6751H49.8233ZM45.47 22.8335C45.0117 21.5851 44.5017 20.5618 43.9583 19.8285L43.9567 19.8268C43.13 18.7085 42.2633 18.3251 41.4083 18.6751L44.325 22.7635L44.7367 22.1868C44.8 22.0985 44.945 22.0985 45.0083 22.1868L45.47 22.8335ZM40.6 19.2335C40.4267 19.4018 40.255 19.5985 40.085 19.8285L40.0867 19.8301C39.995 19.9518 39.905 20.0835 39.8167 20.2218L42.03 23.3235L42.7733 22.2801L40.6 19.2335ZM44.355 39.7035L36.9783 29.3601L36.9767 29.3585C36.88 29.9835 36.7933 30.6251 36.7167 31.2801L36.6967 31.4618L45.9933 44.4735H46.7967C46.89 44.1601 46.9733 43.8301 47.0517 43.4835L45.1833 40.8635H44.4467C44.355 40.8635 44.28 40.7885 44.28 40.6968V39.8385C44.28 39.7818 44.3117 39.7335 44.355 39.7035ZM45.7883 44.4751L36.6683 31.7118V31.7135C36.6367 32.0118 36.6067 32.3101 36.58 32.6085L45.0467 44.4751H45.7883ZM43.8867 44.4751H44.6383L36.5367 33.1201C36.5117 33.4318 36.4883 33.7435 36.47 34.0518L43.8867 44.4751ZM41.2433 44.4751H43.4767V44.4735L36.44 34.5835C36.385 35.6335 36.3667 36.6585 36.3833 37.6451L41.2433 44.4751ZM40.4417 44.4751H41.0383L36.39 37.9418C36.3967 38.2768 36.4083 38.6085 36.425 38.9335L40.4417 44.4751ZM36.4618 39.5527L40.03 44.4751H37.2483C36.8485 43.1174 36.5852 41.435 36.4618 39.5527ZM24.7717 41.1918C23.4533 41.5301 22.0783 41.7085 20.675 41.7085L20.6767 41.7101C19.28 41.7101 17.9117 41.5335 16.6 41.1985L16.5233 41.4868C17.8583 41.8385 19.245 42.0251 20.6767 42.0251C22.1083 42.0251 23.51 41.8368 24.85 41.4801L24.7717 41.1918ZM16.6867 40.8735L16.6433 41.0368H16.6417C17.94 41.3668 19.285 41.5418 20.675 41.5418C22.065 41.5418 23.4233 41.3651 24.7283 41.0318L24.6833 40.8685C23.3967 41.2135 22.0433 41.3951 20.675 41.3951C19.3067 41.3951 17.9683 41.2151 16.6867 40.8735ZM24.1567 41.9868C23.0283 42.2285 21.8617 42.3568 20.675 42.3568V42.3551C19.4933 42.3551 18.335 42.2285 17.2117 41.9901L16.5983 44.4601H24.77L24.1567 41.9868ZM24.9433 44.4618H25.6517L24.935 41.8018C24.7317 41.8551 24.5267 41.9068 24.32 41.9535L24.9433 44.4618ZM25.17 41.3935C27.5 40.7201 29.635 39.5235 31.4083 37.8651L31.4067 37.8668C31.5267 37.7601 31.575 37.6485 31.55 37.5385C31.5493 37.5355 31.5478 37.5325 31.5464 37.5294C31.5445 37.5255 31.5426 37.5214 31.5417 37.5168C29.71 39.2185 27.5017 40.4401 25.0933 41.1101L25.17 41.3935ZM31.3083 37.3001C31.2283 37.2768 31.07 37.2635 30.9133 37.4235H30.915C29.2333 38.9968 27.2117 40.1335 25.0067 40.7785L25.0517 40.9485C27.4417 40.2818 29.6333 39.0701 31.4483 37.3768C31.4083 37.3435 31.3617 37.3151 31.3083 37.3001ZM23.6867 38.9985H24.18L24.035 38.4601C23.8283 38.5618 23.6967 38.7718 23.6867 38.9985ZM24.3567 39.6535L24.225 39.1651V39.1635H23.7017C23.7025 39.1676 23.7029 39.1714 23.7033 39.1751C23.7038 39.1789 23.7042 39.1826 23.705 39.1868C23.7483 39.3501 23.8517 39.4868 23.9983 39.5701C24.1083 39.6335 24.2333 39.6618 24.3567 39.6535ZM24.57 39.1651L24.6717 39.5418C24.7467 39.4885 24.8133 39.4218 24.86 39.3401C24.8933 39.2851 24.9133 39.2251 24.9267 39.1651H24.57ZM24.9433 38.9985C24.9417 38.9535 24.935 38.9068 24.9233 38.8618C24.8517 38.5968 24.6217 38.4185 24.3633 38.3985L24.525 38.9985H24.9433ZM23.96 36.9051L24.1033 37.4351V37.4335C25.0417 37.1651 25.9333 36.7918 26.7667 36.3235L26.4917 35.8485C25.6983 36.2935 24.85 36.6501 23.96 36.9051ZM20.0483 39.4401H20.5067V38.9001C20.4017 38.9285 20.305 38.9818 20.2267 39.0601C20.1233 39.1635 20.0633 39.2968 20.0483 39.4401ZM21.12 39.9518C21.215 39.8568 21.2733 39.7368 21.295 39.6068L21.2967 39.6051H20.055C20.0767 39.7351 20.135 39.8551 20.23 39.9501C20.3483 40.0701 20.5067 40.1351 20.675 40.1351C20.8433 40.1351 21.0017 40.0701 21.12 39.9518ZM20.84 38.9001V39.4401H21.2967C21.27 39.1801 21.085 38.9685 20.84 38.9001ZM23.425 36.1985L20.8417 26.6168V36.5385C21.7317 36.5268 22.5967 36.4101 23.425 36.1985ZM26.08 35.1351L21.2083 26.6968L23.7467 36.1085C24.5667 35.8718 25.3483 35.5435 26.08 35.1351ZM21.4539 26.4541L28.4017 33.4018C27.7867 33.9985 27.1067 34.5251 26.3683 34.9668L21.4539 26.4541ZM21.6906 26.2191L30.2033 31.1335C29.76 31.8718 29.2333 32.5535 28.6383 33.1668L21.6906 26.2191ZM31.355 28.4735L21.855 25.9285L30.37 30.8451C30.7867 30.1018 31.1183 29.3085 31.355 28.4735ZM31.775 25.6068H21.94L31.4433 28.1535C31.6483 27.3368 31.7617 26.4835 31.775 25.6068ZM31.4417 22.7268L21.94 25.2735H31.7733C31.7617 24.3968 31.6483 23.5435 31.4417 22.7268ZM30.37 20.0351L21.8533 24.9518H21.855L31.355 22.4068C31.1167 21.5718 30.785 20.7768 30.37 20.0351ZM21.6889 24.6595L28.6367 17.7118C29.2333 18.3251 29.76 19.0068 30.2017 19.7451L21.6889 24.6595ZM26.3683 15.9118L21.4517 24.4268L28.4017 17.4768C27.7883 16.8818 27.1067 16.3551 26.3683 15.9118ZM23.7067 14.7585L21.1433 24.2935L26.08 15.7435C25.3367 15.3268 24.5417 14.9951 23.7067 14.7585ZM20.8417 14.3401V24.1351L23.385 14.6718C22.57 14.4668 21.7183 14.3535 20.8417 14.3401ZM17.965 14.6718L20.5083 24.1001V14.3401C19.6317 14.3535 18.78 14.4668 17.965 14.6718ZM20.2185 24.3181L15.2683 15.7451C16.0117 15.3285 16.8067 14.9968 17.6417 14.7601L20.2185 24.3181ZM12.9467 17.4768L19.8967 24.4268L14.98 15.9118C14.2417 16.3535 13.56 16.8801 12.9467 17.4768ZM11.1467 19.7451L19.6617 24.6618L12.7117 17.7118C12.115 18.3251 11.59 19.0068 11.1467 19.7451ZM19.4927 24.9512L9.99667 22.4068C10.2333 21.5718 10.565 20.7785 10.9817 20.0368L19.4927 24.9512ZM9.57667 25.2735H19.4083L9.90833 22.7285C9.70333 23.5451 9.59 24.3968 9.57667 25.2735ZM9.90667 28.1535L19.4083 25.6068H9.575C9.58667 26.4835 9.70167 27.3368 9.90667 28.1535ZM19.4936 25.9293L10.9817 30.8435C10.5667 30.1018 10.235 29.3068 9.99833 28.4735L19.4936 25.9293ZM12.7117 33.1668L19.6617 26.2168L11.1467 31.1335C11.5883 31.8718 12.115 32.5535 12.7117 33.1668ZM14.98 34.9668L19.8967 26.4518L12.9467 33.4018C13.56 33.9968 14.2417 34.5235 14.98 34.9668ZM17.62 36.1135L20.1617 26.6601L20.16 26.6618L15.2683 35.1351C16.005 35.5468 16.7933 35.8768 17.62 36.1135ZM20.5083 36.5401V26.6601L17.9433 36.2035C18.765 36.4118 19.625 36.5268 20.5083 36.5401ZM23.4683 36.3601C22.6267 36.5751 21.7467 36.6935 20.8417 36.7068V36.7085V37.0335C21.775 37.0201 22.685 36.8985 23.5533 36.6751L23.4683 36.3601ZM26.1617 35.2785C25.4183 35.6951 24.6233 36.0285 23.7883 36.2685L23.8733 36.5835C24.7367 36.3351 25.5567 35.9901 26.325 35.5601L26.1617 35.2785ZM28.52 33.5218C27.895 34.1285 27.2017 34.6635 26.4517 35.1135L26.615 35.3951C27.39 34.9318 28.105 34.3785 28.75 33.7518L28.52 33.5218ZM30.3467 31.2168C29.8967 31.9668 29.3617 32.6601 28.755 33.2851L28.985 33.5151C29.6117 32.8718 30.1633 32.1551 30.6283 31.3801L30.3467 31.2168ZM31.515 28.5168C31.2733 29.3651 30.9367 30.1735 30.5133 30.9285H30.515L30.7967 31.0918C31.2333 30.3118 31.5817 29.4785 31.83 28.6018L31.515 28.5168ZM31.6037 28.1936L31.9183 28.2785C32.135 27.4218 32.2533 26.5268 32.2667 25.6051H31.9417C31.9283 26.4963 31.8135 27.3641 31.6037 28.1936ZM31.6033 22.6835C31.8133 23.5151 31.9283 24.3818 31.9417 25.2735V25.2718H32.2667C32.2533 24.3518 32.135 23.4551 31.9183 22.5985L31.6033 22.6835ZM31.5149 22.3614C31.2732 21.5132 30.9366 20.705 30.5133 19.9501L30.795 19.7868C31.2317 20.5651 31.58 21.4001 31.8283 22.2768L31.5149 22.3614ZM28.7567 17.5935C29.3633 18.2185 29.8983 18.9118 30.3483 19.6618L30.63 19.4985C30.1667 18.7235 29.6133 18.0085 28.9867 17.3635L28.7567 17.5935ZM26.4517 15.7668C27.2017 16.2168 27.895 16.7518 28.52 17.3585L28.75 17.1285C28.1067 16.5018 27.39 15.9501 26.615 15.4851L26.4517 15.7668ZM23.75 14.5985C24.6 14.8401 25.4083 15.1768 26.1633 15.6001V15.5985L26.3267 15.3168C25.5467 14.8801 24.7117 14.5318 23.835 14.2835L23.75 14.5985ZM20.8417 14.1735C21.7317 14.1851 22.5983 14.3018 23.4283 14.5101V14.5118L23.5133 14.1968C22.6567 13.9801 21.7617 13.8618 20.8417 13.8485V14.1735ZM17.9217 14.5101C18.7517 14.3018 19.6183 14.1868 20.5083 14.1735V14.1718V13.8468C19.5883 13.8601 18.6933 13.9785 17.8367 14.1951L17.9217 14.5101ZM15.1867 15.6001C15.9417 15.1768 16.75 14.8401 17.6 14.5985L17.515 14.2835C16.6383 14.5335 15.8033 14.8818 15.0233 15.3185L15.1867 15.6001ZM12.8283 17.3585C13.4533 16.7518 14.1467 16.2168 14.8967 15.7668L14.7333 15.4851C13.9583 15.9485 13.2433 16.5018 12.5983 17.1285L12.8283 17.3585ZM11.0017 19.6635C11.4517 18.9118 11.9867 18.2201 12.5933 17.5951L12.3633 17.3651C11.7367 18.0085 11.185 18.7251 10.72 19.5001L11.0017 19.6635ZM9.835 22.3635C10.0767 21.5151 10.4133 20.7068 10.8367 19.9518H10.835L10.5533 19.7885C10.1167 20.5685 9.76833 21.4018 9.52 22.2785L9.835 22.3635ZM9.40833 25.2718C9.42167 24.3801 9.53667 23.5135 9.74667 22.6835L9.43167 22.5985C9.215 23.4551 9.09667 24.3518 9.08333 25.2718H9.40833ZM9.74667 28.1951C9.53667 27.3651 9.42167 26.4985 9.40833 25.6068H9.08333C9.09667 26.5268 9.215 27.4235 9.43167 28.2801L9.74667 28.1951ZM10.835 30.9268C10.4133 30.1735 10.0767 29.3651 9.835 28.5168L9.52 28.6018C9.76833 29.4768 10.1167 30.3118 10.5533 31.0901L10.835 30.9268ZM12.5933 33.2851C11.9867 32.6601 11.4517 31.9668 11.0017 31.2168L10.72 31.3801C11.185 32.1551 11.7367 32.8701 12.3633 33.5151L12.5933 33.2851ZM14.8983 35.1118C14.1467 34.6618 13.455 34.1268 12.83 33.5201L12.6 33.7501C13.2433 34.3768 13.96 34.9285 14.735 35.3935L14.8983 35.1118ZM17.5783 36.2735C16.7367 36.0335 15.935 35.6985 15.1867 35.2785L15.0233 35.5601C15.7967 35.9935 16.625 36.3401 17.4933 36.5885L17.5783 36.2735ZM20.5067 36.7068C19.6083 36.6935 18.735 36.5768 17.8983 36.3635L17.8133 36.6785C18.6767 36.8985 19.5783 37.0185 20.5067 37.0318V36.7068ZM20.5067 37.9135V37.3651C19.5483 37.3518 18.6183 37.2268 17.7267 37.0001L17.585 37.5301C18.52 37.7701 19.5 37.9001 20.5067 37.9135ZM23.6383 36.9968C22.7417 37.2268 21.805 37.3518 20.84 37.3651V37.3668V37.9151C21.8533 37.9018 22.84 37.7685 23.7817 37.5268L23.6383 36.9968ZM26.78 35.6835L27.055 36.1585C27.8967 35.6551 28.675 35.0551 29.3733 34.3751L28.985 33.9868C28.32 34.6335 27.58 35.2051 26.78 35.6835ZM29.9983 35.3018H30.3017L30.075 35.0751C30.035 35.1451 30.0083 35.2201 29.9983 35.3018ZM30.175 35.8318C30.2933 35.9518 30.4517 36.0168 30.62 36.0168H30.6217C30.79 36.0168 30.9483 35.9501 31.0667 35.8318C31.165 35.7335 31.225 35.6068 31.2433 35.4701H30.5383L30.5033 35.5051L30.4683 35.4701H29.9983C30.0167 35.6051 30.0767 35.7335 30.175 35.8318ZM31.065 34.9401C30.9467 34.8201 30.7883 34.7551 30.62 34.7551C30.51 34.7551 30.4033 34.7868 30.31 34.8401L30.7383 35.2685L30.7033 35.3035H31.2417C31.2233 35.1668 31.1633 35.0401 31.065 34.9401ZM29.2217 33.7501L29.61 34.1385C30.29 33.4401 30.89 32.6618 31.3933 31.8201L30.9183 31.5451C30.44 32.3468 29.8683 33.0851 29.2217 33.7501ZM31.085 31.2568L31.56 31.5318V31.5301C32.035 30.6851 32.4133 29.7801 32.6817 28.8285L32.1517 28.6868C31.895 29.5918 31.5367 30.4535 31.085 31.2568ZM32.24 28.3668L32.77 28.5085C33.0067 27.5785 33.135 26.6068 33.1483 25.6068H32.6C32.5867 26.5568 32.4633 27.4818 32.24 28.3668ZM34.135 25.6068C34.2083 25.8735 34.45 26.0701 34.74 26.0701C35.0667 26.0701 35.3333 25.8185 35.365 25.5001H34.74V25.6068H34.135ZM35.36 25.3335C35.3083 25.0351 35.0517 24.8085 34.74 24.8085V24.8101C34.45 24.8101 34.2083 25.0068 34.135 25.2735H34.74V25.3335H35.36ZM32.6017 25.2735H33.15C33.1367 24.2735 33.0083 23.3018 32.7717 22.3718L32.2417 22.5135C32.465 23.3985 32.5883 24.3235 32.6017 25.2735ZM32.1517 22.1918L32.6817 22.0501V22.0485C32.4133 21.0968 32.035 20.1918 31.56 19.3468L31.085 19.6218C31.535 20.4251 31.895 21.2868 32.1517 22.1918ZM30.9183 19.3335L31.3933 19.0585C30.89 18.2168 30.29 17.4385 29.61 16.7401L29.2217 17.1285C29.8683 17.7935 30.44 18.5335 30.9183 19.3335ZM30.3111 16.0391L30.7383 15.6118L30.7217 15.5951H31.24C31.22 15.7218 31.1617 15.8418 31.065 15.9385C30.8603 16.1432 30.5509 16.1751 30.3111 16.0391ZM31.0667 15.0485C30.9433 14.9251 30.7817 14.8635 30.62 14.8635C30.4583 14.8635 30.2967 14.9251 30.1733 15.0485C30.07 15.1535 30.01 15.2868 29.995 15.4301H30.4483L30.5017 15.3768L30.555 15.4301H31.245C31.23 15.2901 31.1733 15.1551 31.0667 15.0485ZM30.2833 15.5951H30C30.0117 15.6685 30.0383 15.7385 30.075 15.8035L30.2833 15.5951ZM28.985 16.8935L29.3733 16.5051C28.675 15.8251 27.8967 15.2251 27.055 14.7218L26.78 15.1968C27.5817 15.6751 28.32 16.2468 28.985 16.8935ZM26.4917 15.0301L26.7667 14.5551H26.765C25.92 14.0801 25.0133 13.7018 24.0617 13.4335L23.92 13.9635C24.825 14.2185 25.6867 14.5785 26.4917 15.0301ZM23.5983 13.8735L23.7417 13.3435H23.74C22.81 13.1068 21.84 12.9785 20.84 12.9651V13.5135C21.79 13.5268 22.7133 13.6501 23.5983 13.8735ZM20.8417 11.4568V11.9785C21.0817 11.9118 21.2633 11.7085 21.2967 11.4568H20.8417ZM21.295 11.2918C21.255 10.9835 20.9933 10.7435 20.6733 10.7435H20.6717C20.5033 10.7435 20.345 10.8101 20.2267 10.9285C20.1267 11.0285 20.0683 11.1551 20.05 11.2918H21.295ZM20.5083 11.4585H20.0517C20.0867 11.7101 20.2683 11.9135 20.5083 11.9801V11.4585ZM20.5083 13.5135V12.9651C19.5083 12.9785 18.5367 13.1068 17.6067 13.3435L17.75 13.8735C18.635 13.6501 19.5583 13.5268 20.5083 13.5135ZM17.4283 13.9635L17.285 13.4335C16.3333 13.7035 15.4267 14.0818 14.5817 14.5568L14.8567 15.0318C15.6617 14.5801 16.5233 14.2201 17.4283 13.9635ZM14.5683 15.1968L14.2933 14.7218C13.4517 15.2251 12.6733 15.8251 11.975 16.5051L12.3633 16.8935C13.0283 16.2468 13.7683 15.6751 14.5683 15.1968ZM11.3483 15.5951H11.065L11.2733 15.8035C11.31 15.7385 11.3367 15.6685 11.3483 15.5951ZM10.7267 14.8635C10.5667 14.8635 10.405 14.9251 10.2817 15.0485H10.2833C10.18 15.1518 10.12 15.2851 10.105 15.4285H10.795L10.8467 15.3768L10.8983 15.4285H11.3517C11.3367 15.2851 11.2767 15.1518 11.1733 15.0485C11.05 14.9251 10.8867 14.8635 10.7267 14.8635ZM10.2833 15.9401C10.4017 16.0601 10.56 16.1251 10.7283 16.1251H10.73C10.84 16.1251 10.9467 16.0935 11.04 16.0401L10.6117 15.6118L10.6283 15.5951H10.1083C10.13 15.7251 10.1883 15.8451 10.2833 15.9401ZM12.1283 17.1301L11.74 16.7418C11.06 17.4418 10.46 18.2185 9.95667 19.0601L10.4317 19.3351C10.9117 18.5335 11.4817 17.7951 12.1283 17.1301ZM10.265 19.6235L9.79 19.3485V19.3501C9.315 20.1951 8.93667 21.1001 8.66833 22.0518L9.19833 22.1935C9.455 21.2885 9.81333 20.4268 10.265 19.6235ZM9.11 22.5135L8.58 22.3718C8.34333 23.3018 8.215 24.2735 8.20167 25.2735H8.75C8.76333 24.3218 8.88667 23.3985 9.11 22.5135ZM7.21333 25.2718C7.14 25.0051 6.89833 24.8085 6.60833 24.8085V24.8068C6.29667 24.8068 6.03833 25.0351 5.98833 25.3318H6.60833V25.2718H7.21333ZM5.98333 25.5001C6.015 25.8185 6.28167 26.0701 6.60833 26.0701C6.89833 26.0701 7.14 25.8735 7.21333 25.6068H6.60833V25.5001H5.98333ZM8.75 25.6068H8.20167C8.215 26.6068 8.34333 27.5785 8.58 28.5085L9.11 28.3668C8.88667 27.4818 8.76333 26.5568 8.75 25.6068ZM9.19833 28.6868L8.66833 28.8285V28.8301C8.93667 29.7818 9.315 30.6868 9.79 31.5318L10.265 31.2568C9.815 30.4518 9.455 29.5918 9.19833 28.6868ZM10.4317 31.5451L9.95667 31.8201C10.46 32.6618 11.06 33.4401 11.74 34.1385L12.1283 33.7501C11.4817 33.0851 10.91 32.3451 10.4317 31.5451ZM11.0383 34.8401C10.945 34.7868 10.84 34.7551 10.7283 34.7551V34.7568C10.56 34.7568 10.4017 34.8218 10.2833 34.9418C10.185 35.0401 10.125 35.1668 10.1067 35.3035H10.645L10.61 35.2685L11.0383 34.8401ZM10.2833 35.8301C10.4017 35.9501 10.56 36.0151 10.7283 36.0151L10.73 36.0168C10.8983 36.0168 11.0567 35.9501 11.175 35.8318C11.2767 35.7301 11.3333 35.6018 11.3517 35.4685H10.8817L10.8467 35.5035L10.8117 35.4685H10.1067C10.125 35.6051 10.1833 35.7318 10.2833 35.8301ZM11.0467 35.3018H11.35C11.3383 35.2235 11.3133 35.1468 11.2733 35.0751L11.0467 35.3018ZM12.365 33.9851L11.9767 34.3735C12.6767 35.0535 13.4533 35.6535 14.295 36.1568L14.57 35.6818C13.7683 35.2035 13.03 34.6318 12.365 33.9851ZM14.8583 35.8485L14.5833 36.3235H14.585C15.425 36.7951 16.3233 37.1718 17.2667 37.4401L17.4083 36.9101C16.51 36.6535 15.6567 36.2968 14.8583 35.8485ZM17.645 39.1651H17.145L17.0133 39.6535C17.3 39.6635 17.565 39.4768 17.6417 39.1885C17.6433 39.1801 17.645 39.1651 17.645 39.1651ZM17.3317 38.4718L17.19 38.9985H17.66C17.65 38.7785 17.5267 38.5768 17.3317 38.4718ZM17.0083 38.3968C16.74 38.4085 16.4983 38.5901 16.425 38.8618H16.4267C16.415 38.9068 16.4083 38.9535 16.4067 38.9985H16.8467L17.0083 38.3968ZM16.42 39.1651C16.435 39.2251 16.455 39.2851 16.4867 39.3401L16.485 39.3418C16.5367 39.4301 16.6083 39.5018 16.6933 39.5551L16.7983 39.1651H16.42ZM16.9283 39.982C16.9644 39.9852 16.9989 39.9885 17.0333 39.9885C17.4583 39.9885 17.8483 39.7035 17.965 39.2751C18.09 38.8101 17.85 38.3318 17.42 38.1435L17.4983 37.8518C18.4617 38.0985 19.47 38.2335 20.5067 38.2468V38.5568C20.3133 38.5901 20.1333 38.6801 19.9917 38.8235C19.81 39.0051 19.71 39.2468 19.71 39.5051C19.71 39.7635 19.81 40.0051 19.9917 40.1868C20.1733 40.3685 20.415 40.4685 20.6717 40.4685H20.6733C20.93 40.4685 21.1717 40.3685 21.3533 40.1868C21.535 40.0051 21.6367 39.7618 21.6367 39.5051C21.6367 39.0301 21.2917 38.6368 20.84 38.5568V38.2468C21.8833 38.2335 22.8983 38.0985 23.8683 37.8485L23.945 38.1351C23.5033 38.3168 23.255 38.8018 23.3817 39.2751C23.4483 39.5235 23.6083 39.7318 23.8317 39.8601C23.98 39.9451 24.145 39.9901 24.3117 39.9901C24.355 39.9901 24.4 39.9868 24.445 39.9801L24.5983 40.5451C23.3383 40.8835 22.0233 41.0601 20.6767 41.0601C19.33 41.0601 18.0283 40.8835 16.775 40.5501L16.9283 39.982ZM16.365 40.7851C14.1533 40.1418 12.1267 39.0051 10.4417 37.4285V37.4301C10.2217 37.2251 9.975 37.2401 9.855 37.3585C9.825 37.3868 9.80667 37.4218 9.795 37.4585L9.885 37.3618C11.7083 39.0668 13.9133 40.2868 16.32 40.9535L16.365 40.7851ZM9.78833 37.4968C9.775 37.6051 9.82833 37.7368 9.94667 37.8701C11.725 39.5318 13.865 40.7285 16.2 41.3985L16.2767 41.1135C13.8517 40.4418 11.6283 39.2135 9.78833 37.4968ZM17.0483 41.9568C16.8433 41.9118 16.6383 41.8601 16.435 41.8068V41.8051L15.7217 44.4601H16.4267L17.0483 41.9568ZM50.1567 40.8651V44.4751H55.7083V40.8651H55.0967V41.3185C55.0967 41.4101 55.0217 41.4851 54.93 41.4851H54.3533C54.2617 41.4851 54.1867 41.4101 54.1867 41.3185V40.8651H53.9433V41.3185C53.9433 41.4101 53.8683 41.4851 53.7767 41.4851H53.2C53.1083 41.4851 53.0333 41.4101 53.0333 41.3185V40.8651H52.79V41.3185C52.79 41.4101 52.715 41.4851 52.6233 41.4851H52.0467C51.955 41.4851 51.88 41.4101 51.88 41.3185V40.8651H51.6367V41.3185C51.6367 41.4101 51.5617 41.4851 51.47 41.4851H50.8933C50.8017 41.4851 50.7267 41.4101 50.7267 41.3185V40.8651H50.1567ZM64.115 43.8335V44.4751H70.7533V43.8335H64.115ZM72.3377 39.3533C71.3581 39.9483 70.8678 40.3857 70.715 40.5335H70.58V40.0368L72.3377 39.3533ZM70.0317 40.5335H70.245V36.9301H70.0317V40.5335ZM70.0317 36.5968H70.245V32.3301H70.0317V36.5968ZM70.0317 31.9968H70.245V27.7301H70.0317V31.9968ZM70.0317 23.1301V27.3968H70.245V23.1301H70.0317ZM70.5783 25.0501V25.2868H82.8633V25.0501H70.5783ZM83.1983 23.1301V24.8835V27.3968H83.4117V23.1301H83.1983ZM83.4117 27.7301H83.1983V31.9968H83.4117V27.7301ZM83.4117 32.3301H83.1983V36.5968H83.4117V32.3301ZM83.4117 40.5335V36.9301H83.1983V40.5335H83.4117ZM82.865 40.5318V40.0435L82.8667 40.0418L81.075 39.3451C82.06 39.9451 82.555 40.3851 82.7083 40.5318H82.865ZM89.24 43.8335H82.6017V44.4751H89.24V43.8335Z" fill="white"/>
</svg>
