<svg id="Group_105134" data-name="Group 105134" xmlns="http://www.w3.org/2000/svg" xmlns:xlink="http://www.w3.org/1999/xlink" width="123.488" height="81.62" viewBox="0 0 123.488 81.62">
  <defs>
    <clipPath id="clip-path">
      <rect id="Rectangle_44703" data-name="Rectangle 44703" width="123.488" height="81.62" fill="#fff"/>
    </clipPath>
  </defs>
  <path id="Path_75390" data-name="Path 75390" d="M239.3,115.836h-.651v-7.082h-2.89v-1.346h-6.864V66.2h9.477v.65h-8.826v39.906h6.863V108.1h2.89Z" transform="translate(-129.415 -37.429)" fill="#fff"/>
  <rect id="Rectangle_44591" data-name="Rectangle 44591" width="8.116" height="0.65" transform="translate(108.628 17.677)" fill="#fff"/>
  <path id="Path_75391" data-name="Path 75391" d="M220.761,160.865v-1.346h6v.651h-5.351v1.346h-2.89V168.6h-.65v-7.732Z" transform="translate(-123.184 -90.191)" fill="#fff"/>
  <rect id="Rectangle_44592" data-name="Rectangle 44592" width="0.651" height="60.542" transform="translate(116.094 17.864)" fill="#fff"/>
  <rect id="Rectangle_44593" data-name="Rectangle 44593" width="0.651" height="51.066" transform="translate(108.628 17.864)" fill="#fff"/>
  <path id="Path_75392" data-name="Path 75392" d="M272.868,110.23h-.651V99.588l-.512-.512V97.551h-1.354V96.066l-3.005-3.005.46-.46,3.2,3.2v1.1h1.355v1.907l.512.512Z" transform="translate(-151.156 -52.356)" fill="#fff"/>
  <path id="Path_75393" data-name="Path 75393" d="M270.563,70.079v2.107h-2.682v.65h3.333V70.73h1.306v2.107H274.3v45.192h.65V72.186H273.17V70.079Z" transform="translate(-151.459 -39.623)" fill="#fff"/>
  <rect id="Rectangle_44594" data-name="Rectangle 44594" width="5.687" height="0.443" transform="translate(99.474 71.034)" fill="#fff"/>
  <rect id="Rectangle_44595" data-name="Rectangle 44595" width="11.132" height="0.443" transform="translate(96.859 72.484)" fill="#fff"/>
  <rect id="Rectangle_44596" data-name="Rectangle 44596" width="11.132" height="0.443" transform="translate(96.859 73.934)" fill="#fff"/>
  <rect id="Rectangle_44597" data-name="Rectangle 44597" width="11.132" height="0.443" transform="translate(96.859 75.384)" fill="#fff"/>
  <rect id="Rectangle_44598" data-name="Rectangle 44598" width="11.132" height="0.443" transform="translate(96.859 76.834)" fill="#fff"/>
  <rect id="Rectangle_44599" data-name="Rectangle 44599" width="0.362" height="37.906" transform="translate(101.701 30.782)" fill="#fff"/>
  <rect id="Rectangle_44600" data-name="Rectangle 44600" width="0.361" height="37.906" transform="translate(103.004 30.782)" fill="#fff"/>
  <rect id="Rectangle_44601" data-name="Rectangle 44601" width="0.361" height="37.906" transform="translate(104.306 30.782)" fill="#fff"/>
  <rect id="Rectangle_44602" data-name="Rectangle 44602" width="0.362" height="37.906" transform="translate(105.608 30.782)" fill="#fff"/>
  <rect id="Rectangle_44603" data-name="Rectangle 44603" width="0.362" height="37.906" transform="translate(106.911 30.782)" fill="#fff"/>
  <rect id="Rectangle_44604" data-name="Rectangle 44604" width="0.574" height="1.445" transform="translate(110.73 19.944)" fill="#fff"/>
  <rect id="Rectangle_44605" data-name="Rectangle 44605" width="0.574" height="1.445" transform="translate(112.113 19.944)" fill="#fff"/>
  <rect id="Rectangle_44606" data-name="Rectangle 44606" width="0.574" height="1.445" transform="translate(110.73 22.774)" fill="#fff"/>
  <rect id="Rectangle_44607" data-name="Rectangle 44607" width="0.574" height="1.445" transform="translate(112.113 22.774)" fill="#fff"/>
  <rect id="Rectangle_44608" data-name="Rectangle 44608" width="0.574" height="1.445" transform="translate(110.73 25.604)" fill="#fff"/>
  <rect id="Rectangle_44609" data-name="Rectangle 44609" width="0.574" height="1.445" transform="translate(112.113 25.604)" fill="#fff"/>
  <rect id="Rectangle_44610" data-name="Rectangle 44610" width="0.574" height="1.445" transform="translate(110.73 28.434)" fill="#fff"/>
  <rect id="Rectangle_44611" data-name="Rectangle 44611" width="0.574" height="1.445" transform="translate(112.113 28.434)" fill="#fff"/>
  <rect id="Rectangle_44612" data-name="Rectangle 44612" width="0.574" height="1.445" transform="translate(110.73 31.263)" fill="#fff"/>
  <rect id="Rectangle_44613" data-name="Rectangle 44613" width="0.574" height="1.445" transform="translate(112.113 31.263)" fill="#fff"/>
  <rect id="Rectangle_44614" data-name="Rectangle 44614" width="0.574" height="1.445" transform="translate(110.73 34.093)" fill="#fff"/>
  <rect id="Rectangle_44615" data-name="Rectangle 44615" width="0.574" height="1.445" transform="translate(112.113 34.093)" fill="#fff"/>
  <rect id="Rectangle_44616" data-name="Rectangle 44616" width="0.574" height="1.445" transform="translate(110.73 36.923)" fill="#fff"/>
  <rect id="Rectangle_44617" data-name="Rectangle 44617" width="0.574" height="1.445" transform="translate(112.113 36.923)" fill="#fff"/>
  <rect id="Rectangle_44618" data-name="Rectangle 44618" width="0.574" height="1.445" transform="translate(110.73 39.752)" fill="#fff"/>
  <rect id="Rectangle_44619" data-name="Rectangle 44619" width="0.574" height="1.445" transform="translate(112.113 39.752)" fill="#fff"/>
  <rect id="Rectangle_44620" data-name="Rectangle 44620" width="0.574" height="1.445" transform="translate(110.73 42.582)" fill="#fff"/>
  <rect id="Rectangle_44621" data-name="Rectangle 44621" width="0.574" height="1.445" transform="translate(112.113 42.582)" fill="#fff"/>
  <rect id="Rectangle_44622" data-name="Rectangle 44622" width="0.574" height="1.445" transform="translate(110.73 45.412)" fill="#fff"/>
  <rect id="Rectangle_44623" data-name="Rectangle 44623" width="0.574" height="1.445" transform="translate(112.113 45.412)" fill="#fff"/>
  <rect id="Rectangle_44624" data-name="Rectangle 44624" width="0.574" height="1.445" transform="translate(110.73 48.241)" fill="#fff"/>
  <rect id="Rectangle_44625" data-name="Rectangle 44625" width="0.574" height="1.445" transform="translate(112.113 48.241)" fill="#fff"/>
  <rect id="Rectangle_44626" data-name="Rectangle 44626" width="0.574" height="1.445" transform="translate(110.73 51.071)" fill="#fff"/>
  <rect id="Rectangle_44627" data-name="Rectangle 44627" width="0.574" height="1.445" transform="translate(112.113 51.071)" fill="#fff"/>
  <rect id="Rectangle_44628" data-name="Rectangle 44628" width="0.574" height="1.445" transform="translate(110.73 53.9)" fill="#fff"/>
  <rect id="Rectangle_44629" data-name="Rectangle 44629" width="0.574" height="1.445" transform="translate(112.113 53.9)" fill="#fff"/>
  <rect id="Rectangle_44630" data-name="Rectangle 44630" width="0.574" height="1.445" transform="translate(110.73 56.73)" fill="#fff"/>
  <rect id="Rectangle_44631" data-name="Rectangle 44631" width="0.574" height="1.445" transform="translate(112.113 56.73)" fill="#fff"/>
  <rect id="Rectangle_44632" data-name="Rectangle 44632" width="0.574" height="1.445" transform="translate(110.73 59.56)" fill="#fff"/>
  <rect id="Rectangle_44633" data-name="Rectangle 44633" width="0.574" height="1.445" transform="translate(112.113 59.56)" fill="#fff"/>
  <rect id="Rectangle_44634" data-name="Rectangle 44634" width="0.574" height="1.445" transform="translate(110.73 62.39)" fill="#fff"/>
  <rect id="Rectangle_44635" data-name="Rectangle 44635" width="0.574" height="1.445" transform="translate(112.113 62.39)" fill="#fff"/>
  <rect id="Rectangle_44636" data-name="Rectangle 44636" width="0.574" height="1.445" transform="translate(110.73 65.219)" fill="#fff"/>
  <rect id="Rectangle_44637" data-name="Rectangle 44637" width="0.574" height="1.445" transform="translate(112.113 65.219)" fill="#fff"/>
  <rect id="Rectangle_44638" data-name="Rectangle 44638" width="0.574" height="1.445" transform="translate(110.73 68.049)" fill="#fff"/>
  <rect id="Rectangle_44639" data-name="Rectangle 44639" width="0.574" height="1.445" transform="translate(112.113 68.049)" fill="#fff"/>
  <rect id="Rectangle_44640" data-name="Rectangle 44640" width="0.574" height="1.445" transform="translate(110.73 70.879)" fill="#fff"/>
  <rect id="Rectangle_44641" data-name="Rectangle 44641" width="0.574" height="1.445" transform="translate(112.113 70.879)" fill="#fff"/>
  <rect id="Rectangle_44642" data-name="Rectangle 44642" width="0.574" height="1.445" transform="translate(110.73 73.708)" fill="#fff"/>
  <rect id="Rectangle_44643" data-name="Rectangle 44643" width="0.574" height="1.445" transform="translate(112.113 73.708)" fill="#fff"/>
  <rect id="Rectangle_44644" data-name="Rectangle 44644" width="0.574" height="1.445" transform="translate(110.73 76.538)" fill="#fff"/>
  <rect id="Rectangle_44645" data-name="Rectangle 44645" width="0.574" height="1.445" transform="translate(112.113 76.538)" fill="#fff"/>
  <rect id="Rectangle_44646" data-name="Rectangle 44646" width="4.39" height="0.542" transform="translate(117.493 34.274)" fill="#fff"/>
  <rect id="Rectangle_44647" data-name="Rectangle 44647" width="4.39" height="0.542" transform="translate(117.493 35.538)" fill="#fff"/>
  <rect id="Rectangle_44648" data-name="Rectangle 44648" width="4.39" height="0.542" transform="translate(117.493 36.802)" fill="#fff"/>
  <rect id="Rectangle_44649" data-name="Rectangle 44649" width="4.39" height="0.542" transform="translate(117.493 38.066)" fill="#fff"/>
  <rect id="Rectangle_44650" data-name="Rectangle 44650" width="4.39" height="0.542" transform="translate(117.493 39.331)" fill="#fff"/>
  <rect id="Rectangle_44651" data-name="Rectangle 44651" width="1.671" height="0.542" transform="translate(120.212 40.595)" fill="#fff"/>
  <rect id="Rectangle_44652" data-name="Rectangle 44652" width="1.671" height="0.542" transform="translate(120.212 41.859)" fill="#fff"/>
  <rect id="Rectangle_44653" data-name="Rectangle 44653" width="0.456" height="0.922" transform="translate(117.704 46.27)" fill="#fff"/>
  <rect id="Rectangle_44654" data-name="Rectangle 44654" width="0.456" height="0.922" transform="translate(117.704 50.255)" fill="#fff"/>
  <rect id="Rectangle_44655" data-name="Rectangle 44655" width="0.456" height="0.922" transform="translate(117.704 52.247)" fill="#fff"/>
  <rect id="Rectangle_44656" data-name="Rectangle 44656" width="0.456" height="0.922" transform="translate(117.704 54.239)" fill="#fff"/>
  <rect id="Rectangle_44657" data-name="Rectangle 44657" width="0.456" height="0.922" transform="translate(117.704 58.224)" fill="#fff"/>
  <rect id="Rectangle_44658" data-name="Rectangle 44658" width="0.456" height="0.922" transform="translate(117.704 60.217)" fill="#fff"/>
  <rect id="Rectangle_44659" data-name="Rectangle 44659" width="0.456" height="0.922" transform="translate(117.704 62.209)" fill="#fff"/>
  <rect id="Rectangle_44660" data-name="Rectangle 44660" width="0.456" height="0.922" transform="translate(117.704 66.194)" fill="#fff"/>
  <rect id="Rectangle_44661" data-name="Rectangle 44661" width="0.456" height="0.922" transform="translate(117.704 68.187)" fill="#fff"/>
  <rect id="Rectangle_44662" data-name="Rectangle 44662" width="0.456" height="0.922" transform="translate(117.704 70.179)" fill="#fff"/>
  <rect id="Rectangle_44663" data-name="Rectangle 44663" width="0.456" height="0.922" transform="translate(117.704 74.164)" fill="#fff"/>
  <rect id="Rectangle_44664" data-name="Rectangle 44664" width="0.456" height="0.922" transform="translate(117.704 76.156)" fill="#fff"/>
  <rect id="Rectangle_44665" data-name="Rectangle 44665" width="0.456" height="0.922" transform="translate(118.928 46.27)" fill="#fff"/>
  <rect id="Rectangle_44666" data-name="Rectangle 44666" width="0.456" height="0.922" transform="translate(118.928 48.262)" fill="#fff"/>
  <rect id="Rectangle_44667" data-name="Rectangle 44667" width="0.456" height="0.922" transform="translate(118.928 50.255)" fill="#fff"/>
  <rect id="Rectangle_44668" data-name="Rectangle 44668" width="0.456" height="0.922" transform="translate(118.928 54.239)" fill="#fff"/>
  <rect id="Rectangle_44669" data-name="Rectangle 44669" width="0.456" height="0.922" transform="translate(118.928 56.232)" fill="#fff"/>
  <rect id="Rectangle_44670" data-name="Rectangle 44670" width="0.456" height="0.922" transform="translate(118.928 58.224)" fill="#fff"/>
  <rect id="Rectangle_44671" data-name="Rectangle 44671" width="0.456" height="0.922" transform="translate(118.928 62.209)" fill="#fff"/>
  <rect id="Rectangle_44672" data-name="Rectangle 44672" width="0.456" height="0.922" transform="translate(118.928 64.202)" fill="#fff"/>
  <rect id="Rectangle_44673" data-name="Rectangle 44673" width="0.456" height="0.922" transform="translate(118.928 66.194)" fill="#fff"/>
  <rect id="Rectangle_44674" data-name="Rectangle 44674" width="0.456" height="0.922" transform="translate(118.928 70.179)" fill="#fff"/>
  <rect id="Rectangle_44675" data-name="Rectangle 44675" width="0.456" height="0.922" transform="translate(118.928 72.171)" fill="#fff"/>
  <rect id="Rectangle_44676" data-name="Rectangle 44676" width="0.456" height="0.922" transform="translate(118.928 74.164)" fill="#fff"/>
  <g id="Group_105133" data-name="Group 105133">
    <g id="Group_105132" data-name="Group 105132" clip-path="url(#clip-path)">
      <path id="Path_75394" data-name="Path 75394" d="M126.51,59.91l1.688-9.18,1.688,9.181.278-1.657a.294.294,0,0,1,.03-.088l-1.6-8.683-.4-.289-.4.29-1.6,8.682a.3.3,0,0,1,.03.089Z" transform="translate(-71.355 -27.814)" fill="#fff"/>
      <path id="Path_75395" data-name="Path 75395" d="M143.808,118h-.969v.3a.309.309,0,0,1-.309.309h-1.376v.01h2.036v.53h-.155v.618h.772Z" transform="translate(-79.807 -66.718)" fill="#fff"/>
      <path id="Path_75396" data-name="Path 75396" d="M115.1,119.15h-.155v-.53h2.035l0-.01h-1.376a.309.309,0,0,1-.309-.309V118h-.969v1.766h.772Z" transform="translate(-64.642 -66.718)" fill="#fff"/>
      <path id="Path_75397" data-name="Path 75397" d="M116.725,147.007V121.261h1.236v-.618h-1.853v26.363Z" transform="translate(-65.647 -68.212)" fill="#fff"/>
      <path id="Path_75398" data-name="Path 75398" d="M142.454,147.007h.618V120.644h-1.853v.618h1.236Z" transform="translate(-79.845 -68.212)" fill="#fff"/>
      <rect id="Rectangle_44677" data-name="Rectangle 44677" width="0.618" height="12.399" transform="translate(60.757 66.397)" fill="#fff"/>
      <rect id="Rectangle_44678" data-name="Rectangle 44678" width="0.618" height="12.399" transform="translate(52.314 66.397)" fill="#fff"/>
      <path id="Path_75399" data-name="Path 75399" d="M130.432,154.326h-2.414v4.127h2.414Zm-.618,3.509h-1.179v-2.891h1.179Z" transform="translate(-72.381 -87.255)" fill="#fff"/>
      <path id="Path_75400" data-name="Path 75400" d="M129.432,149.258h-.618v.91h-7.825v-.91h-.618v1.528h9.061v-1.528Z" transform="translate(-68.057 -84.39)" fill="#fff"/>
      <path id="Path_75401" data-name="Path 75401" d="M128.814,135.573v5.33h-7.825v-5.33h-.618v5.948h9.06v-5.948Z" transform="translate(-68.058 -76.652)" fill="#fff"/>
      <path id="Path_75402" data-name="Path 75402" d="M120.371,133.563h9.061v-1.545h-.618v.927h-7.825v-.927h-.618v1.545Z" transform="translate(-68.057 -74.642)" fill="#fff"/>
      <path id="Path_75403" data-name="Path 75403" d="M137.7,89.924v10.625a2.953,2.953,0,0,1,.618.453V89.924Z" transform="translate(-77.856 -50.843)" fill="#fff"/>
      <path id="Path_75404" data-name="Path 75404" d="M123.085,100.549V89.924h-.618V101a2.966,2.966,0,0,1,.618-.453" transform="translate(-69.242 -50.843)" fill="#fff"/>
      <path id="Path_75405" data-name="Path 75405" d="M132.783,85.77a.309.309,0,0,1-.309.309h.811a.309.309,0,0,1-.309-.309v-.309h-.193Z" transform="translate(-74.9 -48.319)" fill="#fff"/>
      <path id="Path_75406" data-name="Path 75406" d="M122.248,87.4h7.264V85.462h-.953v.309a.309.309,0,0,1-.309.309h.644v.7h-7.288v-.7h.644a.309.309,0,0,1-.309-.309v-.309h-.953V87.4h1.26Z" transform="translate(-68.406 -48.32)" fill="#fff"/>
      <path id="Path_75407" data-name="Path 75407" d="M127.752,85.77v-.309h-.193v.309a.309.309,0,0,1-.309.309h.811a.309.309,0,0,1-.309-.309" transform="translate(-71.947 -48.319)" fill="#fff"/>
      <path id="Path_75408" data-name="Path 75408" d="M120.792,114.165a.309.309,0,0,1-.309.309H120.4v.01a3.062,3.062,0,0,0-.027.389v5.085h9.061v-5.085a3.065,3.065,0,0,0-.027-.389l0-.01h-.083a.309.309,0,0,1-.309-.309v-.814a2.966,2.966,0,0,0-1.108-1.064,2.628,2.628,0,0,0-1.072-.329c-.536-.037-.921-.749-1.118-1.273h-.653c.176.54.7,1.818,1.728,1.889a2.281,2.281,0,0,1,2.026,2.3v4.467h-7.825v-4.467a2.281,2.281,0,0,1,2.026-2.3c1.027-.071,1.552-1.349,1.729-1.889h-.654c-.2.524-.582,1.236-1.118,1.273a2.632,2.632,0,0,0-1.072.329,2.974,2.974,0,0,0-1.108,1.064Z" transform="translate(-68.057 -62.581)" fill="#fff"/>
      <path id="Path_75409" data-name="Path 75409" d="M127.967,118.2v2.748h2.458v-2.76a1.15,1.15,0,0,0-1.239-1.062,1.123,1.123,0,0,0-1.219,1.073m1.84.01v2.12h-1.223v-2.126c0-.077.035-.46.6-.46.538,0,.612.349.621.466" transform="translate(-72.352 -66.224)" fill="#fff"/>
      <path id="Path_75410" data-name="Path 75410" d="M140.251,114.422a.309.309,0,0,0,.309.309h1.459a.309.309,0,0,0,.309-.309v-3.047a.309.309,0,0,0-.11-.235l.03.183a.308.308,0,0,1-.3.36h-.234v2.429h-.842v-2.429h-.234a.309.309,0,0,1-.3-.36l.031-.183a.309.309,0,0,0-.11.235v3.047Z" transform="translate(-79.297 -62.838)" fill="#fff"/>
      <path id="Path_75411" data-name="Path 75411" d="M140.5,106.388a.309.309,0,0,0,.236.109h1.309a.308.308,0,0,0,.3-.36l-.03-.183-.624-3.728a.309.309,0,0,0-.609,0l-.624,3.728-.031.183a.31.31,0,0,0,.069.251m.89-2.24.29,1.732h-.58Z" transform="translate(-79.395 -57.652)" fill="#fff"/>
      <path id="Path_75412" data-name="Path 75412" d="M116.869,114.73h1.459a.309.309,0,0,0,.309-.309v-3.047a.305.305,0,0,0-.11-.234l.031.183a.309.309,0,0,1-.3.36h-.234v2.429h-.842v-2.429h-.233a.309.309,0,0,1-.305-.36l.031-.183a.307.307,0,0,0-.11.234v3.047a.309.309,0,0,0,.309.309" transform="translate(-65.903 -62.838)" fill="#fff"/>
      <path id="Path_75413" data-name="Path 75413" d="M116.806,106.388a.309.309,0,0,0,.236.109h1.309a.309.309,0,0,0,.3-.36l-.031-.183L118,102.225a.309.309,0,0,0-.609,0l-.624,3.729-.031.183a.31.31,0,0,0,.069.251m.891-2.24.289,1.732h-.579Z" transform="translate(-66 -57.652)" fill="#fff"/>
      <path id="Path_75414" data-name="Path 75414" d="M130.343,108.328a1.524,1.524,0,0,0-3,0,.309.309,0,0,0,.309.309h2.387a.309.309,0,0,0,.309-.309m-2.276-.309a1.052,1.052,0,0,1,1.548,0Z" transform="translate(-71.996 -60.532)" fill="#fff"/>
      <path id="Path_75415" data-name="Path 75415" d="M127.4,93.511a2.609,2.609,0,1,0,2.609,2.609,2.612,2.612,0,0,0-2.609-2.609m0,4.6a1.991,1.991,0,1,1,1.991-1.991,1.994,1.994,0,0,1-1.991,1.991" transform="translate(-70.557 -52.871)" fill="#fff"/>
      <path id="Path_75416" data-name="Path 75416" d="M123.49,82.212h1.459a.309.309,0,0,0,.309-.309V78.856a.309.309,0,0,0-.11-.235l.031.184a.309.309,0,0,1-.3.36h-.234v2.429H123.8V79.165h-.234a.309.309,0,0,1-.3-.36l.03-.184a.309.309,0,0,0-.11.235V81.9a.309.309,0,0,0,.309.309" transform="translate(-69.646 -44.452)" fill="#fff"/>
      <path id="Path_75417" data-name="Path 75417" d="M123.427,73.869a.31.31,0,0,0,.236.109h1.309a.309.309,0,0,0,.3-.359l-.031-.184-.347-2.073-.277-1.655a.3.3,0,0,0-.03-.089.308.308,0,0,0-.579.089l-.625,3.728-.03.183a.308.308,0,0,0,.069.251m1.18-.508h-.58l.29-1.732Z" transform="translate(-69.744 -39.266)" fill="#fff"/>
      <path id="Path_75418" data-name="Path 75418" d="M130.482,81.9V78.856a.307.307,0,0,0-.11-.235l.03.183a.308.308,0,0,1-.3.36h-.234v2.429h-.842V79.164h-.234a.308.308,0,0,1-.3-.36l.031-.183a.306.306,0,0,0-.11.235V81.9a.309.309,0,0,0,.309.309h1.459a.309.309,0,0,0,.309-.309" transform="translate(-72.6 -44.452)" fill="#fff"/>
      <path id="Path_75419" data-name="Path 75419" d="M128.651,73.869a.309.309,0,0,0,.236.109H130.2a.308.308,0,0,0,.3-.36l-.031-.183-.624-3.728a.309.309,0,0,0-.609,0l-.624,3.729-.031.183a.31.31,0,0,0,.069.251m.891-2.24.289,1.732h-.579Z" transform="translate(-72.697 -39.266)" fill="#fff"/>
      <path id="Path_75420" data-name="Path 75420" d="M135.558,79.055a.308.308,0,0,1-.236.11h-.234v2.429h-.841V79.165h-.234a.309.309,0,0,1-.3-.36l.03-.183a.309.309,0,0,0-.11.235V81.9a.309.309,0,0,0,.309.309H135.4a.309.309,0,0,0,.309-.309V78.856a.308.308,0,0,0-.11-.235l.03.184a.308.308,0,0,1-.069.25" transform="translate(-75.553 -44.452)" fill="#fff"/>
      <path id="Path_75421" data-name="Path 75421" d="M134.183,71.363l-.347,2.072-.031.183a.308.308,0,0,0,.3.36h1.309a.308.308,0,0,0,.3-.359l-.03-.184-.624-3.728a.308.308,0,0,0-.579-.088.3.3,0,0,0-.03.088Zm.872,2h-.58l.291-1.732Z" transform="translate(-75.651 -39.266)" fill="#fff"/>
      <path id="Path_75422" data-name="Path 75422" d="M126.456,42.889l.4.289,1.663,1.208-.788-2.423,2.061-1.5h-2.548l-.787-2.422-.788,2.422H123.12l2.061,1.5-.787,2.423,1.663-1.207Zm-1.434-1.805h1.1l.339-1.041.339,1.041h1.1l-.887.644.339,1.042-.886-.645-.887.645.339-1.042Z" transform="translate(-69.612 -21.51)" fill="#fff"/>
      <rect id="Rectangle_44679" data-name="Rectangle 44679" width="0.517" height="1.468" transform="translate(43.153 47.191)" fill="#fff"/>
      <rect id="Rectangle_44680" data-name="Rectangle 44680" width="0.517" height="1.468" transform="translate(43.153 47.191)" fill="#fff"/>
      <rect id="Rectangle_44681" data-name="Rectangle 44681" width="0.517" height="1.468" transform="translate(4.511 47.191)" fill="#fff"/>
      <rect id="Rectangle_44682" data-name="Rectangle 44682" width="0.517" height="1.468" transform="translate(4.511 47.191)" fill="#fff"/>
      <path id="Path_75423" data-name="Path 75423" d="M9.7,106.668H21.21v-.517H8.777v-.441H20.435v-.516H8.26v1.474H9.7Z" transform="translate(-4.67 -59.476)" fill="#fff"/>
      <path id="Path_75424" data-name="Path 75424" d="M9.7,106.668H21.21v-.517H8.777v-.441H20.435v-.516H8.26v1.474H9.7Z" transform="translate(-4.67 -59.476)" fill="#fff"/>
      <path id="Path_75425" data-name="Path 75425" d="M73.581,105.71H85.238v.441H72.806v.517H85.755v-1.474H73.581Z" transform="translate(-41.164 -59.476)" fill="#fff"/>
      <path id="Path_75426" data-name="Path 75426" d="M73.581,105.71H85.238v.441H72.806v.517H85.755v-1.474H73.581Z" transform="translate(-41.164 -59.476)" fill="#fff"/>
      <path id="Path_75427" data-name="Path 75427" d="M105.188,125.953l.265,22.241h.517l-.265-22.241Z" transform="translate(-59.473 -71.214)" fill="#fff"/>
      <path id="Path_75428" data-name="Path 75428" d="M105.188,125.953l.265,22.241h.517l-.265-22.241Z" transform="translate(-59.473 -71.214)" fill="#fff"/>
      <path id="Path_75429" data-name="Path 75429" d="M100.581,148.194l.265-22.241h-.517l-.265,22.241Z" transform="translate(-56.576 -71.213)" fill="#fff"/>
      <path id="Path_75430" data-name="Path 75430" d="M100.581,148.194l.265-22.241h-.517l-.265,22.241Z" transform="translate(-56.576 -71.213)" fill="#fff"/>
      <path id="Path_75431" data-name="Path 75431" d="M101.417,177.129H98.051v1.8h4.758v-1.8h-1.392Zm.875.517v.769H98.568v-.769h3.725Z" transform="translate(-55.438 -100.148)" fill="#fff"/>
      <path id="Path_75432" data-name="Path 75432" d="M101.417,177.129H98.051v1.8h4.758v-1.8h-1.392Zm.875.517v.769H98.568v-.769h3.725Z" transform="translate(-55.438 -100.148)" fill="#fff"/>
      <path id="Path_75433" data-name="Path 75433" d="M100.164,124.746h2.751v-.928H102.4v.412H99.375v-.412h-.517v.928h1.306Z" transform="translate(-55.894 -70.006)" fill="#fff"/>
      <path id="Path_75434" data-name="Path 75434" d="M100.164,124.746h2.751v-.928H102.4v.412H99.375v-.412h-.517v.928h1.306Z" transform="translate(-55.894 -70.006)" fill="#fff"/>
      <path id="Path_75435" data-name="Path 75435" d="M81.344,148.194l.265-22.241h-.517l-.265,22.241Z" transform="translate(-45.699 -71.213)" fill="#fff"/>
      <path id="Path_75436" data-name="Path 75436" d="M81.344,148.194l.265-22.241h-.517l-.265,22.241Z" transform="translate(-45.699 -71.213)" fill="#fff"/>
      <path id="Path_75437" data-name="Path 75437" d="M85.95,125.953l.265,22.241h.517l-.265-22.241Z" transform="translate(-48.596 -71.214)" fill="#fff"/>
      <path id="Path_75438" data-name="Path 75438" d="M85.95,125.953l.265,22.241h.517l-.265-22.241Z" transform="translate(-48.596 -71.214)" fill="#fff"/>
      <path id="Path_75439" data-name="Path 75439" d="M82.18,177.129H78.814v1.8h4.758v-1.8H82.18Zm.875.517v.769H79.331v-.769h3.725Z" transform="translate(-44.561 -100.148)" fill="#fff"/>
      <path id="Path_75440" data-name="Path 75440" d="M82.18,177.129H78.814v1.8h4.758v-1.8H82.18Zm.875.517v.769H79.331v-.769h3.725Z" transform="translate(-44.561 -100.148)" fill="#fff"/>
      <path id="Path_75441" data-name="Path 75441" d="M83.161,123.817v.412H80.137v-.412H79.62v.928h4.057v-.928Z" transform="translate(-45.017 -70.006)" fill="#fff"/>
      <path id="Path_75442" data-name="Path 75442" d="M83.161,123.817v.412H80.137v-.412H79.62v.928h4.057v-.928Z" transform="translate(-45.017 -70.006)" fill="#fff"/>
      <path id="Path_75443" data-name="Path 75443" d="M66.713,125.953l.265,22.241h.517l-.265-22.241Z" transform="translate(-37.719 -71.214)" fill="#fff"/>
      <path id="Path_75444" data-name="Path 75444" d="M66.713,125.953l.265,22.241h.517l-.265-22.241Z" transform="translate(-37.719 -71.214)" fill="#fff"/>
      <path id="Path_75445" data-name="Path 75445" d="M62.106,148.194l.265-22.241h-.517l-.265,22.241Z" transform="translate(-34.822 -71.213)" fill="#fff"/>
      <path id="Path_75446" data-name="Path 75446" d="M62.106,148.194l.265-22.241h-.517l-.265,22.241Z" transform="translate(-34.822 -71.213)" fill="#fff"/>
      <path id="Path_75447" data-name="Path 75447" d="M62.942,177.129H59.576v1.8h4.758v-1.8H62.942Zm.875.517v.769H60.093v-.769h3.725Z" transform="translate(-33.684 -100.148)" fill="#fff"/>
      <path id="Path_75448" data-name="Path 75448" d="M62.942,177.129H59.576v1.8h4.758v-1.8H62.942Zm.875.517v.769H60.093v-.769h3.725Z" transform="translate(-33.684 -100.148)" fill="#fff"/>
      <path id="Path_75449" data-name="Path 75449" d="M63.922,123.817v.412H60.9v-.412h-.517v.928h4.057v-.928Z" transform="translate(-34.14 -70.006)" fill="#fff"/>
      <path id="Path_75450" data-name="Path 75450" d="M63.922,123.817v.412H60.9v-.412h-.517v.928h4.057v-.928Z" transform="translate(-34.14 -70.006)" fill="#fff"/>
      <path id="Path_75451" data-name="Path 75451" d="M42.868,148.194l.265-22.241h-.517l-.265,22.241Z" transform="translate(-23.945 -71.213)" fill="#fff"/>
      <path id="Path_75452" data-name="Path 75452" d="M42.868,148.194l.265-22.241h-.517l-.265,22.241Z" transform="translate(-23.945 -71.213)" fill="#fff"/>
      <path id="Path_75453" data-name="Path 75453" d="M47.475,125.953l.265,22.241h.517l-.265-22.241Z" transform="translate(-26.842 -71.214)" fill="#fff"/>
      <path id="Path_75454" data-name="Path 75454" d="M47.475,125.953l.265,22.241h.517l-.265-22.241Z" transform="translate(-26.842 -71.214)" fill="#fff"/>
      <path id="Path_75455" data-name="Path 75455" d="M43.705,177.129H40.339v1.8H45.1v-1.8H43.705Zm.875.517v.769H40.855v-.769H44.58Z" transform="translate(-22.808 -100.148)" fill="#fff"/>
      <path id="Path_75456" data-name="Path 75456" d="M43.705,177.129H40.339v1.8H45.1v-1.8H43.705Zm.875.517v.769H40.855v-.769H44.58Z" transform="translate(-22.808 -100.148)" fill="#fff"/>
      <path id="Path_75457" data-name="Path 75457" d="M44.685,123.817v.412H41.661v-.412h-.517v.928H45.2v-.928Z" transform="translate(-23.263 -70.006)" fill="#fff"/>
      <path id="Path_75458" data-name="Path 75458" d="M44.685,123.817v.412H41.661v-.412h-.517v.928H45.2v-.928Z" transform="translate(-23.263 -70.006)" fill="#fff"/>
      <path id="Path_75459" data-name="Path 75459" d="M23.63,148.194l.265-22.241h-.517l-.265,22.241Z" transform="translate(-13.068 -71.213)" fill="#fff"/>
      <path id="Path_75460" data-name="Path 75460" d="M23.63,148.194l.265-22.241h-.517l-.265,22.241Z" transform="translate(-13.068 -71.213)" fill="#fff"/>
      <path id="Path_75461" data-name="Path 75461" d="M28.237,125.953l.265,22.241h.517l-.265-22.241Z" transform="translate(-15.965 -71.214)" fill="#fff"/>
      <path id="Path_75462" data-name="Path 75462" d="M28.237,125.953l.265,22.241h.517l-.265-22.241Z" transform="translate(-15.965 -71.214)" fill="#fff"/>
      <path id="Path_75463" data-name="Path 75463" d="M24.467,177.129H21.1v1.8h4.758v-1.8H24.467Zm.875.517v.769H21.618v-.769h3.724Z" transform="translate(-11.93 -100.148)" fill="#fff"/>
      <path id="Path_75464" data-name="Path 75464" d="M24.467,177.129H21.1v1.8h4.758v-1.8H24.467Zm.875.517v.769H21.618v-.769h3.724Z" transform="translate(-11.93 -100.148)" fill="#fff"/>
      <path id="Path_75465" data-name="Path 75465" d="M25.447,123.817v.412H22.424v-.412h-.517v.928h4.057v-.928Z" transform="translate(-12.386 -70.006)" fill="#fff"/>
      <path id="Path_75466" data-name="Path 75466" d="M25.447,123.817v.412H22.424v-.412h-.517v.928h4.057v-.928Z" transform="translate(-12.386 -70.006)" fill="#fff"/>
      <path id="Path_75467" data-name="Path 75467" d="M9,125.953l.265,22.241h.517l-.265-22.241Z" transform="translate(-5.088 -71.214)" fill="#fff"/>
      <path id="Path_75468" data-name="Path 75468" d="M9,125.953l.265,22.241h.517l-.265-22.241Z" transform="translate(-5.088 -71.214)" fill="#fff"/>
      <path id="Path_75469" data-name="Path 75469" d="M4.392,148.194l.265-22.241H4.141l-.265,22.241Z" transform="translate(-2.191 -71.213)" fill="#fff"/>
      <path id="Path_75470" data-name="Path 75470" d="M4.392,148.194l.265-22.241H4.141l-.265,22.241Z" transform="translate(-2.191 -71.213)" fill="#fff"/>
      <path id="Path_75471" data-name="Path 75471" d="M5.229,177.129H1.863v1.8H6.621v-1.8H5.229Zm.875.517v.769H2.379v-.769H6.1Z" transform="translate(-1.053 -100.148)" fill="#fff"/>
      <path id="Path_75472" data-name="Path 75472" d="M5.229,177.129H1.863v1.8H6.621v-1.8H5.229Zm.875.517v.769H2.379v-.769H6.1Z" transform="translate(-1.053 -100.148)" fill="#fff"/>
      <path id="Path_75473" data-name="Path 75473" d="M6.209,123.817v.412H3.186v-.412H2.669v.928H6.726v-.928Z" transform="translate(-1.509 -70.006)" fill="#fff"/>
      <path id="Path_75474" data-name="Path 75474" d="M6.209,123.817v.412H3.186v-.412H2.669v.928H6.726v-.928Z" transform="translate(-1.509 -70.006)" fill="#fff"/>
      <path id="Path_75475" data-name="Path 75475" d="M43.552,121.212H48.2v-2h-.658v.517h.142v.969H.642v-.969H.784v-.517H.125v2H43.552Z" transform="translate(-0.071 -67.401)" fill="#fff"/>
      <path id="Path_75476" data-name="Path 75476" d="M43.552,121.212H48.2v-2h-.658v.517h.142v.969H.642v-.969H.784v-.517H.125v2H43.552Z" transform="translate(-0.071 -67.401)" fill="#fff"/>
      <path id="Path_75477" data-name="Path 75477" d="M1.64,117.886H3.368v-.517H2.157v-1.415H1.64v1.931Z" transform="translate(-0.927 -65.561)" fill="#fff"/>
      <path id="Path_75478" data-name="Path 75478" d="M1.64,117.886H3.368v-.517H2.157v-1.415H1.64v1.931Z" transform="translate(-0.927 -65.561)" fill="#fff"/>
      <path id="Path_75479" data-name="Path 75479" d="M106.457,115.955v1.415h-1.212v.517h1.728v-1.931Z" transform="translate(-59.505 -65.561)" fill="#fff"/>
      <path id="Path_75480" data-name="Path 75480" d="M106.457,115.955v1.415h-1.212v.517h1.728v-1.931Z" transform="translate(-59.505 -65.561)" fill="#fff"/>
      <rect id="Rectangle_44683" data-name="Rectangle 44683" width="1.558" height="0.517" transform="translate(40.756 51.809)" fill="#fff"/>
      <rect id="Rectangle_44684" data-name="Rectangle 44684" width="1.558" height="0.517" transform="translate(40.756 51.809)" fill="#fff"/>
      <rect id="Rectangle_44685" data-name="Rectangle 44685" width="1.558" height="0.517" transform="translate(25.804 51.809)" fill="#fff"/>
      <rect id="Rectangle_44686" data-name="Rectangle 44686" width="1.558" height="0.517" transform="translate(25.804 51.809)" fill="#fff"/>
      <rect id="Rectangle_44687" data-name="Rectangle 44687" width="1.558" height="0.517" transform="translate(10.852 51.809)" fill="#fff"/>
      <rect id="Rectangle_44688" data-name="Rectangle 44688" width="1.558" height="0.517" transform="translate(10.852 51.809)" fill="#fff"/>
      <rect id="Rectangle_44689" data-name="Rectangle 44689" width="1.558" height="0.517" transform="translate(15.836 51.809)" fill="#fff"/>
      <rect id="Rectangle_44690" data-name="Rectangle 44690" width="1.558" height="0.517" transform="translate(15.836 51.809)" fill="#fff"/>
      <rect id="Rectangle_44691" data-name="Rectangle 44691" width="1.558" height="0.517" transform="translate(5.868 51.809)" fill="#fff"/>
      <rect id="Rectangle_44692" data-name="Rectangle 44692" width="1.558" height="0.517" transform="translate(5.868 51.809)" fill="#fff"/>
      <rect id="Rectangle_44693" data-name="Rectangle 44693" width="1.558" height="0.517" transform="translate(30.788 51.809)" fill="#fff"/>
      <rect id="Rectangle_44694" data-name="Rectangle 44694" width="1.558" height="0.517" transform="translate(30.788 51.809)" fill="#fff"/>
      <rect id="Rectangle_44695" data-name="Rectangle 44695" width="1.558" height="0.517" transform="translate(35.772 51.809)" fill="#fff"/>
      <rect id="Rectangle_44696" data-name="Rectangle 44696" width="1.558" height="0.517" transform="translate(35.772 51.809)" fill="#fff"/>
      <rect id="Rectangle_44697" data-name="Rectangle 44697" width="1.558" height="0.517" transform="translate(20.82 51.809)" fill="#fff"/>
      <rect id="Rectangle_44698" data-name="Rectangle 44698" width="1.558" height="0.517" transform="translate(20.82 51.809)" fill="#fff"/>
      <path id="Path_75481" data-name="Path 75481" d="M51.489,117.886h.84v-.517h-.323v-1.415h-.517v1.931Z" transform="translate(-29.112 -65.561)" fill="#fff"/>
      <path id="Path_75482" data-name="Path 75482" d="M51.489,117.886h.84v-.517h-.323v-1.415h-.517v1.931Z" transform="translate(-29.112 -65.561)" fill="#fff"/>
      <path id="Path_75483" data-name="Path 75483" d="M57.441,117.37v.517h.84v-1.931h-.517v1.415Z" transform="translate(-32.477 -65.561)" fill="#fff"/>
      <path id="Path_75484" data-name="Path 75484" d="M57.441,117.37v.517h.84v-1.931h-.517v1.415Z" transform="translate(-32.477 -65.561)" fill="#fff"/>
      <path id="Path_75485" data-name="Path 75485" d="M53.421,117.886h1.747v-1.931h-.516v1.415h-.714v-1.415h-.517v1.931Z" transform="translate(-30.204 -65.561)" fill="#fff"/>
      <path id="Path_75486" data-name="Path 75486" d="M53.421,117.886h1.747v-1.931h-.516v1.415h-.714v-1.415h-.517v1.931Z" transform="translate(-30.204 -65.561)" fill="#fff"/>
      <path id="Path_75487" data-name="Path 75487" d="M6.457,117.37H6.134v-1.415H5.617v1.931h.84Z" transform="translate(-3.176 -65.561)" fill="#fff"/>
      <path id="Path_75488" data-name="Path 75488" d="M6.457,117.37H6.134v-1.415H5.617v1.931h.84Z" transform="translate(-3.176 -65.561)" fill="#fff"/>
      <path id="Path_75489" data-name="Path 75489" d="M11.569,117.37v.517h.84v-1.931h-.517v1.415Z" transform="translate(-6.541 -65.561)" fill="#fff"/>
      <path id="Path_75490" data-name="Path 75490" d="M11.569,117.37v.517h.84v-1.931h-.517v1.415Z" transform="translate(-6.541 -65.561)" fill="#fff"/>
      <path id="Path_75491" data-name="Path 75491" d="M7.549,117.886H9.3v-1.931H8.78v1.415H8.066v-1.415H7.549v1.931Z" transform="translate(-4.268 -65.561)" fill="#fff"/>
      <path id="Path_75492" data-name="Path 75492" d="M7.549,117.886H9.3v-1.931H8.78v1.415H8.066v-1.415H7.549v1.931Z" transform="translate(-4.268 -65.561)" fill="#fff"/>
      <path id="Path_75493" data-name="Path 75493" d="M17.085,117.886h.84v-.517H17.6v-1.415h-.517v1.931Z" transform="translate(-9.66 -65.561)" fill="#fff"/>
      <path id="Path_75494" data-name="Path 75494" d="M17.085,117.886h.84v-.517H17.6v-1.415h-.517v1.931Z" transform="translate(-9.66 -65.561)" fill="#fff"/>
      <path id="Path_75495" data-name="Path 75495" d="M23.037,117.37v.517h.84v-1.931H23.36v1.415Z" transform="translate(-13.025 -65.561)" fill="#fff"/>
      <path id="Path_75496" data-name="Path 75496" d="M23.037,117.37v.517h.84v-1.931H23.36v1.415Z" transform="translate(-13.025 -65.561)" fill="#fff"/>
      <path id="Path_75497" data-name="Path 75497" d="M19.017,117.886h1.748v-1.931h-.517v1.415h-.714v-1.415h-.517v1.931Z" transform="translate(-10.752 -65.561)" fill="#fff"/>
      <path id="Path_75498" data-name="Path 75498" d="M19.017,117.886h1.748v-1.931h-.517v1.415h-.714v-1.415h-.517v1.931Z" transform="translate(-10.752 -65.561)" fill="#fff"/>
      <path id="Path_75499" data-name="Path 75499" d="M28.553,117.886h.84v-.517H29.07v-1.415h-.517v1.931Z" transform="translate(-16.144 -65.561)" fill="#fff"/>
      <path id="Path_75500" data-name="Path 75500" d="M28.553,117.886h.84v-.517H29.07v-1.415h-.517v1.931Z" transform="translate(-16.144 -65.561)" fill="#fff"/>
      <path id="Path_75501" data-name="Path 75501" d="M34.505,117.37v.517h.84v-1.931h-.517v1.415Z" transform="translate(-19.509 -65.561)" fill="#fff"/>
      <path id="Path_75502" data-name="Path 75502" d="M34.505,117.37v.517h.84v-1.931h-.517v1.415Z" transform="translate(-19.509 -65.561)" fill="#fff"/>
      <path id="Path_75503" data-name="Path 75503" d="M30.485,117.886h1.748v-1.931h-.517v1.415H31v-1.415h-.517v1.931Z" transform="translate(-17.236 -65.561)" fill="#fff"/>
      <path id="Path_75504" data-name="Path 75504" d="M30.485,117.886h1.748v-1.931h-.517v1.415H31v-1.415h-.517v1.931Z" transform="translate(-17.236 -65.561)" fill="#fff"/>
      <path id="Path_75505" data-name="Path 75505" d="M40.021,117.886h.84v-.517h-.323v-1.415h-.517v1.931Z" transform="translate(-22.628 -65.561)" fill="#fff"/>
      <path id="Path_75506" data-name="Path 75506" d="M40.021,117.886h.84v-.517h-.323v-1.415h-.517v1.931Z" transform="translate(-22.628 -65.561)" fill="#fff"/>
      <path id="Path_75507" data-name="Path 75507" d="M45.973,117.37v.517h.84v-1.931H46.3v1.415Z" transform="translate(-25.993 -65.561)" fill="#fff"/>
      <path id="Path_75508" data-name="Path 75508" d="M45.973,117.37v.517h.84v-1.931H46.3v1.415Z" transform="translate(-25.993 -65.561)" fill="#fff"/>
      <path id="Path_75509" data-name="Path 75509" d="M41.953,117.886H43.7v-1.931h-.516v1.415H42.47v-1.415h-.517v1.931Z" transform="translate(-23.72 -65.561)" fill="#fff"/>
      <path id="Path_75510" data-name="Path 75510" d="M41.953,117.886H43.7v-1.931h-.516v1.415H42.47v-1.415h-.517v1.931Z" transform="translate(-23.72 -65.561)" fill="#fff"/>
      <path id="Path_75511" data-name="Path 75511" d="M62.957,117.886h.84v-.517h-.323v-1.415h-.517v1.931Z" transform="translate(-35.596 -65.561)" fill="#fff"/>
      <path id="Path_75512" data-name="Path 75512" d="M62.957,117.886h.84v-.517h-.323v-1.415h-.517v1.931Z" transform="translate(-35.596 -65.561)" fill="#fff"/>
      <path id="Path_75513" data-name="Path 75513" d="M68.909,117.37v.517h.84v-1.931h-.517v1.415Z" transform="translate(-38.961 -65.561)" fill="#fff"/>
      <path id="Path_75514" data-name="Path 75514" d="M68.909,117.37v.517h.84v-1.931h-.517v1.415Z" transform="translate(-38.961 -65.561)" fill="#fff"/>
      <path id="Path_75515" data-name="Path 75515" d="M64.889,117.886h1.747v-1.931H66.12v1.415h-.714v-1.415h-.517v1.931Z" transform="translate(-36.688 -65.561)" fill="#fff"/>
      <path id="Path_75516" data-name="Path 75516" d="M64.889,117.886h1.747v-1.931H66.12v1.415h-.714v-1.415h-.517v1.931Z" transform="translate(-36.688 -65.561)" fill="#fff"/>
      <path id="Path_75517" data-name="Path 75517" d="M74.425,117.886h.84v-.517h-.323v-1.415h-.517v1.931Z" transform="translate(-42.08 -65.561)" fill="#fff"/>
      <path id="Path_75518" data-name="Path 75518" d="M74.425,117.886h.84v-.517h-.323v-1.415h-.517v1.931Z" transform="translate(-42.08 -65.561)" fill="#fff"/>
      <path id="Path_75519" data-name="Path 75519" d="M80.377,117.37v.517h.84v-1.931H80.7v1.415Z" transform="translate(-45.445 -65.561)" fill="#fff"/>
      <path id="Path_75520" data-name="Path 75520" d="M80.377,117.37v.517h.84v-1.931H80.7v1.415Z" transform="translate(-45.445 -65.561)" fill="#fff"/>
      <path id="Path_75521" data-name="Path 75521" d="M76.357,117.886H78.1v-1.931h-.516v1.415h-.714v-1.415h-.517v1.931Z" transform="translate(-43.172 -65.561)" fill="#fff"/>
      <path id="Path_75522" data-name="Path 75522" d="M76.357,117.886H78.1v-1.931h-.516v1.415h-.714v-1.415h-.517v1.931Z" transform="translate(-43.172 -65.561)" fill="#fff"/>
      <path id="Path_75523" data-name="Path 75523" d="M85.893,117.886h.84v-.517H86.41v-1.415h-.517v1.931Z" transform="translate(-48.563 -65.561)" fill="#fff"/>
      <path id="Path_75524" data-name="Path 75524" d="M85.893,117.886h.84v-.517H86.41v-1.415h-.517v1.931Z" transform="translate(-48.563 -65.561)" fill="#fff"/>
      <path id="Path_75525" data-name="Path 75525" d="M91.845,117.37v.517h.84v-1.931h-.517v1.415Z" transform="translate(-51.929 -65.561)" fill="#fff"/>
      <path id="Path_75526" data-name="Path 75526" d="M91.845,117.37v.517h.84v-1.931h-.517v1.415Z" transform="translate(-51.929 -65.561)" fill="#fff"/>
      <path id="Path_75527" data-name="Path 75527" d="M87.825,117.886h1.748v-1.931h-.517v1.415h-.714v-1.415h-.517v1.931Z" transform="translate(-49.656 -65.561)" fill="#fff"/>
      <path id="Path_75528" data-name="Path 75528" d="M87.825,117.886h1.748v-1.931h-.517v1.415h-.714v-1.415h-.517v1.931Z" transform="translate(-49.656 -65.561)" fill="#fff"/>
      <path id="Path_75529" data-name="Path 75529" d="M97.361,117.886h.84v-.517h-.323v-1.415h-.517v1.931Z" transform="translate(-55.048 -65.561)" fill="#fff"/>
      <path id="Path_75530" data-name="Path 75530" d="M97.361,117.886h.84v-.517h-.323v-1.415h-.517v1.931Z" transform="translate(-55.048 -65.561)" fill="#fff"/>
      <path id="Path_75531" data-name="Path 75531" d="M103.313,117.37v.517h.84v-1.931h-.517v1.415Z" transform="translate(-58.413 -65.561)" fill="#fff"/>
      <path id="Path_75532" data-name="Path 75532" d="M103.313,117.37v.517h.84v-1.931h-.517v1.415Z" transform="translate(-58.413 -65.561)" fill="#fff"/>
      <path id="Path_75533" data-name="Path 75533" d="M99.293,117.886h1.748v-1.931h-.517v1.415H99.81v-1.415h-.517v1.931Z" transform="translate(-56.14 -65.561)" fill="#fff"/>
      <path id="Path_75534" data-name="Path 75534" d="M99.293,117.886h1.748v-1.931h-.517v1.415H99.81v-1.415h-.517v1.931Z" transform="translate(-56.14 -65.561)" fill="#fff"/>
      <path id="Path_75535" data-name="Path 75535" d="M1.564,113.7H48.259v-1.735H31.976v.517H47.742v.7H1.108v-.7H16.874v-.517H.592V113.7h.972Z" transform="translate(-0.335 -63.304)" fill="#fff"/>
      <path id="Path_75536" data-name="Path 75536" d="M1.564,113.7H48.259v-1.735H31.976v.517H47.742v.7H1.108v-.7H16.874v-.517H.592V113.7h.972Z" transform="translate(-0.335 -63.304)" fill="#fff"/>
      <path id="Path_75537" data-name="Path 75537" d="M53.158,106.823v-.441h-.517v2.426H38.573v-2.426h-.517v2.942h15.1v-2.5Z" transform="translate(-21.517 -60.148)" fill="#fff"/>
      <path id="Path_75538" data-name="Path 75538" d="M53.158,106.823v-.441h-.517v2.426H38.573v-2.426h-.517v2.942h15.1v-2.5Z" transform="translate(-21.517 -60.148)" fill="#fff"/>
      <path id="Path_75539" data-name="Path 75539" d="M36.273,104.323H52.925V102.74H49.315v.516h3.094v.55H36.79v-.55h3.094v-.516H36.273v1.583Z" transform="translate(-20.509 -58.089)" fill="#fff"/>
      <path id="Path_75540" data-name="Path 75540" d="M36.273,104.323H52.925V102.74H49.315v.516h3.094v.55H36.79v-.55h3.094v-.516H36.273v1.583Z" transform="translate(-20.509 -58.089)" fill="#fff"/>
      <rect id="Rectangle_44699" data-name="Rectangle 44699" width="0.564" height="0.517" transform="translate(22.143 44.651)" fill="#fff"/>
      <rect id="Rectangle_44700" data-name="Rectangle 44700" width="0.564" height="0.517" transform="translate(22.143 44.651)" fill="#fff"/>
      <rect id="Rectangle_44701" data-name="Rectangle 44701" width="0.564" height="0.517" transform="translate(25.474 44.651)" fill="#fff"/>
      <rect id="Rectangle_44702" data-name="Rectangle 44702" width="0.564" height="0.517" transform="translate(25.474 44.651)" fill="#fff"/>
      <path id="Path_75541" data-name="Path 75541" d="M52.247,97.8h2.768V93.086h-.652V93.6H54.5v3.679H52.764V93.6H52.9v-.517h-.652V97.8Z" transform="translate(-29.54 -52.63)" fill="#fff"/>
      <path id="Path_75542" data-name="Path 75542" d="M52.247,97.8h2.768V93.086h-.652V93.6H54.5v3.679H52.764V93.6H52.9v-.517h-.652V97.8Z" transform="translate(-29.54 -52.63)" fill="#fff"/>
      <path id="Path_75543" data-name="Path 75543" d="M59.913,98.875h2.768V94.99H59.913v3.885Zm.517-3.368h1.735v2.851H60.43Z" transform="translate(-33.875 -53.707)" fill="#fff"/>
      <path id="Path_75544" data-name="Path 75544" d="M59.913,98.875h2.768V94.99H59.913v3.885Zm.517-3.368h1.735v2.851H60.43Z" transform="translate(-33.875 -53.707)" fill="#fff"/>
      <path id="Path_75545" data-name="Path 75545" d="M44.581,98.875h2.768V94.99H44.581v3.885Zm.517-3.368h1.734v2.851H45.1Z" transform="translate(-25.206 -53.707)" fill="#fff"/>
      <path id="Path_75546" data-name="Path 75546" d="M44.581,98.875h2.768V94.99H44.581v3.885Zm.517-3.368h1.734v2.851H45.1Z" transform="translate(-25.206 -53.707)" fill="#fff"/>
      <path id="Path_75547" data-name="Path 75547" d="M53.748,88.908h1.463V84.783H53.748v4.125Zm.517-3.608h.429v3.091h-.429Z" transform="translate(-30.389 -47.936)" fill="#fff"/>
      <path id="Path_75548" data-name="Path 75548" d="M53.748,88.908h1.463V84.783H53.748v4.125Zm.517-3.608h.429v3.091h-.429Z" transform="translate(-30.389 -47.936)" fill="#fff"/>
      <path id="Path_75549" data-name="Path 75549" d="M178.861,78.486H173.79V75.98a.318.318,0,0,0-.318-.318h-3.851V73.708c0-.005,0-.01,0-.015a.315.315,0,0,0-.02-.1.294.294,0,0,0-.013-.029.309.309,0,0,0-.036-.058l-1.408-1.723V55.376H169.3a.318.318,0,0,0,.318-.318V53.176a.318.318,0,0,0-.318-.318h-1.186l-.653-7.98v0c-.01-.14-.654-8.9-1.127-15.617l.33.269a.316.316,0,0,0,.2.073l.043,0a.326.326,0,0,0,.215-.13l1.351-1.88.258.2a.537.537,0,0,0,.752-.1l1.046-1.376a.538.538,0,0,0-.1-.752l-.273-.208.917-1.264a.318.318,0,0,0-.057-.433l-3.244-2.645a.316.316,0,0,0-.458.056l-1.093,1.475-.363-.384c-.013-.255-.02-.419-.018-.472a1.46,1.46,0,0,0-.672-1.5h0l-.574-.317-.914-3.906a2.739,2.739,0,0,0,.222-.737l.621-.633c1.131-.942,2.424-2,2.55-2.076l.149-.1-.01-.024a.291.291,0,0,0,.037-.169.318.318,0,0,0-.319-.3l-.045,0c-.072.009-1.235.112-2.393.213a15.361,15.361,0,0,0,.8-2.407.33.33,0,0,0-.18-.291c-.189-.093-.272-.133-2.561,1.539l-.936-2.7a.323.323,0,0,0-.3-.213.319.319,0,0,0-.3.2L159.991,10.9,157.884,9.48a.318.318,0,0,0-.484.347l.568,2.13-1.3-.23-.7-2.532c.2-.882.431-1.842.492-2.005.137-.366-.29-1.1-.7-1.671a1.4,1.4,0,0,0-.258-.189l.038-.851a2.044,2.044,0,0,0,.965-1.343.318.318,0,0,0-.312-.382h-1.416v-.3a.318.318,0,0,0-.318-.318h-.738a.36.36,0,0,1,0-.72h1.823a1,1,0,0,0,1-1,.318.318,0,1,0-.635,0,.361.361,0,0,1-.36.36h-1.823a.994.994,0,0,0-.16,1.975h-.881a.318.318,0,0,0-.312.381,2.052,2.052,0,0,0,1.076,1.406l.019.624-.038,0a.536.536,0,0,0-.356.207.529.529,0,0,0-.1.4l.229,1.713a.538.538,0,0,0,.349.432l.026.877a.317.317,0,0,0,.318.308h.381c-.026.841-.117,3.812-.119,3.962V13.1a3.44,3.44,0,0,0,.136,1.3,5.056,5.056,0,0,1,.023.876,1.686,1.686,0,0,0-.514,1.675,1.778,1.778,0,0,0,.639.979l.288,3.522c0,.008.005.014.007.022l-.392,1.087a.318.318,0,0,0,.033.279l.721,1.116a1.552,1.552,0,0,0-.076,1.206A3.669,3.669,0,0,1,155,26.422l-.99,8.379c-.936,3.517-1.94,7.278-2.672,10.015a.317.317,0,0,0,.124.344.329.329,0,0,0,.077.037l-1.936,7.66h-1.176a.319.319,0,0,0-.318.318v1.882a.318.318,0,0,0,.318.318h1.105V71.789l-1.354,1.723a.306.306,0,0,0-.03.051.211.211,0,0,0-.015.025.31.31,0,0,0-.021.105s0,.009,0,.013v1.954h-3.851a.318.318,0,0,0-.318.318v2.507h-4.835a.318.318,0,0,0-.318.318v2.511a.318.318,0,0,0,.318.318h39.751a.318.318,0,0,0,.318-.318V78.8a.318.318,0,0,0-.318-.318m-34.6.636h34.28V81H139.427V79.122Zm.318-2.824h28.573v2.189H144.58Zm5.592-20.922h17.334V71.581H150.172Zm-.163,16.842h17.664l.958,1.173H149.087Zm-1.26,1.864h20.236v1.581H148.749Zm0-20.588h20.236V54.74H148.749Zm6.237-30.86,1.053-2.922a.314.314,0,0,0-.011-.243.318.318,0,0,0-.587.027l-.2.552-.154-1.886a.309.309,0,0,0,.147-.151.318.318,0,0,0-.16-.42,1.146,1.146,0,0,1-.66-.758,1.326,1.326,0,0,1-.007-.514.317.317,0,0,0,.056.035,2.821,2.821,0,0,0,1.044.21,2.088,2.088,0,0,0,.645-.1,1.973,1.973,0,0,0,1.137-.928l.045.39.026.594a.318.318,0,0,0,.318.3h.014a.316.316,0,0,0,.22-.1.309.309,0,0,0,.065-.106l1.791,1.582L159,20.559a.316.316,0,0,0,.02.242.311.311,0,0,0,.182.157l.1.017a.318.318,0,0,0,.3-.22l.716-2.209,1.255.505-1.4,2.473L155.7,25.677a3.414,3.414,0,0,0-.075-.687,1.26,1.26,0,0,1,.259-1.114l1.045-1.246A.32.32,0,0,0,157,22.4a.318.318,0,0,0-.56-.176l-.97,1.158Zm.758-19.244a1.5,1.5,0,0,1-2.613,0Zm-1.306,1.4a2.141,2.141,0,0,0,.456-.054l-.011.253c-.02,0-.04-.006-.059,0l-.726.1-.01-.322a2.164,2.164,0,0,0,.35.03m.372.838.2,1.516-1.2.161-.2-1.516Zm-.054,2.192-.029.648h-.53l-.017-.572ZM155.03,9.1a.316.316,0,0,0,.317-.3l.05-1.111a.548.548,0,0,0,.153-.135.533.533,0,0,0,.106-.4l-.108-.8a2.79,2.79,0,0,1,.3.64c-.106.313-.4,1.579-.525,2.14a.325.325,0,0,0,0,.154l.771,2.786h0l.746,2.7a1.238,1.238,0,0,1-.891,1.092,1.865,1.865,0,0,1-1.034-.021,7.941,7.941,0,0,0-.024-1.6,2.89,2.89,0,0,1-.114-1.127v-.04c0-.064.022-.8.119-3.953V9.1Zm10.232,13.663-.707.6-.008,0-.006.007-1.731,1.46q.643-2.1,1.369-4.471l.716.394c.014.007.341.169.312.9,0,.094.016.488.054,1.108m2.818,3.721.926-1.217.965.733-.926,1.217Zm1.231-1.784a.537.537,0,0,0-.751.1l-1.047,1.376a.539.539,0,0,0,.1.752l.358.272-1.163,1.619-.534-.435c-.121-1.723-.227-3.269-.3-4.443l1.658-2.236,2.755,2.246-.731,1.009Zm-14.7,10.32c.41-1.542.82-3.084,1.19-4.479l.014-.017,7.388-9.152c-1.4,4.572-5.472,17.866-5.8,18.894-.345.3-2.773,2.087-5.214,3.851.438-1.637,1.433-5.367,2.426-9.1m4.54-11.68-2.717,4.806c.5-1.876.7-2.661.765-3Zm-1.2-7.6-.062-.53a.831.831,0,0,0-.256-.625.687.687,0,0,0-.213-.128l-.137-.5c.167.187.335.372.484.527h0l.646.729,0,.018c.008.053.024.1.035.155.019.086.035.173.061.257l.017.048-.174.4Zm4.58-.071a1.374,1.374,0,1,1-2.748,0v-.619a3.294,3.294,0,0,0,1.4-1,2.744,2.744,0,0,0,1.352,1.141Zm-2.947,1.236a2.037,2.037,0,0,0,.293.3v.236l-.343-.3Zm.928.659a1.908,1.908,0,0,0,1.384-.03v.955l-1.384-.557Zm1.886,1.813,1.1.608-5.762,7.137,4.431-7.836Zm.357-.528-.223-.123v-1.6c.034-.032.065-.066.1-.1Zm.517-4.071c-1.589-.411-1.712-1.476-1.716-1.522a.318.318,0,0,0-.615-.076,2.7,2.7,0,0,1-1.914,1.444,2.139,2.139,0,0,1,4.271.165.255.255,0,0,0-.025-.012m-8.1,38.076.632-5.1a.28.28,0,0,0,0-.051l1.747-3.588-1.083,8.738Zm-1.88,0,1.663-3.414-.423,3.414Zm4.675-12.291c.045-.1,1.557-5.011,4.5-14.613l1.915-1.616L162.919,45.4l-5.708-4.183c.708-.544.737-.605.757-.651m.38,2.273,1.092.8-1.08,9.218h-1.254Zm1.682,1.233,1.236.905-.923,7.88H159Zm1.826,1.338,1.152.844a.317.317,0,0,0,.086.044l-.768,6.559h-1.342Zm2.08-.832,1.312.263-.939,8.016h-1.342ZM167,47.033l-.709,5.825H164.95l.924-7.89.976.2Zm-.069,5.825.326-2.678.219,2.678Zm-3.272-8.983,1.4-20.109.251-.212c.321,5.011,1.293,18.286,1.489,20.951Zm-.24-24.656-.157-2.256.583,2.492Zm1.084-5.437a3.487,3.487,0,0,0-.483-.978.2.2,0,0,0,.033.005l1.453-.127.374-.033c-.346.281-.807.66-1.376,1.133m-.777-1.4a.3.3,0,0,0,0,.051,3.608,3.608,0,0,0-.369-.342.3.3,0,0,0-.024-.028.3.3,0,0,0-.031-.016,3.564,3.564,0,0,0-.615-.386c.584-.427,1.247-.9,1.735-1.238-.193.564-.466,1.336-.691,1.959M161.36,11.32a.275.275,0,0,0-.046-.01c-.01,0-.019.005-.029.006-.042,0-.083-.006-.125-.006a3.717,3.717,0,0,0-.673.063L161.3,9.3l.737,2.123a3.432,3.432,0,0,0-.674-.105m-2.648.964s0-.006,0-.009l-.479-1.793,1.606,1.079a3.418,3.418,0,0,0-1.127.724m-.866,1.358c-.4-.446-.82-.938-.955-1.1l-.039-.14,1.5.266c.005,0,.01,0,.016,0a3.5,3.5,0,0,0-.524.972M155.62,26.613l.743-.688c-.255.981-.683,2.6-1.2,4.542Zm1.063,15.006,1.015.744-5.111,10.495h-2.324l2.03-8.031c2.226-1.606,3.573-2.595,4.39-3.208" transform="translate(-78.472 -0.057)" fill="#fff"/>
      <path id="Path_75550" data-name="Path 75550" d="M178.861,78.486H173.79V75.98a.318.318,0,0,0-.318-.318h-3.851V73.708c0-.005,0-.01,0-.015a.315.315,0,0,0-.02-.1.294.294,0,0,0-.013-.029.309.309,0,0,0-.036-.058l-1.408-1.723V55.376H169.3a.318.318,0,0,0,.318-.318V53.176a.318.318,0,0,0-.318-.318h-1.186l-.653-7.98v0c-.01-.14-.654-8.9-1.127-15.617l.33.269a.316.316,0,0,0,.2.073l.043,0a.326.326,0,0,0,.215-.13l1.351-1.88.258.2a.537.537,0,0,0,.752-.1l1.046-1.376a.538.538,0,0,0-.1-.752l-.273-.208.917-1.264a.318.318,0,0,0-.057-.433l-3.244-2.645a.316.316,0,0,0-.458.056l-1.093,1.475-.363-.384c-.013-.255-.02-.419-.018-.472a1.46,1.46,0,0,0-.672-1.5h0l-.574-.317-.914-3.906a2.739,2.739,0,0,0,.222-.737l.621-.633c1.131-.942,2.424-2,2.55-2.076l.149-.1-.01-.024a.291.291,0,0,0,.037-.169.318.318,0,0,0-.319-.3l-.045,0c-.072.009-1.235.112-2.393.213a15.361,15.361,0,0,0,.8-2.407.33.33,0,0,0-.18-.291c-.189-.093-.272-.133-2.561,1.539l-.936-2.7a.323.323,0,0,0-.3-.213.319.319,0,0,0-.3.2L159.991,10.9,157.884,9.48a.318.318,0,0,0-.484.347l.568,2.13-1.3-.23-.7-2.532c.2-.882.431-1.842.492-2.005.137-.366-.29-1.1-.7-1.671a1.4,1.4,0,0,0-.258-.189l.038-.851a2.044,2.044,0,0,0,.965-1.343.318.318,0,0,0-.312-.382h-1.416v-.3a.318.318,0,0,0-.318-.318h-.738a.36.36,0,0,1,0-.72h1.823a1,1,0,0,0,1-1,.318.318,0,1,0-.635,0,.361.361,0,0,1-.36.36h-1.823a.994.994,0,0,0-.16,1.975h-.881a.318.318,0,0,0-.312.381,2.052,2.052,0,0,0,1.076,1.406l.019.624-.038,0a.536.536,0,0,0-.356.207.529.529,0,0,0-.1.4l.229,1.713a.538.538,0,0,0,.349.432l.026.877a.317.317,0,0,0,.318.308h.381c-.026.841-.117,3.812-.119,3.962V13.1a3.44,3.44,0,0,0,.136,1.3,5.056,5.056,0,0,1,.023.876,1.686,1.686,0,0,0-.514,1.675,1.778,1.778,0,0,0,.639.979l.288,3.522c0,.008.005.014.007.022l-.392,1.087a.318.318,0,0,0,.033.279l.721,1.116a1.552,1.552,0,0,0-.076,1.206A3.669,3.669,0,0,1,155,26.422l-.99,8.379c-.936,3.517-1.94,7.278-2.672,10.015a.317.317,0,0,0,.124.344.329.329,0,0,0,.077.037l-1.936,7.66h-1.176a.319.319,0,0,0-.318.318v1.882a.318.318,0,0,0,.318.318h1.105V71.789l-1.354,1.723a.306.306,0,0,0-.03.051.211.211,0,0,0-.015.025.31.31,0,0,0-.021.105s0,.009,0,.013v1.954h-3.851a.318.318,0,0,0-.318.318v2.507h-4.835a.318.318,0,0,0-.318.318v2.511a.318.318,0,0,0,.318.318h39.751a.318.318,0,0,0,.318-.318V78.8A.318.318,0,0,0,178.861,78.486Zm-34.6.636h34.28V81H139.427V79.122Zm.318-2.824h28.573v2.189H144.58Zm5.592-20.922h17.334V71.581H150.172Zm-.163,16.842h17.664l.958,1.173H149.087Zm-1.26,1.864h20.236v1.581H148.749Zm0-20.588h20.236V54.74H148.749Zm6.237-30.86,1.053-2.922a.314.314,0,0,0-.011-.243.318.318,0,0,0-.587.027l-.2.552-.154-1.886a.309.309,0,0,0,.147-.151.318.318,0,0,0-.16-.42,1.146,1.146,0,0,1-.66-.758,1.326,1.326,0,0,1-.007-.514.317.317,0,0,0,.056.035,2.821,2.821,0,0,0,1.044.21,2.088,2.088,0,0,0,.645-.1,1.973,1.973,0,0,0,1.137-.928l.045.39.026.594a.318.318,0,0,0,.318.3h.014a.316.316,0,0,0,.22-.1.309.309,0,0,0,.065-.106l1.791,1.582L159,20.559a.316.316,0,0,0,.02.242.311.311,0,0,0,.182.157l.1.017a.318.318,0,0,0,.3-.22l.716-2.209,1.255.505-1.4,2.473L155.7,25.677a3.414,3.414,0,0,0-.075-.687,1.26,1.26,0,0,1,.259-1.114l1.045-1.246A.32.32,0,0,0,157,22.4a.318.318,0,0,0-.56-.176l-.97,1.158Zm.758-19.244a1.5,1.5,0,0,1-2.613,0Zm-1.306,1.4a2.141,2.141,0,0,0,.456-.054l-.011.253c-.02,0-.04-.006-.059,0l-.726.1-.01-.322A2.164,2.164,0,0,0,154.437,4.787Zm.372.838.2,1.516-1.2.161-.2-1.516Zm-.054,2.192-.029.648h-.53l-.017-.572ZM155.03,9.1a.316.316,0,0,0,.317-.3l.05-1.111a.548.548,0,0,0,.153-.135.533.533,0,0,0,.106-.4l-.108-.8a2.79,2.79,0,0,1,.3.64c-.106.313-.4,1.579-.525,2.14a.325.325,0,0,0,0,.154l.771,2.786h0l.746,2.7a1.238,1.238,0,0,1-.891,1.092,1.865,1.865,0,0,1-1.034-.021,7.941,7.941,0,0,0-.024-1.6,2.89,2.89,0,0,1-.114-1.127v-.04c0-.064.022-.8.119-3.953V9.1Zm10.232,13.663-.707.6-.008,0-.006.007-1.731,1.46q.643-2.1,1.369-4.471l.716.394c.014.007.341.169.312.9C165.2,21.75,165.224,22.144,165.262,22.765Zm2.818,3.721.926-1.217.965.733-.926,1.217Zm1.231-1.784a.537.537,0,0,0-.751.1l-1.047,1.376a.539.539,0,0,0,.1.752l.358.272-1.163,1.619-.534-.435c-.121-1.723-.227-3.269-.3-4.443l1.658-2.236,2.755,2.246-.731,1.009Zm-14.7,10.32c.41-1.542.82-3.084,1.19-4.479l.014-.017,7.388-9.152c-1.4,4.572-5.472,17.866-5.8,18.894-.345.3-2.773,2.087-5.214,3.851C152.624,42.482,153.62,38.752,154.613,35.022Zm4.54-11.68-2.717,4.806c.5-1.876.7-2.661.765-3Zm-1.2-7.6-.062-.53a.831.831,0,0,0-.256-.625.687.687,0,0,0-.213-.128l-.137-.5c.167.187.335.372.484.527h0l.646.729,0,.018c.008.053.024.1.035.155.019.086.035.173.061.257l.017.048-.174.4Zm4.58-.071a1.374,1.374,0,1,1-2.748,0v-.619a3.294,3.294,0,0,0,1.4-1,2.744,2.744,0,0,0,1.352,1.141Zm-2.947,1.236a2.037,2.037,0,0,0,.293.3v.236l-.343-.3Zm.928.659a1.908,1.908,0,0,0,1.384-.03v.955l-1.384-.557Zm1.886,1.813,1.1.608-5.762,7.137,4.431-7.836Zm.357-.528-.223-.123v-1.6c.034-.032.065-.066.1-.1Zm.517-4.071c-1.589-.411-1.712-1.476-1.716-1.522a.318.318,0,0,0-.615-.076,2.7,2.7,0,0,1-1.914,1.444,2.139,2.139,0,0,1,4.271.165A.255.255,0,0,0,163.275,14.782Zm-8.1,38.076.632-5.1a.28.28,0,0,0,0-.051l1.747-3.588-1.083,8.738Zm-1.88,0,1.663-3.414-.423,3.414Zm4.675-12.291c.045-.1,1.557-5.011,4.5-14.613l1.915-1.616L162.919,45.4l-5.708-4.183C157.919,40.674,157.948,40.612,157.968,40.567Zm.38,2.273,1.092.8-1.08,9.218h-1.254Zm1.682,1.233,1.236.905-.923,7.88H159Zm1.826,1.338,1.152.844a.317.317,0,0,0,.086.044l-.768,6.559h-1.342Zm2.08-.832,1.312.263-.939,8.016h-1.342ZM167,47.033l-.709,5.825H164.95l.924-7.89.976.2Zm-.069,5.825.326-2.678.219,2.678Zm-3.272-8.983,1.4-20.109.251-.212c.321,5.011,1.293,18.286,1.489,20.951Zm-.24-24.656-.157-2.256.583,2.492Zm1.084-5.437a3.487,3.487,0,0,0-.483-.978.2.2,0,0,0,.033.005l1.453-.127.374-.033C165.537,12.93,165.076,13.309,164.507,13.782Zm-.777-1.4a.3.3,0,0,0,0,.051,3.608,3.608,0,0,0-.369-.342.3.3,0,0,0-.024-.028.3.3,0,0,0-.031-.016,3.564,3.564,0,0,0-.615-.386c.584-.427,1.247-.9,1.735-1.238C164.227,10.99,163.954,11.762,163.729,12.385ZM161.36,11.32a.275.275,0,0,0-.046-.01c-.01,0-.019.005-.029.006-.042,0-.083-.006-.125-.006a3.717,3.717,0,0,0-.673.063L161.3,9.3l.737,2.123A3.432,3.432,0,0,0,161.36,11.32Zm-2.648.964s0-.006,0-.009l-.479-1.793,1.606,1.079A3.418,3.418,0,0,0,158.712,12.284Zm-.866,1.358c-.4-.446-.82-.938-.955-1.1l-.039-.14,1.5.266c.005,0,.01,0,.016,0A3.5,3.5,0,0,0,157.846,13.641ZM155.62,26.613l.743-.688c-.255.981-.683,2.6-1.2,4.542Zm1.063,15.006,1.015.744-5.111,10.495h-2.324l2.03-8.031C154.518,43.221,155.865,42.232,156.682,41.619Z" transform="translate(-78.472 -0.057)" fill="#fff"/>
    </g>
  </g>
</svg>
