<?xml version="1.0" encoding="UTF-8"?>
<svg xmlns="http://www.w3.org/2000/svg" width="171.661" height="55.729" viewBox="0 0 171.661 55.729">
  <g id="Hukoomi_logos" data-name="Hukoomi logos" transform="translate(-7.252 -5.075)">
    <g id="P8" transform="translate(7.252 5.075)">
      <path id="Path_74666" data-name="Path 74666" d="M76.3,18.5V35.45H74.064V27.9H65.081V35.45H62.84V18.5h2.241v7.261h8.983V18.5Z" transform="translate(-5.179 -4.574)" fill="#fff"></path>
      <path id="Path_74667" data-name="Path 74667" d="M81.964,33.707a8.008,8.008,0,0,1-1.753-5.57V18.5h2.241v9.543q0,5.446,4.409,5.446a4.066,4.066,0,0,0,3.288-1.348,6.224,6.224,0,0,0,1.141-4.1V18.5h2.189v9.637a8,8,0,0,1-1.753,5.581,7.1,7.1,0,0,1-9.74,0Z" transform="translate(-4.531 -4.574)" fill="#fff"></path>
      <path id="Path_74668" data-name="Path 74668" d="M102.494,27.919l-2.863,3.112v4.377H97.39V18.5h2.241v9.471l8.5-9.471h2.552l-6.691,7.624L111.1,35.46h-2.614Z" transform="translate(-3.89 -4.574)" fill="#fff"></path>
      <path id="Path_74669" data-name="Path 74669" d="M115.195,34.523a7.987,7.987,0,0,1-2.987-3.112,9.035,9.035,0,0,1-1.037-4.429,9.035,9.035,0,0,1,1.037-4.429,7.987,7.987,0,0,1,2.987-3.112,8.578,8.578,0,0,1,8.516,0,7.925,7.925,0,0,1,2.977,3.112,9.128,9.128,0,0,1,1.037,4.44,9.1,9.1,0,0,1-1.037,4.44,7.925,7.925,0,0,1-2.977,3.112,8.579,8.579,0,0,1-8.516,0Zm7.365-1.878a5.892,5.892,0,0,0,2.168-2.334,7.344,7.344,0,0,0,0-6.659,5.892,5.892,0,0,0-2.168-2.334,5.726,5.726,0,0,0-3.112-.851,5.913,5.913,0,0,0-5.311,3.185,7.344,7.344,0,0,0,0,6.66,5.913,5.913,0,0,0,5.332,3.236A5.726,5.726,0,0,0,122.56,32.646Z" transform="translate(-3.376 -4.581)" fill="#fff"></path>
      <path id="Path_74670" data-name="Path 74670" d="M133.307,34.523a7.915,7.915,0,0,1-2.987-3.112,9.554,9.554,0,0,1,0-8.859,7.915,7.915,0,0,1,2.987-3.112,8.578,8.578,0,0,1,8.516,0,7.925,7.925,0,0,1,2.977,3.112,9.128,9.128,0,0,1,1.037,4.44,9.1,9.1,0,0,1-1.037,4.44,7.925,7.925,0,0,1-2.977,3.112,8.579,8.579,0,0,1-8.516,0Zm7.365-1.878a5.965,5.965,0,0,0,2.168-2.334,7.427,7.427,0,0,0,0-6.659,5.965,5.965,0,0,0-2.168-2.334,5.736,5.736,0,0,0-3.112-.851,5.819,5.819,0,0,0-3.112.851,5.892,5.892,0,0,0-2.2,2.334,7.427,7.427,0,0,0,0,6.659,5.892,5.892,0,0,0,2.2,2.334,5.819,5.819,0,0,0,3.112.851,5.736,5.736,0,0,0,3.112-.851Z" transform="translate(-2.702 -4.581)" fill="#fff"></path>
      <path id="Path_74671" data-name="Path 74671" d="M163.082,35.45V23.106L157.418,33.4h-1.037l-5.664-10.228V35.45H148.57V18.5h1.836l6.525,11.929,6.442-11.919h1.836V35.46Z" transform="translate(-1.98 -4.574)" fill="#fff"></path>
      <path id="Path_74672" data-name="Path 74672" d="M169.15,18.5h2.241V35.45H169.15Z" transform="translate(-1.213 -4.574)" fill="#fff"></path>
      <path id="Path_74673" data-name="Path 74673" d="M70.995,51.373a2.572,2.572,0,0,1-.861.685A2.469,2.469,0,0,1,69.1,52.3a2.749,2.749,0,0,1-1.349-.353,6.5,6.5,0,0,1-1.442-1.214,4.066,4.066,0,0,1-1.95-.6,3.859,3.859,0,0,1-1.338-1.442,4.346,4.346,0,0,1,0-4.056,3.9,3.9,0,0,1,1.452-1.452,4.45,4.45,0,0,1,4.149,0,3.9,3.9,0,0,1,1.452,1.452,4.74,4.74,0,0,1,.207,3.848,3.807,3.807,0,0,1-1.037,1.369,4.149,4.149,0,0,1-1.566.768,2.645,2.645,0,0,0,.736.6,1.546,1.546,0,0,0,.726.187,1.815,1.815,0,0,0,1.4-.674Zm-7.023-3.112A2.936,2.936,0,0,0,65.01,49.35a2.967,2.967,0,0,0,4.149-1.089,3.257,3.257,0,0,0,.384-1.556,3.2,3.2,0,0,0-.384-1.546,2.842,2.842,0,0,0-1.037-1.089,3.112,3.112,0,0,0-3.029-.021,2.79,2.79,0,0,0-1.037,1.089,3.708,3.708,0,0,0-.083,3.112Z" transform="translate(-5.191 -3.673)" fill="#fff"></path>
      <path id="Path_74674" data-name="Path 74674" d="M75.759,45.152a2.355,2.355,0,0,1,.643,1.815v3.61H75.365v-.788a1.66,1.66,0,0,1-.747.633,2.78,2.78,0,0,1-1.151.228,2.344,2.344,0,0,1-1.556-.488,1.556,1.556,0,0,1-.581-1.276,1.6,1.6,0,0,1,.55-1.276,2.749,2.749,0,0,1,1.815-.519h1.66v-.207a1.432,1.432,0,0,0-.394-1.037,1.629,1.629,0,0,0-1.162-.373,3.112,3.112,0,0,0-1.037.176,2.583,2.583,0,0,0-.83.467l-.436-.809a3.112,3.112,0,0,1,1.037-.571,4.222,4.222,0,0,1,1.317-.2A2.562,2.562,0,0,1,75.759,45.152ZM74.722,49.53a1.577,1.577,0,0,0,.633-.778v-.84H73.737c-.892,0-1.328.311-1.328.923a.851.851,0,0,0,.332.716,1.5,1.5,0,0,0,.944.259,1.888,1.888,0,0,0,1.037-.28Z" transform="translate(-4.862 -3.603)" fill="#fff"></path>
      <path id="Path_74675" data-name="Path 74675" d="M81.377,50.249a1.546,1.546,0,0,1-.56.311,2.334,2.334,0,0,1-.705.114,1.815,1.815,0,0,1-1.349-.488,1.888,1.888,0,0,1-.488-1.39V45.529H77.3v-.892h.975V43.33h1.037v1.307h1.66v.892h-1.66v3.247a1.037,1.037,0,0,0,.239.736.851.851,0,0,0,.674.259,1.245,1.245,0,0,0,.819-.28Z" transform="translate(-4.639 -3.648)" fill="#fff"></path>
      <path id="Path_74676" data-name="Path 74676" d="M86.419,45.152a2.386,2.386,0,0,1,.643,1.815v3.61H86.025v-.788a1.66,1.66,0,0,1-.747.633,2.78,2.78,0,0,1-1.151.228,2.344,2.344,0,0,1-1.556-.488A1.566,1.566,0,0,1,82,48.887a1.6,1.6,0,0,1,.56-1.276,2.749,2.749,0,0,1,1.795-.519h1.66v-.207a1.431,1.431,0,0,0-.394-1.037,1.629,1.629,0,0,0-1.162-.373,3.112,3.112,0,0,0-1.037.176,2.583,2.583,0,0,0-.83.467l-.436-.809a3.2,3.2,0,0,1,1.037-.571,4.284,4.284,0,0,1,1.328-.2A2.562,2.562,0,0,1,86.419,45.152ZM85.382,49.53a1.577,1.577,0,0,0,.633-.778v-.84H84.4c-.892,0-1.338.311-1.338.923a.861.861,0,0,0,.342.716,1.5,1.5,0,0,0,.944.259,1.888,1.888,0,0,0,1.037-.28Z" transform="translate(-4.464 -3.603)" fill="#fff"></path>
      <path id="Path_74677" data-name="Path 74677" d="M90.565,44.81a2.936,2.936,0,0,1,1.307-.27v1.037h-.249a1.753,1.753,0,0,0-1.338.529,2.075,2.075,0,0,0-.477,1.494v2.977H88.77V44.592h1.037v1.037a1.919,1.919,0,0,1,.757-.819Z" transform="translate(-4.211 -3.603)" fill="#fff"></path>
      <path id="Path_74678" data-name="Path 74678" d="M101.137,47.95h-4.7a1.888,1.888,0,0,0,.674,1.266,2.137,2.137,0,0,0,1.421.477,2.075,2.075,0,0,0,1.68-.726l.571.705a2.541,2.541,0,0,1-.975.726,3.558,3.558,0,0,1-2.936-.145,2.78,2.78,0,0,1-1.1-1.037,3.2,3.2,0,0,1-.384-1.577,3.309,3.309,0,0,1,.373-1.587A2.884,2.884,0,0,1,96.8,45.014a2.925,2.925,0,0,1,1.494-.394,2.832,2.832,0,0,1,1.483.394,2.749,2.749,0,0,1,1.037,1.037,3.5,3.5,0,0,1,.363,1.608C101.209,47.7,101.147,47.8,101.137,47.95Zm-4.149-2.023a1.961,1.961,0,0,0-.591,1.234h3.776a1.96,1.96,0,0,0-.591-1.234,1.8,1.8,0,0,0-1.266-.477,1.784,1.784,0,0,0-1.255.477Z" transform="translate(-3.964 -3.6)" fill="#fff"></path>
      <path id="Path_74679" data-name="Path 74679" d="M102.1,46.92h2.936v.944H102.1Z" transform="translate(-3.714 -3.514)" fill="#fff"></path>
      <path id="Path_74680" data-name="Path 74680" d="M112.033,46.654h1.037v3.112a4.149,4.149,0,0,1-1.317.747,5.021,5.021,0,0,1-1.577.259,4.149,4.149,0,0,1-2.075-.529,3.828,3.828,0,0,1-1.463-1.442,4.336,4.336,0,0,1,0-4.149,3.755,3.755,0,0,1,1.431-1.473,4.575,4.575,0,0,1,3.776-.207,3.485,3.485,0,0,1,1.276.9l-.685.705a3.019,3.019,0,0,0-2.22-.913,3.112,3.112,0,0,0-1.566.384,2.894,2.894,0,0,0-1.037,1.037,3.346,3.346,0,0,0,0,3.112,3.05,3.05,0,0,0,1.037,1.089A3.351,3.351,0,0,0,112,49.174Z" transform="translate(-3.564 -3.673)" fill="#fff"></path>
      <path id="Path_74681" data-name="Path 74681" d="M115.641,50.2a2.79,2.79,0,0,1-1.037-1.037,3.112,3.112,0,0,1-.384-1.566,3.174,3.174,0,0,1,.384-1.577,2.77,2.77,0,0,1,1.037-1.037,3.247,3.247,0,0,1,3.112,0,2.738,2.738,0,0,1,1.037,1.037,3.174,3.174,0,0,1,.384,1.577,3.112,3.112,0,0,1-.384,1.566,2.769,2.769,0,0,1-1.037,1.037A3.174,3.174,0,0,1,115.641,50.2Zm2.552-.809a1.8,1.8,0,0,0,.695-.747,2.552,2.552,0,0,0,0-2.2,1.8,1.8,0,0,0-.695-.747,1.981,1.981,0,0,0-1.037-.259,2.075,2.075,0,0,0-1.037.259,1.857,1.857,0,0,0-.695.747,2.458,2.458,0,0,0,0,2.2,1.857,1.857,0,0,0,.7.747,1.94,1.94,0,0,0,1.037.259,1.878,1.878,0,0,0,1.037-.218Z" transform="translate(-3.262 -3.601)" fill="#fff"></path>
      <path id="Path_74682" data-name="Path 74682" d="M126.39,44.59l-2.541,5.985h-1.037L120.28,44.59h1.037l1.992,4.8,2.075-4.8Z" transform="translate(-3.036 -3.601)" fill="#fff"></path>
      <path id="Path_74683" data-name="Path 74683" d="M132.206,47.948h-4.7a1.929,1.929,0,0,0,.674,1.266,2.137,2.137,0,0,0,1.421.477,2.075,2.075,0,0,0,1.68-.726l.571.705a2.541,2.541,0,0,1-.975.726,3.267,3.267,0,0,1-1.307.249,3.35,3.35,0,0,1-1.629-.394,2.78,2.78,0,0,1-1.1-1.037,3.475,3.475,0,0,1,0-3.112,2.884,2.884,0,0,1,1.037-1.037,2.925,2.925,0,0,1,1.494-.394,2.832,2.832,0,0,1,1.483.394,2.749,2.749,0,0,1,1.037,1.037,3.5,3.5,0,0,1,.363,1.608C132.206,47.7,132.206,47.8,132.206,47.948Zm-4.149-2.023a1.919,1.919,0,0,0-.6,1.234h3.714a1.909,1.909,0,0,0-.591-1.234,1.8,1.8,0,0,0-1.266-.477,1.743,1.743,0,0,0-1.255.477Z" transform="translate(-2.805 -3.598)" fill="#fff"></path>
      <path id="Path_74684" data-name="Path 74684" d="M135.215,44.81a2.915,2.915,0,0,1,1.3-.27v1.037h-.239a1.753,1.753,0,0,0-1.338.529,2.075,2.075,0,0,0-.488,1.494v2.977H133.41V44.592h1.037v1.037A1.919,1.919,0,0,1,135.215,44.81Z" transform="translate(-2.546 -3.603)" fill="#fff"></path>
      <path id="Path_74685" data-name="Path 74685" d="M142.491,45.2a2.614,2.614,0,0,1,.705,1.888v3.444h-1.037V47.216a1.857,1.857,0,0,0-.4-1.307,1.483,1.483,0,0,0-1.151-.436,1.784,1.784,0,0,0-1.348.508,2.075,2.075,0,0,0-.488,1.473v3.112H137.73V44.592h1.037v.9a2.074,2.074,0,0,1,.851-.705,2.946,2.946,0,0,1,1.234-.249A2.334,2.334,0,0,1,142.491,45.2Z" transform="translate(-2.385 -3.603)" fill="#fff"></path>
      <path id="Path_74686" data-name="Path 74686" d="M153.792,45.194a2.666,2.666,0,0,1,.643,1.94v3.444H153.4V47.258A1.909,1.909,0,0,0,153,45.951a1.4,1.4,0,0,0-1.11-.436,1.639,1.639,0,0,0-1.266.508,2.075,2.075,0,0,0-.467,1.473v3.112h-1.037V47.289a1.961,1.961,0,0,0-.384-1.307,1.411,1.411,0,0,0-1.11-.436,1.649,1.649,0,0,0-1.276.508,2.075,2.075,0,0,0-.467,1.473v3.112H144.85V44.592h1.037v.892a2.075,2.075,0,0,1,.83-.705,2.811,2.811,0,0,1,1.172-.239,2.469,2.469,0,0,1,1.193.28,1.9,1.9,0,0,1,.809.83,2.324,2.324,0,0,1,.913-.819,2.894,2.894,0,0,1,1.317-.29,2.3,2.3,0,0,1,1.67.653Z" transform="translate(-2.119 -3.603)" fill="#fff"></path>
      <path id="Path_74687" data-name="Path 74687" d="M161.207,47.949h-4.7a1.888,1.888,0,0,0,.674,1.266,2.315,2.315,0,0,0,3.091-.249l.581.705a2.541,2.541,0,0,1-.975.726,3.558,3.558,0,0,1-2.936-.145,2.707,2.707,0,0,1-1.1-1.037,3.2,3.2,0,0,1-.384-1.577,3.309,3.309,0,0,1,.373-1.577,2.8,2.8,0,0,1,1.037-1.037,2.925,2.925,0,0,1,1.494-.394,2.853,2.853,0,0,1,1.483.394,2.749,2.749,0,0,1,1.037,1.037,3.5,3.5,0,0,1,.363,1.608C161.207,47.7,161.207,47.8,161.207,47.949Zm-4.149-2.023a1.96,1.96,0,0,0-.591,1.234h3.714a2.012,2.012,0,0,0-.591-1.234,1.8,1.8,0,0,0-1.266-.477,1.784,1.784,0,0,0-1.214.477Z" transform="translate(-1.723 -3.599)" fill="#fff"></path>
      <path id="Path_74688" data-name="Path 74688" d="M167.273,45.2a2.614,2.614,0,0,1,.654,1.929v3.444H166.89V47.258a1.857,1.857,0,0,0-.4-1.307,1.5,1.5,0,0,0-1.162-.436,1.743,1.743,0,0,0-1.338.508,2.075,2.075,0,0,0-.5,1.473v3.112H162.45V44.592h1.037v.9a2.075,2.075,0,0,1,.861-.705,2.863,2.863,0,0,1,1.224-.249A2.334,2.334,0,0,1,167.273,45.2Z" transform="translate(-1.463 -3.603)" fill="#fff"></path>
      <path id="Path_74689" data-name="Path 74689" d="M172.887,50.249a1.546,1.546,0,0,1-.56.311,2.334,2.334,0,0,1-.705.114,1.8,1.8,0,0,1-1.348-.488,1.888,1.888,0,0,1-.488-1.39V45.529H168.8v-.892h.985V43.33h1.037v1.307h1.66v.892h-1.66v3.247a1.037,1.037,0,0,0,.239.736.851.851,0,0,0,.674.259,1.245,1.245,0,0,0,.819-.28Z" transform="translate(-1.226 -3.648)" fill="#fff"></path>
      <path id="Path_74690" data-name="Path 74690" d="M32.643,51.676A28.65,28.65,0,0,1,22.7,54C16.824,54,10.777,51.8,9.3,42.911A17.479,17.479,0,0,1,13.38,28c.28-.363.332-.477.84-.093,4.969,3.433,10.788,2.7,20.445,2.687,9.128,0,10.622,6.711,10.767,7.458A9.4,9.4,0,0,1,47,39.5c.176-5.767-1.234-14.128-14.4-13.63-8.3-.145-15.01.363-16.887-.477a14.274,14.274,0,0,1,2.4-2.189c1.743-1.39,2.334-.3,3.745,1.037.135-.218.4-.695-.29-3.039-.218-.736.633-.923,2.521-2.075a54.22,54.22,0,0,1,6.96-3.309c2.863-1.214.705-.322,10.051-4.149,1.037-.394,1.1-1.266,2.075-4.045.311-.954-.342-.809-1.266-.944a215.542,215.542,0,0,0-26.14-1.556,8.143,8.143,0,0,0-5.518,1.411A5.259,5.259,0,0,0,7.935,9.146c-.062.529-.591,4.294,1.774,5.923,1.151.757,4.149,2.687,6.96,4.492.322.187.508.3.27.653a16.6,16.6,0,0,0-3.112,3.5c-.135.218-.508.788-1.037.508s-1.431-.643-2.759-1.317a4.657,4.657,0,0,0,1.338,2.49c.415.4.788.674.2,1.535-1.732,1.929-4.481,9.242-4.3,15.1.415,13.661,9.8,17.52,15.56,17.52,5.311,0,9.813-2.635,13.485-5.187a9.491,9.491,0,0,1-3.662-2.687Zm-21.2-39.843a9.616,9.616,0,0,0-.965-.622c-.425-.311-.145-.705.384-.788s2.749-.726,10.207-.436c3.516.093,8.413.529,10.072.695.705.093.913.249.965.311-1.743,1.38-6.691,3.257-9.118,4.969-2.666,1.535-2.821,2.407-4.035,1.276C17.436,16.013,13.785,13.3,11.441,11.833Z" transform="translate(-7.252 -5.075)" fill="#fff"></path>
      <path id="Path_74691" data-name="Path 74691" d="M38.738,36.31a7.707,7.707,0,1,1-5.47,2.246A7.707,7.707,0,0,1,38.738,36.31Z" transform="translate(-6.366 -3.91)" fill="#fff" fill-rule="evenodd"></path>
      <path id="Path_74692" data-name="Path 74692" d="M53.556,49.476,38.09,42.64,45.351,59.4l1.857-4.616,3.454,3.34,2.77-2.666-3.693-3.309Z" transform="translate(-6.102 -3.674)" fill="#fff" fill-rule="evenodd"></path>
      <path id="Path_74693" data-name="Path 74693" d="M39.75,44.49l11.763,5.093L48.069,51.8l3.444,3.61L50.507,56.46l-3.662-3.527L45.237,56.46Z" transform="translate(-6.04 -3.605)" fill="#fff" fill-rule="evenodd"></path>
      <path id="Path_74694" data-name="Path 74694" d="M40.55,45.28l4.637,9.968,1.473-3.122,3.776,3.734.477-.477L47.427,51.6l3.008-1.961Z" transform="translate(-6.01 -3.575)" fill="#fff" fill-rule="evenodd"></path>
    </g>
  </g>
</svg>
