<?xml version="1.0" encoding="UTF-8"?>
<svg xmlns="http://www.w3.org/2000/svg" width="148.996" height="26.057" viewBox="0 0 148.996 26.057">
  <g id="ikea-logo" transform="translate(0.001)">
    <path id="Path_21551" data-name="Path 21551" d="M17.179,26.057c.462,0,.656-.182.4-.462a8.433,8.433,0,0,1-.522-3.294V3.768A8.433,8.433,0,0,1,17.581.474c.252-.28.06-.474-.4-.474H.42c-.462,0-.644.194-.4.474A8.383,8.383,0,0,1,.54,3.768V22.289a8.433,8.433,0,0,1-.522,3.294c-.244.28-.06.462.4.462h16.76Z" transform="translate(0.089 0)" fill="#fff"></path>
    <path id="Path_21552" data-name="Path 21552" d="M37.819,9.3l6.1-8.276c.244-.244.122-.6.122-.742s0-.28.122-.28H60.7c.218,0,.122.158.036.28L53.935,9.8a.866.866,0,0,0,.06,1.179l9.358,14.791c.1.122.182.28-.036.28h-20.2c-.122,0-.122-.122-.122-.28s.316-1.5.06-1.74l-5.22-8v6.247a8.433,8.433,0,0,0,.522,3.294c.244.28.06.462-.4.462H21.691c-.462,0-.656-.182-.4-.462a8.433,8.433,0,0,0,.522-3.294V3.768A8.432,8.432,0,0,0,21.29.474c-.242-.28-.06-.474.4-.474H37.953c.462,0,.656.182.4.462a8.433,8.433,0,0,0-.522,3.294L37.82,9.3Z" transform="translate(4.669)" fill="#fff"></path>
    <path id="Path_21553" data-name="Path 21553" d="M76.34,16.382a.431.431,0,0,1,.462-.462h6.425a15.7,15.7,0,0,1,3.257.122c.206.206.462.072.462-.316V9.479c0-.39-.256-.522-.462-.316a15.742,15.742,0,0,1-3.257.122H76.8a.435.435,0,0,1-.462-.462V7.56A.431.431,0,0,1,76.8,7.1h9.252a8.249,8.249,0,0,1,3.257.522c.28.244.462.06.462-.4V0H60.65c-.462,0-.644.232-.4.51a8.248,8.248,0,0,1,.522,3.257V22.095a8.248,8.248,0,0,1-.522,3.257c-.244.28-.06.462.4.462H89.769V18.145c0-.462-.182-.644-.462-.4a8.248,8.248,0,0,1-3.257.522H76.8a.435.435,0,0,1-.462-.462Z" transform="translate(13.059 0)" fill="#fff"></path>
    <path id="Path_21554" data-name="Path 21554" d="M129.939,25.807s-9.673-22.994-9.807-23.371A2.373,2.373,0,0,1,120.1.807c.244-.6.036-.729-.376-.729H97.065c-.414,0-.62.134-.376.729a2.3,2.3,0,0,1-.036,1.629c-.134.376-8.7,23.371-8.7,23.371h13.921c.328,0,.4-.158.292-.376a1.668,1.668,0,0,1,.048-1.13l.742-2.479a1.028,1.028,0,0,1,1.179-.8h6.125a1.021,1.021,0,0,1,1.179.8l.742,2.479a1.668,1.668,0,0,1,.048,1.13c-.11.232-.036.376.292.376h17.427Zm-24.682-9.866c-.218-.012-.244-.244-.182-.4l1.507-3.573c.06-.11.1-.206.23-.206s.17.11.232.206l1.507,3.573c.06.158.036.376-.182.4Z" transform="translate(19.048 0.017)" fill="#fff"></path>
  </g>
</svg>
