<?xml version="1.0" encoding="UTF-8"?>
<svg xmlns="http://www.w3.org/2000/svg" xmlns:xlink="http://www.w3.org/1999/xlink" id="Group_103987" data-name="Group 103987" width="172.75" height="38.711" viewBox="0 0 172.75 38.711">
  <defs>
    <clipPath id="clip-path">
      <rect id="Rectangle_44064" data-name="Rectangle 44064" width="172.75" height="38.712" fill="#fff"></rect>
    </clipPath>
  </defs>
  <g id="Group_103649" data-name="Group 103649" clip-path="url(#clip-path)">
    <path id="Path_74281" data-name="Path 74281" d="M439.4,28.269c0,2.294-.026,4.588.017,6.882a1.7,1.7,0,0,1-.7,1.47,18.4,18.4,0,0,1-10.455,4.156c-6.324.542-12-.98-16.525-5.658C402.806,25.9,405.534,7.048,420.5,3.442c6.415-1.546,12.347-.5,17.346,4.175.534.5.626.83.089,1.392a40.722,40.722,0,0,0-2.8,3.2c-.488.631-.736.486-1.2.013-5.236-5.316-13.969-4.561-18.036.829-3.227,4.275-3.682,9.105-1.921,14.083a11.358,11.358,0,0,0,8.307,7.494,13.23,13.23,0,0,0,10.019-1.2,1.49,1.49,0,0,0,.925-1.531c-.072-1.781-.049-3.568-.009-5.351.014-.633-.2-.794-.806-.786-2.367.031-4.736-.013-7.1.028-.677.012-.885-.186-.861-.856.047-1.309.033-2.622,0-3.932-.011-.515.146-.689.679-.687q6.776.028,13.551,0c.579,0,.74.175.733.744-.029,2.4-.012,4.806-.012,7.209" transform="translate(-317.733 -2.17)" fill="#fff"></path>
    <path id="Path_74282" data-name="Path 74282" d="M282.384,15.285a10.81,10.81,0,0,1,11.83-1.925c4.344,1.756,6.327,5.393,6.932,9.834a14.724,14.724,0,0,1-2.383,10.814c-3.794,5.415-12.238,6.017-16.613,1.333a4.578,4.578,0,0,0-.254,1.9c-.044.574-.227.824-.859.8-1.273-.05-2.55-.04-3.824,0-.581.017-.819-.106-.818-.761q.029-18.241,0-36.482c0-.62.17-.8.787-.783,1.419.044,2.843.06,4.261,0,.762-.035.966.173.96.948-.039,4.728-.019,9.456-.019,14.334m0,10.085c0,1.126,0,2.253,0,3.379a1.623,1.623,0,0,0,.164.943,6.737,6.737,0,0,0,6.13,3.469,6.141,6.141,0,0,0,5.711-3.674,9.406,9.406,0,0,0,.819-4.99c-.377-4.62-3.8-7.364-8.154-6.556a5.5,5.5,0,0,0-4.672,5.576V25.37" transform="translate(-215.968 0)" fill="#fff"></path>
    <path id="Path_74283" data-name="Path 74283" d="M157.224,70.106c0,7.567-5.476,12.964-13.142,12.96A12.636,12.636,0,0,1,131.016,70.1c.009-7.621,5.563-13.048,13.343-13.037a12.606,12.606,0,0,1,12.864,13.042M151.2,69.92c-.03-.295-.063-.877-.153-1.45a6.961,6.961,0,0,0-10.511-5.079c-2.7,1.671-4,5.385-3.122,8.873a6.839,6.839,0,0,0,8.213,5.34c3.2-.568,5.5-3.622,5.573-7.684" transform="translate(-102.372 -44.588)" fill="#fff"></path>
    <path id="Path_74284" data-name="Path 74284" d="M592.973,71.684c-2.587,0-5.174.048-7.759-.024-1-.028-1.14.326-.982,1.19.647,3.546,3.327,5.123,7.1,4.965a7.169,7.169,0,0,0,5.4-2.462c.33-.39.551-.323.885-.043,1.032.866,2.057,1.742,3.135,2.548.562.42.406.675.021,1.093a12.25,12.25,0,0,1-8.282,3.9,13.444,13.444,0,0,1-9.075-2.021c-4.378-3.023-5.8-7.4-5.334-12.481.514-5.554,3.936-9.759,8.789-11.019,8.242-2.141,14.872,2.954,15.056,11.57.06,2.784.06,2.784-2.725,2.784h-6.23m-2.982-4.305c1.782,0,3.565-.01,5.347.007.486,0,.7-.052.624-.657a5.421,5.421,0,0,0-5.472-5.024,5.876,5.876,0,0,0-6.28,4.859c-.125.756.121.842.763.828,1.672-.036,3.346-.012,5.019-.012" transform="translate(-451.63 -44.415)" fill="#fff"></path>
    <path id="Path_74285" data-name="Path 74285" d="M23.374,20.038c0,4-.026,8.006.005,12.008.061,7.711-6.163,12.23-13.407,11.145C3.914,42.285.17,37.778,0,31.662c-.017-.629.166-.81.787-.793,1.528.041,3.058.036,4.586,0,.542-.012.767.122.8.7a10.415,10.415,0,0,0,.341,2.148,5.064,5.064,0,0,0,5.262,3.875c2.914-.2,4.779-1.787,5.21-4.5a14.757,14.757,0,0,0,.165-2.281c.011-7.933.022-15.865-.014-23.8,0-.859.216-1.111,1.069-1.061a29.262,29.262,0,0,0,3.82,0c1.042-.074,1.4.153,1.379,1.313-.087,4.256-.034,8.514-.034,12.772" transform="translate(0 -4.642)" fill="#fff"></path>
    <path id="Path_74286" data-name="Path 74286" d="M704.818,40.033c0-1.856-.026-3.713.013-5.568.014-.667-.189-.9-.864-.864-1.09.05-2.184,0-3.276.02-.467.01-.651-.149-.643-.626.021-1.274.03-2.548,0-3.821-.015-.553.216-.669.71-.656,1.055.029,2.114-.033,3.167.023.7.037.931-.16.915-.892-.049-2.219.026-4.441-.04-6.659-.026-.855.252-1.041,1.045-1,1.344.066,2.7.059,4.04,0,.742-.032,1,.151.983.944-.056,2.255.008,4.513-.037,6.769-.014.683.184.856.852.841,1.965-.045,3.933.02,5.9-.035.747-.021.928.231.9.925-.051,1.126-.045,2.257,0,3.384.024.621-.178.822-.8.81-1.856-.035-3.718.064-5.569-.041-1.111-.063-1.3.326-1.281,1.337.069,2.946.129,5.9,0,8.842-.207,4.773,3.21,5.566,6.494,4.476.866-.287,1.1-.139,1.309.662a16.9,16.9,0,0,0,.963,2.774c.378.824.043,1.157-.656,1.454a11.339,11.339,0,0,1-9.41.023c-3.382-1.523-4.577-4.49-4.693-7.99-.057-1.709-.01-3.421-.01-5.131" transform="translate(-546.994 -15.614)" fill="#fff"></path>
  </g>
</svg>
