<?xml version="1.0" encoding="UTF-8"?>
<svg xmlns="http://www.w3.org/2000/svg" id="Group_2148" data-name="Group 2148" width="96.522" height="27.797" viewBox="0 0 96.522 27.797">
  <path id="Path_18146" data-name="Path 18146" d="M341.41,559.608a25.193,25.193,0,0,0,7.189-1.346l-1.31,5.632a48.182,48.182,0,0,1-9.47,1.023c-11.333.057-16.211-5.768-16.239-11.815-.023-8.1,8.678-16.169,22.688-15.979a28.063,28.063,0,0,1,7.706,1.2l-1.853,6.646h-.942c-1.154-1.517-2.915-2.659-6.391-2.659-7.09,0-11.489,3.885-11.469,9.072.017,4.682,4.053,8.259,10.093,8.23" transform="translate(-258.658 -537.12)" fill="#fff"></path>
  <path id="Path_18147" data-name="Path 18147" d="M259.579,537.818l-.434,1.761A2.137,2.137,0,0,1,261,542.54l-6.109,22.212,12.215.017.457-1.911s-2.28-.539-1.687-2.654c.045-.185,1.789-6.586,1.789-6.586l5.607-.017c2.782.017,3.7,1.463,3.7,1.463l1.628-6.594h-9.43l1.4-5.182,8.2-.006c1.5,0,2.567,1.006,2.567,1.75h.925l1.806-7.215H259.579" transform="translate(-217.793 -537.547)" fill="#fff"></path>
  <path id="Path_18148" data-name="Path 18148" d="M191.609,560.766c-.726-.767-7.016-10.566-7.016-10.566l11.494-9.2c1.94-1.619,3.31-1.435,3.31-1.435l.454-1.772-14.293.011-.448,1.761c.976.057,2.336.925,1.219,1.96-.139.128-11.483,8.8-11.483,8.8l2.447-8.855a2.825,2.825,0,0,1,2.334-1.9l.448-1.767-13.644.006-.442,1.761a2.138,2.138,0,0,1,1.875,2.972c-4.561,16.454-4.033,14.827-4.333,15.728-1.248,4.745-3.258,4.51-3.984,4.56l-.471,1.911h14.271l.482-1.923s-2.272-.454-1.835-2.1c.426-1.619,2.223-8.095,2.223-8.095a101.56,101.56,0,0,0,6.03,8.559c2.982,4.107,6.162,3.574,14.6,3.574l.471-1.911c-1.8.012-2.982-1.308-3.707-2.073" transform="translate(-159.075 -537.529)" fill="#fff"></path>
  <path id="Path_18149" data-name="Path 18149" d="M402.274,537.657a1.1,1.1,0,0,0,0,1.543,1.04,1.04,0,0,0,.777.341,1.063,1.063,0,0,0,.786-.341,1.112,1.112,0,0,0-.786-1.884,1.087,1.087,0,0,0-.777.341m1.685,1.674a1.23,1.23,0,0,1-.907.377,1.278,1.278,0,0,1,0-2.55,1.247,1.247,0,0,1,.908.372,1.229,1.229,0,0,1,.371.9,1.211,1.211,0,0,1-.372.9m-.67-1.385a.628.628,0,0,0-.295-.045h-.21v.5h.222a.511.511,0,0,0,.233-.034.2.2,0,0,0,.145-.211.216.216,0,0,0-.094-.21m-.261-.222a1.029,1.029,0,0,1,.383.055.331.331,0,0,1,.216.345.284.284,0,0,1-.139.275.41.41,0,0,1-.2.073.323.323,0,0,1,.239.136.408.408,0,0,1,.085.213v.111a.521.521,0,0,0,.006.1c0,.045.005.072.005.085l.011.006H403.4l-.006-.006V539.1l-.005-.06v-.1a.367.367,0,0,0-.134-.332.637.637,0,0,0-.272-.043h-.193v.559h-.25v-1.4Z" transform="translate(-307.808 -537.144)" fill="#fff" fill-rule="evenodd"></path>
</svg>
