<?xml version="1.0" encoding="UTF-8"?>
<svg xmlns="http://www.w3.org/2000/svg" xmlns:xlink="http://www.w3.org/1999/xlink" width="68.79" height="64.548" viewBox="0 0 68.79 64.548">
  <defs>
    <clipPath id="clip-path">
      <rect id="Rectangle_3603" data-name="Rectangle 3603" width="68.79" height="64.548" fill="#fff"></rect>
    </clipPath>
  </defs>
  <g id="Group_2230" data-name="Group 2230" clip-path="url(#clip-path)">
    <path id="Path_18296" data-name="Path 18296" d="M40.046,47.042c-1.295.6-1.8-1.142-2.246-1.956-.619.659-2.373,3.14-4.17,2.371-1.46-.625-.281-3-.08-3.761.3-1.158.01-.39-.452-1.1a1.393,1.393,0,0,1,2.111-.22c.567.709.2,2.062.08,2.918,1.228-.419,2.751-2.206,3.458-3.356.311-.506,1.015-1.21,1.233-.96.567.649.168,1.824.039,2.844-.086.679-.32,3.054.023,3.222M25.927,45.384l2.985-.72c.3-.3,2-5.93,3.19-5.148l.208.5c.1.754-.749,2.828-.754,3.876.629-.188.866-.459,1.386-.178-.183.675-.71.812-1.339,1.26-1.325.943-.037,5.959-3.222,5.281-.332-.071-.32-2.2,0-3.509a15.574,15.574,0,0,0-2.3.765c-.829.262-1.02.43-1.13.84-.068.256-.1.607-.24,1.135-.386,1.468-.791,4.49-2.677,3.662-.308-.219-.406-.358-.48-.965A5.309,5.309,0,0,1,21.64,50.7c.145-.869.42-1.65.6-2.426-.978.015-1.732-.072-2.037-1.112.02-1.226,1.92-1.075,2.91-1.324.759-1.3,1.461-3.841,3.134-5.606,2.454-2.589-.16,4.648-.32,5.162m19.767-5.87c1.143-.093,4.468-1.164,4.749-.7S46.9,40.652,45.88,41c-.96.324-.96.153-1.286,1L42.8,47.052c-.293.87-.24,1.34-1,1.47-1.065-2.063.354-4.818.647-6.659-1.04-.055-1.916-.094-1.875-1.095.034-.815,1.476-.51,2.721-.68.64-.845,1.14-2.01,1.752-2.661.491-.523,1.28-.572,1.253.437a7.244,7.244,0,0,1-.606,1.659m-19.525-.48c-1.695.55-2.251-1.92-.987-4.136.675-1.183,1.76-2.547,2.017-3,.326-.577.13-.733.935-.676,1.1,1.452-.551,4.342-1.287,5.808-.375.748-.811,1.756-.679,2.007m5.777-2.377c3.635-.282,5.266.434,7.146.144.289-.045,2.721-.917,1.964.268a3.1,3.1,0,0,1-.615.467c-2.583,1.427-5.461.407-9.258,1.085-1.248.222-2.817.905-3.233.378-.851-1.076,1.806-3.121,2.812-4.147l2.3-2.361c-.475.058-3.921.741-3.772-.7.05-.491.16-.354.266-.452.439-.337,5.751-.709,6.39-.515a1.885,1.885,0,0,1-.395,1.825c-1.259,1.834-2.974,2.921-3.6,4.007m-13.692.014a20.739,20.739,0,0,0-1.63,3.974c-.442,1.142-1.087,3.54-2.465,3.3-.95-1.22.66-5.613,1.137-6.914a26.151,26.151,0,0,1,2.9-5.649c-.5.021-.916.33-1.292-.053-1.509-1.539,4.961-4.487,7.513-.978,2.321,3.19-2.3,7.171-5.9,6.749ZM50.493,31.97a10.443,10.443,0,0,1,1.68.56c-.075.755-.685.96-1.52,1.091-1.34.212-1.422-.1-2.3-.451a4.949,4.949,0,0,1-4.428,1.472c-.4.954-2.1,1.3-3.441,1.34-.691.021-4.373.232-4.649.151-.5-1.263,1.34-2.589,1.824-3.05.279-.267,2.627-2.213,2.721-2.255-.858-.058-1.84.289-2.784.19-.915-.1-1.635-.806-.918-1.669.2-.1,2.994-.363,3.6-.465,1.08-.181,3.054-.573,3.071.782.012.911-1.29,1.847-1.76,2.332a12.1,12.1,0,0,1-2.113,2,3.051,3.051,0,0,0,1.974.48,8.082,8.082,0,0,0,2-.21c-.386-1.976.418-3.092,2.173-4.321,1.44-1.009,4.015-1.623,5.251-1.25.389,1.42-.658,1.939-.374,3.281m-22.947-1.72c-1.1-2.195,2.85-4.42,3.574-4.009.578.329-.97,2.183-1.232,2.569-.5.733-1.067,1.822-2.342,1.44M40.666,12.891a1.113,1.113,0,0,1,1.386.952l.875,3.484c.362.447,4.321,1.511,5.181,1.812a43.681,43.681,0,0,1,4.866,2.133c.678.331,1.88.911,1.419,1.908-.4.855-1.818.6-2.816.6-12.021,0-20.618,1.054-32.11,2.7-1.045.15-5.446,1.1-6,.526-.806-.838,2.87-2.675,3.5-3.041a43.308,43.308,0,0,1,4.495-2.345c4.816-2.073,3.261-.912,5.832-4.664,1.013-1.478.8-1.555,1.74-1.743ZM25.257,6.682c.122.5-.628.609-1.92,1.133a49.562,49.562,0,0,0-6.194,2.93A25.4,25.4,0,0,0,6.34,24.437c-1.7,5.151-1.666,16.674.594,21.575,1.863,4.044,2.373,4.27,5.186,7.138,2.629,2.681,7.721,5.96,11.474,6.92,1.28.327,2.549.5,3.851.713.768.127,1.394.548,1.009.72-2.747,1.2-11.491-2.285-14.164-4.136-3.526-2.438-5.63-5.273-8.105-8.474-3.049-3.942-3.594,3.669,5.453,10.664,8.3,6.422,21.97,6.183,31.435,1.912,6.933-3.129,12.053-7.579,15.565-14.244a29.682,29.682,0,0,0,2.8-7.071c1.28-5.061.674-13.08-.612-18.081C58.858,14.415,52.766,9.66,46.32,6.78c-4.57-2.046-9.1-1.449-7.294-2.592,1.633-1.03,7.032.98,8.543,1.653a44.411,44.411,0,0,1,6.83,3.97c9.7,6.622,11.666,21.2,8.953,32.092a29.788,29.788,0,0,1-3.09,7.709,32.937,32.937,0,0,1-10.7,10.737c-.574.378-3.168,1.7-2.8,2.418.43.831,3.652-.6,4.174-.887A48.041,48.041,0,0,0,62.521,51.871a27.657,27.657,0,0,0,6-15.534c.68-7.362.166-12.511-2.412-18.764C58.563-.73,39.456-3.133,22.4,3.077A38.7,38.7,0,0,0,11.9,8.69,25.983,25.983,0,0,0,7.72,12.577c-3.325,4-5.1,6.53-6.336,12.509-.441,2.121-.784,7.928.177,9.723.177.33.826,1.252,1.488.792.506-.35.364-1.712.39-2.352A36.2,36.2,0,0,1,3.967,28.3a26.076,26.076,0,0,1,7.256-14.34,20.459,20.459,0,0,1,2.789-2.533c2.332-1.755,10.888-6.2,11.245-4.739M3.921,45.242c.266-.24.131-4.049-.648-5.891-.887-2.089-4.534-1.243-2.82,4.02.4,1.408,2.331,2.9,3.465,1.868m14.34-8.562c1.62-.679,3.134-1.209,3.981-2.438,1.3-1.891-.329-3.121-2.4-3.145-.289,2.221-1.291,3.819-1.587,5.583M45.8,32.588a4.972,4.972,0,0,0,1.927-.684c.572-.341.67-.941.886-1.56A3.392,3.392,0,0,0,45.8,32.584M59.1,59.121V57.928h-.425v-.24h1.14v.24h-.425v1.192Zm.9,0V57.685h.434l.26.979.257-.979h.435v1.436H61.12v-1.13l-.285,1.13h-.278l-.285-1.13v1.13Z" transform="translate(0 0)" fill="#fff" fill-rule="evenodd"></path>
  </g>
</svg>
