<?xml version="1.0" encoding="UTF-8"?>
<svg xmlns="http://www.w3.org/2000/svg" xmlns:xlink="http://www.w3.org/1999/xlink" id="Group_104665" data-name="Group 104665" width="88.937" height="36.021" viewBox="0 0 88.937 36.021">
  <defs>
    <clipPath id="clip-path">
      <rect id="Rectangle_44426" data-name="Rectangle 44426" width="88.937" height="36.021" fill="#fff"></rect>
    </clipPath>
  </defs>
  <g id="Group_104627" data-name="Group 104627" transform="translate(0 0)" clip-path="url(#clip-path)">
    <path id="Path_74471" data-name="Path 74471" d="M190.881,3.674c0,1.064.009,2.128-.005,3.192,0,.363.1.4.39.219a11.075,11.075,0,0,1,3.383-1.49,12.683,12.683,0,0,1,4.828-.217,15.293,15.293,0,0,1,2.45.53,10.548,10.548,0,0,1,1.87.962,9.468,9.468,0,0,1,1.87,1.382,13.375,13.375,0,0,1,2.768,3.622,12.986,12.986,0,0,1,1.169,4.161,12.121,12.121,0,0,1-.094,2.768,14.318,14.318,0,0,1-1.071,3.659,6.348,6.348,0,0,1-.674,1.111,12.534,12.534,0,0,1-4.311,4.048,12.357,12.357,0,0,1-1.971.916,10.662,10.662,0,0,1-5.479.444c-.7-.123-1.39-.387-2.072-.55a8.962,8.962,0,0,1-3.527-1.846,11.689,11.689,0,0,1-4.369-6.747,13.323,13.323,0,0,1-.311-2.818c-.008-5.481,0-10.962-.016-16.442,0-.462.2-.583.569-.579,1.442.015,2.884.048,4.325.065.278,0,.289.163.289.373,0,1.079,0,2.157,0,3.236h-.01m.006,13.447A6.808,6.808,0,0,0,197.7,24a6.514,6.514,0,0,0,4.984-2.29A6.726,6.726,0,0,0,197.271,10.4a6.7,6.7,0,0,0-6.384,6.725" transform="translate(-120.714 0)" fill="#fff"></path>
    <path id="Path_74472" data-name="Path 74472" d="M97.375,24.908c0,3.017.03,6.034-.008,9.05a11.193,11.193,0,0,1-3.549,8.213,12.614,12.614,0,0,1-2.6,2.034,10.125,10.125,0,0,1-3.8,1.35c-.428.046-.852.144-1.281.167-.575.032-.659-.068-.66-.64q0-1.88,0-3.76c0-.1.007-.2,0-.306-.04-.459.076-.661.492-.6a3.152,3.152,0,0,0,.964-.1,6.252,6.252,0,0,0,2.811-1.388c.392-.285.682-.656,1.053-.95.1-.076.254-.185.163-.318-.1-.151-.265-.038-.392.02-.212.1-.418.206-.626.31a9.94,9.94,0,0,1-4.463.847,10.511,10.511,0,0,1-4.909-1.011,12.73,12.73,0,0,1-6.193-6.464,10.48,10.48,0,0,1-.861-4.03c-.032-3.993-.017-7.986-.034-11.979,0-.321.079-.428.413-.424,1.443.017,2.886.02,4.329,0,.376-.006.457.121.456.474-.014,3.862,0,7.724-.022,11.586A7.4,7.4,0,0,0,80.1,31.2c.015.023.044.037.065.058a6.927,6.927,0,0,0,6.875,2.207,6.679,6.679,0,0,0,3.532-2.148,8.48,8.48,0,0,0,1.523-2.779,5.384,5.384,0,0,0,.2-1.784q.022-5.661,0-11.323c0-.368.062-.509.469-.5,1.4.026,2.8.023,4.2,0,.359-.006.429.112.428.443-.012,3.177-.007,6.354-.007,9.531" transform="translate(-47.764 -9.706)" fill="#fff"></path>
    <path id="Path_74473" data-name="Path 74473" d="M23.984,35.786a18.894,18.894,0,0,1-1.8-1.88c-1.332-1.362-2.686-2.7-4.034-4.05Q9.622,21.325,1.086,12.8c-.113-.113-.234-.218-.356-.321a1.658,1.658,0,0,1-.633-1.4C.13,9.18.093,7.285.084,5.391a1.611,1.611,0,0,0,0-.175C.063,5.069-.1,4.883.09,4.787S.4,4.878.524,5C5.805,10.392,11.181,15.688,16.5,21.041a19.847,19.847,0,0,1,2.047,2.07.252.252,0,0,0,.253.125c.111-.03.11-.156.106-.261-.015-.428-.02-.856-.019-1.285.012-4.24,0-8.481,0-12.721,0-.637,0-.637.631-.637,1.312,0,2.624.017,3.935-.01.412-.008.535.084.534.519q-.019,12.5-.006,25.005v1.94" transform="translate(0 -3.096)" fill="#fff"></path>
    <path id="Path_74474" data-name="Path 74474" d="M146.734,32.315c0-2.025-.03-4.05.01-6.074a10.407,10.407,0,0,1,1.1-4.482,12.4,12.4,0,0,1,6.592-6.051,11,11,0,0,1,3.909-.761c.315-.011.4.1.4.4q-.024,2.207-.017,4.414c0,.255-.064.345-.341.357a6.8,6.8,0,0,0-5.424,3.008,5.7,5.7,0,0,0-1.053,3.422q-.018,5.9.008,11.8c0,.426-.133.51-.519.5q-2.1-.029-4.2,0c-.355,0-.475-.088-.472-.461.018-2.025.009-4.05.009-6.075" transform="translate(-95.372 -9.715)" fill="#fff"></path>
    <path id="Path_74475" data-name="Path 74475" d="M247.961,90.121c0-.326.019-.589,0-.848-.025-.278.054-.375.351-.374s.363.084.358.366c-.018.9-.006,1.8-.007,2.7,0,.52-.149.647-.654.5a.73.73,0,0,0-.456-.032,1.145,1.145,0,0,1-1.584-.888,1.631,1.631,0,0,1,.017-.776c.243-.785.763-1.161,1.731-.754l.251.1m0,1.013a.68.68,0,0,0-.707-.743.719.719,0,0,0-.692.725.813.813,0,0,0,.7.872c.424.007.7-.329.695-.854" transform="translate(-159.855 -57.786)" fill="#fff"></path>
    <path id="Path_74476" data-name="Path 74476" d="M153.491,93.463c0-.479,0-.959,0-1.439,0-.1-.048-.3.1-.283.532.078,1.033-.207,1.558-.107a1.078,1.078,0,0,1,.969,1.163,1.34,1.34,0,0,1-.8,1.467.823.823,0,0,1-.7,0c-.423-.2-.439-.177-.442.308a2.036,2.036,0,0,0,0,.261c.037.3-.094.39-.395.4-.327.01-.3-.165-.294-.377.007-.465,0-.93,0-1.4Zm2.012-.592a.646.646,0,0,0-.64-.7.725.725,0,0,0-.671.74.763.763,0,0,0,.642.825c.432.007.67-.3.67-.862" transform="translate(-99.769 -59.55)" fill="#fff"></path>
    <path id="Path_74477" data-name="Path 74477" d="M218.863,93.1a2.673,2.673,0,0,0,.318-.931c.052-.2.094-.495.382-.495.271,0,.406.206.485.464a3.242,3.242,0,0,0,.383.96,6.383,6.383,0,0,1,.4-1.153c.1-.2.233-.362.469-.269s.112.275.063.44c-.184.61-.348,1.226-.541,1.833-.047.148-.1.32-.335.348s-.288-.145-.388-.274a2.6,2.6,0,0,1-.3-.829c-.028-.083.027-.217-.138-.223s-.116.129-.149.211a7.945,7.945,0,0,1-.382.911c-.189.337-.442.324-.629-.018a3.007,3.007,0,0,1-.2-.561c-.148-.476-.273-.959-.443-1.427-.06-.166-.144-.309.054-.394.178-.077.379-.083.471.156.122.318.251.635.35.961a.943.943,0,0,0,.14.289" transform="translate(-141.56 -59.569)" fill="#fff"></path>
    <path id="Path_74478" data-name="Path 74478" d="M173.957,92.949a1.25,1.25,0,0,1,0,.131c-.038.356.137.762-.092,1.059-.25.323-.677.037-1,.143a1.076,1.076,0,0,1-1.325-.4,1.516,1.516,0,0,1-.211-1.388,1.154,1.154,0,0,1,1.291-.841,5.6,5.6,0,0,0,1.007,0c.246,0,.342.1.337.338-.007.32,0,.639,0,.959Zm-.7.028c.028-.643-.3-.736-.734-.8-.328-.045-.664.342-.664.7a.806.806,0,0,0,.687.881.693.693,0,0,0,.712-.785" transform="translate(-111.311 -59.566)" fill="#fff"></path>
    <path id="Path_74479" data-name="Path 74479" d="M197.239,90.635c0-.466,0-.931,0-1.4,0-.149-.048-.323.221-.318.23,0,.412.052.469.285a.71.71,0,0,1-.008.431c-.205.443.109.371.319.311,1.005-.29,1.415.324,1.338,1.248-.028.341-.013.688-.058,1.032-.012.1.115.231-.065.268-.15.031-.328.076-.436-.093a.864.864,0,0,1-.121-.49,5.283,5.283,0,0,0-.062-1.076c-.06-.3-.179-.33-.427-.344-.308-.018-.4.158-.467.4a4.579,4.579,0,0,0-.089,1.247c0,.18.016.359-.24.377s-.332-.142-.341-.352c-.01-.262-.005-.524-.006-.786,0-.247,0-.494,0-.741h-.029" transform="translate(-128.207 -57.799)" fill="#fff"></path>
    <path id="Path_74480" data-name="Path 74480" d="M206.936,93.088c-.262,0-.524,0-.786,0-.309,0-.3.159-.16.356.218.315.549.266.865.248.067,0,.129-.064.2-.073.205-.026.491-.276.59.058.083.281-.186.443-.443.539a1.5,1.5,0,0,1-1.9-.779,1.372,1.372,0,0,1,.7-1.759,1.346,1.346,0,0,1,1.24.06,1.227,1.227,0,0,1,.688,1.065c.01.23-.065.309-.3.29s-.465,0-.7,0m.272-.568a.788.788,0,0,0-1.031-.337c-.1.07-.223.162-.17.318.028.082.1.173.195.128.322-.158.677,0,1.006-.108" transform="translate(-133.378 -59.512)" fill="#fff"></path>
    <path id="Path_74481" data-name="Path 74481" d="M183.288,90.027c-.233.307-.442.612-.683.889-.2.235-.143.391.056.586a4.858,4.858,0,0,1,.82.947c-.622.232-.893-.211-1.225-.537-.177-.174-.263-.572-.539-.483-.3.1.047.393-.015.615s-.008.471-.36.47c-.334,0-.355-.189-.351-.455.013-.931.009-1.863.007-2.795,0-.182-.026-.346.248-.351.228,0,.422.026.432.283a3.613,3.613,0,0,1-.036,1.125c-.048.171-.1.4.02.484.2.133.292-.122.377-.25.289-.437.613-.773,1.249-.531" transform="translate(-117.647 -57.796)" fill="#fff"></path>
    <path id="Path_74482" data-name="Path 74482" d="M163.634,93.091a1.7,1.7,0,0,0-.3,0c-.125.027-.315-.1-.363.119s.113.316.262.4a1.151,1.151,0,0,0,1-.021c.2-.07.39-.139.475.089.077.206-.107.349-.275.43a1.406,1.406,0,0,1-1.993-.556,1.382,1.382,0,0,1,.624-1.866,1.468,1.468,0,0,1,2,1.062c.021.174-.075.259-.22.245-.423-.04-.825.153-1.2.094m-.023-.444c.127,0,.215,0,.3,0,.141,0,.315.033.345-.168s-.152-.262-.3-.321a.725.725,0,0,0-.259-.023c-.269,0-.639-.062-.626.321.011.339.374.131.533.192" transform="translate(-105.478 -59.515)" fill="#fff"></path>
    <path id="Path_74483" data-name="Path 74483" d="M230.666,91.682a1.2,1.2,0,0,1,1.283,1.365A1.384,1.384,0,0,1,230.56,94.4a1.457,1.457,0,0,1-1.324-1.477,1.283,1.283,0,0,1,1.43-1.236m.671,1.276c-.023-.6-.253-.691-.733-.745-.384-.043-.773.427-.751.846.019.366.441.819.752.808a.849.849,0,0,0,.732-.909" transform="translate(-149.007 -59.595)" fill="#fff"></path>
    <path id="Path_74484" data-name="Path 74484" d="M147.628,92.353c.281.19.566.376.842.573a.7.7,0,0,1,.09,1.152,1.133,1.133,0,0,1-1.416.082c-.1-.09-.2-.188-.147-.333s.19-.139.324-.156c.186-.025.334.086.506.1a.255.255,0,0,0,.286-.147.217.217,0,0,0-.14-.282,2.229,2.229,0,0,1-.8-.573.6.6,0,0,1-.156-.632.649.649,0,0,1,.607-.471,1.6,1.6,0,0,1,.886.1.3.3,0,0,1-.227.552,3.925,3.925,0,0,0-.638-.058l-.018.088" transform="translate(-95.539 -59.578)" fill="#fff"></path>
    <path id="Path_74485" data-name="Path 74485" d="M192.624,88.928c.346-.044.388.183.382.428a.694.694,0,0,0,.243.654.248.248,0,0,1,0,.373c-.292.228-.241.534-.239.835a4.524,4.524,0,0,0,.009.827c.082.412-.236.42-.448.449-.336.045-.236-.26-.245-.436-.018-.348-.009-.7,0-1.046,0-.246.026-.484-.254-.627a.2.2,0,0,1-.027-.36.747.747,0,0,0,.267-.771c-.02-.241.073-.362.317-.327" transform="translate(-124.765 -57.8)" fill="#fff"></path>
    <path id="Path_74486" data-name="Path 74486" d="M243.667,90.738c0,.436,0,.872,0,1.308,0,.231,0,.455-.347.467s-.356-.188-.354-.443c.006-.932,0-1.864,0-2.8,0-.151-.088-.36.219-.359.259,0,.465.029.47.341.007.494,0,.988,0,1.482h.007" transform="translate(-157.926 -57.796)" fill="#fff"></path>
    <path id="Path_74487" data-name="Path 74487" d="M238.274,92.813c0-.174,0-.349,0-.523,0-.675,0-.714.643-.751.228-.013.565-.281.693.013.12.274-.256.4-.441.554a.507.507,0,0,0-.221.456c.014.435-.013.872-.007,1.308,0,.213-.084.288-.285.264-.182-.021-.392.007-.391-.275,0-.348,0-.7,0-1.045h.008" transform="translate(-154.876 -59.421)" fill="#fff"></path>
  </g>
</svg>
